<svg width="86" height="94" viewBox="0 0 86 94" fill="none" xmlns="http://www.w3.org/2000/svg">
<g opacity="0.2">
<path d="M42.9345 58.5391C42.9345 58.5391 43.122 65.7642 39.2073 69.3783C35.2911 72.9924 18.3438 92.0017 18.3438 92.0017" stroke="#F17096" stroke-width="3" stroke-miterlimit="1.41421" stroke-linecap="round" stroke-linejoin="round"/>
<path d="M42.9976 7.625V58.3712C42.9976 58.3712 42.8086 65.5963 46.7232 69.2104C50.6378 72.8245 67.5853 91.8338 67.5853 91.8338" stroke="#F17096" stroke-width="3" stroke-miterlimit="1.41421" stroke-linecap="round" stroke-linejoin="round"/>
<path d="M42.933 58.5391C42.933 58.5391 43.122 65.7642 39.2089 69.3783C35.2927 72.9924 18.3438 92.0017 18.3438 92.0017" stroke="#F17096" stroke-width="3" stroke-miterlimit="1.41421" stroke-linecap="round" stroke-linejoin="round"/>
<path d="M16.6016 11.6898C18.7781 8.64885 20.9732 6.13461 22.7392 4.113C23.4348 3.31366 24.0544 2.60726 24.5455 2" stroke="#F17096" stroke-width="3" stroke-miterlimit="1.41421" stroke-linecap="round" stroke-linejoin="round"/>
<path d="M23.9727 16.9073C26.82 12.9338 29.9011 9.7442 31.6083 7.625" stroke="#F17096" stroke-width="3" stroke-miterlimit="1.41421" stroke-linecap="round" stroke-linejoin="round"/>
<path d="M2 19.8256C3.13861 13.4959 7.52883 6.87338 11.2003 3.60938" stroke="#F17096" stroke-width="3" stroke-miterlimit="1.41421" stroke-linecap="round" stroke-linejoin="round"/>
<path d="M10.3355 59.5558C8.3464 55.7791 4.19011 32.5546 12.3245 18.6094" stroke="#F17096" stroke-width="3" stroke-miterlimit="1.41421" stroke-linecap="round" stroke-linejoin="round"/>
<path d="M18.6314 51.9546C16.5865 43.7489 16.5865 31.5279 20.4733 22.6328" stroke="#F17096" stroke-width="3" stroke-miterlimit="1.41421" stroke-linecap="round" stroke-linejoin="round"/>
<path d="M69.6962 11.6898C67.5213 8.64885 65.3262 6.13461 63.5586 4.113C62.863 3.31366 62.2419 2.60726 61.7539 2" stroke="#F17096" stroke-width="3" stroke-miterlimit="1.41421" stroke-linecap="round" stroke-linejoin="round"/>
<path d="M62.2911 16.9073C59.4422 12.9338 56.361 9.7442 54.6523 7.625" stroke="#F17096" stroke-width="3" stroke-miterlimit="1.41421" stroke-linecap="round" stroke-linejoin="round"/>
<path d="M84.2159 19.8256C83.0773 13.4959 78.6886 6.87338 75.0156 3.60938" stroke="#F17096" stroke-width="3" stroke-miterlimit="1.41421" stroke-linecap="round" stroke-linejoin="round"/>
<path d="M75.7992 59.5558C77.7883 55.7791 81.9446 32.5546 73.8086 18.6094" stroke="#F17096" stroke-width="3" stroke-miterlimit="1.41421" stroke-linecap="round" stroke-linejoin="round"/>
<path d="M67.6169 51.9546C69.6618 43.7489 69.6617 31.5279 65.7734 22.6328" stroke="#F17096" stroke-width="3" stroke-miterlimit="1.41421" stroke-linecap="round" stroke-linejoin="round"/>
<path d="M2 76.3016C2 76.3016 22.5677 62.9838 26.7302 58.3813C30.8896 53.7804 28.2391 44.1449 27.8053 34.4412C27.3731 24.7344 39.8838 9.42129 39.8838 9.42129C39.8838 9.42129 42.2648 5.37963 45.9533 9.42129C45.9533 9.42129 58.4625 24.7344 58.0318 34.4412C57.6011 44.1449 54.9475 53.7804 59.1085 58.3813C63.271 62.9838 83.8356 76.3016 83.8356 76.3016" stroke="#F17096" stroke-width="3" stroke-miterlimit="1.41421" stroke-linecap="round" stroke-linejoin="round"/>
</g>
</svg>
