<svg width="43" height="42" viewBox="0 0 43 42" fill="none" xmlns="http://www.w3.org/2000/svg">
<path d="M23.4922 6.75459C23.5866 8.06892 24.1223 9.2866 25.0139 10.2537C24.418 12.7099 23.4979 14.9721 22.2749 16.9818C22.0831 17.2969 22.1816 17.7086 22.4949 17.9015C22.81 18.0955 23.2187 17.9932 23.4093 17.6802C24.5972 15.7283 25.5149 13.5562 26.1437 11.2107C26.4769 11.4282 26.8298 11.6107 27.1955 11.7559L27.5663 12.0353L26.5895 13.0177C26.1693 13.4402 26.4726 14.1594 27.0598 14.1594C27.2299 14.1594 27.4002 14.0941 27.53 13.9636C34.4405 7.01367 22.1247 19.3997 36.0559 5.38909C37.3095 4.12826 38 2.45193 38 0.668829C38 0.299468 37.7022 0 37.335 0C36.9677 0 36.6699 0.299468 36.6699 0.668829C36.6699 2.0946 36.1179 3.4351 35.1154 4.44328L32.2275 7.34767C32.2275 5.7944 32.3411 4.90812 31.6666 3.71342C30.5232 1.68695 27.9346 0.940708 25.8452 1.99796C24.8445 0.277982 22.2394 0.512992 21.5784 2.39491L21.1323 3.66928C20.5838 5.22999 21.8122 6.84922 23.4922 6.75459ZM30.2963 4.05076C29.6712 4.9276 28.6615 5.44209 27.5807 5.45681C26.61 5.47043 26.6754 6.79605 27.533 6.79605C28.7802 6.79605 29.9863 6.30672 30.8711 5.42888C30.9065 5.68939 30.8973 5.52369 30.8973 8.68516L28.7903 10.8042C27.923 10.6853 27.1382 10.3335 26.5056 9.8266L27.0653 8.42967C27.2153 8.05512 27.0037 7.62172 26.5954 7.52817C26.2824 7.45627 25.9551 7.62072 25.8314 7.92972L25.5112 8.72897C25.0542 8.02009 24.8055 7.20053 24.8055 6.33439C24.8055 6.24929 24.7961 6.27228 24.8524 6.22629C25.2066 5.93778 25.4495 5.56633 25.581 5.19337C26.0267 3.92101 26.1153 3.73031 26.1486 3.36237C27.4819 2.48913 29.3128 2.76377 30.2963 4.05076ZM22.3865 4.11405L22.8326 2.8396C22.9776 2.42676 23.3756 2.16751 23.8024 2.16751C24.5006 2.16751 24.999 2.82948 24.7727 3.47482C24.3394 4.71198 24.3108 5.03335 23.8853 5.27831C23.0352 5.76062 22.0891 4.96095 22.3865 4.11405Z" fill="#FF668E"/>
<path d="M42.3282 40.6616H36.2539C36.0103 39.6731 35.2378 38.8753 34.2104 38.6195L32.7496 38.2555L34.596 29.3358C34.9503 27.6219 33.974 25.8768 32.2838 25.2949C28.1528 23.8669 29.5657 24.4991 25.7656 23.6347C27.088 22.8341 28.9095 21.6884 29.478 21.1221C30.1437 20.458 32.17 18.4369 32.17 16.5038C32.17 15.9589 32.0047 15.3584 31.6782 14.7136L42.2856 4.14761C42.7463 3.68878 43 3.07863 43 2.42966C43 0.278807 40.3685 -0.814604 38.8363 0.711704C38.5739 0.973032 38.5739 1.39673 38.8363 1.65806C39.0986 1.91938 39.524 1.91938 39.7864 1.65806C40.4748 0.972446 41.6563 1.4639 41.6563 2.42958C41.6563 2.72102 41.5424 2.99498 41.3355 3.20109L28.9736 15.5149C28.5491 15.9376 28.8555 16.6573 29.4486 16.6573C29.813 16.6573 29.9188 16.4662 30.66 15.7279C30.7686 16.0149 30.8263 16.2773 30.8263 16.5038C30.8263 17.419 30.0528 18.6547 28.5239 20.1797C27.9798 20.7216 25.5087 22.2457 23.8575 23.2122L21.5846 22.9293C21.2163 22.883 20.8807 23.1435 20.8347 23.5103C20.7887 23.877 21.0499 24.2115 21.418 24.2573L23.8785 24.5637C29.5924 25.9594 27.344 25.019 31.8545 26.5633C32.8882 26.9216 33.5011 27.9975 33.2803 29.0656L32.4259 33.1931H30.2272L30.5819 30.0961C30.6246 29.7234 30.3509 29.3878 29.9751 29.3538C21.9568 28.6292 22.7085 29.5089 19.9571 28.5548C19.7767 28.4942 19.503 28.3881 19.311 28.2892C17.6685 27.4423 17.3153 24.9898 17.8343 23.6109C18.4705 23.1624 19.1044 22.6433 19.7188 22.0671C19.9889 21.8137 20.0017 21.3902 19.7473 21.121C19.493 20.852 19.0679 20.8393 18.7976 21.0926C18.1048 21.7424 17.2388 22.4102 17.1839 22.4228C17.0148 22.4621 16.9678 22.5174 16.2993 22.9548C14.6289 24.0481 14.9529 23.8356 6.28995 31.0888L1.04308 34.5757C0.124514 35.1861 -0.238361 36.3288 0.160625 37.3545C1.24824 40.1501 1.24665 40.2343 1.54948 40.6616H0.674328C0.303306 40.6616 0.00249181 40.9612 0.00249181 41.3308C0.00249181 41.7004 0.303306 42 0.674328 42H42.3282C42.6992 42 43 41.7004 43 41.3308C43 40.9612 42.6992 40.6616 42.3282 40.6616ZM16.2742 24.5829C16.1663 26.2753 16.8108 28.1712 18.2152 29.1826C15.7169 30.3405 12.3646 31.6692 8.25255 33.7816L7.49313 31.8298C14.1493 26.2557 15.2618 25.2894 16.2742 24.5829ZM1.78882 35.6892L6.36931 32.6451L7.0718 34.4506L3.95348 36.4288C3.72472 36.5739 3.60597 36.8419 3.65249 37.108L4.27235 40.6562C3.4926 40.7123 2.7325 40.2614 2.43563 39.4983L1.41352 36.8709C1.24379 36.4347 1.39815 35.9487 1.78882 35.6892ZM5.05302 37.3181C8.10786 35.3802 8.56487 34.892 16.1826 31.5551C17.5561 30.9535 18.7543 30.4277 19.7956 29.9107C22.5541 30.7832 22.3574 30.0467 29.1687 30.6265C28.1909 39.1626 28.4344 37.5015 28.0317 39.1062C27.8987 39.6358 27.9552 40.181 28.1832 40.6615H5.6371L5.05302 37.3181ZM30.2998 40.6616C29.6533 40.6616 29.1781 40.0567 29.3352 39.431C29.7658 37.715 29.5786 38.8541 30.0737 34.5317H32.1486L31.3036 38.6139C31.2309 38.9652 31.4491 39.3112 31.7986 39.3982L33.8844 39.9179C34.3032 40.0222 34.6409 40.2993 34.829 40.6616H30.2998Z" fill="#FF668E"/>
</svg>
