<svg width="96" height="98" viewBox="0 0 96 98" fill="none" xmlns="http://www.w3.org/2000/svg">
<g opacity="0.2">
<path d="M29.3398 45.8706C31.0878 35.1813 38.7682 27.125 47.9624 27.125C57.1584 27.125 64.837 35.1813 66.597 45.8706" stroke="#F17096" stroke-width="3" stroke-miterlimit="1.41421" stroke-linecap="round" stroke-linejoin="round"/>
<path d="M66.1466 57.2656C63.8604 67.0203 56.5508 74.1539 47.888 74.1539C39.2303 74.1539 31.9207 67.0254 29.6328 57.2759" stroke="#F17096" stroke-width="3" stroke-miterlimit="1.41421" stroke-linecap="round" stroke-linejoin="round"/>
<path d="M27.8308 68.2031C27.8308 68.2031 -0.595999 78.8651 2.19251 87.7467C2.19251 87.7467 3.97123 100.946 19.7079 93.5851L38.655 84.1995C38.655 84.1995 46.9557 77.6725 57.3477 84.1995L76.2932 93.5851C92.0315 100.946 93.8068 87.7467 93.8068 87.7467C96.6004 78.8651 68.1736 68.2031 68.1736 68.2031" stroke="#F17096" stroke-width="3" stroke-miterlimit="1.41421" stroke-linecap="round" stroke-linejoin="round"/>
<path fill-rule="evenodd" clip-rule="evenodd" d="M55.4992 15.6636C55.4992 19.872 52.0904 23.2808 47.8855 23.2808C43.6839 23.2808 40.2734 19.872 40.2734 15.6636V9.91062C40.2734 5.70564 43.6839 2.29688 47.8855 2.29688C52.0904 2.29688 55.4992 5.70564 55.4992 9.91062V15.6636Z" stroke="#F17096" stroke-width="3" stroke-miterlimit="1.41421" stroke-linecap="round" stroke-linejoin="round"/>
<path d="M29.3759 46.0391C29.3759 46.0391 26.9087 54.2354 21.5674 56.279C12.8379 59.6211 5.4583 55.2999 2 50.6797" stroke="#F17096" stroke-width="3" stroke-miterlimit="1.41421" stroke-linecap="round" stroke-linejoin="round"/>
<path d="M2.14844 31.5547H10.9189C10.9189 31.5547 15.968 32.0963 16.5113 36.6054C16.5113 36.6054 18.8026 55.6501 25.9584 52.7146" stroke="#F17096" stroke-width="3" stroke-miterlimit="1.41421" stroke-linecap="round" stroke-linejoin="round"/>
<path d="M66.5742 46.0391C66.5742 46.0391 68.9954 54.2354 74.3366 56.279C83.0644 59.6211 90.444 55.2999 93.9023 50.6797" stroke="#F17096" stroke-width="3" stroke-miterlimit="1.41421" stroke-linecap="round" stroke-linejoin="round"/>
<path d="M93.633 31.5547H84.8659C84.8659 31.5547 79.8134 32.0963 79.2735 36.6054C79.2735 36.6054 76.9788 55.6501 69.8281 52.7146" stroke="#F17096" stroke-width="3" stroke-miterlimit="1.41421" stroke-linecap="round" stroke-linejoin="round"/>
<path d="M5.25 18.8438L25.9878 33.7927" stroke="#F17096" stroke-width="3" stroke-miterlimit="1.41421" stroke-linecap="round" stroke-linejoin="round"/>
<path d="M14.4141 12.9375L30.448 27.1859" stroke="#F17096" stroke-width="3" stroke-miterlimit="1.41421" stroke-linecap="round" stroke-linejoin="round"/>
<path d="M2.14844 2L9.39311 8.43647" stroke="#F17096" stroke-width="3" stroke-miterlimit="1.41421" stroke-linecap="round" stroke-linejoin="round"/>
<path d="M23.2812 5.25L35.0658 22.3297" stroke="#F17096" stroke-width="3" stroke-miterlimit="1.41421" stroke-linecap="round" stroke-linejoin="round"/>
<path d="M89.9744 18.8438L69.2383 33.7927" stroke="#F17096" stroke-width="3" stroke-miterlimit="1.41421" stroke-linecap="round" stroke-linejoin="round"/>
<path d="M80.6885 12.9375L64.6562 27.1859" stroke="#F17096" stroke-width="3" stroke-miterlimit="1.41421" stroke-linecap="round" stroke-linejoin="round"/>
<path d="M93.023 2L85.7852 8.43647" stroke="#F17096" stroke-width="3" stroke-miterlimit="1.41421" stroke-linecap="round" stroke-linejoin="round"/>
<path d="M71.8571 5.25L60.0742 22.3297" stroke="#F17096" stroke-width="3" stroke-miterlimit="1.41421" stroke-linecap="round" stroke-linejoin="round"/>
</g>
</svg>
