<svg width="50" height="75" viewBox="0 0 50 75" fill="none" xmlns="http://www.w3.org/2000/svg">
<mask id="path-1-inside-1" fill="white">
<path fill-rule="evenodd" clip-rule="evenodd" d="M46.688 37.7506C47.8114 38.8833 48.1496 39.3398 48.7274 40.503C49.6666 42.3946 50 43.7981 50 45.861C50 48.4772 49.112 51.1792 47.7965 52.5657C47.193 53.2017 46.842 53.2616 46.2862 52.8231C45.7454 52.3967 45.7852 51.8174 46.4272 50.7746C47.3565 49.2652 47.6908 48.1305 47.7668 46.228C47.8864 43.2311 47.1104 41.2524 44.9921 39.1537C43.9012 38.0728 43.7042 37.8052 43.7042 37.4037C43.7042 36.7371 44.0656 36.3927 44.765 36.3927C45.2969 36.3927 45.4444 36.4968 46.688 37.7506ZM4.37262 40.5137C4.96427 40.9802 4.89737 41.6248 4.16603 42.5054C3.4407 43.3789 2.64202 44.9765 2.3448 46.1488C2.22284 46.63 2.12299 47.6565 2.12299 48.43C2.12299 50.8612 2.87262 52.855 4.45754 54.6391C5.11698 55.3813 5.34407 55.748 5.34407 56.0704C5.34407 56.6519 4.88126 57.0909 4.26823 57.0909C3.86164 57.0909 3.63968 56.9454 2.96618 56.2374C2.00117 55.2231 1.25886 54.0961 0.767936 52.8996C0.108785 51.2937 0 50.6604 0 48.43C0 46.2026 0.109078 45.5658 0.763983 43.9697C1.50659 42.1597 3.03675 40.2094 3.7142 40.2094C3.86413 40.2094 4.16047 40.3464 4.37262 40.5137ZM41.9518 42.2095C42.3499 42.583 42.8578 43.2601 43.0802 43.7142C43.8376 45.2607 43.5614 47.6994 42.5003 48.8319C41.8779 49.496 40.6296 49.086 40.6296 48.2176C40.6296 48.02 40.7943 47.5477 40.9956 47.1681C41.6351 45.9622 41.4217 44.8222 40.335 43.6402C40.0138 43.2908 39.7511 42.9077 39.7511 42.7885C39.7511 42.4003 40.0704 41.8575 40.39 41.7023C40.9473 41.4318 41.2152 41.5188 41.9518 42.2095ZM9.00952 44.8361C9.56442 45.1238 9.70629 45.6765 9.38009 46.2803C9.24304 46.5341 9.00366 46.973 8.84817 47.2556C8.5388 47.8181 8.4798 48.773 8.71596 49.3957C8.79883 49.6145 9.06237 50.0411 9.30161 50.3439C9.86091 51.052 9.87848 51.673 9.35066 52.0892C8.77189 52.5457 8.31171 52.4764 7.71581 51.843C6.56457 50.6193 6.07262 48.5195 6.57906 46.9906C6.88184 46.0768 7.53807 45.0726 8.00044 44.8156C8.44422 44.5688 8.49605 44.5698 9.00952 44.8361Z"/>
<path fill-rule="evenodd" clip-rule="evenodd" d="M12.8843 74.9008C12.0227 74.7089 11.2182 74.2362 9.27467 72.7799C7.78843 71.6663 7.05739 71.0205 6.89546 70.6785C6.38023 69.59 6.4205 69.4687 10.3221 60.3439C12.6444 54.9126 13.9824 51.6059 13.9824 51.2981C13.9824 51.0313 13.7827 49.1063 13.5387 47.0203C13.102 43.2893 13.0993 43.2217 13.3703 42.8561C13.8015 42.2747 14.8416 42.267 15.149 42.8429C15.2316 42.9978 15.5277 45.0943 15.807 47.5021L16.3146 51.8797L13.6633 58.0963L11.0119 64.313L12.323 65.6274L13.634 66.9419L17.4922 60.2915C19.6143 56.6339 21.3739 53.5962 21.4026 53.541C21.4312 53.4858 21.5145 53.1224 21.5876 52.7336C21.6924 52.1758 21.6097 51.236 21.1962 48.2832L20.6719 44.5399L16.7704 40.5764C13.4404 37.1932 12.7919 36.4624 12.3417 35.5853C10.9625 32.8977 10.8745 30.1931 12.0821 27.6057C12.7934 26.0819 22.7918 11.8634 23.7613 10.9969C24.6938 10.1637 26.1221 9.37496 27.3792 8.99931C28.5687 8.64377 30.875 8.64377 32.0644 8.99931C34.2066 9.63964 35.9575 10.9518 36.6523 12.4377L37.0425 13.2724L37.0195 29.4933C37.0069 38.4148 36.9892 46.3418 36.9802 47.1088C36.9712 47.8758 36.7015 52.9457 36.381 58.3754C36.0603 63.8049 35.798 68.2691 35.798 68.2958C35.798 68.3225 36.6545 69.4897 37.7013 70.8897C39.7556 73.6369 39.9072 73.9977 39.2864 74.6603L38.9679 75L28.6239 74.8352C28.1461 74.6442 27.6312 74.1552 27.3287 73.6054C27.1102 73.2085 27.0823 72.0654 27.0454 62.0021L27.0045 50.8392L25.0969 48.9373C23.6971 47.5417 23.2105 47.1332 23.2691 47.4024C23.313 47.6042 23.4761 48.7272 23.6315 49.8979C23.9218 52.0853 23.8898 53.0225 23.4858 54.155C23.3849 54.4376 21.5019 57.7666 19.3013 61.5528C17.1007 65.3391 15.3001 68.4776 15.3001 68.5273C15.3001 68.577 16.3873 69.7063 17.716 71.0365C19.83 73.1532 20.1318 73.5138 20.1318 73.9234C20.1318 74.2543 20.0186 74.4808 19.746 74.6957L19.3602 75L12.8843 74.9008ZM26.7671 11.5603C27.0858 11.3972 27.7493 11.1761 28.2414 11.0687C29.3734 10.8219 29.8231 10.8118 30.9028 11.0088C32.6693 11.3313 34.3772 12.4914 34.7536 13.6246C34.863 13.9537 34.9195 15.6903 34.9195 18.7257V23.3279H32.5037C30.6691 23.3279 30.0877 23.2837 30.087 23.1444C30.0864 23.0436 29.8905 21.4156 29.6515 19.5269C29.1719 15.7371 29.1034 15.5477 28.21 15.5477C27.4805 15.5477 27.1596 15.8933 27.1596 16.6788C27.1596 17.0337 27.7221 21.829 28.4095 27.335C29.0971 32.841 29.6406 37.4583 29.6174 37.5956C29.5895 37.7622 28.7574 36.9438 27.1184 35.1373C25.7671 33.6481 24.6283 32.3425 24.5874 32.2362C24.5467 32.1298 25.0742 31.3281 25.7597 30.4545C26.4452 29.5811 27.0466 28.7384 27.096 28.5819C27.2267 28.1697 26.905 27.5028 26.4824 27.3097C25.8088 27.002 25.4751 27.2478 23.9981 29.1401C22.8272 30.6401 22.5095 30.9611 22.196 30.9601C21.9868 30.9595 20.0037 30.7289 17.7892 30.4475C15.5747 30.1661 13.7187 29.9355 13.6649 29.9349C13.5373 29.9334 13.8059 28.9572 14.0892 28.3924C14.2105 28.1501 16.6548 24.5902 19.5208 20.4812C24.8981 12.772 25.2534 12.3345 26.7671 11.5603ZM31.7015 35.9523C31.0577 30.7448 30.494 26.2692 30.4491 26.0069L30.3673 25.5298H32.6464H34.9255L34.8858 35.5068C34.8837 36.0421 34.8818 36.5496 34.88 37.0309L34.88 37.0373C34.8516 44.602 34.8476 45.6612 34.4018 45.9036C34.3292 45.9431 34.2449 45.9609 34.1469 45.9816C34.1084 45.9898 34.0679 45.9984 34.025 46.0089C33.7435 46.078 33.5416 46.013 33.2575 45.7617C32.8753 45.4234 32.8627 45.3436 31.7015 35.9523ZM14.1551 34.3299C13.9061 33.801 13.657 33.0835 13.6015 32.7355L13.5004 32.1026L14.0709 32.1925C14.3846 32.2419 16.2884 32.4809 18.3016 32.7236C20.3148 32.9664 22.101 33.2142 22.271 33.2742C22.5731 33.3809 30.2343 41.7221 30.2343 41.9442C30.2343 42.4078 30.717 45.6687 30.8448 46.0689C30.9329 46.3447 31.2691 46.8575 31.5917 47.2083C32.281 47.9582 33.3843 48.3649 34.2745 48.1974L34.8167 48.0956L34.7243 49.327C34.6735 50.0044 34.4302 54.1587 34.1835 58.5589C33.9367 62.9591 33.7021 66.7739 33.6618 67.0363L33.5884 67.5134H31.399H29.2094V58.7482V49.9831L21.9086 42.6374C15.275 35.9629 14.5665 35.2038 14.1551 34.3299ZM8.85769 69.5273C8.85754 69.4289 9.13324 68.7006 9.47028 67.9087L10.0832 66.469L13.206 69.5969L16.3287 72.7247L14.8701 72.7664C13.8416 72.7959 13.2608 72.7451 12.9004 72.5942C12.2256 72.3113 8.85798 69.7567 8.85769 69.5273ZM29.2826 72.7247L29.2408 71.22L29.1991 69.7154L31.6567 69.7217L34.1142 69.7278L35.2531 71.2655L36.3921 72.8034L32.8373 72.764L29.2826 72.7247Z"/>
<path fill-rule="evenodd" clip-rule="evenodd" d="M43.1558 0C44.0633 0.214322 45.0794 0.806936 45.8053 1.54532C47.1744 2.93768 47.7505 4.91032 47.3102 6.69873C46.8474 8.57933 45.8145 9.83898 44.06 10.6628C43.3019 11.0188 43.0155 11.0705 41.8009 11.0705C40.5962 11.0705 40.2972 11.0175 39.5676 10.6747C38.3893 10.1211 37.2468 8.99271 36.7312 7.87354C36.3565 7.06029 36.3104 6.79929 36.3104 5.49222C36.3104 4.20937 36.3596 3.91915 36.6999 3.19119C37.1347 2.26124 38.0611 1.17892 38.8299 0.702564C39.1088 0.529639 39.7103 0.268489 40.1663 0.122281L43.1558 0ZM38.4366 5.52422C38.4312 4.07769 39.1119 2.99317 40.404 2.38998C42.6618 1.33584 45.2054 2.97335 45.2231 5.49222C45.2306 6.55252 44.8748 7.32202 44.018 8.09813C42.7679 9.23037 40.9136 9.22391 39.5837 8.08243C38.8037 7.41304 38.4407 6.60361 38.4366 5.52422Z"/>
</mask>
<path fill-rule="evenodd" clip-rule="evenodd" d="M46.688 37.7506C47.8114 38.8833 48.1496 39.3398 48.7274 40.503C49.6666 42.3946 50 43.7981 50 45.861C50 48.4772 49.112 51.1792 47.7965 52.5657C47.193 53.2017 46.842 53.2616 46.2862 52.8231C45.7454 52.3967 45.7852 51.8174 46.4272 50.7746C47.3565 49.2652 47.6908 48.1305 47.7668 46.228C47.8864 43.2311 47.1104 41.2524 44.9921 39.1537C43.9012 38.0728 43.7042 37.8052 43.7042 37.4037C43.7042 36.7371 44.0656 36.3927 44.765 36.3927C45.2969 36.3927 45.4444 36.4968 46.688 37.7506ZM4.37262 40.5137C4.96427 40.9802 4.89737 41.6248 4.16603 42.5054C3.4407 43.3789 2.64202 44.9765 2.3448 46.1488C2.22284 46.63 2.12299 47.6565 2.12299 48.43C2.12299 50.8612 2.87262 52.855 4.45754 54.6391C5.11698 55.3813 5.34407 55.748 5.34407 56.0704C5.34407 56.6519 4.88126 57.0909 4.26823 57.0909C3.86164 57.0909 3.63968 56.9454 2.96618 56.2374C2.00117 55.2231 1.25886 54.0961 0.767936 52.8996C0.108785 51.2937 0 50.6604 0 48.43C0 46.2026 0.109078 45.5658 0.763983 43.9697C1.50659 42.1597 3.03675 40.2094 3.7142 40.2094C3.86413 40.2094 4.16047 40.3464 4.37262 40.5137ZM41.9518 42.2095C42.3499 42.583 42.8578 43.2601 43.0802 43.7142C43.8376 45.2607 43.5614 47.6994 42.5003 48.8319C41.8779 49.496 40.6296 49.086 40.6296 48.2176C40.6296 48.02 40.7943 47.5477 40.9956 47.1681C41.6351 45.9622 41.4217 44.8222 40.335 43.6402C40.0138 43.2908 39.7511 42.9077 39.7511 42.7885C39.7511 42.4003 40.0704 41.8575 40.39 41.7023C40.9473 41.4318 41.2152 41.5188 41.9518 42.2095ZM9.00952 44.8361C9.56442 45.1238 9.70629 45.6765 9.38009 46.2803C9.24304 46.5341 9.00366 46.973 8.84817 47.2556C8.5388 47.8181 8.4798 48.773 8.71596 49.3957C8.79883 49.6145 9.06237 50.0411 9.30161 50.3439C9.86091 51.052 9.87848 51.673 9.35066 52.0892C8.77189 52.5457 8.31171 52.4764 7.71581 51.843C6.56457 50.6193 6.07262 48.5195 6.57906 46.9906C6.88184 46.0768 7.53807 45.0726 8.00044 44.8156C8.44422 44.5688 8.49605 44.5698 9.00952 44.8361Z" fill="#FF668E"/>
<path fill-rule="evenodd" clip-rule="evenodd" d="M12.8843 74.9008C12.0227 74.7089 11.2182 74.2362 9.27467 72.7799C7.78843 71.6663 7.05739 71.0205 6.89546 70.6785C6.38023 69.59 6.4205 69.4687 10.3221 60.3439C12.6444 54.9126 13.9824 51.6059 13.9824 51.2981C13.9824 51.0313 13.7827 49.1063 13.5387 47.0203C13.102 43.2893 13.0993 43.2217 13.3703 42.8561C13.8015 42.2747 14.8416 42.267 15.149 42.8429C15.2316 42.9978 15.5277 45.0943 15.807 47.5021L16.3146 51.8797L13.6633 58.0963L11.0119 64.313L12.323 65.6274L13.634 66.9419L17.4922 60.2915C19.6143 56.6339 21.3739 53.5962 21.4026 53.541C21.4312 53.4858 21.5145 53.1224 21.5876 52.7336C21.6924 52.1758 21.6097 51.236 21.1962 48.2832L20.6719 44.5399L16.7704 40.5764C13.4404 37.1932 12.7919 36.4624 12.3417 35.5853C10.9625 32.8977 10.8745 30.1931 12.0821 27.6057C12.7934 26.0819 22.7918 11.8634 23.7613 10.9969C24.6938 10.1637 26.1221 9.37496 27.3792 8.99931C28.5687 8.64377 30.875 8.64377 32.0644 8.99931C34.2066 9.63964 35.9575 10.9518 36.6523 12.4377L37.0425 13.2724L37.0195 29.4933C37.0069 38.4148 36.9892 46.3418 36.9802 47.1088C36.9712 47.8758 36.7015 52.9457 36.381 58.3754C36.0603 63.8049 35.798 68.2691 35.798 68.2958C35.798 68.3225 36.6545 69.4897 37.7013 70.8897C39.7556 73.6369 39.9072 73.9977 39.2864 74.6603L38.9679 75L28.6239 74.8352C28.1461 74.6442 27.6312 74.1552 27.3287 73.6054C27.1102 73.2085 27.0823 72.0654 27.0454 62.0021L27.0045 50.8392L25.0969 48.9373C23.6971 47.5417 23.2105 47.1332 23.2691 47.4024C23.313 47.6042 23.4761 48.7272 23.6315 49.8979C23.9218 52.0853 23.8898 53.0225 23.4858 54.155C23.3849 54.4376 21.5019 57.7666 19.3013 61.5528C17.1007 65.3391 15.3001 68.4776 15.3001 68.5273C15.3001 68.577 16.3873 69.7063 17.716 71.0365C19.83 73.1532 20.1318 73.5138 20.1318 73.9234C20.1318 74.2543 20.0186 74.4808 19.746 74.6957L19.3602 75L12.8843 74.9008ZM26.7671 11.5603C27.0858 11.3972 27.7493 11.1761 28.2414 11.0687C29.3734 10.8219 29.8231 10.8118 30.9028 11.0088C32.6693 11.3313 34.3772 12.4914 34.7536 13.6246C34.863 13.9537 34.9195 15.6903 34.9195 18.7257V23.3279H32.5037C30.6691 23.3279 30.0877 23.2837 30.087 23.1444C30.0864 23.0436 29.8905 21.4156 29.6515 19.5269C29.1719 15.7371 29.1034 15.5477 28.21 15.5477C27.4805 15.5477 27.1596 15.8933 27.1596 16.6788C27.1596 17.0337 27.7221 21.829 28.4095 27.335C29.0971 32.841 29.6406 37.4583 29.6174 37.5956C29.5895 37.7622 28.7574 36.9438 27.1184 35.1373C25.7671 33.6481 24.6283 32.3425 24.5874 32.2362C24.5467 32.1298 25.0742 31.3281 25.7597 30.4545C26.4452 29.5811 27.0466 28.7384 27.096 28.5819C27.2267 28.1697 26.905 27.5028 26.4824 27.3097C25.8088 27.002 25.4751 27.2478 23.9981 29.1401C22.8272 30.6401 22.5095 30.9611 22.196 30.9601C21.9868 30.9595 20.0037 30.7289 17.7892 30.4475C15.5747 30.1661 13.7187 29.9355 13.6649 29.9349C13.5373 29.9334 13.8059 28.9572 14.0892 28.3924C14.2105 28.1501 16.6548 24.5902 19.5208 20.4812C24.8981 12.772 25.2534 12.3345 26.7671 11.5603ZM31.7015 35.9523C31.0577 30.7448 30.494 26.2692 30.4491 26.0069L30.3673 25.5298H32.6464H34.9255L34.8858 35.5068C34.8837 36.0421 34.8818 36.5496 34.88 37.0309L34.88 37.0373C34.8516 44.602 34.8476 45.6612 34.4018 45.9036C34.3292 45.9431 34.2449 45.9609 34.1469 45.9816C34.1084 45.9898 34.0679 45.9984 34.025 46.0089C33.7435 46.078 33.5416 46.013 33.2575 45.7617C32.8753 45.4234 32.8627 45.3436 31.7015 35.9523ZM14.1551 34.3299C13.9061 33.801 13.657 33.0835 13.6015 32.7355L13.5004 32.1026L14.0709 32.1925C14.3846 32.2419 16.2884 32.4809 18.3016 32.7236C20.3148 32.9664 22.101 33.2142 22.271 33.2742C22.5731 33.3809 30.2343 41.7221 30.2343 41.9442C30.2343 42.4078 30.717 45.6687 30.8448 46.0689C30.9329 46.3447 31.2691 46.8575 31.5917 47.2083C32.281 47.9582 33.3843 48.3649 34.2745 48.1974L34.8167 48.0956L34.7243 49.327C34.6735 50.0044 34.4302 54.1587 34.1835 58.5589C33.9367 62.9591 33.7021 66.7739 33.6618 67.0363L33.5884 67.5134H31.399H29.2094V58.7482V49.9831L21.9086 42.6374C15.275 35.9629 14.5665 35.2038 14.1551 34.3299ZM8.85769 69.5273C8.85754 69.4289 9.13324 68.7006 9.47028 67.9087L10.0832 66.469L13.206 69.5969L16.3287 72.7247L14.8701 72.7664C13.8416 72.7959 13.2608 72.7451 12.9004 72.5942C12.2256 72.3113 8.85798 69.7567 8.85769 69.5273ZM29.2826 72.7247L29.2408 71.22L29.1991 69.7154L31.6567 69.7217L34.1142 69.7278L35.2531 71.2655L36.3921 72.8034L32.8373 72.764L29.2826 72.7247Z" fill="#FF668E"/>
<path fill-rule="evenodd" clip-rule="evenodd" d="M43.1558 0C44.0633 0.214322 45.0794 0.806936 45.8053 1.54532C47.1744 2.93768 47.7505 4.91032 47.3102 6.69873C46.8474 8.57933 45.8145 9.83898 44.06 10.6628C43.3019 11.0188 43.0155 11.0705 41.8009 11.0705C40.5962 11.0705 40.2972 11.0175 39.5676 10.6747C38.3893 10.1211 37.2468 8.99271 36.7312 7.87354C36.3565 7.06029 36.3104 6.79929 36.3104 5.49222C36.3104 4.20937 36.3596 3.91915 36.6999 3.19119C37.1347 2.26124 38.0611 1.17892 38.8299 0.702564C39.1088 0.529639 39.7103 0.268489 40.1663 0.122281L43.1558 0ZM38.4366 5.52422C38.4312 4.07769 39.1119 2.99317 40.404 2.38998C42.6618 1.33584 45.2054 2.97335 45.2231 5.49222C45.2306 6.55252 44.8748 7.32202 44.018 8.09813C42.7679 9.23037 40.9136 9.22391 39.5837 8.08243C38.8037 7.41304 38.4407 6.60361 38.4366 5.52422Z" fill="#FF668E"/>
<path d="M37.3799 37.0467C37.3799 37.0441 37.3799 37.0418 37.38 37.0409C37.38 37.0396 37.38 37.0398 37.38 37.0402L32.38 37.0215C32.38 37.0241 32.38 37.0264 32.38 37.0273C32.38 37.0286 32.38 37.0284 32.38 37.028L37.3799 37.0467ZM12.8843 74.9008L11.7976 79.7812L12.2966 79.8923L12.8077 79.9002L12.8843 74.9008ZM9.27467 72.7799L12.273 68.7786L12.2728 68.7785L9.27467 72.7799ZM6.89546 70.6785L2.37617 72.8176L2.37634 72.818L6.89546 70.6785ZM10.3221 60.3439L14.9195 62.3097L14.9195 62.3096L10.3221 60.3439ZM13.5387 47.0203L18.5048 46.4392L18.5048 46.4392L13.5387 47.0203ZM13.3703 42.8561L9.35407 39.8779L9.35383 39.8782L13.3703 42.8561ZM15.149 42.8429L19.5611 40.4904L19.5598 40.488L15.149 42.8429ZM15.807 47.5021L20.7737 46.9261L20.7737 46.9258L15.807 47.5021ZM16.3146 51.8797L20.9138 53.8412L21.4341 52.6212L21.2814 51.3037L16.3146 51.8797ZM13.6633 58.0963L18.2624 60.0579L18.2624 60.0579L13.6633 58.0963ZM11.0119 64.313L6.41269 62.3514L5.08895 65.4552L7.4719 67.8441L11.0119 64.313ZM12.323 65.6274L15.8633 62.0967L15.8629 62.0963L12.323 65.6274ZM13.634 66.9419L10.0936 70.4727L14.6914 75.083L17.9588 69.451L13.634 66.9419ZM17.4922 60.2915L13.1675 57.7823L13.1674 57.7824L17.4922 60.2915ZM21.4026 53.541L25.8389 55.8474L25.8437 55.8382L21.4026 53.541ZM21.5876 52.7336L16.6736 51.8101L16.6735 51.8103L21.5876 52.7336ZM21.1962 48.2832L26.1479 47.5898L26.1479 47.5896L21.1962 48.2832ZM20.6719 44.5399L25.6236 43.8463L25.3943 42.2099L24.2352 41.0323L20.6719 44.5399ZM16.7704 40.5764L13.207 44.0838L13.2071 44.0839L16.7704 40.5764ZM12.3417 35.5853L7.89325 37.8681L7.89351 37.8686L12.3417 35.5853ZM12.0821 27.6057L7.55144 25.4908L7.55132 25.491L12.0821 27.6057ZM23.7613 10.9969L20.4299 7.26845L20.4294 7.26888L23.7613 10.9969ZM27.3792 8.99931L28.8108 13.79L28.8112 13.7899L27.3792 8.99931ZM32.0644 8.99931L33.4964 4.20875L33.4964 4.20874L32.0644 8.99931ZM36.6523 12.4377L41.1818 10.3203L41.1816 10.32L36.6523 12.4377ZM37.0425 13.2724L42.0425 13.2795L42.044 12.1648L41.572 11.155L37.0425 13.2724ZM37.0195 29.4933L32.0195 29.4862V29.4863L37.0195 29.4933ZM36.9802 47.1088L41.9799 47.168L41.9799 47.167L36.9802 47.1088ZM36.381 58.3754L41.3723 58.6701L41.3723 58.67L36.381 58.3754ZM37.7013 70.8897L33.697 73.884L33.6971 73.8841L37.7013 70.8897ZM39.2864 74.6603L42.9341 78.08L42.9353 78.0788L39.2864 74.6603ZM38.9679 75L38.8883 79.9994L41.1017 80.0346L42.6157 78.4197L38.9679 75ZM43.1558 0L44.305 -4.86613L43.6371 -5.02387L42.9514 -4.99582L43.1558 0ZM45.8053 1.54532L42.2398 5.05062L42.2401 5.05096L45.8053 1.54532ZM47.3102 6.69873L42.4552 5.50354L42.4551 5.50389L47.3102 6.69873ZM44.06 10.6628L46.1852 15.1887L46.1852 15.1887L44.06 10.6628ZM39.5676 10.6747L41.6938 6.14926L41.6937 6.14921L39.5676 10.6747ZM36.7312 7.87354L32.19 9.96572L32.19 9.9659L36.7312 7.87354ZM36.6999 3.19119L32.1706 1.07329L32.1702 1.07396L36.6999 3.19119ZM38.8299 0.702564L41.4633 4.95285L41.4645 4.9521L38.8299 0.702564ZM40.1663 0.122281L39.962 -4.87354L39.2851 -4.84585L38.6399 -4.63904L40.1663 0.122281ZM40.404 2.38998L42.519 6.92062L42.5192 6.92052L40.404 2.38998ZM38.4366 5.52422L33.4366 5.54294V5.54321L38.4366 5.52422ZM39.5837 8.08243L42.8403 4.28839L42.8398 4.28793L39.5837 8.08243ZM44.018 8.09813L47.3746 11.804L47.3747 11.8039L44.018 8.09813ZM45.2231 5.49222L40.2233 5.52738V5.52743L45.2231 5.49222ZM28.2414 11.0687L27.1764 6.18343L27.1748 6.1838L28.2414 11.0687ZM26.7671 11.5603L29.044 16.0118L29.0446 16.0115L26.7671 11.5603ZM19.5208 20.4812L15.4198 17.6208L15.4198 17.6208L19.5208 20.4812ZM14.0892 28.3924L18.5585 30.634L18.5593 30.6324L14.0892 28.3924ZM13.6649 29.9349L13.6073 34.9346L13.6104 34.9346L13.6649 29.9349ZM22.196 30.9601L22.2124 25.9601L22.2101 25.9601L22.196 30.9601ZM23.9981 29.1401L27.9395 32.2168L27.9396 32.2166L23.9981 29.1401ZM26.4824 27.3097L28.5601 22.7618L28.5597 22.7617L26.4824 27.3097ZM27.096 28.5819L22.3296 27.0717L22.3288 27.0742L27.096 28.5819ZM25.7597 30.4545L21.8265 27.3676L21.8262 27.3679L25.7597 30.4545ZM24.5874 32.2362L19.9173 34.0223L19.9203 34.03L24.5874 32.2362ZM27.1184 35.1373L30.8215 31.7777L30.8212 31.7773L27.1184 35.1373ZM29.6174 37.5956L24.687 36.7646L24.6864 36.7679L29.6174 37.5956ZM28.4095 27.335L23.448 27.9544L23.448 27.9545L28.4095 27.335ZM29.6515 19.5269L34.612 18.8993L34.612 18.8991L29.6515 19.5269ZM30.087 23.1444L35.0869 23.1181L35.0869 23.1154L30.087 23.1444ZM34.9195 23.3279V28.3279H39.9195V23.3279H34.9195ZM34.7536 13.6246L30.0086 15.2009L30.0087 15.2013L34.7536 13.6246ZM30.9028 11.0088L31.8008 6.09011L31.8003 6.09001L30.9028 11.0088ZM30.4491 26.0069L25.5208 26.8509L25.5209 26.8514L30.4491 26.0069ZM31.7015 35.9523L26.7392 36.5658L26.7393 36.5659L31.7015 35.9523ZM33.2575 45.7617L36.5708 42.017L36.5706 42.0169L33.2575 45.7617ZM34.025 46.0089L32.8333 41.153L32.8326 41.1531L34.025 46.0089ZM34.8858 35.5068L29.8858 35.4869V35.487L34.8858 35.5068ZM34.9255 25.5298L39.9254 25.5497L39.9454 20.5298H34.9255V25.5298ZM30.3673 25.5298V20.5298H24.4383L25.4391 26.3738L30.3673 25.5298ZM13.6015 32.7355L18.5391 31.9482L18.5389 31.9472L13.6015 32.7355ZM14.1551 34.3299L9.63098 36.459L9.63133 36.4597L14.1551 34.3299ZM21.9086 42.6374L18.3623 46.1621L18.3623 46.1621L21.9086 42.6374ZM29.2094 49.9831H34.2094V47.921L32.7557 46.4584L29.2094 49.9831ZM29.2094 67.5134H24.2094V72.5134H29.2094V67.5134ZM33.5884 67.5134V72.5134H37.8784L38.5304 68.2733L33.5884 67.5134ZM33.6618 67.0363L38.6037 67.7962L38.604 67.7945L33.6618 67.0363ZM34.7243 49.327L29.7383 48.953L29.7383 48.953L34.7243 49.327ZM34.8167 48.0956L39.8027 48.4696L40.2896 41.9797L33.8933 43.1816L34.8167 48.0956ZM34.2745 48.1974L33.3512 43.2834L33.35 43.2837L34.2745 48.1974ZM31.5917 47.2083L35.2726 43.8245L35.2725 43.8243L31.5917 47.2083ZM30.8448 46.0689L26.0819 47.5903L26.0821 47.5908L30.8448 46.0689ZM22.271 33.2742L23.9367 28.5598L23.9362 28.5596L22.271 33.2742ZM18.3016 32.7236L18.9003 27.7595L18.8999 27.7595L18.3016 32.7236ZM14.0709 32.1925L14.8496 27.2535L14.8488 27.2533L14.0709 32.1925ZM13.5004 32.1026L14.2783 27.1635L7.47766 26.0924L8.56296 32.8908L13.5004 32.1026ZM46.688 37.7506L50.238 34.2296L50.2379 34.2295L46.688 37.7506ZM48.7274 40.503L53.2057 38.2794L53.2054 38.2788L48.7274 40.503ZM47.7965 52.5657L51.4236 56.0072L51.4236 56.0071L47.7965 52.5657ZM46.2862 52.8231L49.3832 48.8977L49.382 48.8968L46.2862 52.8231ZM46.4272 50.7746L42.1695 48.1532L42.1694 48.1533L46.4272 50.7746ZM47.7668 46.228L52.7628 46.4276L52.7628 46.4274L47.7668 46.228ZM44.9921 39.1537L41.473 42.7055L41.473 42.7056L44.9921 39.1537ZM4.37262 40.5137L1.27601 44.4394L1.27676 44.44L4.37262 40.5137ZM4.16603 42.5054L0.31951 39.311L0.319446 39.3111L4.16603 42.5054ZM2.3448 46.1488L-2.50186 44.92L-2.50194 44.9203L2.3448 46.1488ZM4.45754 54.6391L0.719457 57.9598L0.719771 57.9601L4.45754 54.6391ZM2.96618 56.2374L6.58887 52.7913L6.58874 52.7911L2.96618 56.2374ZM0.767936 52.8996L5.39373 51.0017L5.39347 51.0011L0.767936 52.8996ZM0.763983 43.9697L5.38973 45.8677L5.38978 45.8676L0.763983 43.9697ZM41.9518 42.2095L45.3727 38.5629L45.3718 38.5621L41.9518 42.2095ZM43.0802 43.7142L47.5706 41.515L47.5705 41.5147L43.0802 43.7142ZM42.5003 48.8319L46.1485 52.251L46.1491 52.2504L42.5003 48.8319ZM40.9956 47.1681L36.5783 44.8255V44.8255L40.9956 47.1681ZM40.335 43.6402L44.0158 40.2562L44.0157 40.256L40.335 43.6402ZM40.39 41.7023L42.5737 46.2003L42.5738 46.2002L40.39 41.7023ZM9.00952 44.8361L6.70763 49.2747L6.70799 49.2749L9.00952 44.8361ZM9.38009 46.2803L4.98108 43.9036L4.98045 43.9048L9.38009 46.2803ZM8.84817 47.2556L4.46755 44.8452L4.46704 44.8461L8.84817 47.2556ZM8.71596 49.3957L13.3916 47.6243L13.391 47.6227L8.71596 49.3957ZM9.30161 50.3439L13.2254 47.2449L13.225 47.2444L9.30161 50.3439ZM9.35066 52.0892L6.25488 48.1628L6.25406 48.1635L9.35066 52.0892ZM7.71581 51.843L11.3576 48.417L11.3575 48.4169L7.71581 51.843ZM6.57906 46.9906L1.83282 45.418L1.83269 45.4184L6.57906 46.9906ZM8.00044 44.8156L10.4299 49.1857L10.4303 49.1854L8.00044 44.8156ZM23.2691 47.4024L18.3834 48.4652L18.3834 48.4656L23.2691 47.4024ZM23.6315 49.8979L18.6749 50.5556L18.675 50.5558L23.6315 49.8979ZM23.4858 54.155L28.1947 55.836L28.1952 55.8348L23.4858 54.155ZM19.3013 61.5528L14.9785 59.0402L14.9784 59.0403L19.3013 61.5528ZM17.716 71.0365L21.2537 67.5031L21.2536 67.5031L17.716 71.0365ZM19.746 74.6957L16.6506 70.7691L16.6495 70.7699L19.746 74.6957ZM19.3602 75L19.2836 79.9994L21.061 80.0266L22.4567 78.9258L19.3602 75ZM28.6239 74.8352L26.7679 79.4779L27.6232 79.8198L28.5442 79.8345L28.6239 74.8352ZM27.3287 73.6054L31.7094 71.1951L31.7092 71.1947L27.3287 73.6054ZM27.0454 62.0021L22.0454 62.0204V62.0205L27.0454 62.0021ZM27.0045 50.8392L32.0045 50.8209L31.997 48.7561L30.5348 47.2983L27.0045 50.8392ZM25.0969 48.9373L28.6271 45.3965L28.6271 45.3964L25.0969 48.9373ZM9.47028 67.9087L4.86975 65.9504L4.86971 65.9505L9.47028 67.9087ZM8.85769 69.5273L13.8577 69.5209L13.8577 69.5199L8.85769 69.5273ZM12.9004 72.5942L10.9675 77.2054L10.9689 77.206L12.9004 72.5942ZM14.8701 72.7664L14.7273 67.7684L14.7268 67.7684L14.8701 72.7664ZM16.3287 72.7247L16.4715 77.7226L28.0534 77.3916L19.8671 69.192L16.3287 72.7247ZM13.206 69.5969L16.7444 66.0642H16.7444L13.206 69.5969ZM10.0832 66.469L13.6216 62.9363L8.38536 57.6916L5.48264 64.5106L10.0832 66.469ZM29.2408 71.22L24.2428 71.3586V71.3586L29.2408 71.22ZM29.2826 72.7247L24.2845 72.8633L24.4178 77.6711L29.2272 77.7244L29.2826 72.7247ZM32.8373 72.764L32.782 77.7637L32.8373 72.764ZM36.3921 72.8034L36.3368 77.803L46.3994 77.9144L40.4101 69.8275L36.3921 72.8034ZM35.2531 71.2655L39.2712 68.2897L39.271 68.2895L35.2531 71.2655ZM34.1142 69.7278L38.1321 66.7518L36.6376 64.7341L34.1267 64.7278L34.1142 69.7278ZM31.6567 69.7217L31.6438 74.7216H31.6441L31.6567 69.7217ZM29.1991 69.7154L29.212 64.7154L24.0582 64.7021L24.201 69.854L29.1991 69.7154ZM34.4018 45.9036L36.7904 50.2962L36.7905 50.2962L34.4018 45.9036ZM34.1469 45.9816L33.1129 41.0897L33.1127 41.0898L34.1469 45.9816ZM34.88 37.0373L39.8799 37.056L39.8799 37.0526L34.88 37.0373ZM34.88 37.0309L29.88 37.0121L29.88 37.0155L34.88 37.0309ZM13.9711 70.0203C14.159 70.0622 14.2292 70.1276 14.0181 70.0036C13.7251 69.8314 13.2283 69.4944 12.273 68.7786L6.27632 76.7811C8.11494 78.1589 9.73313 79.3215 11.7976 79.7812L13.9711 70.0203ZM12.2728 68.7785C11.5637 68.2472 11.1358 67.902 10.8984 67.6923C10.7795 67.5872 10.7734 67.573 10.827 67.632C10.8565 67.6645 10.9291 67.7465 11.0211 67.8724C11.1073 67.9905 11.2622 68.2172 11.4146 68.5389L2.37634 72.818C2.72961 73.5642 3.19063 74.098 3.42609 74.3571C3.70872 74.6681 4.00862 74.949 4.27845 75.1874C4.81862 75.6645 5.49937 76.199 6.27654 76.7813L12.2728 68.7785ZM11.4147 68.5393C11.3088 68.3155 11.6424 68.932 11.6633 69.762C11.6782 70.3545 11.5219 70.6307 11.6984 70.0985C12.0465 69.0485 12.9109 67.0073 14.9195 62.3097L5.72474 58.3782C3.83176 62.8053 2.72515 65.3872 2.20656 66.9512C1.94968 67.7259 1.6361 68.8068 1.66643 70.0133C1.70272 71.4574 2.22451 72.4972 2.37617 72.8176L11.4147 68.5393ZM14.9195 62.3096C16.0858 59.5818 17.0154 57.3632 17.658 55.7752C17.9771 54.9866 18.2394 54.3191 18.4277 53.809C18.5197 53.5599 18.6127 53.298 18.6892 53.0553C18.7263 52.9375 18.7774 52.7682 18.8241 52.5768C18.8395 52.5137 18.9824 51.9714 18.9824 51.2981H8.98243C8.98243 50.9108 9.02946 50.6151 9.04799 50.5051C9.07164 50.3647 9.09641 50.2585 9.10956 50.2046C9.12405 50.1453 9.13601 50.1026 9.14184 50.0824C9.1451 50.071 9.14761 50.0626 9.14915 50.0575C9.1507 50.0524 9.15157 50.0496 9.15162 50.0495C9.15168 50.0493 9.15111 50.0511 9.14984 50.055C9.14857 50.0589 9.14673 50.0645 9.14426 50.0719C9.13924 50.0868 9.13227 50.1073 9.12303 50.1338C9.10433 50.1873 9.07914 50.2575 9.04641 50.3462C8.91125 50.7124 8.69388 51.2687 8.38819 52.0242C7.78119 53.5243 6.88065 55.6747 5.72472 58.3782L14.9195 62.3096ZM18.9824 51.2981C18.9824 50.8319 18.8878 49.9272 18.8254 49.3255C18.7423 48.5246 18.6289 47.4997 18.5048 46.4392L8.57253 47.6014C8.69252 48.6268 8.80097 49.6075 8.87876 50.3573C8.91783 50.7339 8.94785 51.0397 8.96751 51.2584C8.97746 51.369 8.98337 51.442 8.98635 51.4833C8.99299 51.5752 8.98243 51.4677 8.98243 51.2981H18.9824ZM18.5048 46.4392C18.3946 45.4981 18.3159 44.8219 18.2617 44.3151C18.2048 43.784 18.1884 43.5584 18.185 43.4741C18.1837 43.4412 18.1885 43.5179 18.1798 43.6587C18.1708 43.8055 18.1438 44.0815 18.0512 44.4279C17.9502 44.8055 17.8025 45.151 17.6316 45.4526C17.4903 45.7018 17.354 45.8782 17.3867 45.8341L9.35383 39.8782C9.22394 40.0534 8.67988 40.7627 8.39055 41.8448C8.15809 42.7141 8.17756 43.4916 8.19319 43.8782C8.22449 44.6521 8.36937 45.8652 8.57254 47.6014L18.5048 46.4392ZM17.3865 45.8344C16.4705 47.0697 15.1993 47.4091 14.343 47.4154C13.5606 47.4212 11.7556 47.1031 10.7383 45.1978L19.5598 40.488C18.2351 38.0069 15.7562 37.4047 14.2691 37.4157C12.7081 37.4272 10.7013 38.0611 9.35407 39.8779L17.3865 45.8344ZM10.737 45.1954C10.5646 44.8719 10.4691 44.6039 10.4358 44.5083C10.392 44.3824 10.3632 44.2825 10.3484 44.229C10.3189 44.1226 10.3034 44.0498 10.3015 44.0411C10.2962 44.0164 10.3019 44.0404 10.3188 44.1398C10.3508 44.3269 10.3966 44.6246 10.4534 45.0268C10.5656 45.8213 10.7042 46.9052 10.8403 48.0783L20.7737 46.9258C20.6305 45.6912 20.4814 44.523 20.3551 43.6285C20.2927 43.1862 20.2315 42.7804 20.176 42.4556C20.1492 42.2989 20.116 42.115 20.0776 41.9366C20.0592 41.851 20.0286 41.715 19.9855 41.5596C19.9773 41.5299 19.8511 41.0345 19.5611 40.4904L10.737 45.1954ZM10.8403 48.078L11.3479 52.4556L21.2814 51.3037L20.7737 46.9261L10.8403 48.078ZM11.7155 49.9181L9.06408 56.1348L18.2624 60.0579L20.9138 53.8412L11.7155 49.9181ZM9.06408 56.1348L6.41269 62.3514L15.611 66.2745L18.2624 60.0579L9.06408 56.1348ZM7.4719 67.8441L8.78303 69.1585L15.8629 62.0963L14.5518 60.7819L7.4719 67.8441ZM8.78265 69.1581L10.0936 70.4727L17.1743 63.4112L15.8633 62.0967L8.78265 69.1581ZM17.9588 69.451L21.8171 62.8006L13.1674 57.7824L9.3091 64.4329L17.9588 69.451ZM21.817 62.8007C23.8664 59.2686 25.739 56.0395 25.8389 55.8474L16.9664 51.2345C17.0088 51.1529 15.3623 53.9993 13.1675 57.7823L21.817 62.8007ZM25.8437 55.8382C26.0533 55.4329 26.163 55.0766 26.1744 55.0412C26.213 54.9213 26.242 54.8179 26.2596 54.7527C26.2962 54.6174 26.3278 54.4851 26.3521 54.379C26.4026 54.1588 26.4549 53.9054 26.5016 53.6568L16.6735 51.8103C16.6472 51.9506 16.6213 52.0733 16.6047 52.1457C16.5955 52.186 16.5963 52.1792 16.607 52.1397C16.6117 52.1224 16.6288 52.0594 16.6572 51.9715C16.6715 51.9272 16.6972 51.8498 16.7339 51.7532C16.7527 51.7035 16.7789 51.637 16.8124 51.5591C16.8446 51.4842 16.8942 51.374 16.9616 51.2438L25.8437 55.8382ZM26.5015 53.6571C26.6863 52.6738 26.6342 51.7323 26.567 50.9684C26.4951 50.1503 26.3536 49.0589 26.1479 47.5898L16.2445 48.9765C16.4523 50.4603 16.5589 51.3151 16.6055 51.8446C16.6568 52.4282 16.5936 52.2355 16.6736 51.8101L26.5015 53.6571ZM26.1479 47.5896L25.6236 43.8463L15.7202 45.2334L16.2445 48.9767L26.1479 47.5896ZM24.2352 41.0323L20.3337 37.0689L13.2071 44.0839L17.1086 48.0474L24.2352 41.0323ZM20.3339 37.069C18.6476 35.3558 17.7488 34.4228 17.2161 33.8225C16.9628 33.537 16.8552 33.3965 16.8135 33.3386C16.7907 33.3069 16.7947 33.3113 16.7899 33.3021L7.89351 37.8686C8.78165 39.5989 10.1481 40.9761 13.207 44.0838L20.3339 37.069ZM16.7902 33.3026C16.0688 31.8969 16.1014 30.8164 16.613 29.7203L7.55132 25.491C5.64767 29.5698 5.85619 33.8985 7.89325 37.8681L16.7902 33.3026ZM16.6128 29.7206C16.5337 29.89 16.5696 29.7948 16.9593 29.186C17.2722 28.6973 17.7002 28.0503 18.2162 27.2851C19.2451 25.7593 20.5723 23.8402 21.9149 21.9309C23.2578 20.0213 24.6002 18.1441 25.6589 16.701C26.1905 15.9764 26.6344 15.3833 26.9637 14.9581C27.4432 14.3388 27.3926 14.4574 27.0933 14.7249L20.4294 7.26888C19.8877 7.75304 19.3126 8.50549 19.057 8.83565C18.6511 9.35977 18.1493 10.0316 17.596 10.7857C16.4852 12.2999 15.1017 14.235 13.7349 16.1788C12.3678 18.1229 11.0014 20.0982 9.92524 21.6941C9.38873 22.4897 8.91133 23.2102 8.5375 23.7941C8.24054 24.258 7.80835 24.9404 7.55144 25.4908L16.6128 29.7206ZM27.0928 14.7254C27.4511 14.4052 28.2223 13.9659 28.8108 13.79L25.9476 4.20863C24.022 4.78407 21.9366 5.92215 20.4299 7.26845L27.0928 14.7254ZM28.8112 13.7899C28.7247 13.8157 28.7731 13.7936 28.9951 13.7691C29.1942 13.7471 29.4464 13.7327 29.7218 13.7327C29.9973 13.7327 30.2495 13.7471 30.4485 13.7691C30.6705 13.7936 30.7189 13.8157 30.6325 13.7899L33.4964 4.20874C32.2375 3.83245 30.8155 3.73266 29.7218 3.73266C28.6281 3.73266 27.2062 3.83245 25.9473 4.20874L28.8112 13.7899ZM30.6325 13.7899C31.1802 13.9536 31.6151 14.1871 31.9025 14.4025C32.2114 14.634 32.205 14.731 32.1229 14.5555L41.1816 10.32C39.6865 7.12214 36.4868 5.10262 33.4964 4.20875L30.6325 13.7899ZM32.1228 14.5551L32.5129 15.3898L41.572 11.155L41.1818 10.3203L32.1228 14.5551ZM32.0425 13.2653L32.0195 29.4862L42.0195 29.5004L42.0425 13.2795L32.0425 13.2653ZM32.0195 29.4863C32.0069 38.4314 31.9891 46.3173 31.9806 47.0506L41.9799 47.167C41.9892 46.3664 42.0069 38.3983 42.0195 29.5004L32.0195 29.4863ZM31.9806 47.0496C31.9806 47.0493 31.9802 47.0764 31.978 47.1438C31.9761 47.2066 31.9731 47.2886 31.969 47.3914C31.9608 47.5969 31.9489 47.8656 31.9334 48.1932C31.9025 48.8475 31.8585 49.7119 31.8044 50.728C31.6964 52.7588 31.5494 55.3739 31.3897 58.0808L41.3723 58.67C41.6878 53.3245 41.969 48.0873 41.9799 47.168L31.9806 47.0496ZM31.3897 58.0806C31.0804 63.3176 30.798 68.0724 30.798 68.2958H40.798C40.798 68.4658 41.0403 64.2922 41.3723 58.6701L31.3897 58.0806ZM30.798 68.2958C30.798 69.0141 30.9564 69.558 31.0089 69.7332C31.0816 69.9756 31.1581 70.1631 31.2022 70.2659C31.2908 70.473 31.3746 70.6292 31.4093 70.6929C31.4866 70.8347 31.5548 70.9433 31.578 70.9801C31.6355 71.0714 31.6875 71.1476 31.7107 71.1816C31.7663 71.2628 31.8281 71.35 31.8821 71.4255C31.996 71.5846 32.1495 71.7953 32.3259 72.0359C32.6822 72.5214 33.1674 73.1757 33.697 73.884L41.7056 67.8955C41.1884 67.2038 40.7219 66.5745 40.3882 66.1197C40.2197 65.8901 40.0936 65.7166 40.0141 65.6056C39.9715 65.546 39.9582 65.5267 39.9629 65.5335C39.9654 65.5372 39.9725 65.5476 39.9828 65.563C39.9917 65.5765 40.0118 65.6068 40.0377 65.6478C40.0543 65.6743 40.1176 65.7747 40.1916 65.9104C40.2246 65.9711 40.3072 66.1248 40.395 66.3299C40.4386 66.4318 40.5148 66.6185 40.5873 66.8601C40.6246 66.9844 40.6721 67.1602 40.7123 67.3742C40.7505 67.5781 40.798 67.8992 40.798 68.2958H30.798ZM33.6971 73.8841C34.211 74.5713 34.5462 75.0303 34.7713 75.3605C35.0266 75.7351 34.982 75.7185 34.8877 75.4942C34.7692 75.2124 34.4266 74.2585 34.7289 73.0054C34.8688 72.4256 35.1014 71.9829 35.2918 71.6908C35.4663 71.4231 35.62 71.2605 35.6375 71.2419L42.9353 78.0788C43.2306 77.7635 44.0935 76.8287 44.4501 75.3504C44.8344 73.7575 44.4419 72.4174 44.1064 71.6192C43.5929 70.3976 42.5622 69.0409 41.7055 67.8953L33.6971 73.8841ZM35.6387 71.2407L35.3202 71.5803L42.6157 78.4197L42.9341 78.08L35.6387 71.2407ZM42.0065 4.86613C41.9399 4.85039 41.9165 4.83887 41.9334 4.84591C41.9486 4.8522 41.9827 4.86787 42.0295 4.8952C42.076 4.92227 42.1223 4.95344 42.1637 4.98532C42.2056 5.01752 42.2307 5.04142 42.2398 5.05062L49.3708 -1.95999C48.0592 -3.29411 46.2294 -4.41165 44.305 -4.86613L42.0065 4.86613ZM42.2401 5.05096C42.345 5.15762 42.4077 5.27574 42.4368 5.37517C42.4658 5.47451 42.4517 5.51793 42.4552 5.50354L52.1653 7.89393C53.0497 4.30154 51.8672 0.57883 49.3704 -1.96032L42.2401 5.05096ZM42.4551 5.50389C42.4117 5.68039 42.3693 5.7838 42.3442 5.83633C42.3205 5.88574 42.3059 5.90333 42.3031 5.90679C42.3002 5.91026 42.2856 5.9283 42.2413 5.9616C42.1941 5.99697 42.1003 6.05922 41.9349 6.13691L46.1852 15.1887C49.3042 13.7242 51.3415 11.2413 52.1654 7.89357L42.4551 5.50389ZM41.9349 6.1369C41.8715 6.16666 41.8388 6.18112 41.8249 6.18707C41.8125 6.1924 41.828 6.18535 41.8637 6.1725C41.9014 6.15891 41.9554 6.14105 42.0219 6.12301C42.0889 6.1048 42.154 6.09037 42.2138 6.07959C42.3301 6.05859 42.3831 6.05943 42.3116 6.06297C42.2761 6.06474 42.2194 6.06677 42.1316 6.06824C42.044 6.06972 41.9368 6.07045 41.8009 6.07045V16.0705C42.382 16.0705 43.1751 16.0676 43.9895 15.9207C44.9455 15.7482 45.6691 15.431 46.1852 15.1887L41.9349 6.1369ZM41.8009 6.07045C41.6669 6.07045 41.5608 6.0697 41.4738 6.06823C41.3867 6.06675 41.3295 6.06471 41.2932 6.06292C41.2194 6.05927 41.2675 6.05814 41.3786 6.07783C41.436 6.08799 41.4999 6.10184 41.567 6.11975C41.6337 6.13757 41.6895 6.15565 41.7309 6.17039C41.7705 6.18446 41.7907 6.19327 41.7844 6.1906C41.7766 6.18729 41.7501 6.17572 41.6938 6.14926L37.4415 15.2001C37.9676 15.4473 38.6848 15.7562 39.6336 15.9244C40.4355 16.0665 41.2181 16.0705 41.8009 16.0705V6.07045ZM41.6937 6.14921C41.7041 6.15409 41.673 6.14011 41.6109 6.09564C41.5503 6.05225 41.4816 5.99513 41.4143 5.92869C41.3467 5.86195 41.2975 5.80249 41.2675 5.76132C41.2356 5.71764 41.2445 5.72074 41.2723 5.78117L32.19 9.9659C33.228 12.2186 35.2615 14.176 37.4416 15.2002L41.6937 6.14921ZM41.2724 5.78135C41.2374 5.70534 41.2186 5.66255 41.2087 5.6391C41.1994 5.6172 41.2038 5.62631 41.2148 5.65696C41.2266 5.68997 41.2437 5.74163 41.2614 5.80731C41.2793 5.8738 41.2935 5.93863 41.304 5.99802C41.3243 6.11257 41.3223 6.16008 41.3182 6.07131C41.3161 6.02757 41.314 5.96138 41.3126 5.862C41.3111 5.76272 41.3104 5.6429 41.3104 5.49222H31.3104C31.3104 6.09481 31.3106 6.91214 31.4566 7.7381C31.6294 8.71629 31.9549 9.45547 32.19 9.96572L41.2724 5.78135ZM41.3104 5.49222C41.3104 5.34613 41.3111 5.22864 41.3126 5.13093C41.3141 5.03308 41.3162 4.96601 41.3183 4.92032C41.3225 4.82591 41.3251 4.86351 41.3074 4.96817C41.298 5.0234 41.2847 5.08773 41.2667 5.15733C41.2486 5.22675 41.2299 5.2861 41.2138 5.33183C41.1985 5.37552 41.1883 5.39924 41.1899 5.39549C41.1922 5.38997 41.203 5.36501 41.2295 5.30842L32.1702 1.07396C31.9213 1.60655 31.6116 2.33054 31.4477 3.29907C31.313 4.09458 31.3104 4.888 31.3104 5.49222H41.3104ZM41.2291 5.3091C41.212 5.34585 41.2191 5.3242 41.2665 5.25313C41.3111 5.18627 41.3706 5.10707 41.4382 5.02801C41.5067 4.94799 41.5626 4.89274 41.5929 4.86521C41.6068 4.85264 41.6065 4.85391 41.5906 4.86619C41.5757 4.87764 41.5335 4.90938 41.4633 4.95285L36.1964 -3.54772C34.4941 -2.49298 32.9596 -0.614072 32.1706 1.07329L41.2291 5.3091ZM41.4645 4.9521C41.4013 4.99132 41.3569 5.01585 41.3398 5.02516C41.3206 5.03562 41.3128 5.03936 41.3184 5.03656C41.3312 5.03018 41.3671 5.01303 41.423 4.98874C41.4774 4.96515 41.5354 4.94144 41.5899 4.92061C41.6462 4.89908 41.6817 4.88714 41.6927 4.8836L38.6399 -4.63904C37.9556 -4.41965 36.9402 -4.00883 36.1952 -3.54697L41.4645 4.9521ZM38.2889 -2.14066C35.1976 -0.697553 33.4241 2.18398 33.4366 5.54294L43.4366 5.50549C43.4369 5.58788 43.411 5.91283 43.1686 6.299C42.9239 6.68888 42.629 6.86924 42.519 6.92062L38.2889 -2.14066ZM33.4366 5.54321C33.4459 7.9917 34.3843 10.2093 36.3277 11.8769L42.8398 4.28793C42.9325 4.36747 43.1304 4.57432 43.2815 4.91126C43.4283 5.23872 43.4365 5.47877 43.4366 5.50523L33.4366 5.54321ZM36.3272 11.8765C39.454 14.5604 44.1472 14.7272 47.3746 11.804L40.6615 4.39225C40.9764 4.10696 41.4095 3.94141 41.8484 3.94296C42.2805 3.94448 42.6259 4.10433 42.8403 4.28839L36.3272 11.8765ZM47.3747 11.8039C48.1581 11.0943 48.9349 10.1854 49.4829 9.00039C50.0412 7.79306 50.2309 6.58322 50.223 5.45701L40.2233 5.52743C40.2228 5.46152 40.2383 5.16658 40.4064 4.80311C40.5642 4.46196 40.7347 4.32587 40.6613 4.3924L47.3747 11.8039ZM50.223 5.45705C50.1804 -0.599976 43.9424 -4.78014 38.2887 -2.14056L42.5192 6.92052C41.3812 7.45182 40.2304 6.54667 40.2233 5.52738L50.223 5.45705ZM27.1748 6.1838C26.4203 6.34855 25.313 6.68782 24.4895 7.10915L29.0446 16.0115C28.9796 16.0447 28.9347 16.0648 28.9181 16.0722C28.8994 16.0804 28.8929 16.0828 28.9005 16.0798C28.9173 16.0732 28.9586 16.0577 29.0205 16.037C29.0808 16.0169 29.1443 15.9974 29.2029 15.9809C29.2636 15.9638 29.2998 15.9554 29.3081 15.9536L27.1748 6.1838ZM24.4902 7.10882C23.9981 7.36051 23.3237 7.72313 22.5849 8.328C21.8875 8.89906 21.2916 9.5539 20.7118 10.2677C19.6157 11.6171 18.051 13.8486 15.4198 17.6208L23.6217 23.3417C26.3679 19.4046 27.6695 17.5627 28.4738 16.5726C28.8442 16.1165 28.9571 16.035 28.92 16.0654C28.8416 16.1296 28.7792 16.1472 29.044 16.0118L24.4902 7.10882ZM15.4198 17.6208C13.9816 19.6827 12.6468 21.6103 11.6538 23.0567C11.1582 23.7786 10.7421 24.3886 10.4391 24.8385C10.2888 25.0617 10.1574 25.2585 10.055 25.4152C10.0473 25.427 9.79503 25.8011 9.61902 26.1523L18.5593 30.6324C18.4136 30.9231 18.2643 31.1329 18.4247 30.8876C18.4904 30.7872 18.5923 30.6341 18.733 30.4252C19.0119 30.0111 19.4088 29.429 19.8977 28.7169C20.8736 27.2955 22.1939 25.3887 23.6217 23.3417L15.4198 17.6208ZM9.6198 26.1508C9.29345 26.8014 9.04988 27.5112 8.90201 28.0488C8.83197 28.3034 8.7255 28.7253 8.67084 29.1964C8.65157 29.3625 8.58387 29.9441 8.69329 30.6535C8.74313 30.9767 8.89822 31.8267 9.50012 32.7192C10.2492 33.8299 11.6691 34.9122 13.6073 34.9346L13.7224 24.9352C15.6447 24.9573 17.0518 26.0319 17.7909 27.1278C18.3828 28.0056 18.5309 28.834 18.5764 29.1292C18.6772 29.7827 18.6118 30.2834 18.6042 30.349C18.5729 30.6189 18.5273 30.7612 18.5439 30.701C18.5692 30.6089 18.6016 30.5481 18.5585 30.634L9.6198 26.1508ZM13.6104 34.9346C13.4556 34.9329 13.3346 34.9239 13.3176 34.9227C13.276 34.9198 13.2438 34.917 13.229 34.9157C13.1983 34.9129 13.1771 34.9107 13.175 34.9105C13.1676 34.9097 13.1722 34.9101 13.1967 34.9129C13.2422 34.9182 13.3162 34.9269 13.4213 34.9396C13.6289 34.9647 13.9284 35.0015 14.3001 35.0477C15.042 35.1399 16.0548 35.2673 17.1589 35.4076L18.4195 25.4874C17.309 25.3463 16.2867 25.2177 15.5334 25.1241C15.1576 25.0773 14.8447 25.0388 14.6199 25.0117C14.5088 24.9983 14.4117 24.9867 14.3368 24.9781C14.301 24.974 14.2581 24.9692 14.2165 24.9648C14.1973 24.9628 14.1623 24.9592 14.1212 24.9555C14.1013 24.9538 14.0648 24.9506 14.0198 24.9474C13.9994 24.946 13.8758 24.9369 13.7193 24.9352L13.6104 34.9346ZM17.1589 35.4076C18.2797 35.55 19.3471 35.6803 20.1669 35.7756C20.5751 35.8231 20.9336 35.8633 21.2113 35.8923C21.3242 35.9041 21.8095 35.959 22.182 35.9601L22.2101 25.9601C22.4344 25.9608 22.5975 25.9794 22.4756 25.9687C22.4357 25.9652 22.3627 25.9582 22.2499 25.9464C22.0278 25.9232 21.7128 25.888 21.3222 25.8426C20.5446 25.7521 19.5131 25.6264 18.4195 25.4874L17.1589 35.4076ZM22.1797 35.9601C24.4757 35.9676 25.8923 34.5716 26.3287 34.1308C26.8379 33.6165 27.3916 32.9186 27.9395 32.2168L20.0567 26.0635C19.7731 26.4268 19.5678 26.6844 19.4137 26.8708C19.2505 27.0682 19.2007 27.1171 19.2224 27.0951C19.2384 27.079 19.302 27.0155 19.4065 26.929C19.5104 26.8429 19.6895 26.7051 19.9389 26.5606C20.196 26.4117 20.5356 26.2512 20.9524 26.1331C21.3796 26.0121 21.8058 25.9588 22.2124 25.9601L22.1797 35.9601ZM27.9396 32.2166C28.2993 31.7557 28.5235 31.4806 28.6729 31.3104C28.8492 31.1094 28.769 31.2326 28.5073 31.4254C28.1855 31.6625 27.4322 32.121 26.3303 32.19C25.2916 32.2551 24.5578 31.9275 24.4051 31.8578L28.5597 22.7617C28.0702 22.5381 27.0421 22.1259 25.7052 22.2096C24.3052 22.2973 23.2498 22.8779 22.5758 23.3744C21.5519 24.1288 20.6545 25.2976 20.0566 26.0637L27.9396 32.2166ZM24.4048 31.8576C23.2163 31.3147 22.6934 30.451 22.4932 30.0359C22.3605 29.7607 22.2338 29.4067 22.1692 28.9729C22.1077 28.5595 22.0744 27.8769 22.3296 27.0717L31.8625 30.0921C32.4628 28.1973 31.91 26.541 31.5002 25.6914C31.0661 24.7915 30.1711 23.4978 28.5601 22.7618L24.4048 31.8576ZM22.3288 27.0742C22.3853 26.8953 22.4417 26.7532 22.4803 26.6614C22.5207 26.5652 22.5574 26.4869 22.5844 26.4314C22.6369 26.3235 22.681 26.2442 22.7027 26.2059C22.7458 26.1298 22.7721 26.0903 22.7624 26.1052C22.7469 26.1292 22.6948 26.2071 22.5963 26.3451C22.4056 26.6124 22.1306 26.98 21.8265 27.3676L29.693 33.5415C30.0743 33.0556 30.4428 32.5651 30.7365 32.1536C30.8802 31.9521 31.0305 31.7354 31.1631 31.5301C31.2275 31.4304 31.3142 31.2925 31.4024 31.137C31.4311 31.0863 31.6841 30.6564 31.8633 30.0895L22.3288 27.0742ZM21.8262 27.3679C21.4202 27.8853 21.031 28.4187 20.7244 28.8846C20.5807 29.103 20.3949 29.3973 20.2294 29.7128C20.1551 29.8544 20.0086 30.143 19.8802 30.509C19.8176 30.6871 19.7078 31.0268 19.642 31.4643C19.5939 31.7842 19.4564 32.8171 19.9173 34.0223L29.2575 30.4501C29.504 31.0946 29.5677 31.6623 29.5817 32.0371C29.5961 32.4216 29.5629 32.7382 29.5307 32.9522C29.4684 33.3658 29.3665 33.6766 29.3158 33.8209C29.2111 34.1192 29.1045 34.3209 29.0847 34.3587C29.028 34.4667 29.0093 34.486 29.0781 34.3815C29.1965 34.2016 29.4137 33.8974 29.6933 33.5412L21.8262 27.3679ZM19.9203 34.03C20.0807 34.4475 20.2634 34.7499 20.3118 34.8301C20.3885 34.9575 20.4566 35.058 20.4969 35.1162C20.5785 35.2341 20.6528 35.3315 20.6958 35.3872C20.7877 35.5061 20.885 35.6249 20.9663 35.7227C21.1364 35.9271 21.354 36.1803 21.5937 36.4551C22.0788 37.0112 22.7238 37.7349 23.4157 38.4973L30.8212 31.7773C30.1617 31.0505 29.5616 30.3768 29.1293 29.8812C28.9102 29.6301 28.751 29.444 28.6538 29.3272C28.6015 29.2643 28.5926 29.252 28.6091 29.2733C28.6145 29.2803 28.6588 29.3373 28.7186 29.4237C28.7479 29.4661 28.8071 29.5531 28.8771 29.6692C28.9129 29.7287 28.9645 29.8172 29.0222 29.9276C29.0751 30.0289 29.1647 30.2086 29.2545 30.4424L19.9203 34.03ZM23.4154 38.497C24.2457 39.4122 24.9426 40.1563 25.4657 40.6709C25.6933 40.8947 26.0441 41.2315 26.4253 41.5205C26.5127 41.5867 27.0928 42.0442 27.9262 42.3342C28.2579 42.4496 29.5906 42.8979 31.2053 42.3515C33.4123 41.6047 34.3304 39.7225 34.5484 38.4232L24.6864 36.7679C24.78 36.2105 25.0136 35.4125 25.6022 34.622C26.2286 33.7808 27.079 33.1907 28.0002 32.879C29.5989 32.3381 30.9092 32.7841 31.2122 32.8895C31.6798 33.0522 32.0092 33.2482 32.1377 33.3273C32.2963 33.4249 32.4102 33.5088 32.466 33.5511C32.6321 33.677 32.6672 33.7276 32.4784 33.5418C32.1687 33.2372 31.6301 32.6689 30.8215 31.7777L23.4154 38.497ZM34.5479 38.4266C34.6117 38.0482 34.6159 37.7442 34.6171 37.6859C34.6194 37.571 34.6174 37.4778 34.6159 37.4263C34.6129 37.3207 34.6072 37.2312 34.6039 37.182C34.5968 37.0759 34.5872 36.9671 34.5788 36.8772C34.5612 36.6889 34.536 36.4459 34.5059 36.169C34.4451 35.6086 34.3558 34.8292 34.2457 33.894C34.025 32.0196 33.7158 29.4767 33.371 26.7154L23.448 27.9545C23.7908 30.6993 24.0971 33.218 24.3143 35.0631C24.4231 35.9876 24.5083 36.7324 24.5644 37.2485C24.5927 37.5098 24.6115 37.6931 24.6219 37.805C24.6275 37.8653 24.6279 37.8752 24.6265 37.8544C24.6261 37.848 24.6223 37.7928 24.62 37.713C24.6189 37.6745 24.617 37.5921 24.6191 37.4859C24.6201 37.4361 24.6239 37.1387 24.687 36.7646L34.5479 38.4266ZM33.371 26.7156C33.0284 23.9717 32.7175 21.4091 32.4927 19.4927C32.3802 18.533 32.2903 17.7448 32.2291 17.1804C32.1446 16.4006 32.1596 16.4179 32.1596 16.6788H22.1596C22.1596 17.1171 22.2449 17.8669 22.2874 18.2582C22.3531 18.8648 22.4468 19.686 22.5608 20.6577C22.7891 22.6043 23.1032 25.1922 23.448 27.9544L33.371 26.7156ZM32.1596 16.6788C32.1596 16.8166 32.1563 18.0569 31.075 19.2212C29.9157 20.4695 28.5457 20.5477 28.21 20.5477V10.5477C27.1447 10.5477 25.2496 10.7987 23.7475 12.4162C22.3234 13.9497 22.1596 15.7554 22.1596 16.6788H32.1596ZM28.21 20.5477C28.2755 20.5477 28.0819 20.5529 27.8036 20.5133C27.4897 20.4686 26.9411 20.3518 26.3299 20.0148C24.9525 19.2551 24.4824 18.0883 24.3849 17.8191C24.3046 17.5976 24.3282 17.5686 24.412 18.0939C24.4849 18.5511 24.5693 19.1924 24.6911 20.1547L34.612 18.8991C34.4939 17.9665 34.3899 17.1629 34.2872 16.5188C34.1953 15.9427 34.056 15.1558 33.787 14.4131C33.5007 13.6229 32.8159 12.1719 31.1594 11.2583C29.7584 10.4856 28.3555 10.5477 28.21 10.5477V20.5477ZM24.6911 20.1545C24.8096 21.0914 24.917 21.9602 24.9945 22.6036C25.0333 22.9266 25.0637 23.1848 25.0839 23.3636C25.0942 23.4548 25.1004 23.5126 25.1035 23.543C25.1052 23.5597 25.1044 23.5529 25.1026 23.5319C25.1018 23.5218 25.0994 23.4933 25.0968 23.4539C25.0957 23.436 25.0879 23.322 25.0871 23.1734L35.0869 23.1154C35.086 22.9606 35.0778 22.8372 35.0759 22.8071C35.0725 22.7556 35.069 22.7119 35.0666 22.684C35.0618 22.6271 35.0564 22.5731 35.0523 22.532C35.0436 22.4466 35.0326 22.346 35.0207 22.2408C34.9965 22.027 34.9628 21.7413 34.9228 21.4086C34.8424 20.7406 34.7324 19.8511 34.612 18.8993L24.6911 20.1545ZM25.087 23.1707C25.0979 25.2348 26.2887 26.5772 27.1319 27.2043C27.8629 27.748 28.5661 27.9633 28.8365 28.0404C29.4347 28.2109 29.9901 28.2559 30.229 28.274C30.8199 28.3189 31.6055 28.3279 32.5037 28.3279V18.3279C31.5673 18.3279 31.1448 18.3148 30.9862 18.3027C30.8504 18.2924 31.1456 18.3003 31.5773 18.4233C31.7644 18.4766 32.4077 18.6656 33.0996 19.1802C33.9038 19.7783 35.0762 21.0889 35.0869 23.1181L25.087 23.1707ZM32.5037 28.3279H34.9195V18.3279H32.5037V28.3279ZM39.9195 23.3279V18.7257H29.9195V23.3279H39.9195ZM39.9195 18.7257C39.9195 17.1878 39.9053 15.9323 39.8749 14.9977C39.8599 14.5353 39.8394 14.1028 39.8095 13.7318C39.797 13.5775 39.7478 12.7982 39.4985 12.0478L30.0087 15.2013C29.9301 14.9648 29.8903 14.7802 29.874 14.7003C29.855 14.6071 29.8452 14.5406 29.8414 14.5141C29.8343 14.4639 29.836 14.4627 29.8418 14.5354C29.8533 14.6775 29.8674 14.9305 29.8802 15.3228C29.9054 16.0976 29.9195 17.2282 29.9195 18.7257H39.9195ZM39.4986 12.0482C38.8164 9.9948 37.2794 8.63776 36.1589 7.87667C34.9135 7.03066 33.398 6.38171 31.8008 6.09011L30.0048 15.9275C30.0717 15.9397 30.1694 15.9664 30.2818 16.013C30.3944 16.0597 30.4841 16.1108 30.54 16.1487C30.6023 16.1911 30.5731 16.1829 30.4899 16.0885C30.4453 16.0379 30.3714 15.9468 30.2879 15.8103C30.2048 15.6746 30.0985 15.4715 30.0086 15.2009L39.4986 12.0482ZM31.8003 6.09001C31.1438 5.97021 30.3721 5.85351 29.4792 5.8736C28.6022 5.89334 27.8321 6.0405 27.1764 6.18343L29.3064 15.954C29.7827 15.8501 29.8035 15.8688 29.7042 15.8711C29.5891 15.8737 29.5822 15.8504 30.0053 15.9276L31.8003 6.09001ZM25.5209 26.8514C25.5185 26.8376 25.6488 27.8354 25.8899 29.7499C26.1163 31.5479 26.4177 33.9648 26.7392 36.5658L36.6637 35.3389C36.0354 30.2564 35.4483 25.5775 35.3772 25.1625L25.5209 26.8514ZM26.7393 36.5659C27.3122 41.1993 27.6199 43.6894 27.8333 45.0352C27.9276 45.6294 28.0597 46.404 28.3153 47.1096C28.4736 47.5468 28.7167 48.0727 29.1114 48.6052C29.4904 49.1166 29.8846 49.4535 29.9444 49.5064L36.5706 42.0169C36.5349 41.9853 36.8451 42.2457 37.1457 42.6513C37.462 43.0781 37.6323 43.4688 37.7176 43.7043C37.827 44.0062 37.8117 44.1105 37.7099 43.4686C37.5312 42.3421 37.252 40.0967 36.6637 35.3388L26.7393 36.5659ZM29.9443 49.5063C30.3191 49.838 31.0466 50.4224 32.1093 50.7647C33.3035 51.1493 34.394 51.0668 35.2175 50.8646L32.8326 41.1531C33.3745 41.0201 34.2233 40.9396 35.1751 41.2462C35.9955 41.5104 36.48 41.9367 36.5708 42.017L29.9443 49.5063ZM39.8858 35.5267L39.9254 25.5497L29.9255 25.51L29.8858 35.4869L39.8858 35.5267ZM34.9255 20.5298H32.6464V30.5298H34.9255V20.5298ZM32.6464 20.5298H30.3673V30.5298H32.6464V20.5298ZM25.4391 26.3738L25.5208 26.8509L35.3773 25.163L35.2956 24.6859L25.4391 26.3738ZM8.66382 33.5227C8.82606 34.5403 9.29529 35.7457 9.63098 36.459L18.6791 32.2009C18.6636 32.168 18.6391 32.1125 18.6094 32.0389C18.5803 31.9665 18.5525 31.8923 18.5291 31.8248C18.5048 31.7548 18.4922 31.7124 18.4892 31.7017C18.4879 31.6973 18.4923 31.7123 18.4998 31.7444C18.5064 31.7727 18.5225 31.8442 18.5391 31.9482L8.66382 33.5227ZM9.63133 36.4597C10.192 37.6507 10.9407 38.5387 12.0432 39.72C13.1678 40.9249 15.0708 42.8504 18.3623 46.1621L25.455 39.1127C22.1128 35.7499 20.3448 33.9586 19.3538 32.8969C18.3408 31.8115 18.5295 31.8831 18.6788 32.2002L9.63133 36.4597ZM18.3623 46.1621L25.663 53.5077L32.7557 46.4584L25.455 39.1127L18.3623 46.1621ZM24.2094 49.9831V58.7482H34.2094V49.9831H24.2094ZM24.2094 58.7482V67.5134H34.2094V58.7482H24.2094ZM29.2094 72.5134H31.399V62.5134H29.2094V72.5134ZM31.399 72.5134H33.5884V62.5134H31.399V72.5134ZM38.5304 68.2733L38.6037 67.7962L28.7199 66.2765L28.6465 66.7536L38.5304 68.2733ZM38.604 67.7945C38.6555 67.4585 38.6933 66.865 38.7141 66.5592C38.7466 66.0802 38.7882 65.429 38.8358 64.6563C38.931 63.1087 39.0519 61.0456 39.1756 58.8388L29.1913 58.279C29.0683 60.4724 28.9485 62.5168 28.8546 64.0422C28.8076 64.806 28.7676 65.4328 28.7371 65.8804C28.6949 66.5011 28.6882 66.4829 28.7196 66.2782L38.604 67.7945ZM39.1756 58.8388C39.4241 54.407 39.664 50.3179 39.7103 49.701L29.7383 48.953C29.683 49.6908 29.4362 53.9104 29.1913 58.279L39.1756 58.8388ZM39.7103 49.7011L39.8027 48.4696L29.8307 47.7215L29.7383 48.953L39.7103 49.7011ZM33.8933 43.1816L33.3512 43.2834L35.1979 53.1114L35.74 53.0096L33.8933 43.1816ZM33.35 43.2837C33.9605 43.1688 34.3875 43.2819 34.5873 43.3556C34.8037 43.4353 35.0413 43.5728 35.2726 43.8245L27.9107 50.5922C29.5957 52.4251 32.3763 53.6423 35.1991 53.1112L33.35 43.2837ZM35.2725 43.8243C35.3054 43.8601 35.3177 43.8768 35.3143 43.8724C35.3121 43.8695 35.3101 43.8664 35.312 43.8694C35.3136 43.8718 35.3189 43.8799 35.3275 43.8944C35.3358 43.9083 35.3509 43.9343 35.371 43.9722C35.3903 44.0085 35.4215 44.0697 35.4585 44.153C35.4934 44.2315 35.5499 44.3667 35.6075 44.547L26.0821 47.5908C26.3375 48.3901 26.7473 49.0444 26.9487 49.3516C27.2101 49.7504 27.5389 50.1877 27.9108 50.5923L35.2725 43.8243ZM35.6077 44.5476C35.6407 44.6508 35.6617 44.7294 35.6707 44.7643C35.6812 44.8045 35.6877 44.8323 35.6901 44.8428C35.6946 44.8624 35.6935 44.8592 35.6865 44.8241C35.6728 44.7549 35.6516 44.6398 35.6237 44.4768C35.5687 44.1554 35.5023 43.7349 35.4377 43.2982C35.3731 42.8618 35.3143 42.4366 35.2729 42.1064C35.252 41.9395 35.2381 41.8174 35.2304 41.74C35.2265 41.701 35.2259 41.6911 35.2268 41.7028C35.2272 41.7094 35.2288 41.7311 35.2303 41.7641C35.2316 41.7933 35.2343 41.8577 35.2343 41.9442H25.2343C25.2343 42.4431 25.3178 43.0892 25.3505 43.3496C25.4036 43.7737 25.4734 44.2757 25.5455 44.7625C25.6175 45.249 25.6958 45.7477 25.7672 46.1648C25.8049 46.3845 25.918 47.0771 26.0819 47.5903L35.6077 44.5476ZM35.2343 41.9442C35.2343 41.1474 35.0412 40.5461 34.9647 40.3222C34.8674 40.037 34.7635 39.8173 34.7015 39.6932C34.5773 39.4447 34.4578 39.2572 34.4036 39.1738C34.2848 38.9912 34.1726 38.8428 34.1168 38.7702C33.9902 38.6048 33.8493 38.4345 33.7295 38.2922C33.4773 37.9927 33.143 37.61 32.7727 37.1926C32.024 36.3487 31.036 35.259 30.0484 34.1837C29.0606 33.1082 28.054 32.0263 27.2671 31.1983C26.8773 30.7882 26.52 30.4177 26.2379 30.1352C26.1022 29.9993 25.9474 29.8471 25.7988 29.7101C25.7299 29.6466 25.6109 29.5386 25.4678 29.4227C25.3984 29.3665 25.271 29.2656 25.1062 29.1533C25.0276 29.0998 24.5802 28.7872 23.9367 28.5598L20.6053 37.9886C19.9713 37.7646 19.5369 37.4593 19.4748 37.417C19.3265 37.3159 19.2191 37.2302 19.1731 37.193C19.1185 37.1488 19.079 37.1145 19.0598 37.0975C19.0388 37.0791 19.0254 37.0668 19.0216 37.0633C19.0184 37.0604 19.0593 37.0985 19.1619 37.2013C19.3566 37.3963 19.6473 37.6967 20.0183 38.0871C20.7528 38.86 21.7182 39.8973 22.6835 40.9482C23.6489 41.9993 24.5951 43.0433 25.2923 43.8291C25.6449 44.2266 25.9115 44.5329 26.0794 44.7324C26.1697 44.8397 26.1938 44.8714 26.1794 44.8527C26.1729 44.8441 26.1566 44.8228 26.134 44.7916C26.1136 44.7634 26.0723 44.7054 26.0209 44.6264C25.9812 44.5654 25.8727 44.3965 25.7559 44.1627C25.6976 44.0459 25.5965 43.8327 25.501 43.5529C25.4264 43.3345 25.2343 42.7376 25.2343 41.9442H35.2343ZM23.9362 28.5596C23.6311 28.4519 23.3719 28.3949 23.3216 28.3835C23.2183 28.3602 23.1254 28.342 23.0591 28.3295C22.9238 28.3041 22.78 28.2801 22.6482 28.2591C22.3781 28.2161 22.0389 28.1668 21.6645 28.1148C20.9096 28.0101 19.9296 27.8837 18.9003 27.7595L17.7029 37.6876C18.6868 37.8063 19.6065 37.9251 20.2905 38.02C20.6356 38.0679 20.9006 38.1069 21.0762 38.1348C21.1185 38.1415 21.1514 38.147 21.1758 38.1511C21.2013 38.1555 21.2114 38.1573 21.2093 38.157C21.2079 38.1567 21.2 38.1552 21.187 38.1526C21.1747 38.1501 21.1512 38.1452 21.1195 38.1381C21.115 38.137 20.8896 38.089 20.6058 37.9888L23.9362 28.5596ZM18.8999 27.7595C17.9002 27.639 16.9292 27.5196 16.1717 27.4245C15.7925 27.3769 15.471 27.3359 15.2282 27.3042C14.9557 27.2687 14.849 27.2534 14.8496 27.2535L13.2921 37.1314C13.7215 37.1991 15.7499 37.4522 17.7033 37.6876L18.8999 27.7595ZM14.8488 27.2533L14.2783 27.1635L12.7225 37.0417L13.293 37.1316L14.8488 27.2533ZM8.56296 32.8908L8.66398 33.5237L18.5389 31.9472L18.4379 31.3144L8.56296 32.8908ZM43.138 41.2716C43.6663 41.8042 43.8213 41.9926 43.8949 42.092C43.9401 42.153 44.0181 42.2617 44.2493 42.7272L53.2054 38.2788C52.8589 37.5811 52.4789 36.8799 51.9297 36.1387C51.409 35.4359 50.8331 34.8296 50.238 34.2296L43.138 41.2716ZM44.249 42.7266C44.8536 43.9443 45 44.5885 45 45.861H55C55 43.0078 54.4796 40.845 53.2057 38.2794L44.249 42.7266ZM45 45.861C45 46.6299 44.8652 47.4329 44.6415 48.1134C44.4011 48.845 44.1598 49.1342 44.1693 49.1242L51.4236 56.0071C53.9031 53.3939 55 49.2783 55 45.861H45ZM44.1694 49.1241C44.1334 49.162 44.261 49.0181 44.5235 48.835C44.8017 48.6409 45.3665 48.3077 46.183 48.1685C48.0691 47.8469 49.2989 48.8312 49.3832 48.8977L43.1893 56.7486C43.8293 57.2535 45.5125 58.4272 47.8639 58.0262C49.8361 57.6899 51.0538 56.3969 51.4236 56.0072L44.1694 49.1241ZM49.382 48.8968C49.7029 49.1498 50.1631 49.6053 50.5025 50.3168C50.8543 51.0542 50.9419 51.7845 50.9014 52.3732C50.8646 52.9082 50.7277 53.2667 50.6811 53.3799C50.6313 53.5007 50.6108 53.5165 50.685 53.3959L42.1694 48.1533C41.7617 48.8156 41.0349 50.0896 40.925 51.6868C40.7748 53.8682 41.7922 55.647 43.1905 56.7495L49.382 48.8968ZM50.685 53.396C52.0973 51.102 52.6552 49.1215 52.7628 46.4276L42.7708 46.0285C42.7428 46.7286 42.6758 47.049 42.6208 47.2357C42.5702 47.4075 42.4734 47.6595 42.1695 48.1532L50.685 53.396ZM52.7628 46.4274C52.8419 44.446 52.6363 42.4735 51.8734 40.5284C51.1098 38.5814 49.9192 36.9967 48.5112 35.6018L41.473 42.7056C42.1833 43.4093 42.4398 43.8634 42.5639 44.1797C42.6886 44.4978 42.8113 45.0131 42.7707 46.0286L52.7628 46.4274ZM48.5112 35.6018C48.2497 35.3427 48.0857 35.1755 47.9786 35.0613C47.862 34.937 47.8884 34.9547 47.9661 35.0603C48.052 35.1771 48.2762 35.501 48.4554 35.998C48.654 36.5484 48.7042 37.0486 48.7042 37.4037H38.7042C38.7042 38.8651 39.2202 40.0474 39.912 40.9875C40.3709 41.611 40.988 42.225 41.473 42.7055L48.5112 35.6018ZM48.7042 37.4037C48.7042 37.9469 48.5411 39.2011 47.4219 40.2677C46.3453 41.2938 45.1677 41.3927 44.765 41.3927V31.3927C43.6629 31.3927 41.955 31.6638 40.5228 33.0288C39.0481 34.4342 38.7042 36.1939 38.7042 37.4037H48.7042ZM44.765 41.3927C44.7612 41.3927 44.6502 41.3933 44.4898 41.3785C44.3151 41.3624 44.0782 41.3281 43.8045 41.2538C43.2126 41.093 42.7926 40.8392 42.5756 40.6859C42.4111 40.5698 42.3582 40.5063 42.5046 40.6446C42.6349 40.7677 42.8244 40.9554 43.1381 41.2717L50.2379 34.2295C49.749 33.7366 49.0458 33.0129 48.3436 32.5171C47.8678 32.1811 47.2335 31.8228 46.4255 31.6034C45.6671 31.3974 45.0264 31.3927 44.765 31.3927V41.3927ZM1.27676 44.44C0.951733 44.1837 0.497313 43.7282 0.165165 43.0194C-0.181787 42.2789 -0.277653 41.5111 -0.207863 40.8383C-0.0887613 39.6903 0.468736 39.1313 0.31951 39.311L8.01256 45.6999C8.59466 44.9989 9.55128 43.6774 9.73876 41.8702C9.97882 39.5562 8.8732 37.6951 7.46847 36.5874L1.27676 44.44ZM0.319446 39.3111C-0.911879 40.7939 -2.03383 43.074 -2.50186 44.92L7.19146 47.3775C7.22759 47.2351 7.34922 46.8868 7.56719 46.4507C7.66733 46.2504 7.76846 46.0706 7.85924 45.9252C7.90391 45.8536 7.94169 45.7973 7.97093 45.7561C8.00084 45.7139 8.01533 45.6965 8.01262 45.6998L0.319446 39.3111ZM-2.50194 44.9203C-2.76564 45.9607 -2.87701 47.4447 -2.87701 48.43H7.12299C7.12299 48.2334 7.13708 47.9476 7.16468 47.6637C7.17793 47.5275 7.19173 47.4184 7.2029 47.3443C7.21669 47.2527 7.21713 47.2763 7.19155 47.3772L-2.50194 44.9203ZM-2.87701 48.43C-2.87701 52.0599 -1.69503 55.2418 0.719457 57.9598L8.19562 51.3185C7.44027 50.4682 7.12299 49.6625 7.12299 48.43H-2.87701ZM0.719771 57.9601C0.848064 58.1045 0.920209 58.1914 0.956594 58.2373C0.996039 58.287 0.961948 58.2492 0.897408 58.145C0.770495 57.9401 0.34407 57.1883 0.34407 56.0704H10.3441C10.3441 54.6301 9.8041 53.5338 9.39879 52.8794C9.02142 52.2701 8.55903 51.7275 8.19531 51.3181L0.719771 57.9601ZM0.34407 56.0704C0.34407 53.6452 2.37164 52.0909 4.26823 52.0909V62.0909C7.39088 62.0909 10.3441 59.6585 10.3441 56.0704H0.34407ZM4.26823 52.0909C4.47028 52.0909 4.85836 52.109 5.33198 52.2411C5.81677 52.3764 6.19647 52.5763 6.45829 52.7479C6.57947 52.8274 6.66788 52.8958 6.71989 52.9381C6.74659 52.9598 6.76655 52.9769 6.77916 52.9879C6.79178 52.999 6.79873 53.0054 6.79936 53.006C6.80001 53.0066 6.79587 53.0028 6.78628 52.9935C6.77672 52.9842 6.76304 52.9707 6.74461 52.9522C6.70685 52.9142 6.65648 52.8623 6.58887 52.7913L-0.656509 59.6836C-0.357892 59.9975 0.234767 60.6254 0.9763 61.1114C2.08261 61.8366 3.21975 62.0909 4.26823 62.0909V52.0909ZM6.58874 52.7911C6.01555 52.1886 5.63027 51.5782 5.39373 51.0017L-3.85786 54.7975C-3.11255 56.6141 -2.0132 58.2575 -0.656379 59.6838L6.58874 52.7911ZM5.39347 51.0011C5.11203 50.3154 5.08178 50.1524 5.06459 50.0523C5.03363 49.8721 5 49.5308 5 48.43H-5C-5 49.5596 -4.97923 50.6501 -4.79101 51.7456C-4.58903 52.9212 -4.23531 53.8779 -3.8576 54.7981L5.39347 51.0011ZM5 48.43C5 47.3315 5.0336 46.9884 5.06463 46.8073C5.08177 46.7072 5.11166 46.5454 5.38973 45.8677L-3.86177 42.0717C-4.2386 42.9901 -4.5907 43.9448 -4.79182 45.119C-4.97906 46.2121 -5 47.3011 -5 48.43H5ZM5.38978 45.8676C5.57018 45.4279 5.89419 44.8835 6.19731 44.4971C6.35143 44.3007 6.39404 44.2814 6.29545 44.3645C6.24713 44.4053 6.06247 44.5581 5.75073 44.7221C5.58795 44.8077 5.34388 44.9211 5.0275 45.0169C4.71342 45.1121 4.26399 45.2094 3.7142 45.2094V35.2094C2.4986 35.2094 1.57178 35.6212 1.09605 35.8714C0.568064 36.1491 0.146915 36.4684 -0.151735 36.7203C-0.750965 37.2257 -1.26433 37.8071 -1.67026 38.3245C-2.48724 39.3658 -3.29961 40.7015 -3.86182 42.0718L5.38978 45.8676ZM3.7142 45.2094C3.07787 45.2094 2.60788 45.0801 2.43057 45.0276C2.20303 44.9602 2.03158 44.888 1.9224 44.8375C1.71775 44.7429 1.50412 44.6193 1.27601 44.4394L7.46923 36.588C7.02897 36.2407 6.56109 35.965 6.11775 35.7601C5.85535 35.6388 4.9218 35.2094 3.7142 35.2094V45.2094ZM38.531 45.8561C38.5009 45.8279 38.4845 45.8107 38.4817 45.8077C38.4782 45.8041 38.482 45.8079 38.4923 45.8198C38.5024 45.8314 38.516 45.8475 38.5322 45.8676C38.5483 45.8876 38.5651 45.9092 38.5819 45.9315C38.5987 45.9539 38.6138 45.9749 38.6267 45.9934C38.6397 46.0121 38.6484 46.0255 38.6531 46.0327C38.658 46.0404 38.6553 46.0367 38.6467 46.0215C38.6387 46.0076 38.6181 45.971 38.59 45.9136L47.5705 41.5147C47.0614 40.4753 46.1762 39.3166 45.3727 38.5629L38.531 45.8561ZM38.5898 45.9133C38.5051 45.7402 38.5003 45.6541 38.5053 45.6907C38.5094 45.7203 38.513 45.7861 38.504 45.8653C38.4947 45.9471 38.4804 45.971 38.4967 45.93C38.5063 45.9058 38.5312 45.8476 38.5816 45.7642C38.6316 45.6815 38.717 45.5569 38.8515 45.4134L46.1491 52.2504C47.6595 50.6383 48.2598 48.5848 48.4404 46.9912C48.6266 45.3483 48.4668 43.3448 47.5706 41.515L38.5898 45.9133ZM38.8521 45.4128C40.1332 44.0458 41.8295 44.0002 42.8916 44.3491C43.9443 44.6948 45.6296 45.9122 45.6296 48.2176H35.6296C35.6296 51.3914 37.939 53.248 39.7714 53.8498C41.6133 54.4547 44.245 54.2821 46.1485 52.251L38.8521 45.4128ZM45.6296 48.2176C45.6296 48.5173 45.6003 48.7494 45.5815 48.8749C45.5608 49.0122 45.5377 49.1179 45.5222 49.1828C45.4921 49.3093 45.4655 49.3866 45.4582 49.4078C45.4452 49.4448 45.4368 49.4656 45.4129 49.5107L36.5783 44.8255C36.3531 45.2503 36.1616 45.6969 36.016 46.1144C35.9411 46.3294 35.6296 47.1984 35.6296 48.2176H45.6296ZM45.4129 49.5107C46.1724 48.0784 46.5778 46.3471 46.2272 44.4749C45.8932 42.6909 44.9679 41.2917 44.0158 40.2562L36.6542 47.0242C36.7888 47.1706 36.5136 46.9324 36.398 46.3154C36.3397 46.0038 36.3409 45.6851 36.3937 45.3909C36.4447 45.1069 36.5311 44.9146 36.5783 44.8255L45.4129 49.5107ZM44.0157 40.256C43.9953 40.2338 44.0019 40.2357 44.0465 40.3008C44.064 40.3262 44.1489 40.4502 44.2516 40.6515C44.3023 40.7511 44.3967 40.9457 44.4881 41.2097C44.5566 41.4079 44.7511 41.9962 44.7511 42.7885H34.7511C34.7511 43.6105 34.9538 44.2369 35.038 44.4802C35.145 44.7894 35.2623 45.0362 35.3428 45.1939C35.5047 45.5114 35.6754 45.7754 35.7986 45.9552C36.0549 46.3291 36.3535 46.6971 36.6543 47.0243L44.0157 40.256ZM44.7511 42.7885C44.7511 43.3437 44.6437 43.7674 44.5629 44.0169C44.4764 44.2839 44.3699 44.507 44.2603 44.6932C44.152 44.8774 43.9987 45.097 43.7793 45.3278C43.5799 45.5376 43.1886 45.9018 42.5737 46.2003L38.2064 37.2043C36.7957 37.8892 36.0056 39.0032 35.6411 39.6228C35.249 40.2894 34.7511 41.405 34.7511 42.7885H44.7511ZM42.5738 46.2002C42.5158 46.2284 42.1452 46.4097 41.5845 46.5028C40.9273 46.6119 40.2246 46.5671 39.5593 46.351C38.9796 46.1627 38.6145 45.9034 38.513 45.8288C38.4111 45.7538 38.3964 45.7299 38.5318 45.8569L45.3718 38.5621C45.08 38.2884 44.0808 37.3053 42.6481 36.84C40.6153 36.1798 38.9576 36.8397 38.2063 37.2044L42.5738 46.2002ZM6.70799 49.2749C5.93297 48.8731 5.02689 48.0259 4.68215 46.6825C4.35688 45.4151 4.70993 44.4055 4.98108 43.9036L13.7791 48.657C14.3765 47.5514 14.8217 45.9635 14.3683 44.1968C13.8954 42.3542 12.641 41.0869 11.311 40.3973L6.70799 49.2749ZM4.98045 43.9048C4.85042 44.1456 4.61742 44.5728 4.46755 44.8452L13.2288 49.666C13.3899 49.3732 13.6357 48.9226 13.7797 48.6558L4.98045 43.9048ZM4.46704 44.8461C3.85517 45.9587 3.64136 47.1149 3.587 47.9948C3.53193 48.8862 3.60763 50.0264 4.04088 51.1688L13.391 47.6227C13.5007 47.9119 13.5402 48.138 13.5561 48.2678C13.5731 48.4056 13.5737 48.5183 13.568 48.6114C13.5623 48.7039 13.5473 48.8234 13.5096 48.9718C13.4743 49.1105 13.3979 49.3585 13.2293 49.6651L4.46704 44.8461ZM4.0403 51.1672C4.38402 52.0745 4.9999 52.9645 5.37817 53.4434L13.225 47.2444C13.2394 47.2626 13.2398 47.2642 13.2294 47.2492C13.2198 47.2354 13.2103 47.2208 13.204 47.2106C13.1962 47.1979 13.2042 47.2098 13.2244 47.2479C13.235 47.2679 13.2547 47.3058 13.2799 47.3594C13.3034 47.4093 13.3448 47.5007 13.3916 47.6243L4.0403 51.1672ZM5.37784 53.4429C5.30057 53.3451 4.76933 52.6581 4.73578 51.4667C4.71779 50.8277 4.85159 50.1462 5.17131 49.5062C5.48373 48.8807 5.89818 48.4441 6.25488 48.1628L12.4464 56.0155C13.7969 54.9507 14.7899 53.2484 14.7318 51.1853C14.6816 49.4024 13.862 48.0508 13.2254 47.2449L5.37784 53.4429ZM6.25406 48.1635C6.52531 47.9495 7.63652 47.1824 9.28416 47.4305C10.0103 47.5399 10.5462 47.8125 10.8673 48.0213C11.1708 48.2188 11.3345 48.3924 11.3576 48.417L4.07406 55.269C4.62521 55.8549 5.85911 57.0275 7.79516 57.3191C9.96656 57.646 11.5972 56.6853 12.4473 56.0148L6.25406 48.1635ZM11.3575 48.4169C11.3966 48.4584 11.4192 48.489 11.4294 48.5038C11.4396 48.5186 11.4409 48.5226 11.4366 48.5141C11.4323 48.5057 11.4248 48.4896 11.4164 48.4664C11.408 48.4432 11.4002 48.4175 11.394 48.3908C11.3877 48.364 11.384 48.341 11.3821 48.3235C11.3801 48.3059 11.3805 48.2991 11.3805 48.3042C11.3804 48.3091 11.3797 48.3323 11.3733 48.3729C11.3668 48.4133 11.3535 48.4781 11.3254 48.5629L1.83269 45.4184C1.2307 47.2357 1.2907 49.1056 1.65762 50.6717C2.02685 52.2478 2.79863 53.9133 4.07413 55.2691L11.3575 48.4169ZM11.3253 48.5633C11.3201 48.5791 11.3269 48.5563 11.3518 48.5056C11.3759 48.4565 11.4004 48.415 11.4155 48.392C11.4356 48.3612 11.412 48.4035 11.3275 48.4965C11.2833 48.5453 11.1994 48.6332 11.074 48.7408C10.9557 48.8422 10.7404 49.0131 10.4299 49.1857L5.57103 40.4454C4.21289 41.2005 3.37981 42.4083 3.04435 42.9217C2.57531 43.6394 2.13479 44.5067 1.83282 45.418L11.3253 48.5633ZM10.4303 49.1854C10.5691 49.1082 10.3994 49.2108 10.1475 49.3126C9.80864 49.4496 9.18454 49.6488 8.37714 49.6324C7.61234 49.6169 7.05267 49.4133 6.83651 49.3266C6.66144 49.2564 6.55362 49.1949 6.70763 49.2747L11.3114 40.3975C11.2087 40.3442 10.9018 40.1827 10.5588 40.0452C10.1746 39.8911 9.47795 39.6527 8.58055 39.6345C7.64053 39.6154 6.88818 39.8439 6.39874 40.0419C5.99631 40.2046 5.65365 40.3995 5.57056 40.4457L10.4303 49.1854ZM18.3834 48.4656C18.3638 48.3751 18.3555 48.322 18.3628 48.3643C18.3665 48.3858 18.3732 48.4263 18.3831 48.4896C18.4028 48.6149 18.4291 48.7897 18.4604 49.0054C18.5228 49.4347 18.5996 49.9876 18.6749 50.5556L28.588 49.2402C28.4489 48.1915 28.2545 46.7975 28.1548 46.3392L18.3834 48.4656ZM18.675 50.5558C18.8116 51.585 18.8295 52.031 18.8219 52.251C18.8204 52.2958 18.8179 52.3225 18.8165 52.3356C18.8151 52.348 18.814 52.3536 18.8136 52.3556C18.8132 52.3577 18.8118 52.3648 18.8074 52.3804C18.8028 52.3968 18.7937 52.4269 18.7764 52.4752L28.1952 55.8348C29.0058 53.5622 28.9093 51.661 28.588 49.24L18.675 50.5558ZM18.7769 52.474C18.9064 52.1112 19.058 51.8489 18.9341 52.0864C18.8915 52.1682 18.8195 52.3024 18.7136 52.4958C18.5043 52.8778 18.2034 53.4163 17.8289 54.0784C17.0822 55.3984 16.0714 57.1598 14.9785 59.0402L23.6242 64.0653C24.7318 62.1596 25.7628 60.3634 26.533 59.0017C26.9169 58.323 27.2432 57.7395 27.4842 57.2996C27.6033 57.082 27.7122 56.8802 27.8005 56.711C27.8075 56.6976 28.04 56.2695 28.1947 55.836L18.7769 52.474ZM14.9784 59.0403C13.8749 60.939 12.8697 62.6787 12.1385 63.9532C11.7738 64.5889 11.4728 65.1168 11.2604 65.4934C11.1559 65.6789 11.0639 65.8435 10.9941 65.9712C10.9618 66.0303 10.9181 66.111 10.876 66.1928C10.8585 66.2267 10.8152 66.3111 10.767 66.4152C10.7463 66.4602 10.6923 66.5779 10.6336 66.7309C10.6054 66.8043 10.5495 66.9542 10.4939 67.1482C10.4705 67.2299 10.3001 67.7915 10.3001 68.5273H20.3001C20.3001 69.2624 20.13 69.8228 20.107 69.903C20.0518 70.0955 19.9966 70.2435 19.9694 70.3146C19.9124 70.4631 19.861 70.5747 19.8437 70.6122C19.8025 70.7013 19.7696 70.7648 19.7659 70.772C19.7512 70.8005 19.7483 70.805 19.7696 70.7661C19.8068 70.6979 19.8727 70.5796 19.9713 70.4046C20.1654 70.0605 20.452 69.5578 20.8125 68.9293C21.5318 67.6756 22.5272 65.9528 23.6242 64.0652L14.9784 59.0403ZM10.3001 68.5273C10.3001 69.5022 10.5911 70.2215 10.6684 70.4118C10.7869 70.7036 10.9085 70.9231 10.9733 71.0354C11.1061 71.2653 11.2292 71.4356 11.278 71.5022C11.3896 71.6547 11.4901 71.7744 11.5313 71.8232C11.6302 71.9401 11.7324 72.0528 11.8075 72.1346C11.9699 72.3115 12.1792 72.532 12.4078 72.7695C12.8725 73.2521 13.4988 73.8896 14.1783 74.57L21.2536 67.5031C20.6044 66.8531 20.0229 66.2609 19.6118 65.8339C19.4025 65.6165 19.257 65.4622 19.1741 65.3719C19.1265 65.3201 19.1333 65.326 19.1676 65.3665C19.1764 65.377 19.2524 65.4661 19.3474 65.5959C19.3879 65.6512 19.5047 65.8122 19.6333 66.0349C19.696 66.1435 19.8161 66.3599 19.9335 66.6491C19.9939 66.7978 20.0753 67.0185 20.1454 67.2936C20.2118 67.554 20.3001 67.9859 20.3001 68.5273H10.3001ZM14.1783 74.5699C14.704 75.0963 15.0925 75.4889 15.3849 75.7924C15.6878 76.1068 15.8267 76.2627 15.8821 76.3289C15.9052 76.3565 15.8794 76.3278 15.8288 76.2556C15.7784 76.1837 15.6762 76.0299 15.5663 75.8067C15.4506 75.5719 15.3299 75.2676 15.2448 74.902C15.1583 74.5303 15.1318 74.1948 15.1318 73.9234H25.1318C25.1318 71.8881 24.0723 70.534 23.5512 69.9113C23.0387 69.2989 22.2548 68.5056 21.2537 67.5031L14.1783 74.5699ZM15.1318 73.9234C15.1318 73.4976 15.21 72.8356 15.5682 72.1185C15.919 71.4163 16.3776 70.9843 16.6506 70.7691L22.8414 78.6223C23.387 78.1922 24.0385 77.5395 24.514 76.5876C24.997 75.6208 25.1318 74.68 25.1318 73.9234H15.1318ZM16.6495 70.7699L16.2637 71.0742L22.4567 78.9258L22.8425 78.6215L16.6495 70.7699ZM30.4798 70.1924C30.9757 70.3906 31.2498 70.6306 31.3533 70.7289C31.4769 70.8462 31.5972 70.9913 31.7094 71.1951L22.948 76.0158C23.6814 77.3486 24.994 78.7688 26.7679 79.4779L30.4798 70.1924ZM31.7092 71.1947C32.1525 72.0002 32.187 72.6778 32.1696 72.5135C32.1589 72.4121 32.1367 72.094 32.1175 71.3066C32.0801 69.7781 32.0639 67.0399 32.0454 61.9838L22.0454 62.0205C22.0638 67.0276 22.08 69.8926 22.1205 71.5507C22.1401 72.3566 22.1682 73.0276 22.2253 73.5667C22.2757 74.0429 22.3957 75.0122 22.9482 76.0162L31.7092 71.1947ZM32.0454 61.9838L32.0045 50.8209L22.0046 50.8575L22.0454 62.0204L32.0454 61.9838ZM30.5348 47.2983L28.6271 45.3965L21.5667 52.4781L23.4743 54.38L30.5348 47.2983ZM28.6271 45.3964C27.9463 44.7177 27.3293 44.1177 26.8515 43.7165C26.7203 43.6064 26.5391 43.4597 26.3278 43.3112C26.185 43.2108 25.7279 42.8907 25.0907 42.6515C24.7802 42.5349 24.0812 42.302 23.1641 42.3262C22.1181 42.3538 20.6531 42.7414 19.518 44.0328C18.5005 45.1903 18.3103 46.4491 18.2736 47.0601C18.235 47.703 18.3283 48.2121 18.3834 48.4652L28.1548 46.3396C28.2026 46.559 28.2928 47.0398 28.2556 47.6597C28.2203 48.2479 28.0359 49.4892 27.0289 50.6348C25.9042 51.9143 24.4543 52.2957 23.428 52.3227C22.5308 52.3464 21.8564 52.1188 21.5756 52.0133C20.9976 51.7963 20.6197 51.5221 20.5774 51.4924C20.4666 51.4145 20.4072 51.3632 20.4208 51.3746C20.5215 51.4592 20.8477 51.7613 21.5668 52.4782L28.6271 45.3964ZM4.86971 65.9505C4.6803 66.3955 4.50085 66.8394 4.36127 67.2082C4.29364 67.3869 4.22004 67.5882 4.15647 67.7814C4.12632 67.873 4.08069 68.0162 4.03699 68.1811C4.01542 68.2625 3.98158 68.3967 3.95009 68.5611C3.92957 68.6683 3.85697 69.0476 3.85769 69.5347L13.8577 69.5199C13.8579 69.6616 13.852 69.7833 13.8452 69.8785C13.8383 69.9749 13.8294 70.0588 13.821 70.1271C13.8046 70.2604 13.7856 70.369 13.7716 70.4421C13.7443 70.5847 13.7167 70.6924 13.7033 70.7429C13.688 70.8006 13.6753 70.8432 13.6688 70.8647C13.6617 70.888 13.6569 70.9028 13.6554 70.9071C13.654 70.9113 13.6704 70.8626 13.7138 70.748C13.7963 70.53 13.9232 70.2138 14.0708 69.867L4.86971 65.9505ZM3.85769 69.5337C3.85937 70.8478 4.38272 71.7778 4.49224 71.9758C4.68303 72.3207 4.8755 72.5737 4.97559 72.7001C5.18465 72.9641 5.38567 73.1674 5.48866 73.2692C5.71834 73.4962 5.96672 73.7127 6.16439 73.88C6.5831 74.2344 7.10138 74.6427 7.60428 75.0242C8.1121 75.4094 8.65957 75.8093 9.1477 76.1455C9.44897 76.353 10.229 76.8959 10.9675 77.2054L14.8334 67.9829C15.0326 68.0664 15.1603 68.1383 15.1725 68.1451C15.2029 68.162 15.2052 68.1644 15.1723 68.144C15.106 68.1027 14.9891 68.0264 14.8205 67.9103C14.4874 67.6808 14.0664 67.3746 13.648 67.0572C13.2246 66.736 12.8587 66.445 12.6248 66.247C12.4962 66.1381 12.4761 66.1152 12.5189 66.1575C12.5285 66.167 12.6565 66.2915 12.8159 66.4928C12.8911 66.5879 13.0646 66.8134 13.2425 67.1351C13.3341 67.3006 13.4675 67.5641 13.5858 67.9062C13.6973 68.2288 13.8568 68.7955 13.8577 69.5209L3.85769 69.5337ZM10.9689 77.206C12.457 77.8292 14.0801 77.7911 15.0135 77.7643L14.7268 67.7684C14.5215 67.7743 14.3668 67.7753 14.2517 67.7736C14.135 67.7719 14.0799 67.7678 14.0702 67.7669C14.0588 67.7659 14.1257 67.7709 14.2459 67.7962C14.3675 67.8218 14.5751 67.8747 14.8319 67.9823L10.9689 77.206ZM15.013 77.7643L16.4715 77.7226L16.1858 67.7267L14.7273 67.7684L15.013 77.7643ZM19.8671 69.192L16.7444 66.0642L9.66759 73.1295L12.7903 76.2573L19.8671 69.192ZM16.7444 66.0642L13.6216 62.9363L6.54475 70.0016L9.6676 73.1295L16.7444 66.0642ZM5.48264 64.5106L4.86975 65.9504L14.0708 69.8671L14.6837 68.4273L5.48264 64.5106ZM24.2428 71.3586L24.2845 72.8633L34.2807 72.5861L34.2389 71.0814L24.2428 71.3586ZM29.2272 77.7244L32.782 77.7637L32.8927 67.7643L29.3379 67.725L29.2272 77.7244ZM32.782 77.7637L36.3368 77.803L36.4474 67.8037L32.8927 67.7643L32.782 77.7637ZM40.4101 69.8275L39.2712 68.2897L31.2351 74.2413L32.3741 75.7792L40.4101 69.8275ZM39.271 68.2895L38.1321 66.7518L30.0963 72.7038L31.2353 74.2415L39.271 68.2895ZM34.1267 64.7278L31.6692 64.7217L31.6441 74.7216L34.1017 74.7278L34.1267 64.7278ZM31.6695 64.7217L29.212 64.7154L29.1863 74.7153L31.6438 74.7216L31.6695 64.7217ZM24.201 69.854L24.2428 71.3586L34.2389 71.0814L34.1972 69.5768L24.201 69.854ZM35.2168 50.8648C35.1894 50.8715 35.17 50.8758 35.1636 50.8772C35.1604 50.8779 35.1596 50.8781 35.1626 50.8774C35.1662 50.8767 35.1707 50.8757 35.1811 50.8735L33.1127 41.0898C33.0829 41.0961 32.9661 41.1204 32.8333 41.153L35.2168 50.8648ZM35.1809 50.8736C35.1927 50.8711 35.4095 50.8274 35.6432 50.7614C35.903 50.688 36.3206 50.5517 36.7904 50.2962L32.0132 41.5111C32.4105 41.2951 32.7497 41.1874 32.9246 41.138C33.0735 41.0959 33.1992 41.0715 33.1129 41.0897L35.1809 50.8736ZM36.7905 50.2962C38.6476 49.2863 39.2817 47.6021 39.5086 46.7035C39.7052 45.9246 39.7607 45.0931 39.7916 44.4589C39.8588 43.0743 39.866 40.7632 39.8799 37.056L29.88 37.0186C29.8655 40.8761 29.8566 42.8769 29.8033 43.9737C29.7739 44.5802 29.7431 44.5318 29.8127 44.256C29.8561 44.084 29.9881 43.6147 30.3375 43.0686C30.7428 42.4352 31.317 41.8897 32.0132 41.5111L36.7905 50.2962ZM28.5442 79.8345L38.8883 79.9994L39.0476 70.0006L28.7035 69.8358L28.5442 79.8345ZM12.8077 79.9002L19.2836 79.9994L19.4368 70.0006L12.9609 69.9014L12.8077 79.9002ZM40.3707 5.1181L43.3601 4.99582L42.9514 -4.99582L39.962 -4.87354L40.3707 5.1181ZM29.8858 35.487C29.8837 36.0229 29.8818 36.531 29.88 37.0121L39.8799 37.0497C39.8817 36.5683 39.8836 36.0613 39.8858 35.5266L29.8858 35.487ZM29.88 37.0155L29.88 37.022L39.8799 37.0526L39.8799 37.0462L29.88 37.0155Z" fill="#FF668E" mask="url(#path-1-inside-1)"/>
</svg>
