<svg width="65" height="79" viewBox="0 0 65 79" fill="none" xmlns="http://www.w3.org/2000/svg">
<path fill-rule="evenodd" clip-rule="evenodd" d="M34.6765 1.49954C36.5967 2.35985 37.8967 4.30738 37.9352 6.38064C37.9551 7.4569 37.9802 7.52611 38.617 8.25974C39.4978 9.27476 40.6297 11.5799 40.9133 12.9363C41.7433 16.9078 40.3618 22.072 37.5997 25.3227L36.7562 26.3155V27.8078C36.7562 28.8949 36.8094 29.3014 36.9523 29.3045C37.6502 29.3203 45.7463 31.0195 46.0397 31.2119C46.2835 31.3717 48.0073 34.7175 51.314 41.4492C54.0157 46.9492 56.2648 51.6421 56.3122 51.8781C56.4621 52.6267 55.9232 54.4216 55.3973 54.9247L54.9293 55.3726L48.1954 55.4166L41.4614 55.4606L41.4639 56.7476L41.4664 58.0346L49.7373 60.3501C58.6372 62.8418 59.5906 63.1921 61.5817 64.6999C63.598 66.2268 64.2299 67.436 63.929 69.1906C63.5289 71.5228 61.9164 73.6067 59.5765 74.8157C56.4014 76.4562 54.5479 76.6106 42.0104 76.2787C38.8186 76.1943 34.1605 76.0514 31.6589 75.961L27.1105 75.7969L22.0361 76.8985C19.2451 77.5044 16.7537 78 16.4996 78C14.8846 78 13.9215 76.0539 14.8561 74.6787L15.2275 74.1325L12.5427 74.0318C11.0662 73.9764 9.54046 73.8577 9.15228 73.7681C8.28621 73.5683 3.03017 70.9301 2.19108 70.2739C1.5198 69.7492 1.00536 68.7877 1.00003 68.048C0.994541 67.2873 1.73608 66.0014 2.63823 65.2073C3.09181 64.808 4.09089 64.0877 4.85831 63.6068L6.25371 62.7324L14.7606 60.3835L23.2675 58.0346L23.2678 56.7476L23.2679 55.4606L16.534 55.4166L9.80003 55.3726L9.33202 54.9247C8.80551 54.4211 8.26723 52.6266 8.41764 51.8762C8.46501 51.6394 10.7179 46.9386 13.424 41.4298C18.0051 32.1044 18.3814 31.3956 18.8847 31.1451C19.1821 30.9971 21.3485 30.5112 23.6992 30.0652L27.9731 29.2546V27.7849V26.3155L27.1296 25.3227C24.3675 22.072 22.9861 16.9078 23.8161 12.9363C24.0996 11.5799 25.2316 9.27476 26.1124 8.25974C26.7492 7.52611 26.7742 7.4569 26.7942 6.38064C26.8671 2.44003 31.0265 -0.1359 34.6765 1.49954ZM31.2668 2.34685C29.5157 2.92264 28.3688 4.18367 28.0618 5.87157C27.9755 6.34572 27.9967 6.45988 28.1582 6.38941C29.6292 5.74692 30.5276 5.44611 31.362 5.31645C32.9106 5.07577 34.1451 5.32992 36.5711 6.38941C36.7327 6.45988 36.7538 6.34572 36.6676 5.87157C36.3004 3.85373 34.644 2.38647 32.6029 2.27122C32.0838 2.24194 31.4824 2.27592 31.2668 2.34685ZM31.1376 6.59658C28.1628 7.21966 25.6408 10.0284 25.0049 13.4265C24.9345 13.8029 24.8911 14.1108 24.9086 14.1108C24.926 14.1108 25.1643 13.7658 25.438 13.3441C26.5152 11.6844 28.6471 10.1619 30.487 9.73859C31.6521 9.4705 33.631 9.53502 34.74 9.87717C36.5264 10.4282 38.2361 11.6445 39.2228 13.066C39.805 13.9045 39.8475 13.5464 39.3389 12.0878C38.2267 8.89801 35.701 6.74989 32.804 6.52956C32.2604 6.48838 31.5105 6.51845 31.1376 6.59658ZM30.1352 11.1741C27.5036 12.2102 25.1012 15.2919 25.0994 17.6341C25.0986 18.7463 25.9888 21.2559 26.9413 22.8263C29.0724 26.3399 31.7596 27.6695 34.2559 26.4456C36.1238 25.5296 38.132 22.8481 39.1093 19.9651C39.8681 17.7262 39.848 16.9 38.9931 15.1761C38.1264 13.4285 37.0282 12.3039 35.4082 11.5043C34.2791 10.9472 34.0896 10.9038 32.6142 10.864C31.2762 10.8278 30.893 10.8758 30.1352 11.1741ZM29.2556 30.4508C29.3058 33.5992 29.3104 33.6366 29.7271 34.2645C30.3751 35.2417 31.1419 35.6421 32.3647 35.6421C33.5874 35.6421 34.3542 35.2417 35.0023 34.2645C35.419 33.6366 35.4235 33.5992 35.4737 30.4508L35.5245 27.2712L34.6111 27.6985C33.841 28.0587 33.4887 28.1257 32.3647 28.1257C31.2406 28.1257 30.8883 28.0587 30.1182 27.6985L29.2048 27.2712L29.2556 30.4508ZM26.4047 30.8178C25.7578 30.9431 25.1829 31.0932 25.1274 31.1515C25.0719 31.2098 24.6301 33.4067 24.1454 36.0335L23.2645 40.8096L23.5673 45.0903C23.7339 47.4447 23.9017 49.4024 23.9403 49.441C24.0424 49.5428 28.2791 50.03 28.3602 49.9492C28.3977 49.9116 28.718 48.157 29.072 46.0499C29.4501 43.798 29.825 42.0326 29.9813 41.7668C30.3899 41.0725 31.1747 40.7313 32.3622 40.7316C33.57 40.7318 34.347 41.064 34.7427 41.7491C34.9038 42.028 35.2755 43.7754 35.6574 46.0499C36.0114 48.157 36.3349 49.915 36.3766 49.9565C36.4642 50.0439 40.675 49.5549 40.7856 49.4445C40.8261 49.4039 40.9948 47.4465 41.1606 45.0945L41.462 40.818L40.5888 36.1944C40.1084 33.6513 39.6828 31.4562 39.643 31.3162C39.5942 31.1446 39.2525 31.0023 38.5947 30.8797C38.058 30.7796 37.4328 30.6612 37.2055 30.6167L36.7924 30.5359L36.7266 32.1495C36.674 33.4387 36.5881 33.9045 36.2992 34.4676C35.2766 36.4599 33.1798 37.3685 31.0384 36.747C30.3279 36.5407 29.9454 36.3005 29.2986 35.6549C28.2878 34.6455 27.9731 33.7437 27.9731 31.8554C27.9731 30.9078 27.9197 30.5579 27.7771 30.5715C27.6693 30.5818 27.0517 30.6927 26.4047 30.8178ZM21.5083 31.7824C20.4111 32.0104 19.4445 32.2675 19.3602 32.3536C19.2759 32.4398 17.0431 36.9134 14.3983 42.2953L9.58955 52.0802L9.78043 52.9435C9.88551 53.4182 10.0428 53.8948 10.13 54.0024C10.2538 54.1552 12.4169 54.1981 19.9845 54.1981H29.6802L30.7087 53.5542L31.7373 52.9105V47.4472C31.7373 44.4425 31.6777 41.984 31.6048 41.984C31.5318 41.984 31.3441 42.1254 31.1874 42.2983C30.9765 42.531 30.7279 43.6552 30.229 46.6324C29.4777 51.1156 29.4156 51.2678 28.3422 51.2505C28.0098 51.245 25.7524 50.9899 23.3258 50.6836L18.9139 50.1268L17.4451 50.4276C16.6372 50.5931 15.9521 50.7043 15.9226 50.6748C15.8931 50.6454 15.8128 50.3724 15.744 50.0682L15.6191 49.5151L16.5028 49.3363C16.9888 49.2379 17.6214 49.1106 17.9084 49.0535C18.4242 48.9508 18.4521 48.8989 20.236 44.7406L22.0416 40.5316L22.8112 36.3644C23.2344 34.0724 23.6218 32.0032 23.6719 31.7664C23.7223 31.5297 23.7049 31.343 23.6332 31.3518C23.5617 31.3605 22.6054 31.5544 21.5083 31.7824ZM40.9909 31.4653C40.9909 31.548 41.375 33.6274 41.8444 36.0858L42.6981 40.5559L44.4985 44.7527C46.277 48.8986 46.3053 48.9508 46.821 49.0535C47.108 49.1106 47.7344 49.2365 48.2128 49.3333L49.0826 49.5093L49.0188 50.0544C48.9838 50.3541 48.9085 50.6282 48.8514 50.6634C48.7945 50.6985 48.0933 50.5932 47.2931 50.4293L45.8382 50.1315L41.4148 50.6855C38.9819 50.9902 36.7195 51.2442 36.3872 51.2498C35.3139 51.2683 35.2516 51.1159 34.5004 46.6324C34.0015 43.6552 33.7529 42.531 33.5419 42.2983C33.3852 42.1254 33.1975 41.984 33.1246 41.984C33.0516 41.984 32.992 44.4425 32.992 47.4472V52.9105L34.0206 53.5542L35.0491 54.1981H44.7449C52.3124 54.1981 54.4756 54.1552 54.5993 54.0024C54.6865 53.8948 54.8435 53.4191 54.9481 52.9454L55.1384 52.0841L50.4081 42.4538C47.8064 37.1571 45.5802 32.6737 45.4608 32.4907C45.2861 32.2226 44.8841 32.0918 43.392 31.8181C42.3733 31.6313 41.4162 31.4415 41.2654 31.3966C41.1145 31.3515 40.9909 31.3825 40.9909 31.4653ZM20.9937 46.155C20.3899 47.5731 19.8767 48.7871 19.8532 48.8529C19.8163 48.9569 22.4887 49.3975 22.5745 49.3015C22.628 49.2417 22.2125 43.6967 22.1498 43.6345C22.1178 43.6029 21.5976 44.737 20.9937 46.155ZM42.5563 43.5499C42.5057 43.8399 42.1297 49.2733 42.1581 49.3048C42.1984 49.3493 44.8103 49.015 44.8763 48.9567C44.8998 48.936 44.3906 47.6933 43.7445 46.1954C43.0985 44.6973 42.5638 43.5069 42.5563 43.5499ZM31.2668 54.7077L30.2473 55.3726L27.385 55.4214L24.5226 55.4703V56.7133V57.9563H32.3647H40.2067V56.7133V55.4703L37.3444 55.4214L34.482 55.3726L33.5797 54.7803C33.0836 54.4545 32.5896 54.1554 32.4818 54.1154C32.3742 54.0755 31.8275 54.342 31.2668 54.7077ZM15.1436 61.5628C6.28242 64.0325 5.96513 64.1492 4.14186 65.6102C2.94313 66.5707 2.40705 67.2289 2.31341 67.8548C2.16598 68.8399 2.57063 69.1892 5.78304 70.8494C8.83405 72.4263 9.25282 72.5752 11.1427 72.7551L12.2707 72.8624L11.6917 71.7122C11.1489 70.6335 11.1134 70.4742 11.1224 69.1526C11.1291 68.1473 11.2248 67.4807 11.4561 66.8272L11.7805 65.9112L10.937 66.0164L10.0933 66.1216V65.4978C10.0933 64.7577 9.6228 64.8753 14.908 64.2943L18.5466 63.8943L26.6185 65.3881C31.0582 66.2098 34.8575 66.882 35.0614 66.882C35.3097 66.882 35.767 66.5447 36.4455 65.8612C37.0029 65.2997 37.6714 64.7817 37.9309 64.7103C38.2269 64.6287 39.2134 64.6824 40.5746 64.8543C41.7691 65.0051 43.7806 65.1725 45.0446 65.2264C49.416 65.4126 49.7459 65.4577 50.303 65.9461C50.8002 66.3819 50.8074 66.3831 51.6557 66.1634C53.0684 65.7975 53.2244 65.8379 53.2244 66.5688C53.2244 67.0118 53.1578 67.1952 52.9969 67.1952C52.1179 67.1952 51.0881 67.5901 50.5026 68.152L49.8701 68.7588L50.1934 69.1953C51.3019 70.6924 51.4871 72.182 50.7934 74.022C50.5778 74.594 50.4013 75.0987 50.4013 75.1433C50.4013 75.3254 54.9524 75.0415 56.0476 74.791C59.6889 73.9582 62.4144 71.5273 62.7348 68.8269C62.8577 67.7901 62.615 67.335 61.2936 66.1262C59.4797 64.4668 58.4501 64.0712 49.225 61.4901L41.0693 59.2083L32.2862 59.2205L23.5032 59.2327L15.1436 61.5628ZM15.6941 65.4703C13.8039 65.6927 13.334 65.7979 13.1561 66.0386C12.7315 66.6128 12.3675 68.0518 12.3675 69.1559C12.3675 70.078 12.4491 70.4207 12.8733 71.2813C13.6901 72.9376 13.5496 72.8851 16.6278 72.6839C21.027 72.3964 24.3893 72.0168 33.437 70.7868C38.5639 70.0898 41.245 69.5813 46.073 68.3898C49.3502 67.5812 49.9564 67.3147 49.5174 66.8764C49.416 66.7752 48.073 66.6459 46.2272 66.5593C43.4818 66.4306 39.7147 66.0792 38.6722 65.8545C38.3894 65.7936 38.0523 66.0259 37.0744 66.9559C35.9648 68.0114 35.7708 68.1348 35.2217 68.1348C34.8843 68.1348 30.9873 67.4653 26.5616 66.6471C22.1358 65.8289 18.4021 65.1681 18.2642 65.1785C18.1265 65.189 16.9698 65.3203 15.6941 65.4703ZM45.8529 69.7282C40.3988 71.0882 33.9042 72.1346 23.66 73.3041C21.2317 73.5815 20.4918 73.7359 18.3685 74.4083C16.2008 75.0949 15.8887 75.2358 15.8058 75.5659C15.6667 76.1192 15.8663 76.5772 16.2932 76.6842C16.51 76.7385 18.8627 76.3046 21.8538 75.6588L27.0385 74.5392L31.466 74.7019C33.9012 74.7914 38.7859 74.9413 42.3207 75.0349L48.7479 75.2052L49.0169 74.8737C49.4642 74.3221 49.9308 72.8693 49.9308 72.0282C49.9308 71.058 49.6315 70.3956 48.8669 69.6731L48.284 69.1221L45.8529 69.7282Z" fill="#FF668E" stroke="#FF668E" stroke-width="0.9"/>
</svg>
