<svg width="72" height="60" viewBox="0 0 72 60" fill="none" xmlns="http://www.w3.org/2000/svg">
<path d="M13.3006 1C15.8348 8.56375 20.443 27.5033 10.03 48.245M5 57.6556C6.1359 55.5963 7.16264 54.8896 8.08885 52.8543M56.3481 1C53.3612 10.1271 50.7104 30.2507 59.2137 48.245M66 59C64.372 57.0135 62.9366 54.9574 61.6753 52.8543M26.6203 51.1258C33.5497 51.4459 49.7695 51.3179 59.2137 48.245M59.2137 48.245C59.9486 49.8002 60.7668 51.3394 61.6753 52.8543M8.08885 52.8543C17.0453 56.1832 40.3017 60.8437 61.6753 52.8543M8.08885 52.8543C8.7927 51.3076 9.43849 49.7701 10.03 48.245M10.03 48.245C12.2141 49.1413 16.1962 50.1656 20.6361 50.1656" stroke="#FF668E" stroke-width="2"/>
<ellipse cx="35.5" cy="41.5" rx="1.5" ry="2.5" fill="#FF668E"/>
<path d="M68.875 24H60.125" stroke="#FF668E" stroke-width="2" stroke-linecap="round" stroke-linejoin="round"/>
<path d="M64.5 28.6668L60.125 24.0002L64.5 19.3335" stroke="#FF668E" stroke-width="2" stroke-linecap="round" stroke-linejoin="round"/>
<path d="M3.125 24H11.875" stroke="#FF668E" stroke-width="2" stroke-linecap="round" stroke-linejoin="round"/>
<path d="M7.5 28.6668L11.875 24.0002L7.5 19.3335" stroke="#FF668E" stroke-width="2" stroke-linecap="round" stroke-linejoin="round"/>
</svg>
