<svg width="72" height="70" viewBox="0 0 72 70" fill="none" xmlns="http://www.w3.org/2000/svg">
<path fill-rule="evenodd" clip-rule="evenodd" d="M60.1873 67.7693H70.2716C70.8875 67.7693 71.3869 68.2687 71.3869 68.8846C71.3869 69.5006 70.8875 70 70.2716 70H1.11949C0.503537 70 0.0041368 69.5006 0.0041368 68.8846C0.0041368 68.2687 0.503537 67.7693 1.11949 67.7693H2.57238C2.16928 67.1983 2.09109 66.9949 1.14516 64.5349C0.911347 63.9269 0.624519 63.1809 0.266664 62.2575C-0.395718 60.5481 0.206713 58.6436 1.73168 57.6262L10.4423 51.8147C22.3802 41.7803 24.0382 40.3191 25.8431 39.0701C26.2126 38.8144 26.5882 38.5676 27.0595 38.2579C27.3326 38.0785 27.5433 37.9377 27.7098 37.8263C28.22 37.4852 28.3164 37.4207 28.5281 37.3714C28.6191 37.3503 30.0568 36.2373 31.2071 35.1543C31.6557 34.7322 32.3614 34.7534 32.7837 35.2017C33.2061 35.6503 33.1849 36.3561 32.7363 36.7784C31.7164 37.7389 30.664 38.604 29.6078 39.3516C28.7462 41.6496 29.3326 45.7371 32.0593 47.1486C32.378 47.3135 32.8325 47.4903 33.132 47.5914C35.5305 48.4263 36.3255 48.4186 38.4669 48.3978C40.4036 48.379 43.4417 48.3495 49.7635 48.923C50.3874 48.9796 50.8418 49.5389 50.771 50.1602L50.182 55.3219H53.8322L55.2506 48.4427C55.6172 46.6624 54.5997 44.8694 52.8836 44.2722C48.5408 42.7794 47.9721 42.6796 46.4101 42.4053C45.2789 42.2067 43.6266 41.9166 39.6421 40.9395L35.5574 40.4289C34.9461 40.3525 34.5126 39.795 34.589 39.1838C34.6654 38.5725 35.2225 38.1383 35.834 38.2154L39.6074 38.6871C42.3486 37.0762 46.451 34.536 47.3542 33.6329C49.8925 31.0911 51.1767 29.0317 51.1767 27.5063C51.1767 27.1288 51.0809 26.6916 50.9006 26.2131C50.6759 26.4378 50.4865 26.632 50.3231 26.7995C49.5916 27.5494 49.384 27.7622 48.8895 27.7622C47.9048 27.7622 47.396 26.5628 48.1008 25.8581L68.6236 5.33516C68.967 4.99163 69.1562 4.53503 69.1562 4.04929C69.1562 2.43983 67.1947 1.62074 66.0518 2.76343C65.6162 3.19897 64.91 3.19897 64.4745 2.76343C64.0388 2.32788 64.0388 1.62172 64.4745 1.18617C67.0182 -1.35767 71.3869 0.464678 71.3869 4.04943C71.3869 5.13105 70.9657 6.14797 70.2009 6.91269L52.5909 24.5226C53.133 25.5974 53.4074 26.5982 53.4074 27.5063C53.4074 30.7281 50.0436 34.0966 48.9382 35.2035L48.9381 35.2036C47.9944 36.1473 44.9704 38.0568 42.7751 39.3912C44.9936 39.8978 46.1418 40.096 46.9965 40.2435C48.5722 40.5154 49.1498 40.6151 53.5963 42.1582C56.4022 43.128 58.0231 46.0366 57.4349 48.893L54.3696 63.7592L56.7947 64.3658C58.5004 64.7921 59.7829 66.1218 60.1873 67.7693ZM30.2402 48.6376C27.9087 46.952 26.8386 43.7922 27.0178 40.9715C25.6565 41.9252 24.1862 43.1631 17.8048 48.5354C16.3075 49.796 14.5399 51.2841 12.4398 53.0497L13.7006 56.3027C18.405 53.8765 22.5104 52.0706 25.9657 50.5506C27.5244 49.865 28.9508 49.2375 30.2402 48.6376ZM10.5741 54.4084L2.96973 59.4819C2.32115 59.9145 2.0649 60.7244 2.34666 61.4515L4.04354 65.8305C4.53639 67.1023 5.79827 67.8539 7.09278 67.7604L6.06373 61.8466C5.98649 61.4031 6.18363 60.9566 6.56341 60.7147L11.7403 57.4177L10.5741 54.4084ZM9.94259 61.1994C9.46313 61.5086 8.95263 61.8378 8.38882 62.1968L9.35849 67.7691H46.7886C46.4101 66.9683 46.3164 66.0597 46.5371 65.1771C46.7015 64.5193 46.8011 64.1908 46.8818 63.8577C47.1295 62.8364 47.2006 61.7722 48.4247 51.0443C43.2887 50.6053 40.5529 50.6189 38.6673 50.6284C36.4014 50.6397 35.3634 50.6449 32.8639 49.8511C31.1351 50.7129 29.1459 51.5891 26.8657 52.5918C15.625 57.5351 13.776 58.7275 9.94259 61.1994ZM48.7011 65.7183C48.4403 66.7611 49.2293 67.7693 50.3025 67.7693H57.8217C57.5095 67.1655 56.9489 66.7037 56.2536 66.5298L52.7907 65.6636C52.2106 65.5186 51.8482 64.942 51.969 64.3564L53.3718 57.5528H49.9272C49.3909 62.2531 49.3368 63.0785 49.1655 63.8788C49.0742 64.3051 48.9496 64.7243 48.7011 65.7183ZM41.3094 17.0997C39.8141 15.4869 38.9155 13.4563 38.7573 11.2645C35.9398 11.4223 33.8796 8.72201 34.7994 6.11933L35.5476 3.99416C36.6561 0.855823 41.0254 0.463915 42.7036 3.33219C46.2079 1.56909 50.5492 2.81355 52.4668 6.19294C53.4487 7.92202 53.4349 9.26371 53.4141 11.2813C53.4109 11.5885 53.4076 11.9113 53.4076 12.2535L58.2511 7.41007C59.9323 5.72881 60.8582 3.49336 60.8582 1.1157C60.8582 0.499746 61.3576 0.000345598 61.9735 0.000345598C62.5895 0.000345598 63.0889 0.499746 63.0889 1.1157C63.0889 4.08924 61.9309 6.88474 59.8283 8.98732L45.5293 23.2863C45.3115 23.5041 45.026 23.613 44.7406 23.613C43.7559 23.613 43.2471 22.4136 43.9519 21.7089L45.5901 20.0708L44.9683 19.6048C44.3548 19.3626 43.763 19.0583 43.2042 18.6957C42.1496 22.6069 40.6104 26.2292 38.6183 29.4842C38.2986 30.0063 37.6132 30.1768 37.0847 29.8533C36.5592 29.5316 36.394 28.8451 36.7156 28.3196C38.7668 24.9681 40.31 21.1957 41.3094 17.0997ZM45.6142 9.10025C47.4269 9.07572 49.1203 8.21773 50.1688 6.7555C48.5193 4.60927 45.4486 4.15128 43.2124 5.60752C43.1666 6.11137 43.0582 6.41592 42.607 7.68363C42.5087 7.95972 42.3942 8.28148 42.2605 8.66094C42.0399 9.28289 41.6325 9.90233 41.0386 10.3835C40.9934 10.4201 40.9734 10.4305 40.9649 10.4468C40.9555 10.4647 40.9598 10.4897 40.9598 10.5637C40.9598 12.0081 41.377 13.3749 42.1435 14.557L42.6804 13.2241C42.8879 12.7088 43.4369 12.4346 43.9618 12.5545C44.6466 12.7105 45.0015 13.4333 44.7498 14.0579L43.8111 16.3874C44.8722 17.2327 46.1883 17.8194 47.6429 18.0177L51.1766 14.4839C51.1766 9.81712 51.1888 9.49781 51.1503 9.18469C51.1454 9.14408 51.1395 9.10357 51.1327 9.05369C49.6489 10.5176 47.626 11.3336 45.5343 11.3336C44.0959 11.3336 43.9862 9.12298 45.6142 9.10025ZM37.651 4.73573L36.9029 6.86104C36.4042 8.27336 37.9909 9.6069 39.4166 8.80259C39.9963 8.47069 40.1367 8.05467 40.5588 6.80377C40.6562 6.51507 40.7686 6.1819 40.9049 5.79504C41.2844 4.71886 40.4486 3.61493 39.2776 3.61493C38.5617 3.61493 37.8943 4.04727 37.651 4.73573Z" fill="#FF668E"/>
</svg>
