<svg width="60" height="56" viewBox="0 0 60 56" fill="none" xmlns="http://www.w3.org/2000/svg">
<path d="M18.2462 52.6629C18.9366 52.6629 19.4962 52.1032 19.4962 51.4129C19.4962 50.7225 18.9366 50.1629 18.2462 50.1629V52.6629ZM42.9598 34.0852C43.4456 34.5756 44.2371 34.5793 44.7275 34.0935C45.218 33.6076 45.2217 32.8162 44.7359 32.3257L42.9598 34.0852ZM18.2462 50.1629H3.24971V52.6629H18.2462V50.1629ZM3.24971 50.1629C3.23224 50.1629 3.22786 50.157 3.2303 50.1593C3.23162 50.1606 3.23653 50.1658 3.24142 50.1768C3.24676 50.1889 3.25 50.2036 3.25 50.2172H0.75C0.75 51.6191 1.92218 52.6629 3.24971 52.6629V50.1629ZM3.25 50.2172V40.652H0.75V50.2172H3.25ZM3.25 40.652C3.25 35.461 7.68402 31.1411 13.2474 31.1411V28.6411C6.40865 28.6411 0.75 33.9773 0.75 40.652H3.25ZM13.2474 31.1411H35.7422V28.6411H13.2474V31.1411ZM35.7422 31.1411C38.4879 31.1411 41.1162 32.2241 42.9598 34.0852L44.7359 32.3257C42.4055 29.9733 39.1301 28.6411 35.7422 28.6411V31.1411Z" fill="#FF668E"/>
<path d="M23.5218 45.5941C22.8314 45.5941 22.2718 46.1538 22.2718 46.8441C22.2718 47.5345 22.8314 48.0941 23.5218 48.0941V45.5941ZM32.059 47.5238L33.1757 46.9622L33.1744 46.9595L32.059 47.5238ZM34.8554 53.0847L33.7387 53.6463H33.7387L34.8554 53.0847ZM36.6672 53.0312L35.5192 52.5365V52.5365L36.6672 53.0312ZM42.1961 40.2027L41.0489 39.7063L41.0482 39.7079L42.1961 40.2027ZM43.2983 39.4565L43.3433 38.2074L43.3017 38.2059L43.26 38.2071L43.2983 39.4565ZM44.4425 40.1362L45.5592 39.5746L45.5592 39.5746L44.4425 40.1362ZM51.5308 54.2317L50.4141 54.7933L50.7603 55.4817H51.5308V54.2317ZM58.1957 55.4817C58.886 55.4817 59.4457 54.9221 59.4457 54.2317C59.4457 53.5414 58.886 52.9817 58.1957 52.9817V55.4817ZM23.5218 48.0941H30.9519V45.5941H23.5218V48.0941ZM30.9519 48.0941C30.9502 48.0941 30.9486 48.0935 30.9478 48.093C30.947 48.0926 30.945 48.0909 30.9436 48.088L33.1744 46.9595C32.7507 46.122 31.8905 45.5941 30.9519 45.5941V48.0941ZM30.9422 48.0854L33.7387 53.6463L35.9722 52.5231L33.1757 46.9622L30.9422 48.0854ZM37.8151 53.5259L43.3441 40.6974L41.0482 39.7079L35.5192 52.5365L37.8151 53.5259ZM43.3434 40.699C43.3431 40.6997 43.3423 40.701 43.3412 40.7024C43.3403 40.7035 43.3393 40.7043 43.3386 40.7048C43.3379 40.7053 43.3372 40.7056 43.3366 40.7058C43.3358 40.7061 43.3356 40.706 43.3365 40.706L43.26 38.2071C42.295 38.2367 41.433 38.8186 41.0489 39.7063L43.3434 40.699ZM43.2532 40.7057C43.2785 40.7066 43.2999 40.7103 43.3168 40.715C43.3336 40.7196 43.3435 40.7245 43.3476 40.7268C43.3513 40.729 43.3488 40.7282 43.343 40.7222C43.3369 40.7159 43.3305 40.7072 43.3258 40.6978L45.5592 39.5746C45.0969 38.6553 44.1759 38.2374 43.3433 38.2074L43.2532 40.7057ZM43.3258 40.6978L50.4141 54.7933L52.6476 53.6701L45.5592 39.5746L43.3258 40.6978ZM51.5308 55.4817H58.1957V52.9817H51.5308V55.4817ZM33.7387 53.6463C34.5972 55.3535 37.0587 55.2809 37.8151 53.5259L35.5192 52.5365C35.6033 52.3415 35.8768 52.3334 35.9722 52.5231L33.7387 53.6463Z" fill="#FF668E"/>
<path d="M33.0326 12.5543C33.0326 18.8557 28.1824 23.8587 22.3261 23.8587C16.4698 23.8587 11.6196 18.8557 11.6196 12.5543C11.6196 6.25296 16.4698 1.25 22.3261 1.25C28.1824 1.25 33.0326 6.25296 33.0326 12.5543Z" stroke="#FF668E" stroke-width="2.5"/>
</svg>
