<svg width="160" height="160" viewBox="0 0 160 160" fill="none" xmlns="http://www.w3.org/2000/svg">
<g filter="url(#filter0_d)">
<circle cx="80" cy="72" r="60" fill="#7352D1"/>
</g>
<g clip-path="url(#clip0)">
<path d="M102.666 52.5029H94.2871V51.2139C94.2871 50.324 93.5657 49.6025 92.6758 49.6025C91.7859 49.6025 91.0645 50.324 91.0645 51.2139V52.5029H68.9355V51.2139C68.9355 50.324 68.2141 49.6025 67.3242 49.6025C66.4343 49.6025 65.7129 50.324 65.7129 51.2139V52.5029H57.334C54.6685 52.5029 52.5 54.6715 52.5 57.3369C52.5 57.8173 52.5 89.0185 52.5 89.5635C52.5 92.2289 54.6685 94.3975 57.334 94.3975H102.666C105.331 94.3975 107.5 92.2289 107.5 89.5635C107.5 89.0139 107.5 57.8169 107.5 57.3369C107.5 54.6715 105.331 52.5029 102.666 52.5029ZM104.277 89.5635C104.277 90.452 103.555 91.1748 102.666 91.1748H57.334C56.4455 91.1748 55.7227 90.452 55.7227 89.5635V65.035H104.277V89.5635ZM104.277 61.8123H55.7227V57.3369C55.7227 56.4484 56.4455 55.7256 57.334 55.7256H65.7129V57.0146C65.7129 57.9045 66.4343 58.626 67.3242 58.626C68.2141 58.626 68.9355 57.9045 68.9355 57.0146V55.7256H91.0645V57.0146C91.0645 57.9045 91.7859 58.626 92.6758 58.626C93.5657 58.626 94.2871 57.9045 94.2871 57.0146V55.7256H102.666C103.555 55.7256 104.277 56.4484 104.277 57.3369V61.8123Z" fill="white"/>
<path d="M100.518 76.4935H88.4506V68.7947C88.4506 67.9048 87.7291 67.1833 86.8392 67.1833C85.9493 67.1833 85.2279 67.9048 85.2279 68.7947V76.4935H74.7722V68.7947C74.7722 67.9048 74.0508 67.1833 73.1609 67.1833C72.271 67.1833 71.5496 67.9048 71.5496 68.7947V76.4935H59.4824C58.5925 76.4935 57.8711 77.2149 57.8711 78.1048C57.8711 78.9947 58.5925 79.7161 59.4824 79.7161H71.5494V87.415C71.5494 88.3048 72.2709 89.0263 73.1608 89.0263C74.0507 89.0263 74.7721 88.3048 74.7721 87.415V79.7161H85.2278V87.415C85.2278 88.3048 85.9492 89.0263 86.8391 89.0263C87.729 89.0263 88.4504 88.3048 88.4504 87.415V79.7161H100.518C101.407 79.7161 102.129 78.9947 102.129 78.1048C102.129 77.2149 101.407 76.4935 100.518 76.4935Z" fill="white"/>
</g>
<defs>
<filter id="filter0_d" x="0" y="0" width="160" height="160" filterUnits="userSpaceOnUse" color-interpolation-filters="sRGB">
<feFlood flood-opacity="0" result="BackgroundImageFix"/>
<feColorMatrix in="SourceAlpha" type="matrix" values="0 0 0 0 0 0 0 0 0 0 0 0 0 0 0 0 0 0 127 0"/>
<feOffset dy="8"/>
<feGaussianBlur stdDeviation="10"/>
<feColorMatrix type="matrix" values="0 0 0 0 0 0 0 0 0 0 0 0 0 0 0 0 0 0 0.15 0"/>
<feBlend mode="normal" in2="BackgroundImageFix" result="effect1_dropShadow"/>
<feBlend mode="normal" in="SourceGraphic" in2="effect1_dropShadow" result="shape"/>
</filter>
<clipPath id="clip0">
<rect width="55" height="55" fill="white" transform="translate(52.5 44.5)"/>
</clipPath>
</defs>
</svg>
