<svg width="47" height="60" viewBox="0 0 47 60" fill="none" xmlns="http://www.w3.org/2000/svg">
<path fill-rule="evenodd" clip-rule="evenodd" d="M24.9509 10.2468C28.0353 10.6005 30.7518 11.9296 32.9659 14.1681C36.9469 18.1928 38.0126 23.9952 35.7437 29.291C34.5197 32.1479 31.6757 34.9965 28.8578 36.1884C23.6496 38.3914 17.9679 37.2879 14.0327 33.3094C8.75199 27.9706 8.75199 19.5 14.0327 14.1681C16.9666 11.2057 20.9228 9.78493 24.9509 10.2468ZM12.4478 20.9947C13.5238 16.6795 16.8696 13.4253 21.2081 12.4748C22.6073 12.1681 24.8273 12.2151 26.2734 12.5817C30.2781 13.5971 33.5396 16.9122 34.5503 20.9947C34.9177 22.4784 34.9177 24.9977 34.5503 26.4814C33.5334 30.5891 30.2846 33.8743 26.2135 34.9118C24.7411 35.2869 22.2586 35.2861 20.7722 34.9099C19.503 34.5887 17.6724 33.7047 16.6515 32.9201C14.6036 31.3462 13.0783 29.0099 12.4478 26.4814C12.0776 24.9959 12.0776 22.4801 12.4478 20.9947Z" fill="#FF668E"/>
<path d="M18.0818 23.0195C18.2215 23.1608 18.3309 23.5309 18.4018 24.1022C18.5512 25.3067 18.7937 25.9724 19.3722 26.7669C20.283 28.0177 21.4475 28.6802 23.0995 28.8876C24.1871 29.0241 24.4814 29.2521 24.4814 29.9577C24.4814 30.2881 24.404 30.5039 24.2185 30.6906C23.9868 30.9239 23.8496 30.9528 23.0604 30.9346C20.2483 30.8699 17.5244 28.7151 16.6454 25.8597C16.3515 24.9049 16.2537 23.6377 16.4457 23.271C16.7589 22.6726 17.6093 22.5419 18.0818 23.0195Z" fill="#FF668E"/>
<path fill-rule="evenodd" clip-rule="evenodd" d="M10.8607 60L10.535 59.7168L10.2093 59.4337L10.1782 50.4015L10.1471 41.3695L9.13354 41.3179C7.7224 41.2461 6.95282 40.8065 6.401 39.7567C6.19369 39.3623 6.14807 39.0435 6.11568 37.7617C6.09456 36.9226 6.02224 36.0934 5.95503 35.9191C5.79775 35.5105 5.59207 35.3847 4.0926 34.7799C2.57166 34.1663 1.92709 33.5673 1.6131 32.4754C1.35762 31.5866 1.43377 31.106 2.08518 29.4981C2.44711 28.6047 2.59244 28.1013 2.53904 27.9265C2.49574 27.7851 2.02726 27.2136 1.49807 26.6565C0.229366 25.321 0 24.8742 0 23.738C0 22.5937 0.217526 22.1783 1.56667 20.7466C2.32024 19.9468 2.60636 19.5606 2.60636 19.3429C2.60636 19.1778 2.38814 18.5281 2.1214 17.8992C1.69204 16.8868 1.63551 16.6478 1.62808 15.8167C1.61322 14.1488 2.21972 13.3833 4.19057 12.5826C6.06728 11.8199 6.01806 11.8902 6.09363 9.87154C6.16107 8.06924 6.25973 7.71589 6.88538 7.03383C7.50975 6.35331 7.97614 6.20521 9.62895 6.16249C10.4589 6.14113 11.2791 6.06802 11.4515 6.00008C11.8556 5.84106 11.9801 5.63311 12.5783 4.11715C13.1839 2.58277 13.7783 1.9277 14.8513 1.61238C15.7187 1.35737 16.2492 1.44445 17.8378 2.10221C18.6955 2.45743 19.1847 2.60037 19.3571 2.5465C19.497 2.50273 20.0616 2.0298 20.6118 1.49561C21.5723 0.562893 22.0587 0.218229 22.6868 0.0250663C23.1729 0.00615068 24.1787 -0.0203312 24.3132 0.0250663C24.942 0.218463 25.4135 0.556556 26.4604 1.56485C27.2503 2.32565 27.6321 2.61457 27.8473 2.61457C28.0106 2.61457 28.6533 2.3977 29.2753 2.1326C30.7804 1.49127 31.6813 1.40537 32.5696 1.81833C33.5216 2.26099 33.9805 2.82346 34.5421 4.23627C34.8103 4.91081 35.147 5.60084 35.2904 5.76959C35.5434 6.06744 35.6002 6.07835 37.2156 6.14019C38.9983 6.20838 39.3478 6.30813 40.0225 6.94066C40.6956 7.5719 40.8421 8.04342 40.8843 9.7144C40.9054 10.5535 40.9778 11.3827 41.045 11.557C41.2022 11.9656 41.4079 12.0914 42.9074 12.6962C44.4251 13.3084 45.073 13.9094 45.3849 14.9942C45.6372 15.8712 45.551 16.4075 44.9004 18.0136C44.5491 18.8807 44.4077 19.3752 44.461 19.5496C44.5043 19.691 44.9727 20.2625 45.5019 20.8196C46.7706 22.1551 47 22.6018 47 23.738C47 24.8823 46.7825 25.2978 45.4333 26.7295C44.663 27.547 44.3936 27.9131 44.3936 28.1424C44.3936 28.3127 44.6078 28.9625 44.8694 29.5863C45.5049 31.1011 45.5893 32.0088 45.1789 32.9151C44.7402 33.884 44.2138 34.3229 42.8029 34.8962C40.9335 35.6558 40.9821 35.5866 40.906 37.6045C40.8531 39.0101 40.8022 39.3646 40.5975 39.7567C40.0498 40.805 39.2782 41.2461 37.8665 41.3179L36.8529 41.3695L36.8218 50.4015L36.7907 59.4337L36.465 59.7168L36.1393 60L35.5138 59.9816L29.652 57.9949C26.428 56.9024 23.7118 55.987 23.6161 55.961C23.5203 55.9349 20.7519 56.8288 17.4641 57.9475L11.4862 59.9815L10.8607 60ZM17.2194 4.08148C19.4035 4.9858 20.166 4.82444 21.9497 3.07976C22.942 2.10925 23.0615 2.02781 23.4931 2.02781C23.9266 2.02781 24.05 2.11324 25.1694 3.18819C26.5037 4.46933 26.8733 4.66272 27.9689 4.65252C28.5031 4.64759 28.9088 4.54279 29.7101 4.20294C31.1934 3.57358 31.3583 3.53555 31.797 3.72085C32.1124 3.85405 32.2346 4.02972 32.5493 4.80214C33.232 6.47794 33.3296 6.67133 33.7165 7.1168C33.9274 7.35972 34.3659 7.69711 34.6909 7.86669C35.2232 8.14446 35.4369 8.17978 36.8487 8.22356C38.8826 8.28657 38.822 8.23376 38.822 9.94172C38.822 11.447 38.9976 12.2665 39.467 12.9512C39.9067 13.5927 40.3638 13.891 41.8042 14.4762C43.0488 14.9819 43.465 15.3205 43.465 15.8271C43.465 15.9766 43.23 16.6793 42.9427 17.3883C42.0482 19.5964 42.2078 20.3673 43.9335 22.1707C44.8935 23.1739 44.974 23.2947 44.974 23.7311C44.974 24.1695 44.8894 24.2942 43.8172 25.4354C42.8249 26.4917 42.6335 26.7605 42.4708 27.3261C42.2298 28.1645 42.3129 28.7652 42.8511 30.0751C43.444 31.5182 43.4809 31.687 43.2994 32.1263C43.1676 32.4451 42.9939 32.5687 42.2299 32.8869C40.5723 33.5771 40.381 33.6758 39.9404 34.0669C39.7001 34.2802 39.3664 34.7234 39.1987 35.052C38.9239 35.5902 38.889 35.8062 38.8457 37.2336C38.7833 39.2898 38.8356 39.2286 37.1462 39.2286C35.6573 39.2286 34.8468 39.4061 34.1695 39.8807C33.535 40.3252 33.2399 40.7874 32.661 42.2436C32.1609 43.5019 31.826 43.9227 31.3249 43.9227C31.177 43.9227 30.482 43.6851 29.7806 43.3946C27.5965 42.4903 26.834 42.6516 25.0503 44.3963C24.0548 45.3699 23.9396 45.4483 23.5028 45.4483C23.0631 45.4483 22.9486 45.3685 21.8308 44.2828C20.788 43.27 20.5438 43.0918 19.9649 42.9217C19.1207 42.6736 18.5339 42.7553 17.2319 43.302C15.8045 43.9015 15.6375 43.9388 15.203 43.7552C14.8876 43.622 14.7654 43.4464 14.4507 42.6739C13.768 40.9981 13.6704 40.8048 13.2835 40.3593C13.0726 40.1164 12.6341 39.7803 12.3091 39.6124C11.7812 39.3398 11.5516 39.3017 10.1513 39.2545C8.96232 39.2144 8.53528 39.1581 8.38113 39.0209C8.2105 38.8691 8.178 38.6309 8.178 37.5344C8.178 36.0423 8.00238 35.2097 7.54794 34.5468C7.11893 33.9208 6.58985 33.5725 5.21691 33.0121C4.00345 32.5167 3.53497 32.1397 3.53497 31.6584C3.53497 31.5036 3.77002 30.7968 4.05731 30.0878C4.95179 27.8797 4.79219 27.1088 3.06649 25.3054C2.10654 24.3022 2.02599 24.1814 2.02599 23.745C2.02599 23.3068 2.11049 23.182 3.17374 22.0503C4.4421 20.7001 4.63351 20.3255 4.61981 19.22C4.61285 18.6611 4.49875 18.2417 4.06683 17.1873C3.56968 15.9738 3.53393 15.8235 3.65464 15.4535C3.80055 15.0065 4.01309 14.8732 5.58464 14.2427C6.72044 13.787 7.38509 13.2419 7.79542 12.4297C8.06843 11.8893 8.10557 11.6623 8.15235 10.2425C8.19205 9.04045 8.24776 8.60871 8.38345 8.45286C8.53354 8.28035 8.76917 8.2475 9.85379 8.2475C11.3296 8.2475 12.1531 8.06994 12.8088 7.61051C13.428 7.17677 13.7725 6.64188 14.3269 5.25383C14.8168 4.02703 15.1898 3.55339 15.6658 3.55339C15.8189 3.55339 16.518 3.79103 17.2194 4.08148ZM32.1517 45.8629C33.1176 45.579 33.8991 44.7555 34.3553 43.5413C34.5432 43.0411 34.7109 42.6318 34.7281 42.6318C34.7453 42.6318 34.7593 45.9807 34.7593 50.0737V57.5158L29.1297 55.6195L23.5 53.7232L17.8703 55.6195L12.2407 57.5158V50.1911C12.2407 46.1626 12.2585 42.8665 12.2803 42.8665C12.3022 42.8665 12.4625 43.2336 12.6366 43.6824C12.9832 44.5754 13.581 45.2784 14.3018 45.6406C14.6225 45.8019 14.9796 45.8568 15.6649 45.8506C16.4869 45.8431 16.7233 45.7859 17.7246 45.3518C18.3467 45.0821 18.9894 44.8615 19.1527 44.8615C19.3681 44.8615 19.7501 45.1508 20.5411 45.9126C21.9572 47.2766 22.3681 47.4966 23.5 47.4966C24.6238 47.4966 25.0657 47.2647 26.3867 45.982C26.9377 45.447 27.503 44.9733 27.6429 44.9296C27.8153 44.8757 28.3045 45.0186 29.1622 45.3739C30.7522 46.0322 31.281 46.1187 32.1517 45.8629Z" fill="#FF668E"/>
<path d="M16.0183 49.9611C16.3028 50.2486 16.3033 50.2535 16.3033 52.7123C16.3033 55.1346 16.2988 55.1808 16.0282 55.4988C15.6666 55.9239 15.0446 55.9437 14.6233 55.5437L14.33 55.2649V52.757C14.33 50.2507 14.3302 50.2488 14.615 49.9611C15.0026 49.5691 15.6308 49.5691 16.0183 49.9611Z" fill="#FF668E"/>
<path d="M25.5985 16.808C28.4267 17.698 30.5788 20.4928 30.6247 23.3356C30.6418 24.3963 30.4089 24.7303 29.652 24.7303C28.9612 24.7303 28.7289 24.4304 28.6006 23.3739C28.4719 22.314 28.236 21.646 27.6982 20.8184C26.8888 19.5728 25.5535 18.7934 23.8681 18.583C23.3598 18.5196 22.9303 18.3971 22.801 18.2788C22.3121 17.8314 22.4391 16.9263 23.0357 16.6072C23.4008 16.4121 24.6512 16.5099 25.5985 16.808Z" fill="#FF668E"/>
</svg>
