<svg width="91" height="204" viewBox="0 0 91 204" fill="none" xmlns="http://www.w3.org/2000/svg">
<path fill-rule="evenodd" clip-rule="evenodd" d="M0.578238 5.43695C17.5603 0.293687 33.7556 1.68068 41.8411 3.86609C51.4004 6.44955 54.5716 8.38816 63.0339 9.3638C70.5551 10.231 90.545 4.01099 87.985 8.68971C84.6503 14.7885 85.5627 38.6743 90.5435 48.633C91.2683 50.0814 67.5957 53.6679 53.2523 50.9893C33.4787 47.2965 27.112 41.1035 14.1288 43.9209C8.13877 45.2205 3.58765 47.8199 0.679635 49.8113C2.00352 35.0852 -0.747162 20.163 0.578238 5.43695Z" fill="#24BC70"/>
<path d="M0.767105 203.653C0.343463 203.653 0 203.3 0 202.867V0.784352C0 0.351352 0.343463 0 0.767105 0C1.19075 0 1.53417 0.351352 1.53417 0.784352V202.867C1.53417 203.3 1.19075 203.653 0.767105 203.653Z" fill="#26264F"/>
</svg>
