<svg width="91" height="204" viewBox="0 0 91 204" fill="none" xmlns="http://www.w3.org/2000/svg">
<path fill-rule="evenodd" clip-rule="evenodd" d="M0.578146 5.43695C17.5602 0.293687 33.7555 1.68068 41.841 3.86609C51.4003 6.44955 54.5715 8.38816 63.0338 9.3638C70.555 10.231 90.5449 4.01099 87.9849 8.68971C84.6502 14.7885 85.5626 38.6743 90.5434 48.633C91.2682 50.0814 67.5956 53.6679 53.2522 50.9893C33.4786 47.2965 27.1119 41.1035 14.1287 43.9209C8.13868 45.2205 3.58756 47.8199 0.679543 49.8113C2.00343 35.0852 -0.747253 20.163 0.578146 5.43695Z" fill="#FF7000"/>
<path d="M0.767105 203.653C0.343463 203.653 0 203.3 0 202.867V0.784352C0 0.351352 0.343463 0 0.767105 0C1.19075 0 1.53417 0.351352 1.53417 0.784352V202.867C1.53417 203.3 1.19075 203.653 0.767105 203.653Z" fill="#26264F"/>
</svg>
