<svg width="186" height="60" viewBox="0 0 186 60" fill="none" xmlns="http://www.w3.org/2000/svg">
<path d="M0 42.7077V15.9355H17.8352V19.6684H4.22326V27.6622H15.6104V31.1692H4.22326V42.7077H0Z" fill="#2B2343"/>
<path d="M21.3647 15.1772H25.5126V37.0103C25.5126 37.7399 25.7012 38.3118 26.0784 38.7258C26.4552 39.1403 26.9833 39.3483 27.6619 39.3483C27.9384 39.3483 28.2586 39.2977 28.6234 39.1969C28.9878 39.0971 29.3333 38.9844 29.6604 38.8579L30.264 42.1008C29.6604 42.3782 28.9441 42.5976 28.1141 42.7605C27.2851 42.9238 26.5431 43.0061 25.8898 43.0061C24.4567 43.0061 23.3443 42.6165 22.5531 41.8367C21.7608 41.0578 21.3647 39.9514 21.3647 38.5179V15.1772Z" fill="#2B2343"/>
<path d="M47.6276 31.3566C47.5521 30.5271 47.3446 29.7607 47.0051 29.0568C46.6661 28.3534 46.2322 27.7562 45.7046 27.2654C45.1764 26.7754 44.5604 26.3922 43.8565 26.1157C43.1527 25.8392 42.4111 25.7007 41.6322 25.7007C40.8524 25.7007 40.1177 25.8392 39.4263 26.1157C38.7343 26.3922 38.1252 26.7754 37.5976 27.2654C37.0694 27.7562 36.642 28.3534 36.3159 29.0568C35.9883 29.7607 35.7877 30.5271 35.7123 31.3566H47.6276ZM41.6322 43.0837C40.0984 43.0837 38.7031 42.8132 37.4467 42.2726C36.1893 41.7325 35.1147 40.9978 34.2226 40.0667C33.3297 39.1374 32.6387 38.0563 32.1487 36.8247C31.6588 35.5932 31.4136 34.2853 31.4136 32.9023C31.4136 31.5208 31.6588 30.2065 32.1487 28.9625C32.6387 27.718 33.3297 26.6245 34.2226 25.6819C35.1147 24.7392 36.1893 23.9981 37.4467 23.4575C38.7031 22.917 40.1113 22.646 41.6695 22.646C43.2028 22.646 44.5922 22.9234 45.8366 23.4764C47.081 24.0289 48.1424 24.7645 49.0229 25.6819C49.902 26.6001 50.5751 27.6684 51.0397 28.8866C51.5044 30.1062 51.7372 31.3823 51.7372 32.7151C51.7372 33.0155 51.7238 33.2989 51.6995 33.5621C51.6746 33.8266 51.6489 34.0474 51.6245 34.2227H35.825C35.9004 35.1028 36.1079 35.895 36.4474 36.5979C36.787 37.3023 37.2263 37.9118 37.7669 38.4271C38.3074 38.9423 38.923 39.3384 39.6149 39.6149C40.3059 39.8923 41.0286 40.0294 41.7831 40.0294C42.3356 40.0294 42.8822 39.9609 43.4232 39.822C43.9637 39.6844 44.4601 39.4829 44.9128 39.2188C45.365 38.9552 45.7671 38.6346 46.1195 38.2573C46.471 37.8801 46.7475 37.4656 46.9485 37.0129L50.4928 38.0314C49.8142 39.5146 48.6894 40.7273 47.1183 41.67C45.5472 42.6126 43.7185 43.0837 41.6322 43.0837Z" fill="#2B2343"/>
<path d="M58.2715 33.8599L61.0134 37.1414L59.3356 39.4545C57.6951 41.7161 55.0415 43.076 52.2407 43.076H51.5088L51.8929 42.4849L58.2715 33.8599Z" fill="#7352D1"/>
<path d="M74.8053 46.8307H73.9998C71.2133 46.8307 68.5675 45.486 66.927 43.2386L47.4365 17.0898H48.1979C50.9844 17.0898 53.6375 18.4346 55.2785 20.6888L61.7455 29.5876L61.7606 29.5581L64.0664 26.306C65.7 23.9929 68.3752 22.6109 71.2059 22.6109H71.9379L64.4653 32.8622L74.8053 46.8307Z" fill="#7352D1"/>
<path d="M74.0527 22.9825H78.201V42.7043H74.0527V22.9825ZM74.0527 15.1772H78.201V19.7405H74.0527V15.1772Z" fill="#2B2343"/>
<path d="M96.6662 23.4803H88.4401V22.5712C88.4401 21.1892 88.6986 20.1325 89.2162 19.4079C89.7333 18.6764 90.4799 18.3144 91.4626 18.3144C91.936 18.3144 92.431 18.388 92.9486 18.5356C93.4657 18.6907 93.9092 18.8756 94.2859 19.1047L95.1955 16.0081C94.4861 15.6387 93.7468 15.3355 92.9707 15.1285C92.1872 14.9141 91.3964 14.8037 90.5908 14.8037C88.654 14.8037 87.1243 15.5131 85.9935 16.9172C84.8627 18.3213 84.2937 20.2502 84.2937 22.6894V23.4803H81.6553V26.6808H84.2937V42.7117H88.4401V26.6808H97.8854L96.6662 23.4803Z" fill="#2B2343"/>
<path d="M108.017 22.9854L102.592 39.0531L97.884 26.6809L96.6644 23.4804H92.4292L93.7454 26.6809L100.323 42.7118C99.9759 43.7166 99.6653 44.5373 99.3994 45.1805C99.1404 45.8158 98.8819 46.3186 98.6307 46.666C98.379 47.0207 98.1352 47.2645 97.8914 47.4053C97.6549 47.5382 97.3738 47.6118 97.0486 47.6118C96.8195 47.6118 96.5241 47.5824 96.1616 47.5382C95.7926 47.4862 95.4227 47.42 95.046 47.3459V50.9674C95.4522 51.093 95.8147 51.1745 96.14 51.2113C96.4652 51.2481 96.7827 51.2706 97.0854 51.2706C98.6454 51.2706 99.9165 50.886 100.914 50.1177C101.905 49.349 102.6 48.4031 103.006 47.2719L111.941 22.9854H108.017Z" fill="#2B2343"/>
<path d="M64.4045 22.1107C64.4045 23.4214 63.3418 24.4841 62.0316 24.4841C60.7209 24.4841 59.6582 23.4214 59.6582 22.1107C59.6582 20.8 60.7209 19.7378 62.0316 19.7378C63.3418 19.7378 64.4045 20.8 64.4045 22.1107Z" fill="#7352D1"/>
<path d="M131.084 12.4793L131.368 12.1181L133.114 12.4954L132.335 10.888L132.619 10.5264L133.532 12.5584L134.473 13.2982L134.218 13.623L133.278 12.8841L131.084 12.4793Z" fill="#2B2343"/>
<path d="M137.429 9.66528C137.93 9.22271 137.982 8.52803 137.471 7.94929C136.957 7.36687 136.263 7.3365 135.763 7.77907C135.262 8.22118 135.207 8.91356 135.721 9.49552C136.233 10.0747 136.929 10.1074 137.429 9.66528ZM137.667 9.93395C137 10.5242 136.033 10.4874 135.404 9.77523C134.776 9.06353 134.857 8.09973 135.524 7.5104C136.195 6.9174 137.159 6.95742 137.788 7.66912C138.417 8.38036 138.338 9.3414 137.667 9.93395Z" fill="#2B2343"/>
<path d="M139.141 4.81561L139.496 4.6049L140.516 6.33009C140.812 6.83063 141.209 6.88583 141.612 6.64799C142.015 6.40968 142.154 6.0375 141.858 5.53697L140.838 3.81132L141.194 3.60107L142.211 5.32258C142.63 6.0306 142.356 6.63004 141.793 6.96312C141.23 7.29666 140.576 7.24421 140.158 6.53665L139.141 4.81561Z" fill="#2B2343"/>
<path d="M145.015 2.27026L144.445 2.48418L144.867 3.60808L145.437 3.39324C145.876 3.22854 145.978 2.91847 145.853 2.58631C145.727 2.25048 145.458 2.10372 145.015 2.27026ZM144.895 1.95053C145.594 1.68876 146.071 1.95099 146.253 2.43634C146.395 2.81496 146.323 3.25523 145.867 3.55288L147.078 4.51576L146.615 4.69012L145.452 3.74288L144.984 3.91816L145.44 5.13131L145.053 5.27668L143.938 2.31028L144.895 1.95053Z" fill="#2B2343"/>
<path d="M154.257 1.83446L152.571 1.95227L152.676 3.44869L152.244 3.47851L152.012 0.178397L152.443 0.148584L152.546 1.59692L154.232 1.47911L154.13 0.0298129L154.562 0L154.795 3.30059L154.363 3.33088L154.257 1.83446Z" fill="#2B2343"/>
<path d="M159.282 0.527631L157.942 0.397048L157.836 1.50098L159.034 1.61759L158.999 1.97223L157.802 1.8561L157.692 2.99232L159.032 3.12338L158.997 3.47851L157.229 3.306L157.548 0L159.316 0.172022L159.282 0.527631Z" fill="#2B2343"/>
<path d="M163.07 1.58569L162.1 2.97918L163.205 3.27822L163.07 1.58569ZM163.231 3.63337L161.898 3.27316L161.469 3.88594L161.047 3.77231L162.975 1.03271L163.435 1.15739L163.713 4.49367L163.292 4.37957L163.231 3.63337Z" fill="#2B2343"/>
<path d="M167.53 2.60623L166.362 5.1825L167.371 5.63979L167.232 5.94572L165.847 5.31776L167.153 2.43555L167.53 2.60623Z" fill="#2B2343"/>
<path d="M170.828 4.26855L172.625 5.43708L172.443 5.71955L171.719 5.24892L170.176 7.62186L169.829 7.39643L171.372 5.0235L170.645 4.55057L170.828 4.26855Z" fill="#2B2343"/>
<path d="M175.187 9.7982L174.003 8.70558L173.031 9.76002L172.727 9.47985L174.872 7.1543L175.176 7.43447L174.234 8.45532L175.418 9.54794L176.361 8.52709L176.663 8.80726L174.518 11.1323L174.215 10.8526L175.187 9.7982Z" fill="#2B2343"/>
<path d="M178.126 15.7994L177.886 14.9673L180.542 13.7486L180.783 14.5807L178.126 15.7994Z" fill="#2B2343"/>
<path d="M179.741 18.8956C179.476 18.3169 179.611 17.7593 180.083 17.5339L180.267 17.935C180.038 18.0698 179.876 18.3491 180.059 18.7498C180.226 19.1137 180.53 19.2342 180.804 19.1091C181.58 18.7535 180.372 17.4216 181.442 16.9317C181.918 16.7145 182.416 16.9514 182.678 17.5224C182.929 18.0717 182.792 18.5699 182.375 18.816L182.185 18.4029C182.368 18.2888 182.504 18.0063 182.348 17.653C182.214 17.3393 181.941 17.169 181.631 17.3112C180.887 17.6512 182.061 18.9941 180.994 19.4822C180.585 19.6694 180.026 19.5199 179.741 18.8956Z" fill="#2B2343"/>
<path d="M182.332 26.3864C182.42 27.0489 182.969 27.4795 183.734 27.3774C184.504 27.2743 184.916 26.7153 184.827 26.0529C184.738 25.3904 184.195 24.9589 183.425 25.0619C182.659 25.1641 182.244 25.7239 182.332 26.3864ZM181.976 26.4338C181.858 25.551 182.427 24.7684 183.368 24.6424C184.311 24.5172 185.065 25.1222 185.183 26.0055C185.302 26.8929 184.732 27.6709 183.79 27.7965C182.849 27.9221 182.094 27.3212 181.976 26.4338Z" fill="#2B2343"/>
<path d="M185.404 30.4872L185.382 30.8999L183.38 30.7899C182.799 30.7577 182.532 31.0577 182.506 31.5255C182.481 31.9925 182.713 32.315 183.294 32.3467L185.297 32.4571L185.274 32.8703L183.276 32.7603C182.455 32.7152 182.108 32.1544 182.144 31.5007C182.18 30.847 182.586 30.3322 183.407 30.3773L185.404 30.4872Z" fill="#2B2343"/>
<path d="M184.248 36.7765L184.387 36.183L183.218 35.9111L183.08 36.5041C182.973 36.96 183.175 37.2172 183.52 37.2982C183.87 37.3796 184.141 37.237 184.248 36.7765ZM184.58 36.8537C184.411 37.5802 183.928 37.8318 183.423 37.714C183.029 37.622 182.703 37.317 182.708 36.7723L181.235 37.2462L181.348 36.7636L182.781 36.3224L182.894 35.8356L181.632 35.5417L181.727 35.1387L184.813 35.8573L184.58 36.8537Z" fill="#2B2343"/>
<path d="M180.214 43.9739C179.983 44.3866 180.079 44.67 180.388 44.8439C180.709 45.0237 180.997 44.9566 181.229 44.5439L181.527 44.013L180.513 43.443L180.214 43.9739ZM179.917 43.8074L180.216 43.276L179.062 42.6283L179.265 42.2676L182.028 43.8193L181.527 44.7114C181.162 45.361 180.633 45.4663 180.182 45.2119C179.761 44.9759 179.533 44.4928 179.917 43.8074Z" fill="#2B2343"/>
<path d="M178.54 48.5803L178.921 48.1055L177.987 47.3542L177.605 47.829C177.312 48.1938 177.382 48.5126 177.659 48.7339C177.938 48.9593 178.244 48.9488 178.54 48.5803ZM178.806 48.7937C178.339 49.3748 177.795 49.3918 177.391 49.0679C177.076 48.814 176.914 48.3985 177.155 47.9104L175.623 47.6993L175.933 47.3133L177.415 47.5364L177.728 47.1463L176.718 46.3352L176.978 46.0132L179.446 47.9965L178.806 48.7937Z" fill="#2B2343"/>
<path d="M173.601 49.6634L173.902 49.4082L176.075 51.7435L175.774 51.9987L173.601 49.6634Z" fill="#2B2343"/>
<path d="M170.734 52.4053C170.184 52.783 170.046 53.4666 170.483 54.1038C170.923 54.7446 171.608 54.8592 172.159 54.4819C172.71 54.1038 172.85 53.4238 172.41 52.783C171.973 52.1458 171.285 52.0276 170.734 52.4053ZM170.532 52.1085C171.266 51.6052 172.221 51.7607 172.759 52.5433C173.296 53.3267 173.097 54.274 172.362 54.7777C171.623 55.2843 170.672 55.1269 170.135 54.343C169.597 53.5595 169.793 52.6155 170.532 52.1085Z" fill="#2B2343"/>
<path d="M167.399 57.1125L167.956 56.8659L167.469 55.77L166.913 56.0166C166.486 56.2057 166.402 56.5208 166.546 56.8452C166.691 57.1732 166.967 57.3043 167.399 57.1125ZM167.537 57.4239C166.856 57.7257 166.365 57.4911 166.155 57.0177C165.991 56.6483 166.039 56.2052 166.476 55.8823L165.212 54.9916L165.665 54.791L166.879 55.6688L167.335 55.4669L166.811 54.2836L167.189 54.1152L168.471 57.0103L167.537 57.4239Z" fill="#2B2343"/>
<path d="M162.549 55.7449L162.851 55.7778L163.81 58.9028L163.507 58.8699L162.549 55.7449Z" fill="#2B2343"/>
<path d="M160.683 59.5271L158.561 59.8275L158.513 59.4949L159.368 59.3739L158.971 56.5726L159.38 56.5146L159.777 59.3159L160.636 59.194L160.683 59.5271Z" fill="#2B2343"/>
<path d="M156.104 60L155.646 59.9912L154.895 58.3741L154.084 59.9618L153.625 59.953L154.693 58.0029L154.716 56.8086L155.129 56.8164L155.106 58.0102L156.104 60Z" fill="#2B2343"/>
<path d="M139.302 42.709V20.743L129.544 37.7354H127.999L118.24 20.743V42.709H115.603V15.958H118.316L128.752 34.2694L139.264 15.958H141.94V42.709H139.302Z" fill="#7352D1"/>
<path d="M163.542 31.8541C163.467 30.7992 163.222 29.8386 162.808 28.9718C162.393 28.1051 161.866 27.3584 161.225 26.73C160.585 26.1025 159.844 25.6126 159.002 25.2606C158.161 24.9091 157.263 24.7329 156.308 24.7329C155.354 24.7329 154.449 24.9091 153.596 25.2606C152.741 25.6126 151.994 26.1025 151.354 26.73C150.713 27.3584 150.198 28.1116 149.809 28.9907C149.419 29.8703 149.188 30.8245 149.112 31.8541H163.542ZM156.308 43.082C154.877 43.082 153.564 42.8115 152.371 42.2719C151.178 41.7322 150.142 40.9906 149.263 40.0489C148.383 39.1072 147.699 38.021 147.209 36.7899C146.72 35.5593 146.475 34.2408 146.475 32.8335C146.475 31.4524 146.72 30.1528 147.209 28.9341C147.699 27.7159 148.377 26.6491 149.244 25.7317C150.111 24.8148 151.147 24.0866 152.352 23.546C153.558 23.0064 154.864 22.7363 156.27 22.7363C157.703 22.7363 159.015 23.0064 160.208 23.546C161.401 24.0866 162.425 24.8213 163.279 25.7501C164.132 26.6799 164.798 27.7472 165.276 28.953C165.753 30.1588 165.991 31.4396 165.991 32.7962V33.3989C165.991 33.6004 165.978 33.738 165.954 33.8134H149.15C149.225 34.8683 149.47 35.8418 149.884 36.7333C150.299 37.6254 150.832 38.3978 151.486 39.0506C152.139 39.7039 152.886 40.2127 153.728 40.5761C154.569 40.941 155.466 41.1227 156.421 41.1227C157.049 41.1227 157.677 41.0353 158.305 40.8591C158.933 40.6833 159.511 40.4446 160.039 40.1432C160.566 39.8419 161.043 39.4716 161.47 39.0318C161.897 38.5924 162.224 38.1084 162.45 37.5812L164.673 38.1839C164.371 38.9126 163.944 39.5719 163.392 40.1621C162.839 40.7523 162.198 41.2676 161.47 41.7069C160.741 42.1468 159.938 42.4853 159.059 42.7241C158.18 42.9624 157.263 43.082 156.308 43.082Z" fill="#7352D1"/>
</svg>
