<svg width="160" height="160" viewBox="0 0 160 160" fill="none" xmlns="http://www.w3.org/2000/svg">
<g filter="url(#filter0_d)">
<circle cx="80" cy="72" r="60" fill="#7352D1"/>
</g>
<path d="M108.41 49H50.8701C50.3896 49 50 49.3613 50 49.8068V94.5544C50 95 50.3896 95.3612 50.8701 95.3612H56.4965C56.977 95.3612 57.3666 95 57.3666 94.5544C57.3666 94.1089 56.977 93.7477 56.4965 93.7477H51.7402V55.7768H107.54V93.7478H60.3828C59.9023 93.7478 59.5127 94.109 59.5127 94.5545C59.5127 95.0001 59.9023 95.3613 60.3828 95.3613H108.41C108.891 95.3613 109.281 95.0001 109.281 94.5545V49.8068C109.281 49.3613 108.891 49 108.41 49ZM107.54 54.1632H51.7401V50.6136H107.54V54.1632H107.54Z" fill="white" stroke="white" stroke-width="0.5"/>
<path d="M102.005 59.5299H97.3642C96.8836 59.5299 96.4941 59.9713 96.4941 60.5156C96.4941 61.06 96.8836 61.5013 97.3642 61.5013H101.135V86.8658H58.3271V61.5012H93.4198C93.9004 61.5012 94.2899 61.0598 94.2899 60.5155C94.2899 59.9712 93.9004 59.5298 93.4198 59.5298H57.457C56.9765 59.5298 56.5869 59.9712 56.5869 60.5155V87.8512C56.5869 88.3955 56.9765 88.8369 57.457 88.8369H102.004C102.485 88.8369 102.875 88.3955 102.875 87.8512V60.5156C102.875 59.9712 102.485 59.5299 102.005 59.5299Z" fill="white" stroke="white" stroke-width="0.5"/>
<path d="M86.9167 73.5068L73.9237 65.7618C73.3546 65.4224 72.583 65.8153 72.583 66.4404V81.9303C72.583 82.5551 73.3542 82.9482 73.9237 82.6089L86.9167 74.864C87.44 74.5521 87.44 73.8187 86.9167 73.5068ZM74.3231 80.4526V67.9181L84.8371 74.1853L74.3231 80.4526Z" fill="white" stroke="white" stroke-width="0.5"/>
<path d="M105.626 51.5815H105.51C105.03 51.5815 104.64 51.9427 104.64 52.3882C104.64 52.8336 105.03 53.1948 105.51 53.1948H105.626C106.107 53.1948 106.496 52.8336 106.496 52.3882C106.496 51.9427 106.107 51.5815 105.626 51.5815Z" fill="white" stroke="white" stroke-width="0.5"/>
<path d="M102.842 51.5815H102.726C102.245 51.5815 101.855 51.9427 101.855 52.3882C101.855 52.8336 102.245 53.1948 102.726 53.1948H102.842C103.322 53.1948 103.712 52.8336 103.712 52.3882C103.712 51.9427 103.322 51.5815 102.842 51.5815Z" fill="white" stroke="white" stroke-width="0.5"/>
<path d="M99.9417 51.5815H99.8257C99.3451 51.5815 98.9556 51.9427 98.9556 52.3882C98.9556 52.8336 99.3451 53.1948 99.8257 53.1948H99.9417C100.422 53.1948 100.812 52.8336 100.812 52.3882C100.812 51.9427 100.422 51.5815 99.9417 51.5815Z" fill="white" stroke="white" stroke-width="0.5"/>
<defs>
<filter id="filter0_d" x="0" y="0" width="160" height="160" filterUnits="userSpaceOnUse" color-interpolation-filters="sRGB">
<feFlood flood-opacity="0" result="BackgroundImageFix"/>
<feColorMatrix in="SourceAlpha" type="matrix" values="0 0 0 0 0 0 0 0 0 0 0 0 0 0 0 0 0 0 127 0"/>
<feOffset dy="8"/>
<feGaussianBlur stdDeviation="10"/>
<feColorMatrix type="matrix" values="0 0 0 0 0 0 0 0 0 0 0 0 0 0 0 0 0 0 0.15 0"/>
<feBlend mode="normal" in2="BackgroundImageFix" result="effect1_dropShadow"/>
<feBlend mode="normal" in="SourceGraphic" in2="effect1_dropShadow" result="shape"/>
</filter>
</defs>
</svg>
