<svg width="90" height="68" viewBox="0 0 90 68" fill="none" xmlns="http://www.w3.org/2000/svg">
<path opacity="0.34" d="M8.79161 62.0863C3.67487 56.6517 0.927734 50.5563 0.927734 40.6755C0.927734 23.2886 13.1334 7.70491 30.883 0L35.3191 6.84549C18.7518 15.8072 15.5129 27.4366 14.2213 34.7689C16.889 33.3879 20.3813 32.9061 23.804 33.224C32.7657 34.0536 39.8298 41.4108 39.8298 50.5563C39.8298 55.1676 37.998 59.59 34.7373 62.8507C31.4766 66.1114 27.0542 67.9433 22.4428 67.9433C17.1125 67.9433 12.0156 65.5091 8.79161 62.0863ZM58.4686 62.0863C53.3519 56.6517 50.6047 50.5563 50.6047 40.6755C50.6047 23.2886 62.8104 7.70491 80.56 0L84.9961 6.84549C68.4289 15.8072 65.1899 27.4366 63.8983 34.7689C66.566 33.3879 70.0583 32.9061 73.481 33.224C82.4427 34.0536 89.5068 41.4108 89.5068 50.5563C89.5068 55.1676 87.675 59.59 84.4143 62.8507C81.1536 66.1114 76.7312 67.9433 72.1199 67.9433C66.7895 67.9433 61.6927 65.5091 58.4686 62.0863Z" fill="#CCCCCC"/>
</svg>
