<svg width="160" height="160" viewBox="0 0 160 160" fill="none" xmlns="http://www.w3.org/2000/svg">
<g filter="url(#filter0_d)">
<circle cx="80" cy="72" r="60" fill="#7352D1"/>
</g>
<g clip-path="url(#clip0)">
<path d="M74.312 62.7336L70.0802 66.9653L68.534 65.4192C67.9048 64.7899 66.8845 64.7899 66.2552 65.4192C65.6259 66.0485 65.6259 67.0687 66.2552 67.6979L68.9408 70.3835C69.2554 70.6981 69.6678 70.8554 70.0802 70.8554C70.4926 70.8554 70.905 70.6981 71.2195 70.3834L76.5906 65.0123C77.2199 64.383 77.2199 63.3628 76.5906 62.7335C75.9614 62.1043 74.9411 62.1043 74.312 62.7336Z" fill="white"/>
<path d="M74.312 73.2073L70.0802 77.4389L68.534 75.8928C67.9048 75.2635 66.8845 75.2635 66.2552 75.8928C65.6259 76.5221 65.6259 77.5423 66.2552 78.1716L68.9408 80.8571C69.2554 81.1717 69.6678 81.3291 70.0801 81.3291C70.4924 81.3291 70.9049 81.1718 71.2194 80.8571L76.5905 75.486C77.2198 74.8567 77.2198 73.8365 76.5905 73.2073C75.9614 72.5779 74.9411 72.5779 74.312 73.2073Z" fill="white"/>
<path d="M74.312 83.6809L70.0802 87.9126L68.534 86.3665C67.9048 85.7372 66.8845 85.7372 66.2552 86.3665C65.6259 86.9957 65.6259 88.0159 66.2552 88.6452L68.9408 91.3307C69.2554 91.6454 69.6678 91.8027 70.0802 91.8027C70.4926 91.8027 70.905 91.6454 71.2195 91.3306L76.5906 85.9595C77.2199 85.3303 77.2199 84.3101 76.5906 83.6808C75.9614 83.0515 74.9411 83.0515 74.312 83.6809Z" fill="white"/>
<path d="M106.561 70.0624L100.485 63.9857C99.8555 63.3565 98.8352 63.3565 98.2059 63.9857L95.8613 66.3301V52.8086C95.8613 51.9187 95.1399 51.1973 94.25 51.1973H85.1191V49.0488C85.1191 48.1589 84.3977 47.4375 83.5078 47.4375H80.8223V45.6113C80.8223 44.7214 80.1008 44 79.2109 44H70.6172C69.7273 44 69.0059 44.7214 69.0059 45.6113V47.4375H66.3203C65.4304 47.4375 64.709 48.1589 64.709 49.0488V51.1973H55.5781C54.6882 51.1973 53.9668 51.9187 53.9668 52.8086V97.3887C53.9668 98.2786 54.6882 99 55.5781 99H94.25C95.1399 99 95.8613 98.2786 95.8613 97.3887V83.041L106.561 72.341C107.19 71.7118 107.19 70.6917 106.561 70.0624ZM67.9316 50.6602H70.6172C71.5071 50.6602 72.2285 49.9387 72.2285 49.0488V47.2227H77.5996V49.0488C77.5996 49.9387 78.3211 50.6602 79.2109 50.6602H81.8965V54.957H67.9316V50.6602ZM92.6387 95.7773H57.1895V54.4199H64.709V56.5684C64.709 57.4582 65.4304 58.1797 66.3203 58.1797H83.5078C84.3977 58.1797 85.1191 57.4582 85.1191 56.5684V54.4199H92.6387V69.5528L82.2545 79.9369V79.9378C82.0806 80.1118 81.9456 80.3257 81.8652 80.5667L78.8269 89.6818C78.634 90.2608 78.7846 90.8992 79.2162 91.3307C79.5233 91.6378 79.9351 91.8027 80.3557 91.8027C80.5261 91.8027 80.6982 91.7757 80.865 91.72L89.9801 88.6817C90.2211 88.6013 90.435 88.4663 90.609 88.2924H90.6099L92.6387 86.2636V95.7773ZM86.4876 86.4489L82.9031 87.6438L84.098 84.0593L86.4876 86.4489ZM93.1108 81.234C93.1107 81.2341 93.1106 81.2342 93.1106 81.2342L89.4707 84.8742L85.6728 81.0763L99.3453 67.4038L103.143 71.2017L93.1108 81.234Z" fill="white"/>
<path d="M62.0234 70.3184C62.9133 70.3184 63.6348 69.5969 63.6348 68.707C63.6348 67.8171 62.9133 67.0957 62.0234 67.0957C61.1335 67.0957 60.4121 67.8171 60.4121 68.707C60.4121 69.5969 61.1335 70.3184 62.0234 70.3184Z" fill="white"/>
<path d="M62.0234 80.792C62.9133 80.792 63.6348 80.0706 63.6348 79.1807C63.6348 78.2908 62.9133 77.5693 62.0234 77.5693C61.1335 77.5693 60.4121 78.2908 60.4121 79.1807C60.4121 80.0706 61.1335 80.792 62.0234 80.792Z" fill="white"/>
<path d="M62.0234 91.2656C62.9133 91.2656 63.6348 90.5442 63.6348 89.6543C63.6348 88.7644 62.9133 88.043 62.0234 88.043C61.1335 88.043 60.4121 88.7644 60.4121 89.6543C60.4121 90.5442 61.1335 91.2656 62.0234 91.2656Z" fill="white"/>
</g>
<defs>
<filter id="filter0_d" x="0" y="0" width="160" height="160" filterUnits="userSpaceOnUse" color-interpolation-filters="sRGB">
<feFlood flood-opacity="0" result="BackgroundImageFix"/>
<feColorMatrix in="SourceAlpha" type="matrix" values="0 0 0 0 0 0 0 0 0 0 0 0 0 0 0 0 0 0 127 0"/>
<feOffset dy="8"/>
<feGaussianBlur stdDeviation="10"/>
<feColorMatrix type="matrix" values="0 0 0 0 0 0 0 0 0 0 0 0 0 0 0 0 0 0 0.15 0"/>
<feBlend mode="normal" in2="BackgroundImageFix" result="effect1_dropShadow"/>
<feBlend mode="normal" in="SourceGraphic" in2="effect1_dropShadow" result="shape"/>
</filter>
<clipPath id="clip0">
<rect width="55" height="55" fill="white" transform="translate(53 44)"/>
</clipPath>
</defs>
</svg>
