<svg width="160" height="160" viewBox="0 0 160 160" fill="none" xmlns="http://www.w3.org/2000/svg">
<g filter="url(#filter0_d)">
<circle cx="80" cy="72" r="60" fill="#7352D1"/>
</g>
<g clip-path="url(#clip0)">
<path d="M73.8119 63.2336L69.5801 67.4653L68.0339 65.9192C67.4047 65.2899 66.3844 65.2899 65.7552 65.9192C65.1259 66.5485 65.1259 67.5687 65.7552 68.1979L68.4407 70.8835C68.7553 71.1981 69.1677 71.3554 69.5801 71.3554C69.9925 71.3554 70.4049 71.1981 70.7194 70.8834L76.0905 65.5123C76.7198 64.883 76.7198 63.8628 76.0905 63.2335C75.4614 62.6043 74.4411 62.6043 73.8119 63.2336Z" fill="white"/>
<path d="M73.8119 73.7073L69.5801 77.9389L68.0339 76.3928C67.4047 75.7635 66.3844 75.7635 65.7552 76.3928C65.1259 77.0221 65.1259 78.0423 65.7552 78.6716L68.4407 81.3571C68.7553 81.6717 69.1677 81.8291 69.58 81.8291C69.9923 81.8291 70.4048 81.6718 70.7193 81.3571L76.0904 75.986C76.7197 75.3567 76.7197 74.3365 76.0904 73.7073C75.4614 73.0779 74.4411 73.0779 73.8119 73.7073Z" fill="white"/>
<path d="M73.8119 84.1809L69.5801 88.4126L68.0339 86.8665C67.4047 86.2372 66.3844 86.2372 65.7552 86.8665C65.1259 87.4957 65.1259 88.5159 65.7552 89.1452L68.4407 91.8307C68.7553 92.1454 69.1677 92.3027 69.5801 92.3027C69.9925 92.3027 70.4049 92.1454 70.7194 91.8306L76.0905 86.4595C76.7198 85.8303 76.7198 84.8101 76.0905 84.1808C75.4614 83.5515 74.4411 83.5515 73.8119 84.1809Z" fill="white"/>
<path d="M106.061 70.5624L99.9847 64.4857C99.3555 63.8565 98.3352 63.8565 97.7059 64.4857L95.3613 66.8301V53.3086C95.3613 52.4187 94.6399 51.6973 93.75 51.6973H84.6191V49.5488C84.6191 48.6589 83.8977 47.9375 83.0078 47.9375H80.3223V46.1113C80.3223 45.2214 79.6008 44.5 78.7109 44.5H70.1172C69.2273 44.5 68.5059 45.2214 68.5059 46.1113V47.9375H65.8203C64.9304 47.9375 64.209 48.6589 64.209 49.5488V51.6973H55.0781C54.1882 51.6973 53.4668 52.4187 53.4668 53.3086V97.8887C53.4668 98.7786 54.1882 99.5 55.0781 99.5H93.75C94.6399 99.5 95.3613 98.7786 95.3613 97.8887V83.541L106.061 72.841C106.69 72.2118 106.69 71.1917 106.061 70.5624ZM67.4316 51.1602H70.1172C71.0071 51.1602 71.7285 50.4387 71.7285 49.5488V47.7227H77.0996V49.5488C77.0996 50.4387 77.8211 51.1602 78.7109 51.1602H81.3965V55.457H67.4316V51.1602ZM92.1387 96.2773H56.6895V54.9199H64.209V57.0684C64.209 57.9582 64.9304 58.6797 65.8203 58.6797H83.0078C83.8977 58.6797 84.6191 57.9582 84.6191 57.0684V54.9199H92.1387V70.0528L81.7545 80.4369V80.4378C81.5806 80.6118 81.4456 80.8257 81.3652 81.0667L78.3269 90.1818C78.134 90.7608 78.2846 91.3992 78.7162 91.8307C79.0233 92.1378 79.4351 92.3027 79.8557 92.3027C80.0261 92.3027 80.1982 92.2757 80.365 92.22L89.4801 89.1817C89.7211 89.1013 89.935 88.9663 90.109 88.7924H90.1099L92.1387 86.7636V96.2773ZM85.9876 86.9489L82.4031 88.1438L83.598 84.5593L85.9876 86.9489ZM92.6108 81.734C92.6107 81.7341 92.6106 81.7342 92.6106 81.7342L88.9707 85.3742L85.1728 81.5763L98.8453 67.9038L102.643 71.7017L92.6108 81.734Z" fill="white"/>
<path d="M61.5234 70.8184C62.4133 70.8184 63.1348 70.0969 63.1348 69.207C63.1348 68.3171 62.4133 67.5957 61.5234 67.5957C60.6335 67.5957 59.9121 68.3171 59.9121 69.207C59.9121 70.0969 60.6335 70.8184 61.5234 70.8184Z" fill="white"/>
<path d="M61.5234 81.292C62.4133 81.292 63.1348 80.5706 63.1348 79.6807C63.1348 78.7908 62.4133 78.0693 61.5234 78.0693C60.6335 78.0693 59.9121 78.7908 59.9121 79.6807C59.9121 80.5706 60.6335 81.292 61.5234 81.292Z" fill="white"/>
<path d="M61.5234 91.7656C62.4133 91.7656 63.1348 91.0442 63.1348 90.1543C63.1348 89.2644 62.4133 88.543 61.5234 88.543C60.6335 88.543 59.9121 89.2644 59.9121 90.1543C59.9121 91.0442 60.6335 91.7656 61.5234 91.7656Z" fill="white"/>
</g>
<defs>
<filter id="filter0_d" x="0" y="0" width="160" height="160" filterUnits="userSpaceOnUse" color-interpolation-filters="sRGB">
<feFlood flood-opacity="0" result="BackgroundImageFix"/>
<feColorMatrix in="SourceAlpha" type="matrix" values="0 0 0 0 0 0 0 0 0 0 0 0 0 0 0 0 0 0 127 0"/>
<feOffset dy="8"/>
<feGaussianBlur stdDeviation="10"/>
<feColorMatrix type="matrix" values="0 0 0 0 0 0 0 0 0 0 0 0 0 0 0 0 0 0 0.15 0"/>
<feBlend mode="normal" in2="BackgroundImageFix" result="effect1_dropShadow"/>
<feBlend mode="normal" in="SourceGraphic" in2="effect1_dropShadow" result="shape"/>
</filter>
<clipPath id="clip0">
<rect width="55" height="55" fill="white" transform="translate(52.5 44.5)"/>
</clipPath>
</defs>
</svg>
