<svg width="32" height="31" viewBox="0 0 32 31" fill="none" xmlns="http://www.w3.org/2000/svg">
<path d="M15.8226 4.09344L15.9994 4.27022L16.1761 4.09344C17.7295 2.54007 20.2663 1 23.1244 1C27.7813 1 31.5827 4.83075 31.5827 10.25C31.5827 15.695 28.667 19.9879 25.2289 23.2296C22.1822 26.1021 18.7501 28.1266 16.6241 29.3806C16.4008 29.5123 16.1919 29.6356 15.9994 29.7504C15.8068 29.6356 15.5979 29.5123 15.3746 29.3806C13.2486 28.1266 9.81646 26.1021 6.76981 23.2296C3.33167 19.9879 0.416016 15.695 0.416016 10.25C0.416016 4.83191 4.27648 1 8.87435 1C11.7324 1 14.2692 2.54007 15.8226 4.09344ZM15.9994 8.04078L13.9373 5.97872L13.9371 5.97851C12.5627 4.60741 10.6594 3.66667 8.87435 3.66667C5.63916 3.66667 3.08268 6.4275 3.08268 10.25C3.08268 15.0183 5.78445 19.182 10.5316 22.9587L10.5317 22.9588C11.7198 23.9029 12.9863 24.7837 14.3871 25.6662C14.8627 25.9668 15.3332 26.2545 15.8714 26.5752L15.9994 26.6514L16.1273 26.5752C16.6656 26.2544 17.136 25.9668 17.6113 25.668L17.4782 25.4563L17.6116 25.6677C19.0124 24.7837 20.2789 23.9029 21.4655 22.9587C26.2159 19.182 28.916 15.0167 28.916 10.25C28.916 6.40259 26.3963 3.66667 23.1244 3.66667C21.3393 3.66667 19.436 4.60741 18.0616 5.97851L18.0614 5.97872L15.9994 8.04078Z" fill="#7352D1" stroke="#E3DCF6" stroke-width="0.5"/>
</svg>
