<svg width="203" height="353" viewBox="0 0 203 353" fill="none" xmlns="http://www.w3.org/2000/svg">
<path d="M25.7625 196.316C24.7871 196.455 23.2543 195.818 24.9264 192.164C26.5985 188.51 30.6394 178.739 32.4508 174.31L27.0164 177.217C26.1803 177.494 24.0066 177.881 22 177.217L29.1066 169.743C30.5 168.221 34.4574 165.259 39.1393 165.591C40.9508 163.1 44.741 156.706 45.4098 151.059C46.2459 144 47.5 131.129 49.5902 125.316C51.6803 119.503 56.2787 110.369 55.8607 103.31C55.5262 97.6634 55.7213 85.4564 55.8607 80.0587C55.8607 77.1523 56.9475 70.6751 61.2951 68.0177C65.6426 65.3604 76.2049 60.8208 80.9426 58.8832C83.0328 57.9144 87.2131 54.5651 87.2131 48.9183C87.2131 43.2715 86.9344 39.9221 86.7951 38.9533C84.9836 36.3237 81.2771 30.7323 80.9426 29.4036C80.5246 27.7428 79.2705 24.0059 83.0328 23.5907V12.7954C83.0328 10.7193 83.0328 2 99.3361 2C103.795 2 112.964 4.15907 113.967 12.7954V24.0059C114.803 24.0059 116.392 24.5872 116.057 26.9124C115.639 29.8188 114.385 34.3861 109.787 39.7837V48.9183C109.787 51.1327 110.707 55.9768 114.385 57.6376C118.064 59.2984 127.344 63.3121 131.525 65.1113C135.008 66.4953 141.808 72.0037 141.139 82.9652C140.303 96.667 142.393 113.275 143.648 117.012C144.902 120.749 148.664 127.807 149.918 140.264C150.921 150.229 155.631 161.577 157.861 166.006C159.811 166.006 164.215 166.588 166.221 168.913C168.228 171.238 172.91 175.418 175 177.217C174.164 178.463 171.07 179.708 165.385 174.726L172.492 191.749C173.189 192.856 173.997 195.237 171.656 195.901C171.238 197.285 169.733 199.389 167.057 196.732L166.221 196.316C166.639 197.562 166.807 199.887 164.131 199.223C161.456 198.558 159.115 192.58 158.279 189.673C158.697 192.995 159.198 199.555 157.861 199.223C156.523 198.891 153.402 190.227 152.008 185.936C150.197 181.092 145.989 170.158 143.648 165.176C140.721 158.948 128.18 134.866 127.762 118.258C127.066 126.7 126.843 148.651 131.525 168.913C136.207 189.175 135.426 212.786 134.451 222.059C133.615 228.979 132.11 243.816 132.779 247.802C133.615 252.784 135.287 270.223 134.869 274.375C134.451 278.527 130.27 318.802 130.27 322.539C130.27 326.276 129.016 336.656 133.197 340.808C137.377 344.96 143.648 353.264 126.926 352.849C124.557 352.849 119.652 351.769 118.984 347.451C118.315 343.133 118.426 325.999 118.566 317.972C118.287 312.712 117.144 299.62 114.803 289.323C112.462 279.025 111.877 267.317 111.877 262.749C111.877 260.95 111.543 256.189 110.205 251.539C108.867 246.888 105.746 227.457 104.352 218.322L101.844 190.503H95.9918C95.2951 198.531 93.5672 215.914 92.2295 221.229C90.5574 227.872 86.7951 250.293 86.3771 253.2C85.959 256.106 84.7049 257.352 84.7049 263.165C84.7049 268.977 84.7049 282.679 81.3607 295.135C78.6852 305.1 78.5738 320.878 78.8525 327.521L78.4344 347.451C78.9918 349.666 77.5984 353.845 67.5656 352.849C55.0246 351.603 60.877 344.13 62.1311 342.054C63.3852 339.978 67.9836 336.241 67.1475 322.124C66.3115 308.007 62.9672 282.679 62.5492 275.206C62.1311 267.732 64.6393 254.445 64.6393 249.463C64.6393 245.477 62.6885 221.506 61.7131 210.018C61.4344 203.236 61.2115 187.182 62.5492 177.217C63.8869 167.252 67.8443 150.09 69.6557 142.755C70.2131 137.634 71.1607 125.897 70.4918 119.918C69.9344 119.503 68.7361 119.586 68.4016 123.24C67.9836 127.807 60.041 153.135 52.5164 167.667C49.3115 175.279 42.7344 191.085 42.0656 193.41C41.2295 196.316 38.3033 206.281 38.7213 191.334C37.0492 194.517 33.1197 200.635 30.7787 199.638C30.5696 199.326 30.5801 198.08 31.7287 195.372C30.3861 197.713 28.5937 199.894 27.0164 199.223C26.5984 198.531 26.5148 195.901 29.5246 190.919C28.5492 192.441 26.4313 195.652 25.7625 196.316Z" fill="#898989" fill-opacity="0.1"/>
<path d="M0 1H203" stroke="#898989" stroke-dasharray="2 2"/>
</svg>
