<svg width="80" height="81" viewBox="0 0 80 81" fill="none" xmlns="http://www.w3.org/2000/svg">
<g clip-path="url(#clip0)">
<path d="M78.7501 77.223H67.4492C66.996 75.3767 65.5587 73.8866 63.6473 73.4088L60.9296 72.729L64.3647 56.0692C65.0239 52.8681 63.2074 49.6086 60.0629 48.5218C52.3773 45.8546 55.006 47.0355 47.9361 45.4209C50.3963 43.9255 53.7852 41.7857 54.8428 40.7281C56.0814 39.4877 59.8512 35.7127 59.8512 32.1022C59.8512 31.0844 59.5437 29.9629 58.9363 28.7585L78.6709 9.02383C79.528 8.16684 80.0001 7.02722 80.0001 5.81511C80.0001 1.79784 75.1042 -0.244382 72.2536 2.60639C71.7654 3.09449 71.7654 3.88584 72.2536 4.37394C72.7417 4.86204 73.5331 4.86204 74.0212 4.37394C75.302 3.09339 77.5002 4.01131 77.5002 5.81495C77.5002 6.35929 77.2882 6.87098 76.9034 7.25596L53.9044 30.2551C53.1146 31.0447 53.6847 32.3889 54.7882 32.3889C55.4662 32.3889 55.6629 32.032 57.042 30.6529C57.244 31.1891 57.3514 31.6791 57.3514 32.1022C57.3514 33.8116 55.9122 36.1194 53.0677 38.9679C52.0556 39.98 47.4582 42.8267 44.3862 44.6319L40.1575 44.1033C39.4723 44.0169 38.8479 44.5035 38.7623 45.1886C38.6767 45.8735 39.1626 46.4982 39.8476 46.5838L44.4251 47.1561C55.0557 49.7628 50.8727 48.0064 59.2642 50.8909C61.1874 51.5601 62.3276 53.5695 61.9169 55.5645L60.3273 63.2738H56.2367L56.8967 57.4893C56.9761 56.7931 56.4669 56.1662 55.7677 56.1028C40.85 54.7494 42.2485 56.3925 37.1296 54.6105C36.794 54.4973 36.2846 54.2991 35.9275 54.1143C32.8717 52.5325 32.2146 47.9519 33.1801 45.3765C34.3638 44.5388 35.5431 43.5693 36.6862 42.493C37.1888 42.0197 37.2126 41.2287 36.7393 40.726C36.266 40.2236 35.4752 40.1998 34.9724 40.6729C33.6834 41.8866 32.0722 43.1339 31.9702 43.1574C31.6555 43.2307 31.568 43.334 30.3244 44.151C27.2166 46.1931 27.8194 45.7962 11.7023 59.3434L1.94072 65.8561C0.231753 66.9962 -0.443364 69.1305 0.298937 71.0461C2.32241 76.2677 2.31944 76.4249 2.88285 77.223H1.25466C0.56439 77.223 0.0047351 77.7826 0.0047351 78.4729C0.0047351 79.1632 0.56439 79.7228 1.25466 79.7228H78.7501C79.4404 79.7228 80.0001 79.1632 80.0001 78.4729C80.0001 77.7826 79.4404 77.223 78.7501 77.223ZM30.2776 47.1919C30.0769 50.353 31.276 53.894 33.8888 55.783C29.2408 57.9456 23.004 60.4274 15.3537 64.3729L13.9408 60.7274C26.3244 50.3164 28.3942 48.5115 30.2776 47.1919ZM3.32813 67.9357L11.85 62.2501L13.1569 65.6224L7.3554 69.3172C6.9298 69.5882 6.70887 70.0887 6.79543 70.5857L7.94864 77.213C6.49795 77.3178 5.08381 76.4755 4.5315 75.0503L2.62989 70.1429C2.31413 69.3281 2.6013 68.4205 3.32813 67.9357ZM9.40106 70.9782C15.0845 67.3587 15.9347 66.4469 30.1072 60.2143C32.6625 59.0906 34.8918 58.1086 36.8291 57.1429C41.9612 58.7726 41.5953 57.3969 54.2673 58.48C52.4482 74.4233 52.9013 71.3208 52.152 74.318C51.9047 75.3071 52.0097 76.3253 52.4338 77.2228H10.4877L9.40106 70.9782ZM56.3717 77.223C55.169 77.223 54.2848 76.0932 54.5772 74.9245C55.3784 71.7195 55.0299 73.8471 55.9511 65.7738H59.8114L58.2393 73.3983C58.104 74.0546 58.5101 74.7008 59.1602 74.8633L63.0409 75.834C63.82 76.0288 64.4483 76.5463 64.7981 77.223H56.3717Z" fill="#FF668E"/>
<path d="M43.4336 13.9008C43.6109 16.357 44.6179 18.6327 46.2936 20.4401C45.1736 25.0303 43.4442 29.2578 41.1456 33.0137C40.7851 33.6026 40.9703 34.3719 41.5592 34.7323C42.1515 35.095 42.9195 34.9039 43.2778 34.3188C45.5103 30.671 47.2352 26.6117 48.417 22.2285C49.0433 22.6349 49.7065 22.976 50.394 23.2474L51.0908 23.7695L49.255 25.6054C48.4652 26.395 49.0353 27.7392 50.1388 27.7392C50.4586 27.7392 50.7786 27.6171 51.0227 27.3731C64.0108 14.3849 40.8634 37.5323 67.0469 11.3489C69.4032 8.9926 70.7009 5.85982 70.7009 2.52751C70.7009 1.83724 70.1412 1.27759 69.451 1.27759C68.7607 1.27759 68.201 1.83724 68.201 2.52751C68.201 5.19205 67.1635 7.69721 65.2793 9.58132L59.8515 15.0091C59.8515 12.1063 60.0651 10.45 58.7972 8.21734C56.6483 4.43022 51.7831 3.03561 47.856 5.01143C45.9753 1.79709 41.0789 2.23628 39.8366 5.75326L38.9982 8.13484C37.9673 11.0515 40.2761 14.0776 43.4336 13.9008ZM56.2219 8.84777C55.047 10.4864 53.1493 11.4479 51.1178 11.4754C49.2934 11.5009 49.4164 13.9782 51.0283 13.9782C53.3724 13.9782 55.6393 13.0638 57.3022 11.4232C57.3687 11.9101 57.3514 11.6004 57.3514 17.5087L53.3913 21.4687C51.7612 21.2466 50.2863 20.5891 49.0972 19.6418L50.1491 17.0312C50.4311 16.3312 50.0335 15.5213 49.2661 15.3465C48.6778 15.2121 48.0625 15.5194 47.83 16.0969L47.2284 17.5905C46.3693 16.2658 45.9019 14.7341 45.9019 13.1155C45.9019 12.9564 45.8842 12.9994 45.9902 12.9135C46.6557 12.3743 47.1123 11.6801 47.3594 10.9831C48.1972 8.60528 48.3638 8.2489 48.4263 7.56128C50.9322 5.92935 54.3734 6.4426 56.2219 8.84777ZM41.3554 8.96604L42.1938 6.58431C42.4665 5.81279 43.2144 5.32829 44.0167 5.32829C45.3289 5.32829 46.2656 6.5654 45.8403 7.77143C45.0258 10.0835 44.9721 10.6841 44.1724 11.1419C42.5747 12.0432 40.7965 10.5488 41.3554 8.96604Z" fill="#FF668E"/>
<path d="M38.4439 38.8801C38.9807 39.3117 39.7721 39.2228 40.2055 38.6836C40.2691 38.6045 40.3327 38.5253 40.3963 38.4447C40.8237 37.9027 40.7309 37.1168 40.1889 36.6893C39.6469 36.2617 38.8609 36.3545 38.4336 36.8967C38.3748 36.9712 38.3161 37.0442 38.2484 37.1282C37.8159 37.6663 37.9059 38.4475 38.4439 38.8801Z" fill="#FF668E"/>
</g>
<defs>
<clipPath id="clip0">
<rect width="80" height="80" fill="white" transform="translate(0 0.5)"/>
</clipPath>
</defs>
</svg>
