<svg width="86" height="82" viewBox="0 0 86 82" fill="none" xmlns="http://www.w3.org/2000/svg">
<path d="M7.98658 43.0121C7.98658 44.0479 7.14288 44.8874 6.10192 44.8874H2.662C1.62104 44.8874 0.777344 44.0479 0.777344 43.0121C0.777344 41.9763 1.62104 41.1368 2.662 41.1368H6.10192C7.14267 41.1368 7.98658 41.9763 7.98658 43.0121ZM25.9292 59.4583C25.8825 59.9823 26.0594 60.5015 26.4165 60.8895C26.7735 61.2775 27.2777 61.4984 27.8065 61.4984H31.4378C32.4788 61.4984 33.3225 60.6589 33.3225 59.6231C33.3225 58.5873 32.4788 57.7478 31.4378 57.7478H30.089C31.545 53.0574 36.4753 49.0826 43.0766 47.448C49.6775 49.0826 54.6078 53.0572 56.0642 57.7478H54.715C53.6741 57.7478 52.8304 58.5873 52.8304 59.6231C52.8304 60.6589 53.6741 61.4984 54.715 61.4984H58.347C58.8755 61.4984 59.3802 61.2773 59.737 60.8895C60.0941 60.5015 60.271 59.9823 60.2243 59.4583C59.8962 55.7577 58.0662 52.29 54.9328 49.4298C51.9548 46.7114 48.0019 44.7274 43.5011 43.6924C43.2217 43.6282 42.9313 43.6282 42.6524 43.6924C38.1516 44.7276 34.1986 46.7114 31.2207 49.4298C28.0869 52.2898 26.2573 55.7577 25.9292 59.4583ZM69.0902 18.9262C69.5726 18.9262 70.0547 18.743 70.4228 18.3769L72.8547 15.957C73.5907 15.2246 73.5907 14.0373 72.8547 13.3049C72.1184 12.5725 70.9254 12.5727 70.1891 13.3049L67.7573 15.7248C67.0212 16.4572 67.0212 17.6445 67.7573 18.3769C68.1254 18.7432 68.6077 18.9262 69.0902 18.9262ZM42.9992 8.17301C44.0401 8.17301 44.8838 7.33351 44.8838 6.29772V2.8753C44.8838 1.83951 44.0401 1 42.9992 1C41.9582 1 41.1145 1.83951 41.1145 2.8753V6.29772C41.1145 7.33351 41.9582 8.17301 42.9992 8.17301ZM15.5761 18.3771C15.944 18.7432 16.4263 18.9264 16.9086 18.9264C17.3908 18.9264 17.8733 18.7432 18.2412 18.3769C18.9773 17.6445 18.9773 16.4572 18.241 15.7248L15.8088 13.3051C15.0729 12.5727 13.8793 12.5727 13.1434 13.3053C12.4074 14.0377 12.4074 15.225 13.1436 15.9574L15.5761 18.3771ZM38.7185 73.6363C37.6775 73.6363 36.8338 74.4758 36.8338 75.5116V77.2494H23.2672C20.8111 77.2494 18.8129 75.2612 18.8129 72.817C18.8129 70.3729 20.8111 68.3847 23.2672 68.3847H36.7373C37.7782 68.3847 38.6219 67.5452 38.6219 66.5094C38.6219 65.4736 37.7782 64.6341 36.7373 64.6341H23.2672C18.7327 64.6341 15.0436 68.3051 15.0436 72.817C15.0436 77.329 18.7327 81 23.2672 81H38.7185C39.7594 81 40.6031 80.1605 40.6031 79.1247V75.5116C40.6031 74.476 39.7592 73.6363 38.7185 73.6363ZM83.3371 41.1368H79.8976C78.8567 41.1368 78.013 41.9763 78.013 43.0121C78.013 44.0479 78.8567 44.8874 79.8976 44.8874H83.3371C84.3781 44.8874 85.2218 44.0479 85.2218 43.0121C85.2218 41.9763 84.3781 41.1368 83.3371 41.1368ZM42.9992 12.8577C26.0173 12.8577 12.2019 26.6049 12.2019 43.5026C12.2019 49.3902 13.8845 55.1098 17.0679 60.0425C17.4281 60.6005 18.0352 60.9049 18.6556 60.9047C19.0041 60.9047 19.3572 60.8087 19.6721 60.6072C20.548 60.0475 20.8021 58.8873 20.2396 58.0157C17.4472 53.6888 15.971 48.6701 15.971 43.5024C15.971 28.6729 28.0957 16.6081 42.9989 16.6081C57.9026 16.6081 70.0277 28.6727 70.0277 43.5024C70.0277 48.6705 68.5514 53.689 65.7585 58.0155C65.1958 58.8869 65.4498 60.0471 66.3256 60.6068C67.2017 61.1669 68.3677 60.9137 68.93 60.0425C72.114 55.1101 73.797 49.3906 73.797 43.5024C73.7972 26.6049 59.9814 12.8577 42.9992 12.8577ZM42.5043 39.9443C38.6803 38.732 36.1113 35.2331 36.1113 31.2373C36.1113 27.2415 38.6808 23.7424 42.5045 22.5303C42.8766 22.4126 43.2764 22.4126 43.6485 22.5303C47.4725 23.7424 50.0415 27.2415 50.0415 31.2373C50.0415 35.2329 47.4723 38.732 43.6487 39.9443C43.4626 40.0033 43.2695 40.0329 43.0766 40.0329C42.8838 40.0329 42.6903 40.0033 42.5043 39.9443ZM43.0764 36.1539C45.0103 35.2944 46.2722 33.3879 46.2722 31.2375C46.2722 29.0868 45.0107 27.1804 43.0764 26.3211C41.1421 27.1804 39.8805 29.0868 39.8805 31.2375C39.8805 33.3881 41.1421 35.2944 43.0764 36.1539ZM62.8861 64.6341H49.4156C48.3746 64.6341 47.5309 65.4736 47.5309 66.5094C47.5309 67.5452 48.3746 68.3847 49.4156 68.3847H62.8861C65.3422 68.3847 67.3404 70.3731 67.3404 72.817C67.3404 75.261 65.3422 77.2494 62.8861 77.2494H49.3195V75.5116C49.3195 74.4758 48.4758 73.6363 47.4348 73.6363C46.3938 73.6363 45.5501 74.4758 45.5501 75.5116V79.1247C45.5501 80.1605 46.3938 81 47.4348 81H62.8861C67.4206 81 71.1097 77.3292 71.1097 72.817C71.1097 68.3049 67.4206 64.6341 62.8861 64.6341ZM43.0764 51.3653C42.0355 51.3653 41.1918 52.2048 41.1918 53.2406V66.5096C41.1918 67.5454 42.0355 68.3849 43.0764 68.3849C44.1174 68.3849 44.9611 67.5454 44.9611 66.5096V53.2406C44.9611 52.2048 44.1174 51.3653 43.0764 51.3653Z" fill="#FF668E" stroke="#FF668E"/>
</svg>
