<svg width="76" height="76" viewBox="0 0 76 76" fill="none" xmlns="http://www.w3.org/2000/svg">
<g clip-path="url(#clip0)">
<path d="M74.2474 48.0017H1.75239C1.06245 48.0017 0.502441 48.5604 0.502441 49.2517C0.502441 63.7244 12.2767 75.4999 26.7506 75.4999H49.2491C63.7219 75.4999 75.4973 63.7244 75.4973 49.2517C75.4973 48.5604 74.9386 48.0017 74.2474 48.0017ZM49.2491 73H26.7506C14.0752 73 3.68715 63.0181 3.03471 50.5015H72.9649C72.3126 63.0181 61.9245 73 49.2491 73Z" fill="#FF668E"/>
<path d="M64.2533 18.0115C64.2533 17.9203 64.252 17.829 64.2433 17.6903C64.0508 15.618 62.626 13.9155 60.7449 13.2769L62.1597 11.862C64.6133 9.45846 64.8596 5.61369 62.7121 2.8989C60.4123 0.104126 56.2676 -0.293432 53.474 2.0052C53.3152 2.13645 53.1615 2.27517 53.0077 2.42898L51.4704 3.98888C50.8254 2.1177 49.1193 0.702807 47.017 0.507836C44.2484 0.356665 41.9048 2.48142 41.7561 5.23371C41.7511 5.32497 41.7498 5.41623 41.7498 5.50617V7.42233C41.0149 6.99606 40.1637 6.75114 39.2551 6.74982C39.1651 6.74982 39.0725 6.75231 38.9338 6.75978C36.2615 7.00851 34.2055 9.30465 34.2504 11.9668V13.6668C33.5004 13.2331 32.6455 13.0006 31.7557 12.9993C31.6657 12.9993 31.5745 13.0018 31.4357 13.0092C28.7621 13.258 26.7061 15.5541 26.751 18.2164V36.7527C26.751 37.444 27.311 38.0026 28.001 38.0026H49.2495C52.0068 38.0026 54.2492 35.7603 54.2478 33.0055C54.2478 32.0955 54.0041 31.2418 53.5767 30.5057H55.2653C57.9501 30.5794 60.2462 28.4933 60.4974 25.7722C60.5512 24.7548 60.2962 23.7924 59.8138 22.975C60.9362 22.85 61.9749 22.3537 62.7848 21.5463C63.7295 20.6038 64.252 19.3489 64.2533 18.0115ZM61.0197 19.7764C60.5472 20.2463 59.921 20.5051 59.2523 20.5051C59.251 20.5051 59.2498 20.5051 59.2485 20.5051H55.4988C54.8076 20.5051 54.2489 21.0651 54.2489 21.7551C54.2489 22.445 54.8076 23.005 55.4988 23.005L55.6364 23.0088C57.0138 23.0825 58.0737 24.2624 58.0037 25.5899C57.8763 26.9673 56.7076 28.0335 55.2864 28.0047H49.2494C48.5581 28.0047 47.9994 28.5647 47.9994 29.2546C47.9994 29.9445 48.5581 30.5046 49.2494 30.5046C50.6281 30.5046 51.7493 31.6257 51.7493 33.0045C51.7493 34.3832 50.6281 35.5044 49.2494 35.5044H29.2506V18.1952C29.2269 16.8115 30.2894 15.6279 31.618 15.5028L31.7542 15.499C33.1304 15.5002 34.249 16.6202 34.2503 17.9951V18.0039C34.2503 18.6938 34.809 19.2538 35.4989 19.2538C35.5002 19.2538 35.5002 19.2538 35.5002 19.2538C36.1902 19.2538 36.7489 18.6952 36.7502 18.0052V18.004V11.9456C36.7264 10.5619 37.7889 9.37833 39.1175 9.25323L39.2526 9.24942C40.63 9.25191 41.7487 10.3718 41.75 11.748V11.7555C41.75 12.4454 42.3087 13.0054 42.9986 13.0054C42.9999 13.0054 42.9999 13.0054 42.9999 13.0054C43.6899 13.0054 44.2485 12.4467 44.2499 11.7568V11.7555V5.50602L44.2537 5.3673C44.3262 3.99108 45.4786 2.93127 46.8336 2.99997C48.2134 3.12873 49.2746 4.31232 49.2483 5.71974V6.75714C49.2483 7.26339 49.5546 7.72086 50.0246 7.91334C50.4908 8.10582 51.0333 7.99581 51.3882 7.63341L54.7791 4.19235C54.8716 4.10109 54.9666 4.01481 55.0654 3.93366C56.7952 2.5113 59.3588 2.75871 60.7687 4.46862C62.1036 6.15846 61.9498 8.56827 60.4025 10.0845L57.1153 13.3718C56.7578 13.7292 56.6503 14.2666 56.844 14.7342C57.0365 15.2005 57.4939 15.5055 57.9989 15.5055H59.0363C59.0625 15.5055 59.0812 15.5055 59.1025 15.5055C60.4674 15.5055 61.6273 16.558 61.7497 17.8728L61.7535 18.0103C61.7521 18.6777 61.4922 19.3051 61.0197 19.7764Z" fill="#FF668E"/>
<path d="M54.6159 8.36806L19.619 43.365L21.3865 45.1326L56.3835 10.1356L54.6159 8.36806Z" fill="#FF668E"/>
<path d="M49.2467 10.512H46.7468V16.7616H49.2467V10.512Z" fill="#FF668E"/>
<path d="M41.7472 16.7615H39.2473V24.261H41.7472V16.7615Z" fill="#FF668E"/>
<path d="M34.2478 22.9985H31.7479V31.7479H34.2478V22.9985Z" fill="#FF668E"/>
<path d="M54.2463 15.5115H47.9967V18.0112H54.2463V15.5115Z" fill="#FF668E"/>
<path d="M47.9968 22.9985H40.4973V25.4983H47.9968V22.9985Z" fill="#FF668E"/>
<path d="M41.7471 30.498H32.9977V32.9979H41.7471V30.498Z" fill="#FF668E"/>
<path d="M23.8319 6.2822C23.8308 6.27971 23.8281 6.27722 23.827 6.27473C22.0633 3.63362 18.4785 2.91614 15.8387 4.67981C15.7563 4.73357 15.675 4.79099 15.5825 4.85984L15.1325 5.20232L14.7001 4.89104C12.4128 2.7575 8.81673 2.84378 6.63939 5.10359C5.57328 6.20852 5.00082 7.6634 5.02953 9.19957C5.05824 10.7358 5.68197 12.1681 6.78573 13.233C7.10697 13.543 7.46439 13.8154 7.84935 14.0429L8.90184 14.8654V15.5054C8.90184 18.9515 11.7054 21.755 15.1514 21.755C18.5975 21.755 21.401 18.9501 21.3997 15.5043V14.8643L22.506 14.0006C24.8994 12.1843 25.4806 8.79337 23.8319 6.2822ZM20.9809 12.0206L19.381 13.2705C19.0785 13.5068 18.901 13.8705 18.901 14.2555V15.5054C18.901 17.5728 17.2186 19.2551 15.1513 19.2551C13.084 19.2551 11.4016 17.5728 11.4016 15.5054V14.2555C11.4016 13.8705 11.2254 13.5068 10.9216 13.2705L9.32166 12.0206C9.2742 11.9831 9.22293 11.9494 9.17049 11.9193C8.93553 11.7856 8.718 11.6232 8.52303 11.4343C7.89813 10.8318 7.54554 10.0219 7.52928 9.15446C7.51302 8.28698 7.83675 7.46462 8.43924 6.83957C9.07542 6.17966 9.92664 5.84714 10.779 5.84714C11.5914 5.84714 12.4052 6.14831 13.0352 6.7571C13.0777 6.79709 13.1226 6.83591 13.1714 6.87077L14.4214 7.77077C14.8664 8.09201 15.47 8.08454 15.9076 7.75202L17.2251 6.76091C17.95 6.2759 18.8187 6.10598 19.6737 6.27473C20.5261 6.44465 21.2623 6.93596 21.746 7.65842C22.6734 9.0758 22.3434 10.9857 20.9809 12.0206Z" fill="#FF668E"/>
<path d="M30.4978 1.75H27.9979V4.24975H30.4978V1.75Z" fill="#FF668E"/>
<path d="M37.9974 41.7473H35.4976V44.2471H37.9974V41.7473Z" fill="#FF668E"/>
<path d="M67.998 8.00586V10.5058C69.3767 10.5058 70.4979 11.6269 70.4979 13.0055C70.4979 14.3841 69.3767 15.5054 67.998 15.5054V18.0052C70.7553 18.0052 72.9976 15.7628 72.9976 13.0055C72.9976 10.2482 70.7553 8.00586 67.998 8.00586Z" fill="#FF668E"/>
<path d="M5.49948 19.2612H2.99973V21.7611H5.49948V19.2612Z" fill="#FF668E"/>
<path d="M3.00219 14.2615H0.502441V16.7614H3.00219V14.2615Z" fill="#FF668E"/>
<path d="M49.2491 40.5024C46.4919 40.5024 44.2495 42.7448 44.2495 45.5021H46.7494C46.7494 44.1234 47.8706 43.0022 49.2491 43.0022C50.6278 43.0022 51.749 44.1234 51.749 45.5021H54.2488C54.2488 42.7448 52.0064 40.5024 49.2491 40.5024Z" fill="#FF668E"/>
<path d="M15.5014 29.2531H15.344C14.7864 27.0995 12.8278 25.5034 10.5018 25.5034C8.17575 25.5034 6.21579 27.0995 5.65959 29.2531H5.50212C2.74485 29.2531 0.502472 31.4955 0.502472 34.2528C0.502472 37.01 2.74485 39.2524 5.50212 39.2524H15.5014C18.2587 39.2524 20.5011 37.01 20.5011 34.2528C20.5011 31.4955 18.2587 29.2531 15.5014 29.2531ZM15.5014 36.7538H5.50198C4.12327 36.7538 3.00208 35.6326 3.00208 34.2541C3.00208 32.8754 4.12327 31.7542 5.50198 31.7542H6.75192C7.44186 31.7542 8.00187 31.1942 8.00187 30.5042C8.00187 29.1255 9.12306 28.0045 10.5018 28.0045C11.8805 28.0045 13.0017 29.1257 13.0017 30.5042C13.0017 31.1942 13.5617 31.7542 14.2516 31.7542H15.5016C16.8803 31.7542 18.0015 32.8754 18.0015 34.2541C18.0012 35.6328 16.88 36.7538 15.5014 36.7538Z" fill="#FF668E"/>
<path d="M13.0015 36.7527H8.0019C7.31196 36.7527 6.75195 37.3127 6.75195 38.0026V43.0023C6.75195 43.6935 7.31196 44.2522 8.0019 44.2522H13.0015C13.6915 44.2522 14.2515 43.6935 14.2515 43.0023V38.0026C14.2515 37.3127 13.6915 36.7527 13.0015 36.7527ZM11.7516 41.7523H9.25185V39.2526H11.7517V41.7523H11.7516Z" fill="#FF668E"/>
<path d="M66.7481 33.0029C64.6807 33.0029 62.9984 34.6853 62.9984 36.7526C62.9984 38.82 64.6807 40.5023 66.7481 40.5023C68.8154 40.5023 70.4978 38.82 70.4978 36.7526C70.4978 34.6853 68.8154 33.0029 66.7481 33.0029ZM66.7481 38.0038C66.0581 38.0038 65.4981 37.4426 65.4981 36.7538C65.4981 36.065 66.0581 35.5039 66.7481 35.5039C67.438 35.5039 67.998 36.0639 67.998 36.7538C67.998 37.4439 67.438 38.0038 66.7481 38.0038Z" fill="#FF668E"/>
<path d="M66.7479 28.0032C61.9245 28.0032 57.9986 31.9279 57.9986 36.7525C57.9986 41.5771 61.9245 45.5019 66.7479 45.5019C71.5714 45.5019 75.4973 41.5771 75.4973 36.7525C75.4973 31.9279 71.5714 28.0032 66.7479 28.0032ZM66.7479 43.0033C63.3019 43.0033 60.4983 40.1986 60.4983 36.7537C60.4983 33.3077 63.3019 30.5041 66.7479 30.5041C70.194 30.5041 72.9975 33.3077 72.9975 36.7537C72.9975 40.1997 70.194 43.0033 66.7479 43.0033Z" fill="#FF668E"/>
</g>
<defs>
<clipPath id="clip0">
<rect width="75" height="75" fill="white" transform="translate(0.5 0.5)"/>
</clipPath>
</defs>
</svg>
