<svg width="25" height="25" viewBox="0 0 25 25" fill="none" xmlns="http://www.w3.org/2000/svg">
<path fill-rule="evenodd" clip-rule="evenodd" d="M2.12194 0.117062C1.13016 0.437786 0.393725 1.18802 0.104663 2.1723C-0.0324794 2.63935 -0.0356456 8.77475 0.101028 9.2995C0.230373 9.79616 0.458807 10.1846 0.868301 10.6039C1.26859 11.0139 1.86671 11.3391 2.40842 11.4412C2.5971 11.4767 3.95487 11.5004 5.77982 11.4998C9.14396 11.4989 9.27612 11.4875 9.92677 11.1406C10.3619 10.9086 10.9112 10.3592 11.1432 9.92394C11.49 9.27317 11.5014 9.14098 11.5024 5.77622C11.5029 3.95092 11.4793 2.5929 11.4437 2.40418C11.2414 1.33053 10.3493 0.369114 9.30244 0.0963603C9.01168 0.0205921 8.44476 0.00692799 5.7009 0.00962562C2.74515 0.0124992 2.41463 0.0224101 2.12194 0.117062ZM15.6723 0.0992924C15.1999 0.226316 14.8032 0.463472 14.3934 0.863777C13.9835 1.26414 13.6584 1.86237 13.5563 2.40418C13.5207 2.5929 13.4971 3.95092 13.4976 5.77622C13.4986 9.14098 13.51 9.27317 13.8568 9.92394C14.2422 10.6471 15.0766 11.2682 15.8889 11.4364C16.2953 11.5205 22.1486 11.5247 22.5916 11.4412C23.665 11.2388 24.6263 10.3466 24.899 9.2995C25.0364 8.77182 25.0324 2.6377 24.8943 2.1723C24.5962 1.16732 23.8232 0.393686 22.8234 0.0999962C22.371 -0.0328913 16.1662 -0.0335365 15.6723 0.0992924ZM8.74326 2.55531C8.83455 2.60252 8.92555 2.6838 8.9456 2.73605C8.9656 2.78824 8.98201 4.15318 8.98201 5.76924C8.98201 8.70538 8.9819 8.70766 8.85454 8.84331L8.72702 8.97901H5.78105C4.16079 8.97901 2.79241 8.96259 2.74022 8.94259C2.48341 8.84401 2.47368 8.72719 2.47461 5.74185C2.47549 2.71435 2.4776 2.69183 2.76807 2.54481C2.99856 2.42817 8.51617 2.43784 8.74326 2.55531ZM22.3634 2.63237L22.4969 2.7659L22.5138 5.62322C22.523 7.19476 22.5157 8.54059 22.4976 8.61395C22.4795 8.68737 22.4126 8.7995 22.3489 8.86319C22.2366 8.97549 22.1422 8.97901 19.2612 8.97901C16.2907 8.97901 16.2893 8.97895 16.1537 8.85152L16.018 8.72397V5.75458C16.018 2.63014 16.0135 2.6852 16.2818 2.53637C16.3643 2.49062 17.2655 2.47538 19.3145 2.48505L22.2299 2.49883L22.3634 2.63237ZM2.35975 13.5585C1.86547 13.6555 1.2527 13.9977 0.868301 14.3914C0.458807 14.8108 0.230373 15.1992 0.101028 15.6958C-0.0364078 16.2235 -0.0324209 22.3576 0.10566 22.823C0.262504 23.3519 0.476808 23.7074 0.884601 24.1152C1.29234 24.5231 1.64777 24.7374 2.17658 24.8943C2.64189 25.0324 8.77486 25.0364 9.30244 24.899C9.79901 24.7696 10.1873 24.5411 10.6066 24.1315C11.0165 23.7312 11.3416 23.1329 11.4437 22.5911C11.4793 22.4024 11.5029 21.0444 11.5024 19.2191C11.5014 15.8531 11.49 15.7223 11.1424 15.0698C10.9061 14.6265 10.3745 14.0934 9.93509 13.8592C9.27143 13.5053 9.15838 13.4958 5.72787 13.5019C4.01872 13.5049 2.50305 13.5304 2.35975 13.5585ZM15.7994 13.5789C14.7289 13.8383 13.8364 14.7292 13.5871 15.7872C13.5141 16.0968 13.4983 16.7005 13.4976 19.2191C13.4971 21.0444 13.5207 22.4024 13.5563 22.5911C13.7586 23.6648 14.6507 24.6262 15.6976 24.899C16.2222 25.0357 22.3565 25.0325 22.8234 24.8953C23.5786 24.6735 24.3306 24.0684 24.66 23.4177C24.9891 22.7678 24.9889 22.7712 24.9889 19.2728C24.9889 15.7518 24.9825 15.6728 24.6498 15.0548C24.3931 14.5781 23.8394 14.0554 23.3402 13.8188C23.1021 13.706 22.7653 13.5869 22.5916 13.5541C22.1081 13.463 16.1886 13.4846 15.7994 13.5789ZM8.84634 16.1438L8.98201 16.2713V19.2519C8.98201 22.1416 8.97849 22.2361 8.86621 22.3484C8.80254 22.4121 8.69043 22.479 8.61702 22.4971C8.54367 22.5152 7.1981 22.5225 5.62685 22.5133L2.77007 22.4965L2.63656 22.3629L2.50305 22.2294L2.48622 19.3721C2.47702 17.8006 2.48429 16.4547 2.50241 16.3814C2.52052 16.3079 2.58742 16.1958 2.6511 16.1321C2.76338 16.0198 2.85784 16.0163 5.73878 16.0163C8.70931 16.0163 8.71066 16.0164 8.84634 16.1438ZM22.3489 16.1321C22.4126 16.1958 22.4795 16.3079 22.4976 16.3814C22.5157 16.4547 22.523 17.8006 22.5138 19.3721L22.4969 22.2294L22.3634 22.3629L22.2299 22.4965L19.3731 22.5133C17.8019 22.5225 16.4563 22.5152 16.383 22.4971C16.3096 22.479 16.1975 22.4121 16.1338 22.3484C16.0215 22.2361 16.018 22.1416 16.018 19.2601C16.018 16.2891 16.018 16.2877 16.1455 16.152L16.273 16.0163H19.253C22.1421 16.0163 22.2366 16.0198 22.3489 16.1321Z" fill="#7352D1"/>
</svg>
