<svg width="37" height="18" viewBox="0 0 37 18" fill="none" xmlns="http://www.w3.org/2000/svg">
<path d="M21.5 2.58337H23.3333V15.4167H21.5V2.58337ZM30.6667 2.58337H32.5V15.4167H30.6667V2.58337Z" fill="white"/>
<path d="M14.761 9.38129L5.04526 15.8585C4.97624 15.9044 4.89605 15.9307 4.81324 15.9347C4.73043 15.9387 4.6481 15.9201 4.57501 15.881C4.50192 15.8418 4.44081 15.7836 4.3982 15.7125C4.35558 15.6414 4.33305 15.56 4.33301 15.4771V2.52279C4.33305 2.43989 4.35558 2.35855 4.3982 2.28743C4.44081 2.21632 4.50192 2.1581 4.57501 2.11897C4.6481 2.07983 4.73043 2.06126 4.81324 2.06522C4.89605 2.06918 4.97624 2.09553 5.04526 2.14146L14.761 8.61863C14.8238 8.66048 14.8752 8.71719 14.9108 8.78371C14.9464 8.85023 14.9651 8.92451 14.9651 8.99996C14.9651 9.07541 14.9464 9.14969 14.9108 9.21621C14.8752 9.28273 14.8238 9.33944 14.761 9.38129V9.38129Z" fill="white"/>
</svg>
