<svg width="82" height="82" viewBox="0 0 82 82" fill="none" xmlns="http://www.w3.org/2000/svg">
<circle cx="41" cy="41" r="41" fill="#E6DDFF"/>
<path d="M56.4884 27.6772H50.7628V26.7964C50.7628 26.1883 50.2698 25.6953 49.6617 25.6953C49.0536 25.6953 48.5606 26.1883 48.5606 26.7964V27.6772H33.4392V26.7964C33.4392 26.1883 32.9462 25.6953 32.3381 25.6953C31.73 25.6953 31.2371 26.1883 31.2371 26.7964V27.6772H25.5115C23.6901 27.6772 22.2083 29.1591 22.2083 30.9805C22.2083 31.3087 22.2083 52.6296 22.2083 53.002C22.2083 54.8234 23.6901 56.3052 25.5115 56.3052H56.4884C58.3098 56.3052 59.7916 54.8234 59.7916 53.002C59.7916 52.6264 59.7916 31.3084 59.7916 30.9805C59.7916 29.1591 58.3098 27.6772 56.4884 27.6772ZM57.5894 53.002C57.5894 53.6091 57.0955 54.103 56.4884 54.103H25.5115C24.9043 54.103 24.4104 53.6091 24.4104 53.002V36.2408H57.5894V53.002ZM57.5894 34.0387H24.4104V30.9805C24.4104 30.3733 24.9043 29.8794 25.5115 29.8794H31.2371V30.7603C31.2371 31.3683 31.73 31.8613 32.3381 31.8613C32.9462 31.8613 33.4392 31.3683 33.4392 30.7603V29.8794H48.5606V30.7603C48.5606 31.3683 49.0536 31.8613 49.6617 31.8613C50.2698 31.8613 50.7628 31.3683 50.7628 30.7603V29.8794H56.4884C57.0955 29.8794 57.5894 30.3733 57.5894 30.9805V34.0387Z" fill="#7352D1"/>
<path d="M55.0204 44.0709H46.7746V38.8101C46.7746 38.202 46.2816 37.709 45.6736 37.709C45.0655 37.709 44.5725 38.202 44.5725 38.8101V44.0709H37.4278V38.8101C37.4278 38.202 36.9348 37.709 36.3267 37.709C35.7186 37.709 35.2256 38.202 35.2256 38.8101V44.0709H26.9797C26.3716 44.0709 25.8787 44.5639 25.8787 45.172C25.8787 45.7801 26.3716 46.2731 26.9797 46.2731H35.2255V51.5339C35.2255 52.142 35.7185 52.635 36.3266 52.635C36.9347 52.635 37.4277 52.142 37.4277 51.5339V46.2731H44.5724V51.5339C44.5724 52.142 45.0654 52.635 45.6735 52.635C46.2816 52.635 46.7746 52.142 46.7746 51.5339V46.2731H55.0204C55.6285 46.2731 56.1215 45.7801 56.1215 45.172C56.1215 44.5639 55.6285 44.0709 55.0204 44.0709Z" fill="#7352D1"/>
</svg>
