<svg width="28" height="19" viewBox="0 0 28 19" fill="none" xmlns="http://www.w3.org/2000/svg">
<path fill-rule="evenodd" clip-rule="evenodd" d="M0.708796 0.148615C0.549424 0.230299 0.330289 0.419597 0.221806 0.56917L0.0245643 0.841109L0.00451142 3.91719C-0.00896675 5.98976 0.00766732 7.07049 0.055597 7.2299C0.148695 7.53984 0.403334 7.82723 0.739631 8.00197C1.0063 8.14049 1.06074 8.14318 4.02607 8.16125C7.52928 8.18271 7.56136 8.17888 8.00397 7.69043C8.40838 7.24421 8.41956 7.135 8.39556 3.86387C8.37498 1.06368 8.37084 0.983338 8.23291 0.734454C8.05526 0.413785 7.84901 0.225317 7.53737 0.0988636C7.32908 0.0143057 6.83854 0 4.14619 0H0.998609L0.708796 0.148615ZM5.5802 4.05546V5.42857H4.16664H2.75307V4.09806C2.75307 3.36623 2.7728 2.74833 2.79693 2.72495C2.82099 2.70151 3.45709 2.68235 4.21049 2.68235H5.5802V4.05546ZM12.2067 2.75803C12.0725 2.79303 11.8289 2.93596 11.6655 3.0757C10.9282 3.70618 11.0817 4.8329 11.963 5.25952L12.3123 5.42857L19.6137 5.42717C26.5804 5.42583 26.9272 5.42033 27.1782 5.30748C27.6847 5.07967 28 4.59934 28 4.05546C28 3.52461 27.7404 3.11127 27.2439 2.85179L26.9809 2.71429L19.7159 2.70439C15.0677 2.698 12.3629 2.71735 12.2067 2.75803ZM1.04325 10.9168C0.542587 11.0647 0.179268 11.3904 0.055597 11.802C0.00766732 11.9614 -0.00896675 13.0408 0.00451142 15.1098L0.0245643 18.1808L0.204317 18.4308C0.303135 18.5682 0.493276 18.7525 0.626874 18.8403L0.869613 19H4.17262H7.47556L7.76064 18.8056C7.91745 18.6986 8.11969 18.4831 8.21009 18.3266L8.37446 18.042L8.39556 15.1681C8.4195 11.8981 8.40825 11.7876 8.00476 11.3424C7.56827 10.8607 7.53263 10.8562 4.13824 10.8626C2.52664 10.8656 1.13385 10.89 1.04325 10.9168ZM5.5802 14.9777V16.3521L4.18307 16.3349L2.78595 16.3176L2.7682 14.9605L2.75044 13.6034H4.16532H5.5802V14.9777ZM11.9662 13.7709C11.3743 14.0574 11.0857 14.6615 11.2407 15.2893C11.3552 15.7526 11.8092 16.1814 12.2927 16.2827C12.5543 16.3375 14.5379 16.3519 19.8145 16.3374L26.9809 16.3176L27.2739 16.158C28.0606 15.7292 28.241 14.7223 27.6484 14.0668C27.535 13.9414 27.3237 13.7865 27.1788 13.7225C26.9289 13.6122 26.534 13.6061 19.6137 13.6048L12.3123 13.6034L11.9662 13.7709Z" fill="#7352D1"/>
</svg>
