<svg width="30" height="36" viewBox="0 0 30 36" fill="none" xmlns="http://www.w3.org/2000/svg">
<path d="M22.6692 8.24744L13.529 10.3907L23.5317 5.09275L24.2342 5.79518C24.9322 7.13763 23.4731 8.04994 22.6692 8.24744Z" fill="#8763EC"/>
<path d="M20.1859 4.20299L13.5288 10.3907L22.1067 7.38682C23.383 6.93989 23.7967 5.34029 22.8971 4.33066C22.1889 3.53575 20.9657 3.47815 20.1859 4.20299Z" fill="#6D44E1"/>
<path d="M4.74146 9.1318L14.0488 10.3611L2.98536 6.84888C2.42341 8.25375 2.98536 8.95619 4.74146 9.1318Z" fill="#8763EC"/>
<path d="M7.19394 5.15124L14.0488 10.3609L4.75057 8.1068C3.65819 7.84198 3.18457 6.55285 3.84569 5.64381C4.62647 4.57024 6.13706 4.34801 7.19394 5.15124Z" fill="#6D44E1"/>
<path d="M2.1073 34.0001V20.0879C2.1073 18.9833 3.00273 18.0879 4.1073 18.0879H25.5707C26.6753 18.0879 27.5707 18.9833 27.5707 20.0879V34.0001C27.5707 35.1046 26.6753 36.0001 25.5707 36.0001H4.1073C3.00273 36.0001 2.1073 35.1046 2.1073 34.0001Z" fill="#6D44E1"/>
<path d="M0.411416 14.44L0.316113 13.8205C0.143542 12.6988 0.937877 11.6584 2.06542 11.5294L27.1576 8.65738C28.2576 8.53148 29.2505 9.32317 29.3728 10.4235L29.4567 11.1789C29.5789 12.2783 28.7855 13.268 27.6859 13.388L2.60505 16.1241C1.541 16.2402 0.574173 15.4979 0.411416 14.44Z" fill="#6D44E1"/>
<path d="M12.6439 36.0001V17.9124H17.2097V36.0001H12.6439Z" fill="#FF668E"/>
<path d="M12.8195 3.86341C10.8526 6.11122 12.4682 8.89756 13.5219 10.0098C12.5385 5.79512 17.2097 3.21951 19.6682 2.45854C19.6682 2.45854 19.317 2.28293 18.4389 2.28293C17.5609 2.28293 16.8585 2.45854 16.8585 2.45854C17.0341 2.10732 17.2488 1.89885 17.3853 1.58049C17.7365 1.05366 17.6743 0.554903 17.9121 0C17.2097 1.22927 15.278 1.05366 12.8195 3.86341Z" fill="#FF668E"/>
<path d="M12.4683 15.1025L11.9415 10.3611L17.0341 9.83423L17.3854 14.5757L12.4683 15.1025Z" fill="#FF668E"/>
</svg>
