<svg width="12" height="28" viewBox="0 0 12 28" fill="none" xmlns="http://www.w3.org/2000/svg">
<path fill-rule="evenodd" clip-rule="evenodd" d="M0.570587 0.0754495C0.369197 0.166456 0.136628 0.413388 0.0607087 0.616786C-0.0202363 0.833528 -0.0202363 27.1644 0.0607087 27.3812C0.138898 27.5907 0.372061 27.8336 0.582366 27.9247C0.725992 27.9869 1.66696 28 5.9959 28C9.55926 28 11.2842 27.9814 11.3877 27.942C11.6139 27.8556 11.8849 27.566 11.9452 27.3461C12.0183 27.0801 12.0183 0.917863 11.9452 0.651843C11.8849 0.431929 11.6139 0.142337 11.3877 0.0559793C11.2841 0.0164373 9.56078 -0.00139209 5.98412 8.45757e-05C1.71695 0.0018347 0.702325 0.0159451 0.570587 0.0754495ZM11.0805 1.6387V2.34969H7.75486H4.4292L4.2966 2.48395C4.10131 2.68161 4.11536 2.95485 4.33021 3.13785L4.49642 3.27944H7.78847H11.0805V3.74432V4.2092H9.38565C7.75286 4.2092 7.68559 4.21335 7.54844 4.32257C7.37132 4.46357 7.35219 4.78597 7.50932 4.98248L7.61253 5.11161L9.34653 5.12747L11.0805 5.14333V5.60602V6.06871H7.75486H4.4292L4.2966 6.20298C4.16605 6.33506 4.12536 6.55962 4.1975 6.74989C4.29017 6.99431 4.35041 6.99846 7.80862 6.99846H11.0805V7.46334V7.92822H9.37592H7.67132L7.53872 8.06249C7.44713 8.15513 7.40606 8.25752 7.40606 8.3931C7.40606 8.52868 7.44713 8.63106 7.53872 8.72371L7.67132 8.85797H9.37592H11.0805V9.32285V9.78773H7.78847H4.49642L4.33021 9.92933C4.11536 10.1123 4.10131 10.3856 4.2966 10.5832L4.4292 10.7175H7.75486H11.0805V11.1824V11.6472H9.46746C7.8049 11.6472 7.56163 11.674 7.45896 11.8681C7.3631 12.0494 7.3972 12.3307 7.53029 12.4573C7.65144 12.5725 7.69683 12.5758 9.35398 12.5898L11.0534 12.6043L11.0691 13.0539L11.0848 13.5035L7.75475 13.5188L4.42471 13.5341L4.29433 13.6876C4.12768 13.8837 4.12768 14.1143 4.29433 14.3104L4.42471 14.4639L7.75475 14.4792L11.0848 14.4944L11.0691 14.944L11.0534 15.3936L9.35398 15.4081C7.69683 15.4222 7.65144 15.4255 7.53029 15.5407C7.3972 15.6672 7.3631 15.9486 7.45896 16.1298C7.56163 16.324 7.8049 16.3507 9.46746 16.3507H11.0805V16.8156V17.2805H7.75486H4.4292L4.2966 17.4147C4.10131 17.6124 4.11536 17.8856 4.33021 18.0686L4.49642 18.2102H7.78847H11.0805V18.6751V19.14H9.37592H7.67132L7.53872 19.2742C7.37537 19.4395 7.36208 19.7291 7.50932 19.9133L7.61253 20.0424L9.34653 20.0582L11.0805 20.0741V20.5368V20.9995H7.80862C4.35041 20.9995 4.29017 21.0036 4.1975 21.2481C4.12536 21.4383 4.16605 21.6629 4.2966 21.795L4.4292 21.9292H7.75486H11.0805V22.3919V22.8546L9.34653 22.8705L7.61253 22.8863L7.50932 23.0155C7.35219 23.212 7.37132 23.5344 7.54844 23.6754C7.68559 23.7846 7.75286 23.7888 9.38565 23.7888H11.0805V24.2536V24.7185H7.78847H4.49642L4.33021 24.8601C4.11536 25.0431 4.10131 25.3163 4.2966 25.514L4.4292 25.6483H7.75486H11.0805V26.3593V27.0702H6.00114H0.921817V13.999V0.927707H6.00114H11.0805V1.6387Z" fill="#FF668E"/>
</svg>
