<svg width="39" height="40" viewBox="0 0 39 40" fill="none" xmlns="http://www.w3.org/2000/svg">
<path fill-rule="evenodd" clip-rule="evenodd" d="M18.3473 0.123081C15.6607 0.699702 13.7755 3.00474 13.7775 5.71074C13.7783 6.84868 14.0754 7.89871 14.6532 8.80629L14.8981 9.19081L14.4023 9.28488C12.6341 9.62027 11.0943 10.9721 10.5697 12.6492C10.4845 12.9216 10.3694 13.6071 10.3138 14.1727C10.2014 15.3161 10.0508 15.808 9.59855 16.5076C8.85084 17.6645 7.49666 18.3621 5.99897 18.3621C4.84603 18.3621 3.99854 18.6853 3.28793 19.3959C2.54031 20.1436 2.15084 21.3431 2.33472 22.3319C2.57999 23.6508 3.48255 24.6884 4.71943 25.0732C6.03903 25.484 8.85511 25.0177 10.7209 24.0797C11.0592 23.9095 11.3711 23.7703 11.4139 23.7703C11.4648 23.7703 11.4918 24.4124 11.4918 25.6248V27.4793L10.4825 27.5261C9.31328 27.5803 8.54631 27.754 7.7871 28.1363C6.41944 28.825 5.44756 29.911 4.9302 31.3286C3.72943 34.6189 5.7949 38.2328 9.25448 38.8947C10.1113 39.0586 28.8684 39.0586 29.7252 38.8947C32.6514 38.3348 34.6986 35.5838 34.3568 32.6709C34.1213 30.6637 32.989 29.0409 31.1926 28.1363C30.4334 27.754 29.6664 27.5803 28.4972 27.5261L27.4879 27.4793V25.6248C27.4879 24.4124 27.5149 23.7703 27.5657 23.7703C27.6086 23.7703 27.9205 23.9095 28.2588 24.0797C30.1246 25.0177 32.9407 25.484 34.2603 25.0732C35.4971 24.6884 36.3997 23.6508 36.645 22.3319C36.8289 21.3431 36.4394 20.1436 35.6918 19.3959C34.9812 18.6853 34.1337 18.3621 32.9807 18.3621C31.0745 18.3621 29.5273 17.2858 28.8822 15.5111C28.8203 15.3405 28.7235 14.7383 28.6672 14.1727C28.5494 12.9884 28.3716 12.3535 27.966 11.6678C27.2329 10.4287 25.9794 9.55087 24.5579 9.28115L24.0728 9.18913L24.2206 8.98164C24.8144 8.14763 25.2014 6.85835 25.2022 5.71074C25.2048 2.12846 21.8281 -0.624012 18.3473 0.123081ZM34.4195 1.80473V3.60474L34.1339 3.55455C33.4197 3.42917 33.0966 3.41812 32.6595 3.50412C31.568 3.71885 30.6619 4.40897 30.1732 5.39791C29.8906 5.96958 29.8873 5.98694 29.8873 6.8943C29.8873 7.78468 29.8952 7.8284 30.1478 8.34553C30.9983 10.0861 33.0491 10.7958 34.7734 9.94628C35.7004 9.48955 36.4059 8.57816 36.6198 7.56103C36.672 7.31271 36.7047 6.22071 36.7047 4.72363V2.28987H37.8473H38.9899V1.14729V0.00471016H36.7047H34.4195V1.80473ZM20.275 2.40351C22.9555 3.10171 23.8135 6.30808 21.8363 8.23881C21.6559 8.41492 21.2513 8.68236 20.9371 8.83318C20.3833 9.09879 20.3389 9.10725 19.4898 9.10725C18.6385 9.10725 18.5978 9.09948 18.0426 8.83082C16.5146 8.09142 15.7576 6.46934 16.1796 4.83858C16.6332 3.08556 18.5402 1.95166 20.275 2.40351ZM4.56016 6.39781V8.22061L4.3126 8.14497C4.1764 8.10338 3.77368 8.06803 3.41758 8.06651C2.43664 8.06209 1.67621 8.3827 0.971242 9.0978C-0.956136 11.0528 0.142872 14.3735 2.87904 14.8626C4.16871 15.0931 5.58695 14.4648 6.30571 13.3448C6.79755 12.5782 6.79991 12.5618 6.84356 9.60236L6.8834 6.89826L8.00693 6.87716L9.13047 6.85614V5.71554V4.57502H6.84531H4.56016V6.39781ZM33.8556 5.91984C34.3479 6.24242 34.5165 6.80952 34.2794 7.34547C33.7898 8.45217 32.1357 8.08479 32.1347 6.86917C32.1339 5.99784 33.1333 5.44658 33.8556 5.91984ZM4.0086 10.516C4.97743 11.1067 4.55924 12.6024 3.4252 12.6024C2.57755 12.6024 2.02455 11.709 2.41607 10.9722C2.72205 10.3964 3.46381 10.1839 4.0086 10.516ZM24.8485 11.7705C25.0936 11.8947 25.4407 12.1593 25.6198 12.3586C26.1215 12.9166 26.2746 13.3156 26.3586 14.2847C26.3987 14.7468 26.4959 15.4024 26.5747 15.7416C27.1223 18.1017 28.9888 19.9261 31.4488 20.506C31.6374 20.5505 32.211 20.6105 32.7236 20.6394C33.4859 20.6824 33.693 20.72 33.8614 20.8457C34.3874 21.2384 34.5328 21.7362 34.2763 22.266C33.955 22.9298 33.296 23.0721 31.7479 22.8116C29.763 22.4778 28.4113 21.7561 26.4215 19.9679C25.814 19.4221 25.2913 18.9745 25.2599 18.9734C25.2284 18.9723 25.2027 20.891 25.2027 23.2371V27.5028H19.4898H13.777V23.2371C13.777 20.891 13.7512 18.9723 13.7198 18.9734C13.6884 18.9745 13.1657 19.4221 12.5582 19.9679C10.5528 21.7701 9.25859 22.4575 7.19715 22.8151C5.70007 23.0748 5.02267 22.9257 4.70336 22.266C4.44689 21.7362 4.5923 21.2384 5.11827 20.8457C5.28714 20.7196 5.49181 20.6829 6.25612 20.6412C6.76868 20.6133 7.42803 20.5307 7.72129 20.4575C9.27961 20.0691 10.7619 18.9968 11.6006 17.6513C12.2322 16.6379 12.4925 15.7724 12.6254 14.2453C12.7244 13.1063 13.0479 12.4915 13.832 11.952C14.4809 11.5056 14.3757 11.5133 19.6041 11.5297L24.4029 11.5447L24.8485 11.7705ZM30.1158 30.1627C32.6373 31.3947 32.7644 34.8686 30.3392 36.2642C29.5608 36.7121 29.486 36.7172 23.6603 36.7184L18.3473 36.7195V35.577V34.4344H23.4889H28.6305V33.2918V32.1492H20.6324H12.6344V33.2918V34.4344H14.3482H16.0621V35.577V36.7195L13.0343 36.7184C9.74205 36.7172 9.38839 36.6824 8.66422 36.2882C8.26988 36.0736 7.61282 35.4506 7.39192 35.0819C6.97442 34.385 6.80296 33.5423 6.92316 32.7783C7.1254 31.4924 7.98096 30.4624 9.21784 30.0157C9.61401 29.8726 9.90918 29.8689 19.6041 29.8853L29.5826 29.9022L30.1158 30.1627Z" fill="#7352D1"/>
</svg>
