<svg width="20" height="20" viewBox="0 0 20 20" fill="none" xmlns="http://www.w3.org/2000/svg">
<path fill-rule="evenodd" clip-rule="evenodd" d="M1.35022 0.0563333C1.02141 0.138622 0.775276 0.279142 0.527341 0.526166C0.271987 0.780609 0.117618 1.06079 0.0465064 1.39897C-0.0159752 1.69606 -0.0152722 18.3068 0.0472484 18.5989C0.190839 19.2699 0.730055 19.8091 1.40095 19.9527C1.69325 20.0153 18.3021 20.016 18.5991 19.9534C19.2618 19.8139 19.8152 19.2605 19.9537 18.5989C20.016 18.3013 20.0151 1.69028 19.9528 1.39897C19.8088 0.726284 19.268 0.185059 18.5991 0.0443825C18.2834 -0.0220502 1.61725 -0.0104899 1.35022 0.0563333ZM18.5141 1.25111C18.6134 1.30172 18.6963 1.38467 18.7469 1.48391C18.825 1.63697 18.8255 1.69649 18.8255 9.99893C18.8255 18.3014 18.825 18.3609 18.7469 18.5139C18.6963 18.6132 18.6134 18.6961 18.5141 18.7468C18.3611 18.8248 18.3016 18.8254 9.99713 18.8254H1.6342L1.47843 18.7378C1.38701 18.6864 1.29204 18.5903 1.24857 18.505C1.17649 18.3638 1.17453 18.1327 1.17613 9.99073C1.1777 2.00674 1.18102 1.61553 1.24811 1.48961C1.28677 1.41701 1.38709 1.31605 1.47101 1.26524L1.62358 1.17288L9.99181 1.17268C18.3018 1.17249 18.3611 1.17303 18.5141 1.25111ZM9.23852 2.44545C8.16497 2.55441 7.58253 2.65892 6.83689 2.8763C6.19985 3.06201 5.41481 3.37886 4.80624 3.69584C4.24546 3.98793 3.2506 4.63687 3.13161 4.78817C3.02563 4.92287 2.98931 5.13169 3.04195 5.30326C3.0655 5.38005 3.79251 6.38356 4.67748 7.56084C5.89994 9.18705 6.3056 9.7002 6.42092 9.76612C6.64636 9.89497 6.83712 9.85861 7.19202 9.61908C8.91959 8.45321 11.0789 8.45216 12.8041 9.61643C12.9613 9.72254 13.1485 9.81885 13.22 9.83045C13.4 9.85966 13.5959 9.78635 13.7372 9.63693C13.8028 9.56753 14.5515 8.58604 15.401 7.45578C17.0456 5.26772 17.047 5.26557 16.9541 4.95544C16.8997 4.77375 16.6652 4.57641 16.0213 4.17028C14.6464 3.3031 13.2343 2.78285 11.5828 2.53508C11.0945 2.46181 9.62919 2.40577 9.23852 2.44545ZM10.8787 3.63378C12.1098 3.7479 13.2037 4.04335 14.2956 4.55673C14.7862 4.78738 15.5453 5.22871 15.5453 5.28331C15.5453 5.31389 13.339 8.2661 13.2243 8.389C13.1869 8.42907 13.0934 8.39709 12.7506 8.22689C12.5157 8.11027 12.1998 7.97092 12.0486 7.91718C11.7088 7.79634 10.9186 7.61657 10.7275 7.61657H10.5858L10.5857 6.64996C10.5857 5.80766 10.5769 5.66589 10.5174 5.54744C10.3073 5.12935 9.69268 5.12935 9.48267 5.54744C9.42315 5.66589 9.41437 5.80766 9.41433 6.64996L9.41425 7.61657L9.26781 7.61692C9.07337 7.61739 8.37444 7.77779 7.98702 7.91085C7.81621 7.96951 7.48517 8.11316 7.25133 8.23013C6.90156 8.40506 6.81756 8.43357 6.77768 8.39092C6.66112 8.26637 4.45478 5.31408 4.45478 5.28272C4.45478 5.18575 5.78149 4.48783 6.42685 4.24526C7.27734 3.92564 8.28771 3.70107 9.23852 3.6203C9.60029 3.58957 10.4797 3.59679 10.8787 3.63378Z" fill="#FF668E"/>
</svg>
