<svg width="30" height="30" viewBox="0 0 30 30" fill="none" xmlns="http://www.w3.org/2000/svg">
<circle cx="15" cy="15" r="15" fill="#FF5A5A"/>
<path d="M13.881 17.58L13.601 8H16.341L16.041 17.58H13.881ZM15.021 22.14C14.541 22.14 14.1477 21.9933 13.841 21.7C13.5477 21.4067 13.401 21.0533 13.401 20.64C13.401 20.2133 13.5477 19.8533 13.841 19.56C14.1477 19.2667 14.541 19.12 15.021 19.12C15.4743 19.12 15.8477 19.2667 16.141 19.56C16.4477 19.8533 16.601 20.2133 16.601 20.64C16.601 21.0533 16.4477 21.4067 16.141 21.7C15.8477 21.9933 15.4743 22.14 15.021 22.14Z" fill="#FDFEFF"/>
</svg>
