<svg width="19" height="19" viewBox="0 0 19 19" fill="none" xmlns="http://www.w3.org/2000/svg">
<g clip-path="url(#clip0_3425_4635)">
<path d="M13.3491 1.9707H5.89436C3.83579 1.9707 2.16699 3.6395 2.16699 5.69807V13.1528C2.16699 15.2114 3.83579 16.8802 5.89436 16.8802H13.3491C15.4077 16.8802 17.0765 15.2114 17.0765 13.1528V5.69807C17.0765 3.6395 15.4077 1.9707 13.3491 1.9707Z" stroke="white" stroke-width="2" stroke-linecap="round" stroke-linejoin="round"/>
<path d="M12.6037 8.95661C12.6957 9.57703 12.5897 10.2107 12.3008 10.7674C12.0119 11.3241 11.5549 11.7756 10.9947 12.0575C10.4344 12.3395 9.79952 12.4377 9.18029 12.338C8.56105 12.2384 7.989 11.946 7.5455 11.5025C7.102 11.059 6.80964 10.487 6.70999 9.86774C6.61035 9.24851 6.7085 8.61362 6.99048 8.05338C7.27247 7.49314 7.72393 7.03608 8.28065 6.74721C8.83737 6.45834 9.471 6.35237 10.0914 6.44437C10.7243 6.53821 11.3102 6.8331 11.7625 7.28549C12.2149 7.73787 12.5098 8.32376 12.6037 8.95661Z" stroke="white" stroke-width="2" stroke-linecap="round" stroke-linejoin="round"/>
<path d="M13.7219 5.32617H13.7309" stroke="white" stroke-width="2" stroke-linecap="round" stroke-linejoin="round"/>
</g>
<defs>
<clipPath id="clip0_3425_4635">
<rect width="17.8914" height="17.8914" fill="white" transform="translate(0.676025 0.480469)"/>
</clipPath>
</defs>
</svg>
