<svg width="22" height="22" viewBox="0 0 22 22" fill="none" xmlns="http://www.w3.org/2000/svg">
<path d="M15.5835 1.83301H6.41683C3.88552 1.83301 1.8335 3.88504 1.8335 6.41634V15.583C1.8335 18.1143 3.88552 20.1663 6.41683 20.1663H15.5835C18.1148 20.1663 20.1668 18.1143 20.1668 15.583V6.41634C20.1668 3.88504 18.1148 1.83301 15.5835 1.83301Z" stroke="#7352D1" stroke-linecap="round" stroke-linejoin="round"/>
<path d="M14.6667 10.4228C14.7799 11.1857 14.6495 11.9648 14.2943 12.6494C13.9391 13.3339 13.3771 13.8891 12.6882 14.2358C11.9993 14.5825 11.2186 14.7032 10.4572 14.5807C9.69576 14.4582 8.99234 14.0987 8.44699 13.5533C7.90165 13.008 7.54214 12.3046 7.41962 11.5431C7.29709 10.7817 7.41778 10.001 7.76452 9.31212C8.11126 8.62323 8.66639 8.06121 9.35096 7.706C10.0355 7.35079 10.8147 7.22048 11.5776 7.33361C12.3557 7.449 13.0762 7.81162 13.6324 8.36789C14.1887 8.92416 14.5513 9.6446 14.6667 10.4228Z" stroke="#7352D1" stroke-linecap="round" stroke-linejoin="round"/>
<path d="M16.0415 5.95801H16.0515" stroke="#7352D1" stroke-linecap="round" stroke-linejoin="round"/>
</svg>
