<svg width="22" height="22" viewBox="0 0 22 22" fill="none" xmlns="http://www.w3.org/2000/svg">
<path d="M14.6665 7.33301C16.1252 7.33301 17.5241 7.91247 18.5556 8.94392C19.587 9.97537 20.1665 11.3743 20.1665 12.833V19.2497H16.4998V12.833C16.4998 12.3468 16.3067 11.8805 15.9629 11.5366C15.6191 11.1928 15.1527 10.9997 14.6665 10.9997C14.1803 10.9997 13.714 11.1928 13.3701 11.5366C13.0263 11.8805 12.8332 12.3468 12.8332 12.833V19.2497H9.1665V12.833C9.1665 11.3743 9.74597 9.97537 10.7774 8.94392C11.8089 7.91247 13.2078 7.33301 14.6665 7.33301V7.33301Z" stroke="#7352D1" stroke-linecap="round" stroke-linejoin="round"/>
<path d="M5.50016 8.25H1.8335V19.25H5.50016V8.25Z" stroke="#7352D1" stroke-linecap="round" stroke-linejoin="round"/>
<path d="M3.66683 5.49967C4.67935 5.49967 5.50016 4.67886 5.50016 3.66634C5.50016 2.65382 4.67935 1.83301 3.66683 1.83301C2.65431 1.83301 1.8335 2.65382 1.8335 3.66634C1.8335 4.67886 2.65431 5.49967 3.66683 5.49967Z" stroke="#7352D1" stroke-linecap="round" stroke-linejoin="round"/>
</svg>
