<svg width="19" height="19" viewBox="0 0 19 19" fill="none" xmlns="http://www.w3.org/2000/svg">
<path d="M12.038 6.44336C13.2243 6.44336 14.362 6.9146 15.2008 7.75343C16.0396 8.59225 16.5109 9.72993 16.5109 10.9162V16.1345H13.529V10.9162C13.529 10.5208 13.3719 10.1416 13.0923 9.86194C12.8127 9.58234 12.4335 9.42526 12.038 9.42526C11.6426 9.42526 11.2634 9.58234 10.9838 9.86194C10.7042 10.1416 10.5471 10.5208 10.5471 10.9162V16.1345H7.56519V10.9162C7.56519 9.72993 8.03643 8.59225 8.87525 7.75343C9.71407 6.9146 10.8518 6.44336 12.038 6.44336Z" fill="white"/>
<path d="M4.58321 7.18945H1.60132V16.1351H4.58321V7.18945Z" fill="white"/>
<path d="M3.09227 4.9526C3.91569 4.9526 4.58321 4.28508 4.58321 3.46165C4.58321 2.63822 3.91569 1.9707 3.09227 1.9707C2.26884 1.9707 1.60132 2.63822 1.60132 3.46165C1.60132 4.28508 2.26884 4.9526 3.09227 4.9526Z" fill="white"/>
</svg>
