<svg width="56" height="60" viewBox="0 0 56 60" fill="none" xmlns="http://www.w3.org/2000/svg">
<path d="M21.8914 33.8164L27.423 40.4367L24.0381 45.1032C20.7284 49.6659 15.3751 52.4094 9.72468 52.4094H8.24805L9.02302 51.2167L21.8914 33.8164Z" fill="#7352D1"/>
<path d="M55.2146 60H53.5895C47.9679 60 42.6303 57.2871 39.3206 52.7533L0 0H1.53604C7.15764 0 12.5101 2.71289 15.8207 7.26066L28.8672 25.2132L28.8979 25.1538L33.5496 18.593C36.8453 13.9264 42.2423 11.1383 47.953 11.1383H49.4297L34.3543 31.8196L55.2146 60Z" fill="#7352D1"/>
<path d="M34.2308 10.1486C34.2308 12.7928 32.0868 14.9367 29.4436 14.9367C26.7993 14.9367 24.6554 12.7928 24.6554 10.1486C24.6554 7.50435 26.7993 5.36133 29.4436 5.36133C32.0868 5.36133 34.2308 7.50435 34.2308 10.1486Z" fill="#7352D1"/>
</svg>
