<svg width="42" height="46" viewBox="0 0 42 46" fill="none" xmlns="http://www.w3.org/2000/svg">
<path d="M16.6276 25.7368L20.8352 30.7726L18.2605 34.3224C15.7429 37.793 11.6708 39.8799 7.37274 39.8799H6.24951L6.83901 38.9727L16.6276 25.7368Z" fill="#7352D1"/>
<path d="M42 45.6401H40.7638C36.4876 45.6401 32.4275 43.5765 29.9099 40.1277L0 0H1.16841C5.44459 0 9.51603 2.06361 12.0343 5.52295L21.9584 19.1789L21.9817 19.1337L25.5201 14.1431C28.0271 10.5934 32.1324 8.47258 36.4763 8.47258H37.5996L26.1322 24.2041L42 45.6401Z" fill="#7352D1"/>
<path d="M26.0381 7.70521C26.0381 9.71658 24.4072 11.3474 22.3966 11.3474C20.3852 11.3474 18.7544 9.71658 18.7544 7.70521C18.7544 5.69385 20.3852 4.06372 22.3966 4.06372C24.4072 4.06372 26.0381 5.69385 26.0381 7.70521Z" fill="#7352D1"/>
</svg>
