<svg width="58" height="58" viewBox="0 0 58 58" fill="none" xmlns="http://www.w3.org/2000/svg">
<path d="M30.9993 0.0294478C36.7291 0.671884 41.8527 4.28428 44.4908 9.54181C46.1749 12.8983 46.6735 17.3297 45.7878 21.0707C45.1697 23.682 43.8423 26.3302 42.2086 28.2116C41.9403 28.5205 41.7371 28.7894 41.7569 28.8091C41.7766 28.8289 42.4922 28.7421 43.347 28.6164C45.3819 28.3171 45.6935 28.321 46.0027 28.6504C46.3255 28.9946 46.3154 29.4209 45.977 29.7393C45.7393 29.9628 45.3172 30.0515 42.6605 30.4368C38.745 31.0045 38.6127 31.0054 38.3295 30.4667C38.1318 30.0908 38.1549 23.5181 38.3548 23.2548C38.7121 22.7836 39.5122 22.8171 39.7705 23.3139C39.8529 23.4722 39.9108 24.4147 39.9285 25.8857L39.9565 28.2076L40.7298 27.3045C45.9792 21.1737 45.781 12.2701 40.2657 6.46822C37.6116 3.67635 34.3108 2.08127 30.3926 1.6974C27.3586 1.40013 24.0008 2.13246 21.3618 3.66693C17.2793 6.04077 14.5586 10.0004 13.7509 14.7438C13.5001 16.2171 13.5884 19.1747 13.9233 20.5187C14.8303 24.1584 16.7685 27.2021 19.542 29.3421C21.12 30.5598 22.2103 31.154 24.1391 31.8477C24.9126 32.1261 25.1324 32.257 25.2548 32.5129C25.4581 32.9373 25.2603 33.4265 24.8097 33.6133C24.5203 33.7333 24.3466 33.7046 23.4305 33.3856C17.8741 31.4513 13.7722 26.932 12.3413 21.1679C12.0256 19.8966 11.9705 19.4496 11.9212 17.7607C11.861 15.7053 11.9625 14.6134 12.3629 13.0079C13.4036 8.83616 16.0084 5.1342 19.5477 2.79748C21.8555 1.2738 24.4226 0.336932 27.1642 0.0179839C27.5898 -0.0315041 38.6851 0.0377337 30.9993 0.0294478Z" fill="#FF668E"/>
<path fill-rule="evenodd" clip-rule="evenodd" d="M29.9222 10.2891C29.9222 9.65452 29.7492 9.26645 29.3942 9.10448C29.0753 8.95908 29.0435 8.95863 28.7107 9.09279C28.3642 9.23252 28.2215 9.55441 28.2215 10.1959V10.7472L27.4322 10.9326C25.6017 11.3628 24.5054 12.8025 24.6133 14.6349C24.6669 15.5472 24.9969 16.2644 25.6583 16.9067C26.4358 17.6617 26.9673 17.8693 28.3301 17.9506C29.6692 18.0305 30.0898 18.188 30.5397 18.7785C30.9642 19.3357 31.0218 20.0346 30.6948 20.6628C30.2112 21.592 30.107 21.6257 27.5049 21.696C26.2465 21.7299 25.1261 21.7999 25.0152 21.8513C24.5974 22.045 24.4594 22.7127 24.7538 23.1165C24.8962 23.3117 25.0996 23.3433 26.5396 23.3936L28.1648 23.4503L28.2219 24.1692C28.2863 24.9799 28.4749 25.2097 29.0759 25.2097C29.6114 25.2097 29.847 24.8754 29.9006 24.0398L29.9457 23.3368L30.555 23.0685C31.8041 22.5186 32.5744 21.302 32.577 19.8749C32.579 18.8534 32.2436 18.0222 31.5534 17.3383C30.7813 16.5732 30.2592 16.3856 28.5273 16.251C27.3433 16.1589 27.0526 16.0324 26.5844 15.4046C26.2389 14.9411 26.2551 13.8231 26.6147 13.3183C27.109 12.6247 27.3564 12.5623 29.8655 12.4983C31.1127 12.4664 32.2 12.3971 32.2819 12.3442C32.5447 12.1742 32.6654 11.6891 32.5275 11.356C32.3479 10.922 31.974 10.7946 30.8806 10.7946H29.9222V10.2891Z" fill="#FF668E"/>
<path fill-rule="evenodd" clip-rule="evenodd" d="M0.0984156 39.5609C0.254996 39.1737 1.78871 37.829 2.93693 37.0721C5.42794 35.4304 7.97744 34.459 11.3275 33.8756C12.2407 33.7166 13.0991 33.6688 15.0125 33.6704C17.2948 33.6724 17.6354 33.6993 19.0197 33.9874C23.3549 34.8897 30.3911 37.2668 36.715 39.9656C37.4766 40.2906 38.1131 40.5385 38.1293 40.5163C38.1456 40.4942 38.9439 39.5566 39.9032 38.4329C42.5043 35.3864 44.5208 33.1442 45.0332 32.7288C46.2182 31.7679 48.1679 31.8052 49.6822 32.8175L50.355 33.2672L50.8497 32.7789C51.6703 31.9691 52.2526 31.7358 53.449 31.7379C54.281 31.7393 54.5846 31.7906 55.093 32.0158C56.667 32.713 57.6749 33.9029 57.9327 35.3683L58 36.2196C57.9776 36.2196 57.9277 36.4878 57.8892 36.8155C57.7763 37.7778 57.1546 38.8553 55.8754 40.3058C54.2673 42.1291 51.6583 45.171 50.0475 47.1006L48.6869 48.7304L39.4463 53.3653L30.2056 58L29.6268 57.9428C25.7265 56.3313 20.0983 53.8953 19.9364 53.7487C19.46 53.317 19.825 52.3373 20.4623 52.3373C20.5987 52.3373 22.7703 53.2086 25.2879 54.2736L29.8655 56.2101L38.766 51.76L47.6665 47.3099L48.5168 46.2787C50.1613 44.2846 52.3651 41.7061 53.9614 39.9085C55.7748 37.8666 56.2361 37.097 56.2555 36.0821C56.2884 34.3526 54.1848 32.8723 52.6467 33.5429C52.1442 33.762 49.3037 36.9503 44.2727 42.9427C43.3849 44.0002 43.0823 44.2867 42.8028 44.3345C42.4865 44.3886 40.513 44.6158 40.3396 44.618C40.3008 44.6185 40.2362 44.868 40.1958 45.1724C40.0312 46.4149 38.9213 47.8872 37.7265 48.4478C37.0311 48.7741 35.9836 48.9683 35.3631 48.8859C35.0717 48.8472 32.6185 48.2049 29.9116 47.4585C24.6819 46.0165 24.5932 45.9807 24.5932 45.3072C24.5932 44.9385 25.0141 44.5054 25.3725 44.5054C25.5124 44.5054 27.7541 45.09 30.354 45.8044C32.9539 46.5189 35.2682 47.1367 35.4967 47.1773C36.0775 47.2806 37.0863 46.9633 37.5929 46.518C38.5287 45.6954 38.8025 44.2843 38.2441 43.1624C37.772 42.2142 37.7251 42.1877 33.5504 40.5103C28.1507 38.3405 22.2992 36.4204 18.8886 35.6992C17.1816 35.3381 14.5505 35.217 12.7937 35.4185C8.30217 35.9337 4.50693 37.562 1.83747 40.1193L1.52003 49.0456H6.74657H12.8936L14.8034 49.8461C15.8538 50.2862 16.7986 50.7331 16.903 50.8392C17.3946 51.3385 17.0377 52.2239 16.3447 52.2238C16.1731 52.2236 15.2498 51.8916 14.2926 51.486L12.5522 50.7482H6.67299C2.50007 50.7482 0.711019 50.7105 0.508858 50.6183C0.352278 50.5468 0.175289 50.3553 0.11565 50.1927L0 44.846C0.00204088 42.1304 0.0458063 40.0125 0.0972818 40.1395L0.0984156 39.5609ZM41.2393 39.4926C43.97 36.2921 45.8838 34.1887 46.2912 33.94C46.7513 33.659 47.4435 33.6634 48.2137 33.9519C49.3869 34.3913 49.4119 34.3076 47.4178 36.6172C46.4478 37.7407 44.8934 39.5624 43.9634 40.6653C42.1009 42.8745 42.3603 42.6982 40.7243 42.8657C40.0286 42.937 40.0161 42.9333 39.8795 42.6151C39.8032 42.4375 39.6523 42.1611 39.5441 42.0011L39.3474 41.7099L41.2393 39.4926Z" fill="#FF668E"/>
</svg>
