<svg width="70" height="70" viewBox="0 0 70 70" fill="none" xmlns="http://www.w3.org/2000/svg">
<circle cx="35" cy="35" r="35" fill="#FF668E"/>
<path d="M53.7264 22.5664L59.7822 16.5712C59.9904 16.3608 60.0559 16.05 59.9501 15.7747C59.8447 15.4993 59.5869 15.3103 59.2902 15.2896L54.8845 15.0647L54.65 10.7032C54.6321 10.4098 54.4425 10.1542 54.165 10.0495C53.8879 9.94443 53.5743 10.0097 53.3631 10.2164L47.3074 16.2116C46.9008 16.5321 47.1972 17.5117 47.1911 17.9318L47.1864 17.9275C43.6861 15.6914 39.6039 14.5117 35.4382 14.5328C8.18726 15.0048 8.18726 54.5204 35.4382 55C54.8988 54.6628 60.4632 34.4238 52.1236 22.6956C52.5372 22.6922 53.4162 22.9591 53.7264 22.5664ZM34.9769 35.718L37.384 34.9161C37.4952 34.88 37.5966 34.8184 37.679 34.7361L40.1703 32.2728C41.6977 35.3978 40.1233 40.0718 35.4386 40.0119C28.3761 40.1093 28.3761 29.4305 35.4386 29.5204C36.08 29.5077 36.7194 29.5987 37.331 29.7901H37.3323L35.007 32.0907C34.9242 32.1727 34.862 32.2727 34.8255 32.3831L34.0229 34.7661C33.9361 35.0344 34.0071 35.3288 34.2078 35.5289C34.4085 35.7289 34.7049 35.802 34.9769 35.718ZM38.5205 28.6148L38.5195 28.6138C37.5486 28.1949 36.4969 27.9929 35.4386 28.0216C26.3549 27.9019 26.3549 41.6306 35.4386 41.5107C41.6684 41.593 43.6291 35.1633 41.3125 31.1468L41.3108 31.1455L45.1359 27.3634C50.2526 34.3103 47.0195 46.6969 35.4389 46.7568C19.3755 46.6745 19.3686 22.8585 35.4389 22.7763C37.9129 22.7321 40.3433 23.4233 42.4161 24.7608L38.5205 28.6148ZM36.7406 33.5521L47.3074 23.0914L47.5501 21.802C47.6194 22.0579 47.8214 22.258 48.08 22.3266L36.7406 33.5521ZM35.4385 53.5013C10.2085 53.0667 10.2007 16.4736 35.4385 16.0317C39.7256 15.9899 43.9072 17.3461 47.3381 19.891L43.4988 23.6895C41.1184 22.1004 38.3092 21.2597 35.4385 21.2774C17.2712 21.5922 17.2712 47.9404 35.4385 48.2556C48.6547 48.0234 52.2579 34.0188 46.2342 26.2774L50.0406 22.5137L50.065 22.5157C58.9419 33.1502 54.0664 53.1716 35.4385 53.5013ZM48.981 20.91L48.6329 17.0205L53.2352 12.4643L53.4092 15.8141C53.4325 16.1972 53.7414 16.503 54.1283 16.5261L57.512 16.6983L52.9097 21.2623L48.981 20.91Z" fill="white"/>
<path d="M36.7406 33.5521L35.9384 33.8143M36.7406 33.5521L48.08 22.3266C47.8214 22.258 47.6194 22.0579 47.5501 21.802L47.3074 23.0914L36.7406 33.5521ZM53.7264 22.5664L59.7822 16.5712C59.9904 16.3608 60.0559 16.05 59.9501 15.7747C59.8447 15.4993 59.5869 15.3103 59.2902 15.2896L54.8845 15.0647L54.65 10.7032C54.6321 10.4098 54.4425 10.1542 54.165 10.0495C53.8879 9.94443 53.5743 10.0097 53.3631 10.2164L47.3074 16.2116C46.9008 16.5321 47.1972 17.5117 47.1911 17.9318L47.1864 17.9275C43.6861 15.6914 39.6039 14.5117 35.4382 14.5328C8.18726 15.0048 8.18726 54.5204 35.4382 55C54.8988 54.6628 60.4632 34.4238 52.1236 22.6956C52.5372 22.6922 53.4162 22.9591 53.7264 22.5664ZM34.9769 35.718L37.384 34.9161C37.4952 34.88 37.5966 34.8184 37.679 34.7361L40.1703 32.2728C41.6977 35.3978 40.1233 40.0718 35.4386 40.0119C28.3761 40.1093 28.3761 29.4305 35.4386 29.5204C36.08 29.5077 36.7194 29.5987 37.331 29.7901H37.3323L35.007 32.0907C34.9242 32.1727 34.862 32.2727 34.8255 32.3831L34.0229 34.7661C33.9361 35.0344 34.0071 35.3288 34.2078 35.5289C34.4085 35.7289 34.7049 35.802 34.9769 35.718ZM38.5205 28.6148L38.5195 28.6138C37.5486 28.1949 36.4969 27.9929 35.4386 28.0216C26.3549 27.9019 26.3549 41.6306 35.4386 41.5107C41.6684 41.593 43.6291 35.1633 41.3125 31.1468L41.3108 31.1455L45.1359 27.3634C50.2526 34.3103 47.0195 46.6969 35.4389 46.7568C19.3755 46.6745 19.3686 22.8585 35.4389 22.7763C37.9129 22.7321 40.3433 23.4233 42.4161 24.7608L38.5205 28.6148ZM35.4385 53.5013C10.2085 53.0667 10.2007 16.4736 35.4385 16.0317C39.7256 15.9899 43.9072 17.3461 47.3381 19.891L43.4988 23.6895C41.1184 22.1004 38.3092 21.2597 35.4385 21.2774C17.2712 21.5922 17.2712 47.9404 35.4385 48.2556C48.6547 48.0234 52.2579 34.0188 46.2342 26.2774L50.0406 22.5137L50.065 22.5157C58.9419 33.1502 54.0664 53.1716 35.4385 53.5013ZM48.981 20.91L48.6329 17.0205L53.2352 12.4643L53.4092 15.8141C53.4325 16.1972 53.7414 16.503 54.1283 16.5261L57.512 16.6983L52.9097 21.2623L48.981 20.91Z" stroke="white" stroke-width="0.3"/>
</svg>
