<svg width="38" height="46" viewBox="0 0 38 46" fill="none" xmlns="http://www.w3.org/2000/svg">
<path fill-rule="evenodd" clip-rule="evenodd" d="M20.2437 1.28545C21.341 1.77706 22.0839 2.88993 22.1058 4.07465C22.1172 4.68966 22.1315 4.72921 22.4954 5.14842C22.9987 5.72844 23.6455 7.04568 23.8076 7.82076C24.2819 10.0902 23.4925 13.0412 21.9141 14.8987L21.4321 15.466V16.3187C21.4321 16.9399 21.4625 17.1722 21.5441 17.174C21.943 17.183 26.5693 18.154 26.737 18.264C26.8763 18.3552 27.8613 20.2672 29.7508 24.1139C31.2947 27.2567 32.5799 29.9383 32.607 30.0732C32.6926 30.501 32.3847 31.5266 32.0842 31.8141L31.8167 32.07L27.9688 32.0952L24.1208 32.1203L24.1222 32.8558L24.1237 33.5912L28.8499 34.9144C33.9355 36.3382 34.4803 36.5383 35.6181 37.4C36.7703 38.2725 37.1314 38.9635 36.9594 39.9661C36.7308 41.2987 35.8094 42.4895 34.4723 43.1804C32.6579 44.1178 31.5988 44.206 24.4345 44.0164C22.6107 43.9682 19.9489 43.8865 18.5194 43.8349L15.9203 43.7411L13.0206 44.3706C11.4258 44.7168 10.0021 45 9.85693 45C8.93408 45 8.38371 43.8879 8.91777 43.1021L9.13 42.79L7.59583 42.7325C6.75212 42.7008 5.88026 42.633 5.65845 42.5818C5.16355 42.4676 2.1601 40.96 1.68062 40.5851C1.29703 40.2853 1.00306 39.7359 1.00002 39.3131C0.99688 38.8784 1.42062 38.1436 1.93613 37.6899C2.19532 37.4617 2.76622 37.0501 3.20475 36.7753L4.00212 36.2756L8.86319 34.9334L13.7243 33.5912L13.7244 32.8558L13.7245 32.1203L9.87656 32.0952L6.02859 32.07L5.76116 31.8141C5.46029 31.5264 5.1527 30.5009 5.23865 30.0721C5.26572 29.9368 6.55307 27.2506 8.09942 24.1028C10.7172 18.7739 10.9322 18.3689 11.2198 18.2258C11.3898 18.1412 12.6277 17.8635 13.971 17.6087L16.4132 17.1455V16.3057V15.466L15.9312 14.8987C14.3529 13.0412 13.5635 10.0902 14.0378 7.82076C14.1998 7.04568 14.8466 5.72844 15.3499 5.14842C15.7138 4.72921 15.7281 4.68966 15.7395 4.07465C15.7812 1.82287 18.158 0.350914 20.2437 1.28545ZM18.2953 1.76963C17.2947 2.09865 16.6393 2.81924 16.4639 3.78375C16.4146 4.0547 16.4267 4.11993 16.519 4.07966C17.3596 3.71253 17.8729 3.54063 18.3497 3.46654C19.2346 3.32901 19.9401 3.47424 21.3264 4.07966C21.4187 4.11993 21.4308 4.0547 21.3815 3.78375C21.1717 2.6307 20.2252 1.79227 19.0588 1.72641C18.7622 1.70968 18.4185 1.7291 18.2953 1.76963ZM18.2215 4.19805C16.5216 4.55409 15.0804 6.15911 14.7171 8.10084C14.6769 8.31595 14.652 8.49187 14.6621 8.49187C14.672 8.49187 14.8082 8.29474 14.9646 8.05377C15.5801 7.10537 16.7983 6.23535 17.8497 5.99348C18.5155 5.84029 19.6463 5.87715 20.28 6.07267C21.3008 6.38755 22.2778 7.08255 22.8416 7.89485C23.1743 8.37402 23.1986 8.16938 22.9079 7.33587C22.2724 5.51315 20.8291 4.28565 19.1737 4.15975C18.8631 4.13622 18.4346 4.1534 18.2215 4.19805ZM17.6487 6.81375C16.1449 7.40584 14.7721 9.16682 14.7711 10.5052C14.7706 11.1408 15.2793 12.5748 15.8236 13.4722C17.0414 15.48 18.5769 16.2397 20.0033 15.5404C21.0708 15.0169 22.2183 13.4846 22.7767 11.8372C23.2103 10.5578 23.1989 10.0857 22.7103 9.10061C22.2151 8.102 21.5875 7.45935 20.6618 7.00246C20.0166 6.68409 19.9083 6.6593 19.0653 6.63658C18.3007 6.61591 18.0817 6.64329 17.6487 6.81375ZM17.1461 17.829C17.1747 19.6281 17.1773 19.6495 17.4155 20.0083C17.7858 20.5667 18.224 20.7955 18.9227 20.7955C19.6214 20.7955 20.0595 20.5667 20.4299 20.0083C20.668 19.6495 20.6706 19.6281 20.6993 17.829L20.7283 16.0121L20.2063 16.2563C19.7663 16.4621 19.565 16.5004 18.9227 16.5004C18.2803 16.5004 18.079 16.4621 17.639 16.2563L17.117 16.0121L17.1461 17.829ZM15.517 18.0387C15.1473 18.1103 14.8188 18.1961 14.7871 18.2294C14.7554 18.2627 14.5029 19.5181 14.226 21.0192L13.7226 23.7483L13.8956 26.1945C13.9908 27.5398 14.0867 28.6585 14.1087 28.6806C14.1671 28.7388 16.5881 29.0171 16.6344 28.971C16.6558 28.9495 16.8388 27.9469 17.0411 26.7428C17.2572 25.456 17.4714 24.4472 17.5608 24.2953C17.7942 23.8986 18.2427 23.7036 18.9212 23.7038C19.6114 23.7039 20.0554 23.8937 20.2815 24.2852C20.3736 24.4446 20.586 25.4431 20.8042 26.7428C21.0065 27.9469 21.1914 28.9515 21.2152 28.9752C21.2652 29.0251 23.6714 28.7457 23.7346 28.6826C23.7577 28.6594 23.8542 27.5409 23.9489 26.1969L24.1212 23.7532L23.6221 21.1111C23.3476 19.6579 23.1045 18.4036 23.0817 18.3236C23.0538 18.2255 22.8586 18.1442 22.4827 18.0741C22.176 18.0169 21.8187 17.9493 21.6889 17.9239L21.4528 17.8777L21.4152 18.7997C21.3852 19.5364 21.336 19.8026 21.171 20.1244C20.5866 21.2628 19.3884 21.782 18.1648 21.4268C17.7588 21.309 17.5402 21.1717 17.1706 20.8028C16.593 20.226 16.4132 19.7107 16.4132 18.6316C16.4132 18.0902 16.3827 17.8902 16.3012 17.898C16.2396 17.9039 15.8867 17.9673 15.517 18.0387ZM12.719 18.5899C12.092 18.7202 11.5397 18.8672 11.4916 18.9164C11.4434 18.9656 10.1675 21.522 8.65616 24.5973L5.90832 30.1887L6.01739 30.682C6.07744 30.9532 6.16733 31.2256 6.21716 31.2871C6.28787 31.3744 7.52395 31.3989 11.8483 31.3989H17.3887L17.9764 31.031L18.5642 30.6631V27.5412C18.5642 25.8243 18.5301 24.4194 18.4884 24.4194C18.4468 24.4194 18.3395 24.5002 18.25 24.599C18.1294 24.732 17.9874 25.3744 17.7023 27.0757C17.273 29.6375 17.2375 29.7245 16.6241 29.7145C16.4342 29.7114 15.1442 29.5657 13.7576 29.3906L11.2365 29.0724L10.3972 29.2443C9.93553 29.3389 9.54406 29.4024 9.52721 29.3856C9.51036 29.3688 9.46447 29.2128 9.42513 29.039L9.35379 28.7229L9.85872 28.6207C10.1365 28.5645 10.4979 28.4918 10.6619 28.4591C10.9567 28.4004 10.9727 28.3708 11.992 25.9947L13.0238 23.5895L13.4635 21.2082C13.7053 19.8985 13.9267 18.7161 13.9554 18.5808C13.9842 18.4455 13.9742 18.3389 13.9333 18.3439C13.8924 18.3489 13.346 18.4597 12.719 18.5899ZM23.8519 18.4087C23.8519 18.456 24.0714 19.6442 24.3397 21.0491L24.8275 23.6034L25.8563 26.0015C26.8726 28.3706 26.8887 28.4004 27.1834 28.4591C27.3474 28.4918 27.7054 28.5637 27.9787 28.619L28.4758 28.7196L28.4393 29.0311C28.4193 29.2024 28.3763 29.359 28.3437 29.3791C28.3111 29.3991 27.9104 29.339 27.4532 29.2453L26.6218 29.0751L24.0942 29.3917C22.704 29.5658 21.4111 29.711 21.2212 29.7142C20.6079 29.7247 20.5724 29.6377 20.1431 27.0757C19.858 25.3744 19.7159 24.732 19.5954 24.599C19.5058 24.5002 19.3986 24.4194 19.3569 24.4194C19.3152 24.4194 19.2812 25.8243 19.2812 27.5412V30.6631L19.8689 31.031L20.4567 31.3989H25.9971C30.3214 31.3989 31.5575 31.3744 31.6282 31.2871C31.678 31.2256 31.7677 30.9538 31.8275 30.6831L31.9362 30.1909L29.2332 24.6879C27.7465 21.6612 26.4744 19.0993 26.4062 18.9947C26.3064 18.8415 26.0767 18.7668 25.224 18.6103C24.6419 18.5036 24.095 18.3951 24.0088 18.3695C23.9226 18.3437 23.8519 18.3614 23.8519 18.4087ZM12.425 26.8028C12.0799 27.6132 11.7867 28.3069 11.7733 28.3445C11.7522 28.4039 13.2793 28.6557 13.3283 28.6009C13.3589 28.5667 13.1215 25.3981 13.0856 25.3626C13.0673 25.3445 12.77 25.9926 12.425 26.8028ZM24.7465 25.3142C24.7175 25.48 24.5027 28.5848 24.5189 28.6027C24.5419 28.6282 26.0344 28.4371 26.0722 28.4038C26.0856 28.392 25.7946 27.6819 25.4255 26.8259C25.0563 25.9699 24.7508 25.2896 24.7465 25.3142ZM18.2953 31.6901L17.7128 32.07L16.0771 32.098L14.4415 32.1259V32.8362V33.5465H18.9227H23.4038V32.8362V32.1259L21.7682 32.098L20.1326 32.07L19.617 31.7316C19.3335 31.5454 19.0512 31.3745 18.9896 31.3517C18.9281 31.3289 18.6157 31.4812 18.2953 31.6901ZM9.08205 35.6073C4.01852 37.0186 3.83722 37.0853 2.79535 37.9201C2.11036 38.469 1.80403 38.8451 1.75052 39.2027C1.66628 39.7656 1.8975 39.9653 3.73316 40.914C5.4766 41.815 5.7159 41.9001 6.79585 42.0029L7.44042 42.0642L7.10954 41.407C6.79935 40.7906 6.77909 40.6996 6.7842 39.9443C6.78806 39.3699 6.84273 38.989 6.97492 38.6156L7.16026 38.0921L6.67827 38.1522L6.19619 38.2124V37.8559C6.19619 37.433 5.92732 37.5002 8.94744 37.1682L11.0266 36.9396L15.6391 37.7932C18.1761 38.2627 20.3471 38.6469 20.4636 38.6469C20.6055 38.6469 20.8669 38.4541 21.2546 38.0635C21.5731 37.7427 21.9551 37.4467 22.1034 37.4059C22.2725 37.3592 22.8362 37.3899 23.6141 37.4882C24.2967 37.5744 25.4461 37.67 26.1683 37.7008C28.6663 37.8072 28.8548 37.833 29.1731 38.112C29.4572 38.3611 29.4614 38.3618 29.9461 38.2362C30.7534 38.0271 30.8425 38.0502 30.8425 38.4679C30.8425 38.7211 30.8045 38.8258 30.7125 38.8258C30.2103 38.8258 29.6218 39.0515 29.2872 39.3726L28.9258 39.7193L29.1105 39.9688C29.7439 40.8242 29.8498 41.6754 29.4534 42.7268C29.3302 43.0537 29.2293 43.3421 29.2293 43.3676C29.2293 43.4717 31.8299 43.3094 32.4558 43.1663C34.5365 42.6904 36.0939 41.3013 36.277 39.7582C36.3473 39.1658 36.2085 38.9057 35.4535 38.2149C34.417 37.2667 33.8286 37.0407 28.5572 35.5658L23.8968 34.2619L18.8779 34.2688L13.859 34.2758L9.08205 35.6073ZM9.39663 37.8402C8.31649 37.9673 8.04798 38.0274 7.94635 38.1649C7.70374 38.4931 7.49572 39.3153 7.49572 39.9462C7.49572 40.4732 7.54233 40.669 7.78476 41.1607C8.25151 42.1072 8.17121 42.0772 9.93015 41.9622C12.444 41.7979 14.3653 41.581 19.5354 40.8782C22.4651 40.4799 23.9971 40.1893 26.756 39.5085C28.6287 39.0464 28.9751 38.8941 28.7242 38.6436C28.6663 38.5858 27.8989 38.5119 26.8441 38.4625C25.2753 38.3889 23.1227 38.1881 22.527 38.0597C22.3654 38.0249 22.1728 38.1577 21.614 38.6891C20.9799 39.2922 20.869 39.3627 20.5552 39.3627C20.3625 39.3627 18.1356 38.9802 15.6066 38.5126C13.0776 38.0451 10.9441 37.6675 10.8653 37.6734C10.7866 37.6794 10.1256 37.7545 9.39663 37.8402ZM26.6303 40.2733C23.5136 41.0504 19.8024 41.6483 13.9486 42.3167C12.561 42.4751 12.1382 42.5634 10.9249 42.9476C9.6862 43.34 9.50785 43.4205 9.46044 43.6091C9.38094 43.9252 9.49503 44.187 9.73899 44.2481C9.86285 44.2791 11.2073 44.0312 12.9165 43.6622L15.8792 43.0224L18.4091 43.1154C19.8007 43.1665 22.5919 43.2522 24.6119 43.3057L28.2845 43.403L28.4382 43.2135C28.6938 42.8984 28.9605 42.0682 28.9605 41.5876C28.9605 41.0331 28.7895 40.6546 28.3525 40.2418L28.0194 39.9269L26.6303 40.2733Z" fill="#FF668E" stroke="#FF668E" stroke-width="0.5"/>
</svg>
