<svg width="205" height="35" viewBox="0 0 205 35" fill="none" xmlns="http://www.w3.org/2000/svg">
<path d="M17.0245 1.46352C17.1741 1.00287 17.8259 1.00287 17.9755 1.46353L21.3167 11.7467C21.3837 11.9527 21.5757 12.0922 21.7923 12.0922L32.6047 12.0922C33.089 12.0922 33.2904 12.712 32.8985 12.9967L24.1511 19.3521C23.9759 19.4794 23.9026 19.7051 23.9695 19.9111L27.3107 30.1943C27.4604 30.6549 26.9331 31.038 26.5413 30.7533L17.7939 24.3979C17.6186 24.2706 17.3814 24.2706 17.2061 24.3979L8.45871 30.7533C8.06685 31.038 7.53961 30.6549 7.68929 30.1943L11.0305 19.9111C11.0974 19.7051 11.0241 19.4794 10.8489 19.3521L2.10146 12.9967C1.7096 12.712 1.91099 12.0922 2.39535 12.0922L13.2077 12.0922C13.4243 12.0922 13.6163 11.9527 13.6833 11.7467L17.0245 1.46352Z" fill="#FFB118"/>
<path d="M59.3174 1.46352C59.4671 1.00287 60.1188 1.00287 60.2685 1.46353L63.6097 11.7467C63.6766 11.9527 63.8686 12.0922 64.0852 12.0922L74.8976 12.0922C75.382 12.0922 75.5834 12.712 75.1915 12.9967L66.4441 19.3521C66.2689 19.4794 66.1955 19.7051 66.2625 19.9111L69.6037 30.1943C69.7534 30.6549 69.2261 31.038 68.8343 30.7533L60.0869 24.3979C59.9116 24.2706 59.6743 24.2706 59.4991 24.3979L50.7517 30.7533C50.3598 31.038 49.8326 30.6549 49.9823 30.1943L53.3235 19.9111C53.3904 19.7051 53.3171 19.4794 53.1418 19.3521L44.3944 12.9967C44.0026 12.712 44.204 12.0922 44.6883 12.0922L55.5007 12.0922C55.7173 12.0922 55.9093 11.9527 55.9762 11.7467L59.3174 1.46352Z" fill="#FFB118"/>
<path d="M101.607 1.46352C101.756 1.00287 102.408 1.00287 102.558 1.46353L105.899 11.7467C105.966 11.9527 106.158 12.0922 106.374 12.0922L117.187 12.0922C117.671 12.0922 117.872 12.712 117.481 12.9967L108.733 19.3521C108.558 19.4794 108.485 19.7051 108.552 19.9111L111.893 30.1943C112.042 30.6549 111.515 31.038 111.123 30.7533L102.376 24.3979C102.201 24.2706 101.963 24.2706 101.788 24.3979L93.0407 30.7533C92.6489 31.038 92.1216 30.6549 92.2713 30.1943L95.6125 19.9111C95.6795 19.7051 95.6061 19.4794 95.4309 19.3521L86.6835 12.9967C86.2916 12.712 86.493 12.0922 86.9774 12.0922L97.7898 12.0922C98.0064 12.0922 98.1984 11.9527 98.2653 11.7467L101.607 1.46352Z" fill="#FFB118"/>
<path d="M143.899 1.46352C144.049 1.00287 144.701 1.00287 144.851 1.46353L148.192 11.7467C148.259 11.9527 148.451 12.0922 148.667 12.0922L159.48 12.0922C159.964 12.0922 160.165 12.712 159.774 12.9967L151.026 19.3521C150.851 19.4794 150.778 19.7051 150.845 19.9111L154.186 30.1943C154.335 30.6549 153.808 31.038 153.416 30.7533L144.669 24.3979C144.494 24.2706 144.256 24.2706 144.081 24.3979L135.334 30.7533C134.942 31.038 134.415 30.6549 134.564 30.1943L137.905 19.9111C137.972 19.7051 137.899 19.4794 137.724 19.3521L128.976 12.9967C128.585 12.712 128.786 12.0922 129.27 12.0922L140.083 12.0922C140.299 12.0922 140.491 11.9527 140.558 11.7467L143.899 1.46352Z" fill="#FFB118"/>
<path d="M186.192 1.46352C186.342 1.00287 186.994 1.00287 187.143 1.46353L190.485 11.7467C190.552 11.9527 190.744 12.0922 190.96 12.0922L201.773 12.0922C202.257 12.0922 202.458 12.712 202.067 12.9967L193.319 19.3521C193.144 19.4794 193.071 19.7051 193.137 19.9111L196.479 30.1943C196.628 30.6549 196.101 31.038 195.709 30.7533L186.962 24.3979C186.787 24.2706 186.549 24.2706 186.374 24.3979L177.627 30.7533C177.235 31.038 176.708 30.6549 176.857 30.1943L180.198 19.9111C180.265 19.7051 180.192 19.4794 180.017 19.3521L171.269 12.9967C170.878 12.712 171.079 12.0922 171.563 12.0922L182.376 12.0922C182.592 12.0922 182.784 11.9527 182.851 11.7467L186.192 1.46352Z" fill="#FFB118"/>
</svg>
