<svg width="354" height="392" viewBox="0 0 354 392" fill="none" xmlns="http://www.w3.org/2000/svg">
<path d="M12 391H336" stroke="#C9C9C9" stroke-opacity="0.5"/>
<circle cx="168.5" cy="131.5" r="96.5" fill="#FFF1DC"/>
<path d="M10.6531 313C0.653061 304.2 -0.513605 285.333 0.153061 277C71.653 268.5 49.6531 314.5 57.6531 307.5C64.0531 301.9 53.9864 287.167 48.1531 280.5C85.6531 284 108.153 338.5 99.1531 350C90.1531 361.5 71.1531 362 57.6531 360.5C44.1531 359 68.1531 354 68.1531 345.5C68.1531 337 57.6531 356 39.1531 351.5C24.3531 347.9 13.9864 329.667 10.6531 321C30.153 332 50.6531 330.5 48.1531 327.5C45.6531 324.5 23.1531 324 10.6531 313Z" fill="#CEEDFF"/>
<path d="M329.098 299.58C336.075 288.232 331.652 269.854 328.569 262.084C257.723 274.946 292.257 312.462 282.554 308.118C274.792 304.643 280.091 287.604 283.711 279.519C248.89 293.872 243.378 352.576 255.357 360.927C267.336 369.279 285.646 364.18 298.111 358.784C310.576 353.387 286.166 355.652 283.671 347.526C281.176 339.401 296.79 354.482 313.155 344.75C326.246 336.964 330.804 316.491 331.447 307.228C316.034 323.467 295.997 328.05 297.506 324.449C299.016 320.847 320.378 313.765 329.098 299.58Z" fill="#CEEDFF"/>
<path d="M41.0755 205C38.9697 271.056 81.4375 335.19 102.935 359L149 349.826C128.994 271.187 68.7147 220.509 41.0755 205Z" fill="#C2E7FC"/>
<path d="M106 339C107.5 334.5 108.8 321.4 102 305C93.5 284.5 68 264.5 63 243" stroke="white"/>
<path d="M123.998 243.736C133.555 223.586 128.846 199.854 125.296 190.506C141.139 186.611 142.178 209.461 143.736 215.693C145.294 221.925 147.372 231.013 164.254 232.051C181.135 233.09 193.861 229.714 196.458 215.693C199.055 201.671 202.172 191.544 204.769 190.506C206.847 189.675 210.31 191.187 212.041 191.88C204.769 214.522 211.262 236.466 215.158 244.775C212.872 250.383 209.184 265.634 207.626 272.558C205.34 293.123 213.772 322.846 218.274 335.136C210.223 339.031 191.264 337.992 169.708 339.291C152.463 340.329 129.798 336.954 120.622 335.136C128.932 319.557 133.348 283.983 131.53 274.636C130.075 267.157 125.902 250.92 123.998 243.736Z" fill="#FF6B92"/>
<path d="M240.498 270.556C227.408 255.808 220.673 239.311 218.942 232.906L205.808 270.556L168.038 234.723V169.809H184.14C182.841 186.427 196.606 189.023 201.541 190.581C205.488 191.828 209.592 192.486 211.15 192.659C236.602 193.697 241.277 222.26 242.835 225.376C244.394 228.492 250.107 238.618 253.224 243.033C256.34 247.447 265.95 266.662 268.547 274.192C271.144 281.722 271.144 287.694 248.549 294.185C225.954 300.677 194.009 303.793 177.907 301.716C161.804 299.638 168.828 249.005 169.188 244.331C169.448 240.955 173.492 242.254 174.53 247.447C175.569 252.64 179.577 274.971 179.984 283.539C180.226 288.626 184.053 289.252 185.438 288.992C204.761 287.33 230.196 276.009 240.498 270.556Z" fill="#FFD5B5"/>
<path d="M135.425 190.841C152.878 187.933 154.298 174.396 152.826 167.991H169.188L171.266 207.979L173.603 237.32L123.738 244.071C122.284 239.294 119.842 234.118 118.803 232.127C118.388 244.175 103.74 262.248 96.468 269.778C104 268.999 129.711 282.501 143.476 286.915C154.488 290.447 157.587 284.751 157.761 281.462C158.28 273.067 160.15 254.354 163.474 246.668C166.799 238.982 168.669 243.466 169.188 246.668V288.214C171.266 298.6 162.955 301.023 158.54 300.937C119.842 304.312 89.9752 293.666 76.47 288.214C62.9649 282.761 67.8995 277.827 67.8995 275.231C67.8995 272.634 74.3923 259.391 78.8075 250.044C83.2226 240.696 90.4946 233.685 99.3249 211.354C106.389 193.49 126.335 190.235 135.425 190.841Z" fill="#C4C4C4"/>
<path d="M135.425 190.841C152.878 187.933 154.298 174.396 152.826 167.991H169.188L171.266 207.979L173.603 237.32L123.738 244.071C122.284 239.294 119.842 234.118 118.803 232.127C118.388 244.175 103.74 262.248 96.468 269.778C104 268.999 129.711 282.501 143.476 286.915C154.488 290.447 157.587 284.751 157.761 281.462C158.28 273.067 160.15 254.354 163.474 246.668C166.799 238.982 168.669 243.466 169.188 246.668V288.214C171.266 298.6 162.955 301.023 158.54 300.937C119.842 304.312 89.9752 293.666 76.47 288.214C62.9649 282.761 67.8995 277.827 67.8995 275.231C67.8995 272.634 74.3923 259.391 78.8075 250.044C83.2226 240.696 90.4946 233.685 99.3249 211.354C106.389 193.49 126.335 190.235 135.425 190.841Z" fill="#FFD5B5"/>
<path d="M146.593 155.268C143.061 155.06 139.667 148.949 139.321 146.439L140.879 132.418L146.073 139.688L147.112 149.555L146.593 155.268Z" fill="#FFD5B5"/>
<path d="M168.149 179.377C161.5 179.377 155 174 152.826 168.51L159.319 159.942L183.992 170.588C180.875 176.041 176.46 179.377 168.149 179.377Z" fill="#FFC599" fill-opacity="0.8"/>
<path d="M168.452 176.04C153.908 175.002 147.848 162.798 146.636 156.826L143 130.86L144.299 123.849L149.233 112.943L168.452 104.115L193.385 118.136L191.826 156.826C190.095 163.663 182.996 177.079 168.452 176.04Z" fill="#FFD5B5"/>
<path d="M58.5498 342.482C75.3793 331.265 106.77 332.788 120.362 334.952C133.036 331.213 190.744 333.221 218.014 334.693C223.468 334.173 238.532 331.317 252.297 328.201C263.308 325.708 274.372 325.604 278.528 325.864C312.031 333.914 296.708 360.918 286.319 367.929C275.931 374.94 248.661 380.393 241.908 380.393C236.506 380.393 223.035 378.315 216.975 377.277C211.366 363.567 211.695 350.618 212.56 345.858L183.992 363.255L134.646 358.841C138.801 371.928 134.646 385.066 132.049 390C101.922 389.74 77.509 382.47 69.1981 379.614C60.8873 376.757 37.513 356.504 58.5498 342.482Z" fill="#2B3443" stroke="#2B3443"/>
<path d="M165.552 356.504C184.667 355.05 204.855 348.974 212.56 346.118C210.483 360.659 215.677 375.719 218.534 381.431L214.378 382.47L146.074 381.431L140.1 360.659C143.424 360.243 146.853 357.196 148.151 355.725C155.215 349.286 162.695 353.561 165.552 356.504Z" fill="#FFD5B5"/>
<path d="M175.681 367.41C167.162 366.371 148.411 362.476 140.1 360.658C140.533 362.13 142.386 365.904 146.333 369.227C150.281 372.551 194.727 375.632 216.456 376.757L214.638 370.785C209.703 371.824 186.329 368.708 175.681 367.41Z" fill="#FFC89F"/>
<path d="M199.315 146.18C200.769 139.325 198.709 137.611 197.497 137.611C197.497 140.727 195.592 149.642 194.64 153.71C195.592 154.056 197.86 153.035 199.315 146.18Z" fill="#FFD5B5"/>
<path d="M152.047 132.937C150.177 132.729 147.805 135.101 146.853 136.313C147.545 136.14 148.93 135.534 151.008 135.014C152.73 134.584 160.877 135.793 164.773 136.572C164.773 136.572 165.033 135.534 163.994 134.755C162.955 133.976 153.917 133.145 152.047 132.937Z" fill="#271010"/>
<path d="M185.81 133.469C187.68 133.261 190.052 135.633 191.004 136.845C190.312 136.672 188.926 136.066 186.849 135.546C185.127 135.116 176.98 136.325 173.084 137.104C173.084 137.104 172.824 135.793 173.863 135.287C174.902 134.78 183.94 133.677 185.81 133.469Z" fill="#271010"/>
<path d="M163.717 140.277C163.723 140.278 163.728 140.28 163.734 140.282C163.729 140.278 163.723 140.277 163.717 140.277C163.183 140.11 161.742 140.142 160.098 141.58C158.02 143.398 153.605 145.475 147.891 141.061C148.67 142.421 151.423 145.089 156.202 144.881C162.055 144.627 163.42 140.279 163.717 140.277Z" fill="#271010"/>
<path d="M173.101 140.277C173.095 140.278 173.089 140.28 173.083 140.282C173.089 140.278 173.094 140.277 173.101 140.277C173.634 140.11 175.075 140.142 176.719 141.58C178.797 143.398 183.212 145.475 188.926 141.061C188.147 142.421 185.394 145.089 180.615 144.881C174.763 144.627 173.398 140.279 173.101 140.277Z" fill="#271010"/>
<path d="M151.527 86.1983C151.735 90.976 154.73 95.1132 156.202 96.5846L176.979 95.2864C178.278 94.5074 180.927 91.5992 181.135 86.1983C181.394 79.4471 175.94 75.5522 166.071 75.0329C156.202 74.5136 151.268 80.2261 151.527 86.1983Z" fill="#271010"/>
<path d="M138.801 124.108V146.699C143.372 140.675 146.073 133.456 146.852 130.6C153.293 124.784 155.769 117.963 156.202 115.28C162.643 125.251 181.221 132.937 189.705 135.534C193.445 143.635 191.956 158.816 190.744 165.394C195.523 156.254 198.103 136.312 198.795 127.484C199.834 117.877 190.744 91.9107 166.331 94.2476C141.918 96.5846 138.801 116.838 138.801 124.108Z" fill="#271010"/>
<path d="M182.953 388.702C169.24 389.117 143.303 389.74 132.049 390C138.905 375.459 136.464 363.168 134.386 358.841C144.861 361.87 167.526 368.396 174.382 370.266C181.239 372.135 204.249 375.372 214.898 376.757L249.699 379.614C251.69 380.825 255.465 384.08 254.634 387.403C253.803 390.727 250.998 390 248.66 388.702C247.362 387.403 246.323 386.157 241.129 387.403C234.636 388.961 211.781 390 207.366 389.481C202.951 388.961 200.094 388.182 182.953 388.702Z" fill="#FFD5B5"/>
<path d="M123.738 243.552C133.296 223.402 128.586 199.669 125.037 190.322C143.476 182.272 141.918 209.277 143.476 215.509C145.035 221.741 147.112 230.829 163.994 231.867C180.875 232.906 193.601 229.53 196.198 215.509C198.795 201.487 201.912 191.36 204.509 190.322C206.587 189.491 210.569 190.668 212.301 191.36C205.029 214.003 211.002 236.281 214.898 244.591C212.612 250.199 208.405 266.489 206.847 273.413L175.421 243.552L165.292 239.138L131.789 275.49C130.335 268.012 125.643 250.736 123.738 243.552Z" fill="#FF6B92"/>
<path d="M145.554 149.389C147.008 145.027 145.814 136.146 145.034 132.251C147.891 124.981 148.151 140.56 148.151 143.936C148.151 146.636 146.593 151.12 145.814 153.024C143.944 157.594 145.294 165.401 146.333 168.863C142.957 159.775 143.736 154.842 145.554 149.389Z" fill="#271010"/>
<path d="M159 161C161.5 163.5 168.8 167 178 161C176 167.5 166 176 159 161Z" fill="#CF3030"/>
<path fill-rule="evenodd" clip-rule="evenodd" d="M78.0772 0.898518C78.0772 0.898518 70.7046 4.67342 68.3851 12.8624C66.0655 21.0513 61.5206 19.3707 61.5206 19.3707C61.5206 19.3707 64.5848 16.7637 65.1604 11.2784C65.7361 5.79301 72.0601 1.8066 78.0772 0.898518Z" fill="#FFC976"/>
<path fill-rule="evenodd" clip-rule="evenodd" d="M30.9578 132.013C30.9578 132.013 31.3084 139.041 36.8416 143.696C42.3749 148.351 39.4868 151.285 39.4868 151.285C39.4868 151.285 38.537 148.002 34.4892 145.641C30.4414 143.281 29.5609 136.991 30.9578 132.013Z" fill="#E1992C"/>
<path d="M240.489 40C241.311 40 241.978 39.3284 241.978 38.5C241.978 37.6716 241.311 37 240.489 37C239.667 37 239 37.6716 239 38.5C239 39.3284 239.667 40 240.489 40Z" fill="#7352D1"/>
<path d="M52.9854 77C54.0819 77 54.9708 76.1046 54.9708 75C54.9708 73.8954 54.0819 73 52.9854 73C51.8889 73 51 73.8954 51 75C51 76.1046 51.8889 77 52.9854 77Z" fill="#9C7EF3"/>
<path d="M233.978 151C235.623 151 236.956 149.657 236.956 148C236.956 146.343 235.623 145 233.978 145C232.333 145 231 146.343 231 148C231 149.657 232.333 151 233.978 151Z" fill="#7352D1"/>
<path d="M299.978 222C301.623 222 302.956 220.657 302.956 219C302.956 217.343 301.623 216 299.978 216C298.333 216 297 217.343 297 219C297 220.657 298.333 222 299.978 222Z" fill="#FF668E"/>
<path d="M303.5 302.5C307.167 302.167 315.2 300.2 318 295" stroke="white"/>
<path d="M291.447 314.867C290.899 311.227 290.9 302.956 295.285 299" stroke="white"/>
</svg>
