<svg width="56" height="55" viewBox="0 0 56 55" fill="none" xmlns="http://www.w3.org/2000/svg">
<path d="M28 0C22.561 0 17.2442 1.61285 12.7218 4.63458C8.19948 7.65632 4.67473 11.9512 2.59333 16.9762C0.511916 22.0012 -0.0326764 27.5305 1.02842 32.865C2.08951 38.1995 4.70863 43.0995 8.55457 46.9454C12.4005 50.7914 17.3005 53.4105 22.635 54.4716C27.9695 55.5327 33.4988 54.9881 38.5238 52.9067C43.5488 50.8253 47.8437 47.3005 50.8654 42.7782C53.8872 38.2558 55.5 32.939 55.5 27.5C55.5 20.2065 52.6027 13.2118 47.4454 8.05456C42.2882 2.89731 35.2935 0 28 0ZM28 51.3333C23.2862 51.3333 18.6783 49.9355 14.7589 47.3167C10.8395 44.6978 7.78477 40.9756 5.98088 36.6206C4.17699 32.2656 3.70501 27.4736 4.62463 22.8503C5.54424 18.2271 7.81415 13.9804 11.1473 10.6473C14.4804 7.31414 18.7271 5.04423 23.3504 4.12462C27.9736 3.205 32.7657 3.67698 37.1206 5.48087C41.4756 7.28476 45.1979 10.3395 47.8167 14.2589C50.4355 18.1783 51.8333 22.7862 51.8333 27.5C51.8333 33.821 49.3223 39.8831 44.8527 44.3527C40.3831 48.8223 34.321 51.3333 28 51.3333Z" fill="#FF668E"/>
<path d="M35.3337 23.8333C37.3587 23.8333 39.0003 22.1917 39.0003 20.1667C39.0003 18.1416 37.3587 16.5 35.3337 16.5C33.3086 16.5 31.667 18.1416 31.667 20.1667C31.667 22.1917 33.3086 23.8333 35.3337 23.8333Z" fill="#FF668E"/>
<path d="M20.6667 23.8333C22.6917 23.8333 24.3333 22.1917 24.3333 20.1667C24.3333 18.1416 22.6917 16.5 20.6667 16.5C18.6416 16.5 17 18.1416 17 20.1667C17 22.1917 18.6416 23.8333 20.6667 23.8333Z" fill="#FF668E"/>
<path d="M41.6214 33.2396C41.4121 33.1184 41.181 33.0398 40.9412 33.0083C40.7015 32.9768 40.4578 32.993 40.2244 33.0561C39.9909 33.1191 39.7722 33.2278 39.5809 33.3757C39.3896 33.5236 39.2295 33.7079 39.1097 33.918C37.9828 35.867 36.363 37.4853 34.4129 38.6104C32.4628 39.7355 30.2511 40.3277 27.9997 40.3277C25.7484 40.3277 23.5366 39.7355 21.5865 38.6104C19.6364 37.4853 18.0166 35.867 16.8897 33.918C16.7693 33.7085 16.6089 33.5248 16.4175 33.3774C16.2261 33.2299 16.0076 33.1216 15.7744 33.0586C15.5411 32.9956 15.2978 32.9792 15.0582 33.0103C14.8186 33.0413 14.5875 33.1193 14.3781 33.2396C14.1686 33.36 13.9849 33.5205 13.8375 33.7118C13.69 33.9032 13.5817 34.1218 13.5187 34.355C13.4557 34.5882 13.4393 34.8316 13.4703 35.0712C13.5014 35.3107 13.5793 35.5419 13.6997 35.7513C15.1465 38.2646 17.2301 40.3522 19.7406 41.8038C22.251 43.2554 25.0998 44.0197 27.9997 44.0197C30.8997 44.0197 33.7484 43.2554 36.2589 41.8038C38.7694 40.3522 40.853 38.2646 42.2997 35.7513C42.4209 35.5421 42.4996 35.3109 42.5311 35.0711C42.5626 34.8314 42.5463 34.5878 42.4833 34.3543C42.4202 34.1208 42.3116 33.9022 42.1637 33.7109C42.0158 33.5196 41.8315 33.3594 41.6214 33.2396Z" fill="#FF668E"/>
</svg>
