<svg width="345" height="259" viewBox="0 0 345 259" fill="none" xmlns="http://www.w3.org/2000/svg">
<path d="M288.312 216.944C316.947 135.822 256.63 44.9844 171.491 44.9844C86.3523 44.9844 26.0354 135.822 54.6706 216.944" stroke="#E9E9E9" stroke-width="2" stroke-linecap="round" stroke-linejoin="round"/>
<g filter="url(#filter0_d_883_4777)">
<path d="M303.814 224.14C303.424 225.171 303.944 226.323 304.975 226.713C306.006 227.102 307.158 226.583 307.548 225.552L303.814 224.14ZM36.5433 225.486C36.8972 226.53 38.0304 227.09 39.0744 226.736C40.1183 226.382 40.6776 225.249 40.3237 224.205L36.5433 225.486ZM40.3237 224.205C40.2708 224.049 40.2182 223.893 40.1659 223.737L36.3817 225.007C36.4353 225.167 36.4892 225.327 36.5433 225.486L40.3237 224.205ZM37.3193 214.349C37.2333 214.032 37.1483 213.714 37.0643 213.397L33.2054 214.419C33.2915 214.744 33.3785 215.068 33.4666 215.393L37.3193 214.349ZM34.8398 203.846C34.775 203.524 34.7113 203.203 34.6486 202.882L30.7308 203.646C30.795 203.975 30.8603 204.305 30.9266 204.634L34.8398 203.846ZM33.063 193.206C33.0199 192.882 32.9779 192.558 32.9369 192.234L28.9767 192.735C29.0188 193.067 29.0619 193.4 29.106 193.732L33.063 193.206ZM32.0033 182.476C31.9822 182.151 31.9621 181.825 31.943 181.5L27.9581 181.733C27.9776 182.067 27.9982 182.401 28.0199 182.735L32.0033 182.476ZM31.671 171.704C31.672 171.378 31.674 171.052 31.6771 170.727L27.6855 170.69C27.6824 171.023 27.6803 171.357 27.6792 171.691L31.671 171.704ZM32.0732 160.931C32.0966 160.604 32.1211 160.278 32.1466 159.951L28.1669 159.641C28.1408 159.976 28.1157 160.311 28.0917 160.646L32.0732 160.931ZM33.2146 150.208C33.2605 149.884 33.3073 149.56 33.3551 149.237L29.4063 148.653C29.3573 148.984 29.3092 149.316 29.2622 149.648L33.2146 150.208ZM35.0948 139.593C35.163 139.274 35.2321 138.955 35.3022 138.636L31.4036 137.779C31.3317 138.106 31.2608 138.433 31.1909 138.761L35.0948 139.593ZM37.7106 129.141C37.8008 128.827 37.8921 128.514 37.9842 128.202L34.1555 127.073C34.0609 127.393 33.9673 127.715 33.8747 128.036L37.7106 129.141ZM41.057 118.899C41.1697 118.592 41.2832 118.285 41.3978 117.979L37.6589 116.58C37.5413 116.895 37.4247 117.21 37.3092 117.525L41.057 118.899ZM45.1267 108.92C45.2609 108.622 45.396 108.325 45.5321 108.028L41.9035 106.364C41.7638 106.669 41.625 106.975 41.4872 107.28L45.1267 108.92ZM49.9053 99.2659C50.0606 98.9789 50.2169 98.6925 50.3741 98.4066L46.8765 96.483C46.715 96.7766 46.5544 97.0708 46.3948 97.3656L49.9053 99.2659ZM55.3773 89.9916C55.5534 89.7169 55.7305 89.4429 55.9084 89.1695L52.5627 86.9921C52.3799 87.2731 52.1979 87.5548 52.0169 87.8371L55.3773 89.9916ZM61.5249 81.1512C61.7213 80.8905 61.9185 80.6304 62.1166 80.371L58.9441 77.9482C58.7405 78.2149 58.5377 78.4822 58.3359 78.7503L61.5249 81.1512ZM68.3223 72.8041C68.5378 72.5592 68.7542 72.315 68.9715 72.0716L65.9935 69.4134C65.7701 69.6638 65.5475 69.9149 65.3258 70.1668L68.3223 72.8041ZM75.7399 65.0061C75.9738 64.7785 76.2086 64.5518 76.4442 64.3259L73.6814 61.4447C73.439 61.6771 73.1974 61.9104 72.9567 62.1446L75.7399 65.0061ZM83.7424 57.8112C83.9929 57.6032 84.2442 57.3961 84.4963 57.1898L81.9685 54.1004C81.709 54.3127 81.4503 54.5259 81.1925 54.74L83.7424 57.8112ZM92.2828 51.2741C92.5492 51.0865 92.8163 50.8999 93.0842 50.7141L90.8096 47.4338C90.5337 47.6251 90.2587 47.8173 89.9845 48.0104L92.2828 51.2741ZM101.317 45.4367C101.598 45.2707 101.88 45.1057 102.162 44.9416L100.157 41.4902C99.8658 41.6592 99.5758 41.8292 99.2865 42.0001L101.317 45.4367ZM110.793 40.3371C111.087 40.1936 111.382 40.0512 111.678 39.9097L109.954 36.3092C109.65 36.4549 109.346 36.6015 109.044 36.7492L110.793 40.3371ZM120.644 36.0091C120.946 35.8905 121.248 35.7728 121.552 35.6562L120.119 31.9305C119.807 32.0505 119.495 32.1716 119.184 32.2937L120.644 36.0091ZM130.798 32.4741C131.109 32.3792 131.421 32.2854 131.733 32.1925L130.596 28.3662C130.274 28.4617 129.954 28.5582 129.634 28.6558L130.798 32.4741ZM141.203 29.7352C141.522 29.6642 141.841 29.5943 142.16 29.5254L141.32 25.6232C140.991 25.694 140.663 25.7659 140.335 25.8389L141.203 29.7352ZM151.795 27.7903C152.12 27.7431 152.444 27.697 152.77 27.6519L152.222 23.6979C151.887 23.7442 151.554 23.7916 151.221 23.8401L151.795 27.7903ZM162.512 26.627C162.84 26.6032 163.169 26.5805 163.498 26.5588L163.236 22.5756C162.898 22.5979 162.561 22.6212 162.224 22.6456L162.512 26.627ZM173.295 26.2232C173.46 26.2227 173.625 26.2224 173.791 26.2224V22.2307C173.621 22.2307 173.452 22.2309 173.282 22.2315L173.295 26.2232ZM173.791 26.2224C173.954 26.2224 174.117 26.2227 174.281 26.2233L174.294 22.2315C174.127 22.231 173.959 22.2307 173.791 22.2307V26.2224ZM183.97 26.5901C184.295 26.6137 184.619 26.6385 184.943 26.6643L185.26 22.6852C184.927 22.6586 184.593 22.6331 184.259 22.6088L183.97 26.5901ZM194.569 27.7769C194.889 27.8256 195.209 27.8754 195.529 27.9263L196.157 23.9842C195.828 23.9318 195.498 23.8805 195.168 23.8304L194.569 27.7769ZM205.032 29.7944C205.347 29.8682 205.661 29.943 205.974 30.019L206.914 26.1395C206.591 26.0612 206.268 25.9841 205.944 25.9081L205.032 29.7944ZM215.294 32.6411C215.6 32.7397 215.907 32.8393 216.212 32.94L217.461 29.1487C217.146 29.0449 216.831 28.9423 216.515 28.8407L215.294 32.6411ZM225.289 36.3039C225.587 36.4268 225.884 36.5508 226.181 36.6758L227.731 32.9974C227.425 32.8686 227.119 32.7409 226.813 32.6143L225.289 36.3039ZM234.965 40.7625C235.253 40.9096 235.54 41.0578 235.827 41.2069L237.668 37.6648C237.372 37.5112 237.076 37.3586 236.779 37.2071L234.965 40.7625ZM244.255 45.9815C244.531 46.1508 244.805 46.3211 245.079 46.4923L247.195 43.1074C246.913 42.9312 246.63 42.7559 246.347 42.5816L244.255 45.9815ZM253.105 51.917C253.366 52.1073 253.626 52.2984 253.886 52.4904L256.26 49.2812C255.993 49.0837 255.725 48.887 255.456 48.6912L253.105 51.917ZM261.47 58.5229C261.715 58.7327 261.96 58.9434 262.204 59.1549L264.818 56.1375C264.567 55.9199 264.315 55.7033 264.062 55.4875L261.47 58.5229ZM269.31 65.7499C269.539 65.9778 269.767 66.2064 269.995 66.4359L272.828 63.624C272.594 63.3881 272.359 63.153 272.124 62.9188L269.31 65.7499ZM276.589 73.5448C276.801 73.7891 277.012 74.0341 277.222 74.2798L280.256 71.6851C280.04 71.4327 279.823 71.1809 279.605 70.9299L276.589 73.5448ZM283.279 81.8555C283.472 82.1146 283.665 82.3745 283.857 82.635L287.071 80.2677C286.874 80.0002 286.676 79.7333 286.477 79.4671L283.279 81.8555ZM289.352 90.6304C289.526 90.9027 289.7 91.1755 289.872 91.4489L293.248 89.318C293.071 89.0373 292.892 88.7572 292.714 88.4777L289.352 90.6304ZM294.784 99.8157C294.939 100.1 295.092 100.384 295.245 100.669L298.763 98.7826C298.606 98.4901 298.448 98.1981 298.29 97.9066L294.784 99.8157ZM299.555 109.363C299.69 109.657 299.823 109.952 299.956 110.247L303.597 108.612C303.461 108.31 303.324 108.007 303.187 107.705L299.555 109.363ZM303.646 119.223C303.76 119.526 303.872 119.83 303.984 120.134L307.731 118.758C307.616 118.446 307.501 118.134 307.384 117.823L303.646 119.223ZM307.038 129.346C307.13 129.656 307.221 129.966 307.311 130.276L311.145 129.166C311.052 128.847 310.959 128.529 310.865 128.211L307.038 129.346ZM309.712 139.678C309.782 139.993 309.851 140.309 309.919 140.625L313.821 139.786C313.752 139.462 313.681 139.137 313.609 138.814L309.712 139.678ZM311.654 150.172C311.701 150.492 311.748 150.812 311.794 151.132L315.746 150.57C315.699 150.241 315.651 149.913 315.602 149.584L311.654 150.172ZM312.849 160.777C312.874 161.1 312.898 161.423 312.921 161.746L316.903 161.466C316.879 161.134 316.855 160.803 316.83 160.471L312.849 160.777ZM313.287 171.442C313.289 171.766 313.289 172.089 313.289 172.412L317.28 172.418C317.281 172.086 317.28 171.754 317.279 171.422L313.287 171.442ZM312.958 182.104C312.936 182.426 312.914 182.748 312.89 183.07L316.871 183.364C316.895 183.033 316.918 182.702 316.941 182.371L312.958 182.104ZM311.859 192.713C311.814 193.033 311.768 193.353 311.721 193.673L315.67 194.254C315.718 193.925 315.766 193.597 315.812 193.268L311.859 192.713ZM309.991 203.215C309.923 203.531 309.854 203.848 309.783 204.164L313.68 205.031C313.752 204.707 313.823 204.382 313.893 204.057L309.991 203.215ZM307.362 213.556C307.271 213.867 307.179 214.178 307.085 214.489L310.908 215.639C311.004 215.319 311.099 215 311.193 214.68L307.362 213.556ZM303.986 223.683C303.929 223.835 303.871 223.988 303.814 224.14L307.548 225.552C307.607 225.395 307.666 225.239 307.724 225.082L303.986 223.683ZM301.947 223.434C301.167 225.496 302.207 227.8 304.269 228.579C306.331 229.359 308.635 228.32 309.415 226.257L301.947 223.434ZM34.6531 226.127C35.361 228.215 37.6274 229.334 39.7152 228.626C41.8031 227.918 42.9218 225.652 42.2139 223.564L34.6531 226.127ZM42.2139 223.564C42.1617 223.41 42.1097 223.256 42.0579 223.102L34.4896 225.643C34.5438 225.804 34.5983 225.966 34.6531 226.127L42.2139 223.564ZM39.2456 213.827C39.1607 213.513 39.0767 213.2 38.9938 212.887L31.276 214.929C31.363 215.258 31.4511 215.587 31.5402 215.916L39.2456 213.827ZM36.7964 203.451C36.7324 203.134 36.6695 202.817 36.6076 202.499L28.7718 204.028C28.8368 204.362 28.9029 204.695 28.97 205.028L36.7964 203.451ZM35.0415 192.943C34.999 192.623 34.9575 192.303 34.9169 191.983L26.9966 192.986C27.0392 193.322 27.0828 193.658 27.1275 193.995L35.0415 192.943ZM33.995 182.347C33.9741 182.026 33.9543 181.704 33.9354 181.383L25.9656 181.85C25.9854 182.188 26.0063 182.526 26.0282 182.864L33.995 182.347ZM33.6669 171.71C33.6679 171.388 33.6699 171.067 33.6729 170.746L25.6897 170.671C25.6865 171.009 25.6844 171.347 25.6834 171.685L33.6669 171.71ZM34.064 161.074C34.0871 160.751 34.1113 160.429 34.1364 160.107L26.177 159.486C26.1506 159.825 26.1252 160.164 26.1009 160.503L34.064 161.074ZM35.1908 150.487C35.2361 150.168 35.2823 149.848 35.3295 149.529L27.432 148.36C27.3823 148.696 27.3336 149.032 27.286 149.369L35.1908 150.487ZM37.0468 140.01C37.1141 139.695 37.1823 139.38 37.2515 139.065L29.4543 137.35C29.3815 137.681 29.3097 138.013 29.2389 138.344L37.0468 140.01ZM39.6286 129.693C39.7176 129.384 39.8076 129.075 39.8986 128.766L32.2411 126.508C32.1453 126.833 32.0505 127.158 31.9568 127.484L39.6286 129.693ZM42.931 119.586C43.0421 119.283 43.1542 118.98 43.2672 118.678L35.7895 115.881C35.6704 116.2 35.5523 116.519 35.4352 116.838L42.931 119.586ZM46.9465 109.74C47.0789 109.446 47.2122 109.152 47.3465 108.86L40.0892 105.533C39.9476 105.841 39.807 106.151 39.6675 106.461L46.9465 109.74ZM51.6605 100.216C51.8137 99.9329 51.9679 99.6504 52.123 99.3685L45.1276 95.5211C44.964 95.8186 44.8013 96.1168 44.6396 96.4155L51.6605 100.216ZM57.0575 91.0689C57.2312 90.798 57.4058 90.5277 57.5812 90.2581L50.8899 85.9035C50.7046 86.1883 50.5202 86.4737 50.3367 86.7598L57.0575 91.0689ZM63.1195 82.3517C63.313 82.0946 63.5075 81.8381 63.7028 81.5824L57.3579 76.7368C57.1515 77.0071 56.946 77.2781 56.7414 77.5499L63.1195 82.3517ZM69.8206 74.1227C70.033 73.8813 70.2463 73.6406 70.4605 73.4007L64.5046 68.0843C64.278 68.3382 64.0523 68.5928 63.8275 68.8482L69.8206 74.1227ZM77.1314 66.4368C77.362 66.2126 77.5934 65.9891 77.8255 65.7665L72.3 60.0041C72.0542 60.2398 71.8092 60.4764 71.5651 60.7138L77.1314 66.4368ZM85.0174 59.3468C85.2642 59.1418 85.5118 58.9377 85.7602 58.7345L80.7046 52.5557C80.4414 52.771 80.179 52.9872 79.9175 53.2044L85.0174 59.3468ZM93.432 52.906C93.6945 52.7212 93.9576 52.5373 94.2216 52.3542L89.6722 45.7937C89.3924 45.9877 89.1135 46.1827 88.8353 46.3786L93.432 52.906ZM102.333 47.1551C102.609 46.9915 102.887 46.8289 103.165 46.6672L99.1538 39.7646C98.8588 39.936 98.5646 40.1084 98.2712 40.2818L102.333 47.1551ZM111.668 42.131C111.958 41.9897 112.248 41.8493 112.539 41.7099L109.092 34.509C108.784 34.6567 108.476 34.8055 108.169 34.9553L111.668 42.131ZM121.374 37.8668C121.671 37.7499 121.969 37.634 122.268 37.5191L119.402 30.0676C119.086 30.1894 118.77 30.3122 118.455 30.436L121.374 37.8668ZM131.38 34.3832C131.687 34.2897 131.994 34.1972 132.302 34.1057L130.027 26.453C129.701 26.5499 129.376 26.6478 129.052 26.7467L131.38 34.3832ZM141.637 31.6833C141.951 31.6133 142.266 31.5444 142.581 31.4765L140.899 23.6721C140.566 23.7439 140.233 23.8167 139.901 23.8907L141.637 31.6833ZM152.083 29.7654C152.402 29.7189 152.723 29.6734 153.044 29.6289L151.948 21.7209C151.609 21.7679 151.271 21.8159 150.933 21.865L152.083 29.7654ZM162.656 28.6177C162.98 28.5942 163.305 28.5718 163.63 28.5503L163.105 20.5841C162.763 20.6066 162.421 20.6303 162.08 20.655L162.656 28.6177ZM173.301 28.2191C173.464 28.2186 173.627 28.2183 173.791 28.2183V20.2348C173.619 20.2348 173.447 20.2351 173.276 20.2356L173.301 28.2191ZM173.791 28.2183C173.952 28.2183 174.113 28.2186 174.274 28.2192L174.301 20.2357C174.131 20.2351 173.961 20.2348 173.791 20.2348V28.2183ZM183.825 28.5807C184.145 28.604 184.465 28.6284 184.784 28.6539L185.419 20.6956C185.081 20.6687 184.743 20.6428 184.404 20.6182L183.825 28.5807ZM194.269 29.7502C194.585 29.7981 194.9 29.8472 195.215 29.8974L196.471 22.0132C196.137 21.96 195.803 21.908 195.468 21.8572L194.269 29.7502ZM204.576 31.7375C204.886 31.8102 205.195 31.884 205.504 31.9588L207.384 24.1997C207.056 24.1203 206.728 24.0421 206.399 23.965L204.576 31.7375ZM214.683 34.5413C214.985 34.6384 215.287 34.7365 215.588 34.8357L218.086 27.253C217.766 27.1477 217.446 27.0435 217.125 26.9405L214.683 34.5413ZM224.527 38.1487C224.821 38.2698 225.113 38.3919 225.405 38.515L228.506 31.1582C228.196 31.0276 227.886 30.898 227.574 30.7695L224.527 38.1487ZM234.057 42.5402C234.341 42.6851 234.624 42.831 234.907 42.9779L238.588 35.8937C238.288 35.7379 237.988 35.5831 237.687 35.4294L234.057 42.5402ZM243.21 47.6815C243.481 47.8483 243.751 48.016 244.021 48.1847L248.253 41.415C247.967 41.2362 247.68 41.0584 247.393 40.8816L243.21 47.6815ZM251.93 53.53C252.187 53.7174 252.443 53.9057 252.699 54.095L257.447 47.6767C257.176 47.4763 256.904 47.2768 256.632 47.0783L251.93 53.53ZM260.173 60.0406C260.416 60.2474 260.657 60.4551 260.898 60.6636L266.124 54.6288C265.87 54.4082 265.614 54.1885 265.358 53.9697L260.173 60.0406ZM267.903 67.1654C268.129 67.3901 268.354 67.6156 268.579 67.8418L274.245 62.218C274.008 61.9789 273.77 61.7407 273.531 61.5032L267.903 67.1654ZM275.081 74.8522C275.29 75.0932 275.498 75.3348 275.706 75.5771L281.772 70.3878C281.554 70.132 281.334 69.8769 281.113 69.6225L275.081 74.8522ZM281.679 83.0496C281.87 83.3053 282.06 83.5616 282.25 83.8186L288.678 79.0841C288.478 78.813 288.278 78.5427 288.076 78.273L281.679 83.0496ZM287.671 91.7068C287.843 91.9754 288.014 92.2446 288.185 92.5144L294.936 88.2526C294.756 87.9682 294.576 87.6845 294.394 87.4013L287.671 91.7068ZM293.031 100.77C293.184 101.05 293.336 101.331 293.486 101.612L300.522 97.8394C300.363 97.5431 300.203 97.2473 300.043 96.9521L293.031 100.77ZM297.74 110.192C297.872 110.482 298.004 110.773 298.135 111.065L305.418 107.795C305.28 107.488 305.142 107.182 305.002 106.876L297.74 110.192ZM301.777 119.923C301.889 120.222 302 120.521 302.11 120.821L309.605 118.07C309.489 117.754 309.372 117.438 309.254 117.123L301.777 119.923ZM305.124 129.914C305.215 130.219 305.305 130.525 305.393 130.832L313.062 128.611C312.968 128.288 312.874 127.966 312.778 127.644L305.124 129.914ZM307.763 140.11C307.832 140.421 307.9 140.733 307.968 141.045L315.773 139.366C315.702 139.038 315.63 138.71 315.558 138.381L307.763 140.11ZM309.68 150.465C309.727 150.781 309.773 151.097 309.818 151.413L317.722 150.289C317.674 149.956 317.626 149.623 317.576 149.29L309.68 150.465ZM310.859 160.93C310.884 161.249 310.907 161.567 310.93 161.886L318.894 161.326C318.87 160.99 318.845 160.654 318.82 160.318L310.859 160.93ZM311.291 171.453C311.293 171.771 311.293 172.09 311.293 172.409L319.276 172.42C319.277 172.084 319.276 171.748 319.274 171.411L311.291 171.453ZM310.966 181.971C310.945 182.288 310.923 182.606 310.899 182.924L318.861 183.51C318.886 183.175 318.91 182.84 318.932 182.505L310.966 181.971ZM309.882 192.435C309.838 192.751 309.793 193.066 309.746 193.382L317.645 194.545C317.694 194.212 317.742 193.879 317.788 193.546L309.882 192.435ZM308.04 202.794C307.973 203.106 307.905 203.418 307.835 203.73L315.628 205.465C315.701 205.136 315.773 204.807 315.844 204.478L308.04 202.794ZM305.447 212.994C305.357 213.301 305.266 213.608 305.174 213.915L312.819 216.214C312.917 215.89 313.013 215.566 313.108 215.242L305.447 212.994ZM302.116 222.983C302.06 223.134 302.004 223.284 301.947 223.434L309.415 226.257C309.474 226.099 309.534 225.941 309.593 225.782L302.116 222.983Z" fill="#003A5D" fill-opacity="0.3"/>
</g>
<path d="M22.9659 226.086C22.2267 226.086 21.6376 225.878 21.1985 225.461C20.7668 225.036 20.5509 224.469 20.5509 223.759V220.51C20.5509 219.8 20.7668 219.236 21.1985 218.819C21.6376 218.402 22.2267 218.194 22.9659 218.194C23.705 218.194 24.2942 218.402 24.7332 218.819C25.1797 219.236 25.4029 219.8 25.4029 220.51V223.759C25.4029 224.469 25.1797 225.036 24.7332 225.461C24.2942 225.878 23.705 226.086 22.9659 226.086ZM22.9659 225.175C23.3903 225.175 23.727 225.054 23.9758 224.813C24.2246 224.564 24.349 224.235 24.349 223.825V220.466C24.349 220.056 24.2246 219.73 23.9758 219.489C23.727 219.24 23.3903 219.116 22.9659 219.116C22.5561 219.116 22.2267 219.24 21.9779 219.489C21.7291 219.73 21.6047 220.056 21.6047 220.466V223.825C21.6047 224.235 21.7291 224.564 21.9779 224.813C22.2267 225.054 22.5561 225.175 22.9659 225.175Z" fill="white" fill-opacity="0.5"/>
<rect width="25.3696" height="15.3895" rx="7.69474" transform="matrix(0.916099 0.400951 -0.378682 0.925527 213.544 19.7656)" fill="white"/>
<path d="M216.33 35.6239C215.702 35.3499 215.222 35.0029 214.888 34.583C214.555 34.1631 214.337 33.6994 214.236 33.192C214.135 32.6846 214.124 32.1643 214.202 31.6311C214.288 31.1014 214.435 30.584 214.642 30.0788C215.026 29.1406 215.491 28.3839 216.036 27.8088C216.584 27.2256 217.181 26.8531 217.828 26.6914C218.478 26.5215 219.153 26.5893 219.852 26.8946C220.424 27.1444 220.86 27.4723 221.162 27.8783C221.475 28.2798 221.667 28.7135 221.738 29.1795C221.81 29.6455 221.778 30.0997 221.643 30.542L220.226 29.9228C220.305 29.5227 220.267 29.1703 220.111 28.8658C219.955 28.5612 219.69 28.3274 219.317 28.1644C218.785 27.9319 218.254 27.9932 217.725 28.3481C217.199 28.695 216.717 29.3685 216.279 30.3684C216.604 30.1229 217.002 29.9752 217.472 29.9252C217.942 29.8752 218.411 29.9526 218.88 30.1573C219.34 30.3585 219.727 30.6598 220.04 31.0613C220.353 31.4627 220.549 31.9217 220.627 32.4382C220.714 32.9582 220.644 33.4949 220.417 34.0482C220.21 34.5534 219.894 34.9687 219.471 35.2942C219.055 35.6231 218.57 35.8228 218.017 35.8931C217.472 35.9669 216.909 35.8772 216.33 35.6239ZM216.789 34.2644C217.233 34.4587 217.654 34.4819 218.052 34.3342C218.461 34.1819 218.753 33.8932 218.927 33.4682C219.111 33.0192 219.112 32.5941 218.93 32.1931C218.748 31.7921 218.43 31.4927 217.978 31.295C217.684 31.1666 217.39 31.1186 217.096 31.1508C216.813 31.1785 216.558 31.2751 216.331 31.4407C216.107 31.5982 215.939 31.8133 215.827 32.0859C215.65 32.519 215.651 32.94 215.829 33.349C216.016 33.7615 216.336 34.0666 216.789 34.2644ZM224.166 39.047C223.395 38.7105 222.81 38.2421 222.41 37.6419C222.013 37.0336 221.797 36.3388 221.762 35.5575C221.737 34.7716 221.903 33.9456 222.258 33.0795C222.609 32.2215 223.067 31.5279 223.63 30.9987C224.202 30.473 224.835 30.1494 225.531 30.0279C226.23 29.8985 226.965 30.002 227.736 30.3385C228.506 30.675 229.089 31.1474 229.486 31.7557C229.886 32.3559 230.098 33.049 230.123 33.8349C230.155 34.6243 229.995 35.448 229.643 36.306C229.288 37.172 228.825 37.8679 228.254 38.3936C227.694 38.9148 227.064 39.2401 226.365 39.3696C225.669 39.4911 224.936 39.3836 224.166 39.047ZM224.733 37.6638C225.36 37.9378 225.981 37.897 226.595 37.5412C227.209 37.1854 227.705 36.5464 228.083 35.6243C228.461 34.7021 228.56 33.8897 228.38 33.1869C228.2 32.4842 227.796 31.9958 227.168 31.7218C226.533 31.4442 225.908 31.4833 225.294 31.8391C224.688 32.1984 224.196 32.8391 223.818 33.7613C223.44 34.6834 223.337 35.4941 223.509 36.1934C223.69 36.8961 224.097 37.3862 224.733 37.6638Z" fill="#2E2E2E"/>
<rect width="26.8462" height="15.0514" rx="7.52568" transform="matrix(0.376429 0.926446 -0.917673 0.397336 302.56 93.2422)" fill="white"/>
<path d="M297.365 105.525C297.13 104.947 297.018 104.382 297.027 103.83C297.045 103.275 297.184 102.776 297.443 102.333C297.706 101.898 298.084 101.574 298.577 101.36C299.086 101.14 299.585 101.08 300.075 101.179C300.567 101.287 300.987 101.526 301.333 101.895C301.344 101.437 301.458 101.029 301.677 100.67C301.904 100.307 302.212 100.041 302.602 99.8726C303 99.7004 303.41 99.6504 303.832 99.7226C304.262 99.7913 304.667 99.9937 305.046 100.33C305.429 100.674 305.748 101.159 306.002 101.785C306.257 102.411 306.367 102.982 306.333 103.497C306.299 104.012 306.156 104.452 305.902 104.817C305.656 105.179 305.334 105.445 304.936 105.618C304.555 105.783 304.153 105.82 303.733 105.728C303.323 105.641 302.962 105.443 302.65 105.135C302.665 105.657 302.536 106.133 302.262 106.563C301.988 106.993 301.597 107.318 301.088 107.539C300.594 107.752 300.106 107.804 299.621 107.692C299.136 107.581 298.694 107.334 298.295 106.949C297.907 106.57 297.597 106.095 297.365 105.525ZM302.447 103.324C302.617 103.742 302.858 104.025 303.171 104.173C303.483 104.32 303.807 104.322 304.141 104.177C304.507 104.019 304.744 103.775 304.853 103.444C304.965 103.122 304.935 102.748 304.762 102.322C304.586 101.889 304.347 101.6 304.045 101.457C303.744 101.314 303.41 101.321 303.045 101.48C302.703 101.628 302.472 101.865 302.351 102.191C302.242 102.521 302.274 102.899 302.447 103.324ZM298.642 104.972C298.851 105.486 299.132 105.822 299.486 105.98C299.848 106.135 300.22 106.13 300.602 105.965C301.024 105.782 301.297 105.499 301.421 105.114C301.549 104.738 301.513 104.305 301.314 103.815C301.115 103.325 300.838 102.988 300.481 102.802C300.129 102.624 299.742 102.627 299.32 102.809C298.938 102.974 298.674 103.245 298.527 103.62C298.392 103.999 298.43 104.45 298.642 104.972ZM300.639 113.581C300.322 112.802 300.23 112.058 300.363 111.349C300.504 110.637 300.834 109.989 301.355 109.405C301.886 108.825 302.581 108.35 303.44 107.978C304.291 107.609 305.103 107.432 305.876 107.447C306.652 107.47 307.332 107.681 307.915 108.08C308.506 108.475 308.959 109.063 309.276 109.841C309.592 110.62 309.68 111.366 309.539 112.078C309.407 112.787 309.074 113.431 308.543 114.011C308.015 114.598 307.325 115.076 306.474 115.445C305.615 115.817 304.798 115.991 304.022 115.969C303.257 115.95 302.579 115.744 301.988 115.348C301.405 114.949 300.955 114.36 300.639 113.581ZM302.011 112.987C302.268 113.621 302.741 114.026 303.429 114.2C304.117 114.374 304.919 114.263 305.833 113.867C306.748 113.471 307.386 112.959 307.748 112.33C308.11 111.701 308.162 111.07 307.904 110.435C307.643 109.793 307.168 109.385 306.48 109.211C305.796 109.044 304.996 109.159 304.081 109.555C303.167 109.951 302.527 110.46 302.162 111.08C301.8 111.709 301.75 112.345 302.011 112.987Z" fill="#2E2E2E"/>
<rect width="36.8483" height="15.0289" rx="7.51444" transform="matrix(-0.312952 0.949769 -0.943526 -0.331299 322.778 198.469)" fill="white"/>
<path d="M307.889 205.744L314.684 208.13L314.821 206.594L316.023 207.016L316.255 209.425L315.934 210.401L307.348 207.386L307.889 205.744ZM305.481 212.554C305.744 211.755 306.153 211.137 306.708 210.698C307.272 210.262 307.936 210.004 308.701 209.924C309.472 209.855 310.299 209.975 311.182 210.285C312.057 210.592 312.78 211.016 313.35 211.556C313.918 212.104 314.292 212.727 314.473 213.424C314.662 214.124 314.625 214.873 314.361 215.672C314.098 216.47 313.685 217.087 313.122 217.523C312.567 217.962 311.904 218.216 311.133 218.285C310.359 218.362 309.535 218.247 308.66 217.94C307.777 217.63 307.052 217.201 306.484 216.653C305.922 216.116 305.547 215.497 305.358 214.797C305.177 214.1 305.218 213.352 305.481 212.554ZM306.892 213.049C306.677 213.699 306.772 214.325 307.176 214.926C307.58 215.527 308.253 215.993 309.193 216.323C310.133 216.653 310.941 216.707 311.617 216.485C312.292 216.263 312.737 215.827 312.951 215.176C313.168 214.518 313.074 213.888 312.67 213.287C312.263 212.694 311.59 212.233 310.649 211.903C309.709 211.572 308.903 211.514 308.23 211.728C307.555 211.95 307.109 212.39 306.892 213.049ZM302.593 221.319C302.856 220.521 303.265 219.902 303.82 219.464C304.383 219.028 305.048 218.77 305.813 218.69C306.584 218.62 307.411 218.741 308.294 219.051C309.169 219.358 309.892 219.782 310.462 220.322C311.029 220.87 311.403 221.493 311.584 222.19C311.773 222.89 311.736 223.639 311.473 224.438C311.21 225.236 310.797 225.853 310.234 226.289C309.678 226.728 309.015 226.982 308.245 227.051C307.471 227.128 306.647 227.013 305.772 226.706C304.889 226.396 304.163 225.967 303.596 225.419C303.034 224.882 302.658 224.263 302.469 223.563C302.288 222.866 302.33 222.118 302.593 221.319ZM304.003 221.815C303.789 222.465 303.884 223.091 304.288 223.692C304.692 224.293 305.364 224.758 306.305 225.089C307.245 225.419 308.053 225.473 308.728 225.251C309.403 225.029 309.848 224.593 310.063 223.942C310.279 223.284 310.186 222.654 309.782 222.053C309.375 221.46 308.701 220.999 307.761 220.668C306.821 220.338 306.014 220.28 305.342 220.494C304.666 220.716 304.22 221.156 304.003 221.815Z" fill="#2E2E2E"/>
<rect width="29.1567" height="15.3653" rx="7.68266" transform="matrix(0.887553 -0.460705 0.437914 0.899017 94.0034 37.0625)" fill="white"/>
<path d="M107.964 43.1176L107.224 41.5983L103.243 43.6645L102.662 42.4724L103.783 35.0383L105.456 34.1699L108.069 39.5344L109.13 38.9834L109.762 40.2806L108.701 40.8316L109.441 42.351L107.964 43.1176ZM104.192 41.5467L106.684 40.2531L104.874 36.5365L104.192 41.5467ZM115.043 39.6187C114.297 40.006 113.573 40.1621 112.871 40.0869C112.166 40.004 111.514 39.7229 110.914 39.2435C110.318 38.7523 109.815 38.086 109.405 37.2445C108.999 36.4108 108.783 35.6007 108.756 34.8141C108.737 34.0234 108.908 33.3151 109.268 32.6889C109.624 32.055 110.175 31.5444 110.921 31.1571C111.667 30.7698 112.393 30.6176 113.099 30.7005C113.8 30.7757 114.449 31.0588 115.045 31.55C115.648 32.0371 116.153 32.6976 116.559 33.5313C116.969 34.3727 117.183 35.1888 117.202 35.9794C117.225 36.7583 117.058 37.4646 116.702 38.0985C116.342 38.7247 115.789 39.2314 115.043 39.6187ZM114.388 38.2746C114.996 37.9592 115.367 37.4446 115.501 36.7307C115.635 36.0168 115.484 35.2119 115.047 34.3158C114.611 33.4198 114.075 32.8145 113.44 32.4999C112.805 32.1853 112.184 32.1857 111.576 32.5012C110.961 32.8206 110.586 33.3372 110.452 34.0511C110.325 34.761 110.48 35.5639 110.917 36.46C111.353 37.356 111.885 37.9633 112.513 38.2819C113.148 38.5965 113.773 38.5941 114.388 38.2746Z" fill="#2E2E2E"/>
<rect width="20.0995" height="15.0719" rx="7.53595" transform="matrix(0.426586 -0.904447 0.893493 0.449078 31.5918 118.5)" fill="white"/>
<path d="M41.7395 121.526L40.6593 120.983C40.4855 120.275 40.3082 119.585 40.1274 118.912C39.9502 118.231 39.7511 117.608 39.5299 117.041C39.3124 116.466 39.0696 115.976 38.8014 115.569C38.5292 115.151 38.215 114.853 37.8588 114.674C37.5258 114.506 37.1872 114.453 36.8429 114.512C36.5024 114.564 36.2323 114.802 36.0326 115.225C35.8293 115.656 35.8152 116.051 35.9905 116.411C36.1657 116.771 36.4508 117.05 36.8457 117.248L36.1581 118.706C35.5692 118.391 35.1365 118.008 34.8599 117.559C34.5755 117.106 34.4345 116.623 34.4369 116.11C34.4315 115.593 34.5508 115.076 34.7948 114.559C35.1904 113.72 35.7257 113.185 36.4007 112.952C37.0716 112.707 37.7672 112.766 38.4873 113.128C38.9365 113.354 39.3241 113.679 39.6501 114.105C39.9799 114.523 40.2628 115 40.4987 115.535C40.7347 116.071 40.9344 116.622 41.0981 117.189C41.2539 117.752 41.3921 118.292 41.5126 118.808L43.1929 115.246L44.4125 115.859L41.7395 121.526ZM46.7059 111.362C46.3473 112.122 45.8662 112.685 45.2626 113.051C44.6513 113.413 43.9618 113.585 43.1941 113.568C42.4223 113.539 41.6183 113.314 40.782 112.893C39.9534 112.477 39.29 111.964 38.7918 111.355C38.2973 110.738 38.0034 110.072 37.9101 109.356C37.8089 108.636 37.9377 107.896 38.2963 107.135C38.6549 106.375 39.1399 105.814 39.7512 105.452C40.3548 105.086 41.0424 104.918 41.8142 104.947C42.5897 104.968 43.3917 105.187 44.2202 105.604C45.0565 106.024 45.7219 106.543 46.2164 107.16C46.7069 107.765 47.0026 108.427 47.1038 109.147C47.1971 109.863 47.0645 110.602 46.7059 111.362ZM45.3701 110.691C45.6622 110.071 45.6451 109.437 45.3189 108.788C44.9926 108.14 44.3843 107.591 43.4938 107.144C42.6032 106.696 41.81 106.54 41.1141 106.675C40.4182 106.81 39.9242 107.187 39.6321 107.807C39.3363 108.434 39.3516 109.072 39.6778 109.72C40.0077 110.361 40.6179 110.906 41.5084 111.353C42.3989 111.801 43.1903 111.961 43.8826 111.834C44.5785 111.699 45.0743 111.318 45.3701 110.691Z" fill="#2E2E2E"/>
<rect width="24.891" height="15.0325" rx="7.51625" transform="matrix(-0.323978 -0.946065 0.939404 -0.342811 37.6272 233.883)" fill="white"/>
<path d="M41.4684 217.619C41.7407 218.414 41.7906 219.161 41.618 219.861C41.4372 220.563 41.0704 221.191 40.5176 221.743C39.9539 222.29 39.2324 222.724 38.3532 223.045C37.482 223.363 36.6607 223.492 35.8892 223.432C35.1149 223.364 34.4477 223.114 33.8876 222.682C33.3193 222.253 32.899 221.641 32.6267 220.845C32.3543 220.05 32.3085 219.301 32.4893 218.599C32.6619 217.899 33.0301 217.276 33.5938 216.729C34.1547 216.174 34.8708 215.737 35.7419 215.419C36.6212 215.098 37.448 214.972 38.2223 215.04C38.9856 215.103 39.6514 215.349 40.2197 215.778C40.7798 216.21 41.196 216.823 41.4684 217.619ZM40.064 218.131C39.8421 217.483 39.3924 217.053 38.7146 216.839C38.0369 216.625 37.2299 216.689 36.2936 217.031C35.3574 217.372 34.6907 217.846 34.2938 218.452C33.8968 219.058 33.8093 219.685 34.0311 220.333C34.2557 220.989 34.7069 221.424 35.3846 221.637C36.0595 221.843 36.8651 221.775 37.8014 221.433C38.7377 221.092 39.4057 220.622 39.8055 220.024C40.2024 219.418 40.2886 218.787 40.064 218.131Z" fill="#2E2E2E"/>
<defs>
<filter id="filter0_d_883_4777" x="0.734768" y="0.27551" width="343.49" height="258.499" filterUnits="userSpaceOnUse" color-interpolation-filters="sRGB">
<feFlood flood-opacity="0" result="BackgroundImageFix"/>
<feColorMatrix in="SourceAlpha" type="matrix" values="0 0 0 0 0 0 0 0 0 0 0 0 0 0 0 0 0 0 127 0" result="hardAlpha"/>
<feOffset dy="4.98972"/>
<feGaussianBlur stdDeviation="12.4743"/>
<feComposite in2="hardAlpha" operator="out"/>
<feColorMatrix type="matrix" values="0 0 0 0 0 0 0 0 0 0 0 0 0 0 0 0 0 0 0.1 0"/>
<feBlend mode="normal" in2="BackgroundImageFix" result="effect1_dropShadow_883_4777"/>
<feBlend mode="normal" in="SourceGraphic" in2="effect1_dropShadow_883_4777" result="shape"/>
</filter>
</defs>
</svg>
