<svg width="152" height="26" viewBox="0 0 152 26" fill="none" xmlns="http://www.w3.org/2000/svg">
<path d="M12.5245 1.46353C12.6741 1.00287 13.3259 1.00287 13.4755 1.46353L15.8064 8.63729C15.8734 8.8433 16.0653 8.98278 16.282 8.98278H23.8249C24.3093 8.98278 24.5106 9.60259 24.1188 9.88729L18.0164 14.3209C17.8412 14.4482 17.7678 14.6739 17.8348 14.8799L20.1657 22.0537C20.3154 22.5143 19.7881 22.8974 19.3963 22.6127L13.2939 18.1791C13.1186 18.0518 12.8814 18.0518 12.7061 18.1791L6.60374 22.6127C6.21189 22.8974 5.68464 22.5143 5.83432 22.0537L8.16522 14.8799C8.23215 14.6739 8.15882 14.4482 7.98358 14.3209L1.88122 9.88729C1.48936 9.60259 1.69075 8.98278 2.17511 8.98278H9.71805C9.93466 8.98278 10.1266 8.8433 10.1936 8.63729L12.5245 1.46353Z" fill="#00DDA8"/>
<path d="M43.9415 1.46353C44.0911 1.00287 44.7428 1.00287 44.8925 1.46353L47.2234 8.63729C47.2904 8.8433 47.4823 8.98278 47.6989 8.98278H55.2419C55.7262 8.98278 55.9276 9.60259 55.5358 9.88729L49.4334 14.3209C49.2582 14.4482 49.1848 14.6739 49.2518 14.8799L51.5827 22.0537C51.7323 22.5143 51.2051 22.8974 50.8133 22.6127L44.7109 18.1791C44.5356 18.0518 44.2983 18.0518 44.1231 18.1791L38.0207 22.6127C37.6289 22.8974 37.1016 22.5143 37.2513 22.0537L39.5822 14.8799C39.6491 14.6739 39.5758 14.4482 39.4006 14.3209L33.2982 9.88729C32.9064 9.60259 33.1077 8.98278 33.5921 8.98278H41.135C41.3517 8.98278 41.5436 8.8433 41.6106 8.63729L43.9415 1.46353Z" fill="#00DDA8"/>
<path d="M75.3575 1.46353C75.5072 1.00287 76.1589 1.00287 76.3085 1.46353L78.6394 8.63729C78.7064 8.8433 78.8983 8.98278 79.115 8.98278H86.6579C87.1423 8.98278 87.3437 9.60259 86.9518 9.88729L80.8494 14.3209C80.6742 14.4482 80.6009 14.6739 80.6678 14.8799L82.9987 22.0537C83.1484 22.5143 82.6211 22.8974 82.2293 22.6127L76.1269 18.1791C75.9517 18.0518 75.7144 18.0518 75.5391 18.1791L69.4368 22.6127C69.0449 22.8974 68.5177 22.5143 68.6673 22.0537L70.9982 14.8799C71.0652 14.6739 70.9918 14.4482 70.8166 14.3209L64.7142 9.88729C64.3224 9.60259 64.5238 8.98278 65.0081 8.98278H72.5511C72.7677 8.98278 72.9596 8.8433 73.0266 8.63729L75.3575 1.46353Z" fill="#00DDA8"/>
<path d="M106.774 1.46353C106.924 1.00287 107.576 1.00287 107.726 1.46353L110.056 8.63729C110.123 8.8433 110.315 8.98278 110.532 8.98278H118.075C118.559 8.98278 118.761 9.60259 118.369 9.88729L112.266 14.3209C112.091 14.4482 112.018 14.6739 112.085 14.8799L114.416 22.0537C114.565 22.5143 114.038 22.8974 113.646 22.6127L107.544 18.1791C107.369 18.0518 107.131 18.0518 106.956 18.1791L100.854 22.6127C100.462 22.8974 99.9346 22.5143 100.084 22.0537L102.415 14.8799C102.482 14.6739 102.409 14.4482 102.234 14.3209L96.1312 9.88729C95.7394 9.60259 95.9407 8.98278 96.4251 8.98278H103.968C104.185 8.98278 104.377 8.8433 104.444 8.63729L106.774 1.46353Z" fill="#00DDA8"/>
<path d="M138.191 1.46353C138.341 1.00287 138.993 1.00287 139.143 1.46353L141.473 8.63729C141.54 8.8433 141.732 8.98278 141.949 8.98278H149.492C149.976 8.98278 150.178 9.60259 149.786 9.88729L143.683 14.3209C143.508 14.4482 143.435 14.6739 143.502 14.8799L145.833 22.0537C145.982 22.5143 145.455 22.8974 145.063 22.6127L138.961 18.1791C138.786 18.0518 138.548 18.0518 138.373 18.1791L132.271 22.6127C131.879 22.8974 131.352 22.5143 131.501 22.0537L133.832 14.8799C133.899 14.6739 133.826 14.4482 133.651 14.3209L127.548 9.88729C127.156 9.60259 127.358 8.98278 127.842 8.98278H135.385C135.602 8.98278 135.794 8.8433 135.861 8.63729L138.191 1.46353Z" fill="#08000C" fill-opacity="0.2"/>
<path d="M132.271 22.6127L138.461 18.1153C138.591 18.0212 138.667 17.8708 138.667 17.7108V0L135.861 8.63729C135.794 8.8433 135.602 8.98278 135.385 8.98278H127.843C127.358 8.98278 127.157 9.60259 127.549 9.88729L133.651 14.3209C133.826 14.4482 133.9 14.6739 133.833 14.8799L131.502 22.0537C131.352 22.5143 131.879 22.8974 132.271 22.6127Z" fill="#00DDA8"/>
</svg>
