<svg width="40" height="40" viewBox="0 0 40 40" fill="none" xmlns="http://www.w3.org/2000/svg">
<path d="M19.7295 38.45C30.0735 38.45 38.459 30.0665 38.459 19.725C38.459 9.38347 30.0735 1 19.7295 1C9.38548 1 1 9.38347 1 19.725C1 30.0665 9.38548 38.45 19.7295 38.45Z" stroke="#7352D1" stroke-width="2" stroke-linecap="round" stroke-linejoin="round"/>
<path d="M12.2383 24.47C12.2383 24.47 15.0477 28.2146 19.7301 28.2146C24.4125 28.2146 27.2219 24.47 27.2219 24.47" stroke="#7352D1" stroke-width="2" stroke-linecap="round" stroke-linejoin="round"/>
<path d="M24 14.9966C24 14.9966 24.75 15.9964 26 15.9964C27.25 15.9964 28 14.9966 28 14.9966" stroke="#7352D1" stroke-width="2" stroke-linecap="round" stroke-linejoin="round"/>
<path d="M11 14.9966C11 14.9966 11.75 15.9964 13 15.9964C14.25 15.9964 15 14.9966 15 14.9966" stroke="#7352D1" stroke-width="2" stroke-linecap="round" stroke-linejoin="round"/>
</svg>
