<svg width="43" height="48" viewBox="0 0 43 48" fill="none" xmlns="http://www.w3.org/2000/svg">
<path d="M8.1095 30.5385L14.5 37L20.8905 30.5385C21.6009 29.8202 22 28.846 22 27.8302C22 25.7148 20.304 24 18.2119 24C17.2073 24 16.2438 24.4035 15.5334 25.1218L14.5 26.1667L13.4666 25.1218C12.7562 24.4035 11.7927 24 10.7881 24C8.69598 24 7 25.7148 7 27.8302C7 28.846 7.3991 29.8202 8.1095 30.5385Z" stroke="#7352D1" stroke-width="2" stroke-linecap="round" stroke-linejoin="round"/>
<path d="M8 13.891C8 12.0318 6.22551 10.5247 4.36634 10.5247C2.50716 10.5247 1 12.0318 1 13.891V30.2672C1 33.5676 3.59531 46.9405 15.0594 46.9405C28.5248 46.9405 37.0396 32.155 41 23.3761C39.8119 22.056 36.7624 20.089 34.0693 22.7821C31.3762 25.4752 29.3828 28.6567 28.5248 29.9108" stroke="#7352D1" stroke-width="2" stroke-linecap="round"/>
<path d="M14.5 19V8.26027C14.5 6.45967 13.5 5 11 5C9.067 5 8 6.45967 8 8.26027V19" stroke="#7352D1" stroke-width="2" stroke-linecap="round"/>
<path d="M21.594 18.8218V4.36634C21.594 2.50716 20.0868 1 18.2277 1C16.3685 1 14.5 2.50716 14.5 4.36634V18.8218" stroke="#7352D1" stroke-width="2" stroke-linecap="round"/>
<path d="M21.5941 7.53455C21.5941 5.67537 23.1013 4.16821 24.9605 4.16821C26.8196 4.16821 28.3268 5.67537 28.3268 7.53455V30.1088" stroke="#7352D1" stroke-width="2" stroke-linecap="round"/>
</svg>
