<svg width="53" height="51" viewBox="0 0 53 51" fill="none" xmlns="http://www.w3.org/2000/svg">
<path d="M14.1707 50L17.5961 46.5578C18.3726 45.7776 18.3726 44.5166 17.5961 43.7363L5.34449 31.4246C4.56266 30.639 3.29099 30.639 2.50916 31.4246L1 32.9412" stroke="#7352D1" stroke-width="2" stroke-linecap="round"/>
<path d="M6 30.6727L11.7169 25.515C12.0843 25.1835 12.5617 25 13.0566 25H23.5424C23.7395 25 23.9355 25.0291 24.124 25.0864L28.8194 26.5136C29.0079 26.5709 29.2039 26.6 29.401 26.6H35C36.1046 26.6 37 27.4954 37 28.6V31C37 32.1046 36.1046 33 35 33H22.816" stroke="#7352D1" stroke-width="2" stroke-linecap="round"/>
<path d="M16 43L17.2232 41.5369C17.6032 41.0823 18.1652 40.8197 18.7576 40.8197H36.4695C36.8885 40.8197 37.2969 40.6881 37.6371 40.4435L48.3212 32.7614C48.6401 32.5321 48.8844 32.214 49.0237 31.8468L50.9724 26.7093C51.4687 25.4007 50.502 24 49.1024 24H46.3314C45.6935 24 45.0938 24.3043 44.7172 24.8192L42.7258 27.5415C42.3492 28.0563 41.7495 28.3607 41.1116 28.3607H40" stroke="#7352D1" stroke-width="2" stroke-linecap="round"/>
<path d="M29.1359 3.47048C29.5216 2.80821 30.4784 2.80821 30.8641 3.47048L32.2484 5.84718C32.6723 6.57498 33.3826 7.09106 34.2058 7.26932L36.894 7.85143C37.643 8.01363 37.9387 8.92356 37.428 9.49507L35.5954 11.5461C35.0342 12.1741 34.7629 13.0092 34.8478 13.8471L35.1248 16.5836C35.202 17.3461 34.428 17.9085 33.7267 17.5994L31.2097 16.4903C30.439 16.1507 29.561 16.1507 28.7903 16.4903L26.2733 17.5994C25.572 17.9085 24.798 17.3461 24.8752 16.5836L25.1522 13.8471C25.2371 13.0092 24.9658 12.1741 24.4046 11.5461L22.572 9.49507C22.0613 8.92356 22.357 8.01363 23.106 7.85143L25.7942 7.26932C26.6173 7.09106 27.3277 6.57498 27.7516 5.84718L29.1359 3.47048Z" stroke="#7352D1" stroke-width="2"/>
</svg>
