<svg width="42" height="44" viewBox="0 0 42 44" fill="none" xmlns="http://www.w3.org/2000/svg">
<path d="M25.6411 5.5C25.6411 8.05236 23.728 10 21.5128 10C19.2977 10 17.3846 8.05236 17.3846 5.5C17.3846 2.94764 19.2977 1 21.5128 1C23.728 1 25.6411 2.94764 25.6411 5.5Z" stroke="#7352D1" stroke-width="2"/>
<path d="M36.8974 32C36.8974 22.6112 30.2391 15 22.0256 15C13.8121 15 7.15381 22.6112 7.15381 32" stroke="#7352D1" stroke-width="2"/>
<path d="M28.0507 21C27.4336 24.2667 27.1082 31.64 30.7435 35" stroke="#7352D1" stroke-width="2"/>
<path d="M14.9749 21C15.592 24.2667 15.9174 31.64 12.2821 35" stroke="#7352D1" stroke-width="2"/>
<path d="M21.5128 43C25.7437 37.7719 35.3858 28.8841 40.1072 35.1578C44.8285 41.4316 29.6782 43 21.5128 43Z" stroke="#7352D1" stroke-width="2"/>
<path d="M21.5128 43C17.0593 37.7719 6.90966 28.8841 1.93983 35.1578C-3.03001 41.4316 12.9177 43 21.5128 43Z" stroke="#7352D1" stroke-width="2"/>
</svg>
