<svg width="107" height="107" viewBox="0 0 107 107" fill="none" xmlns="http://www.w3.org/2000/svg">
<g opacity="0.2">
<path fill-rule="evenodd" clip-rule="evenodd" d="M69.0355 20.3764C64.5769 21.4929 59.7331 23.0699 54.863 25.2782C51.8021 26.6583 48.7271 28.2899 45.7101 30.2204C40.5903 33.5028 35.6745 37.6257 31.3477 42.8193C32.1582 39.0973 33.2728 35.5634 34.5985 32.2545C36.4094 27.6745 38.6159 23.5112 40.912 19.8314C47.8585 8.67766 55.5698 2.05469 55.5698 2.05469C61.3524 8.23461 65.7689 14.3688 69.0355 20.3764Z" stroke="#F17096" stroke-width="3" stroke-miterlimit="1.41421" stroke-linecap="round" stroke-linejoin="round"/>
<path fill-rule="evenodd" clip-rule="evenodd" d="M75.6696 64.3906C74.9083 67.9702 73.8605 71.3776 72.6561 74.5932C70.7696 79.6075 68.4576 84.1453 66.0894 88.0994C59.6897 98.7855 52.8768 105.203 52.8768 105.203C46.7655 98.8435 42.1028 92.5897 38.6445 86.496C42.8641 85.5272 47.3879 84.1277 51.9204 82.1727C55.2416 80.7415 58.5996 78.9922 61.8364 76.8894C66.7979 73.6649 71.5362 69.5737 75.6696 64.3906Z" stroke="#F17096" stroke-width="3" stroke-miterlimit="1.41421" stroke-linecap="round" stroke-linejoin="round"/>
<path fill-rule="evenodd" clip-rule="evenodd" d="M42.7664 75.9318C39.2044 75.1512 35.8059 74.0875 32.6131 72.841C27.6076 70.8964 23.1049 68.4825 19.1755 65.9824C8.37509 59.1379 2 51.7061 2 51.7061C8.18169 45.9253 14.3177 41.5088 20.3235 38.2422C21.4118 42.5848 22.9256 47.2914 25.046 52.0279C26.5052 55.2822 28.2247 58.5506 30.2853 61.7434C33.5414 66.7911 37.6309 71.6472 42.7664 75.9318Z" stroke="#F17096" stroke-width="3" stroke-miterlimit="1.41421" stroke-linecap="round" stroke-linejoin="round"/>
<path fill-rule="evenodd" clip-rule="evenodd" d="M105.002 54.3475C98.6443 60.4588 92.3905 65.1215 86.2985 68.5798C85.2946 64.2406 83.8529 59.5903 81.8082 54.9224C80.4385 51.7876 78.7912 48.6387 76.8044 45.5778C73.5659 40.5407 69.4307 35.7303 64.1914 31.5547C67.931 32.3476 71.4772 33.45 74.8019 34.7317C79.41 36.4811 83.5927 38.5997 87.2971 40.7675C98.3507 47.2691 105.002 54.3475 105.002 54.3475Z" stroke="#F17096" stroke-width="3" stroke-miterlimit="1.41421" stroke-linecap="round" stroke-linejoin="round"/>
<path fill-rule="evenodd" clip-rule="evenodd" d="M61.8089 76.8357C58.5721 78.9385 55.214 80.6879 51.8929 82.119C47.3603 84.0741 42.8366 85.4736 38.617 86.4423C25.8088 89.4189 15.6836 88.6523 15.6836 88.6523C15.9667 80.0866 17.2185 72.5353 19.1894 65.9141C23.1189 68.4142 27.6215 70.8281 32.627 72.7726C35.8198 74.0192 39.2183 75.0828 42.7803 75.8635C48.6825 77.1276 55.054 77.597 61.8089 76.8357Z" stroke="#F17096" stroke-width="3" stroke-miterlimit="1.41421" stroke-linecap="round" stroke-linejoin="round"/>
<path fill-rule="evenodd" clip-rule="evenodd" d="M90.4104 17.5703C90.2328 26.2661 89.1287 33.9054 87.3037 40.6057C83.5993 38.4379 79.4166 36.3193 74.8085 34.5699C71.4838 33.2882 67.9376 32.1858 64.198 31.3929C58.4154 30.1358 52.1898 29.5943 45.6406 30.1675C48.6576 28.237 51.7326 26.6055 54.7936 25.2253C59.6637 23.0171 64.5074 21.44 68.9661 20.3236C81.0482 17.2749 90.4104 17.5703 90.4104 17.5703Z" stroke="#F17096" stroke-width="3" stroke-miterlimit="1.41421" stroke-linecap="round" stroke-linejoin="round"/>
<path fill-rule="evenodd" clip-rule="evenodd" d="M40.9495 19.829C38.6533 23.5088 36.4468 27.6721 34.6359 32.2521C33.3103 35.561 32.1956 39.0949 31.3851 42.8169C30.1315 48.6469 29.6604 54.9429 30.3812 61.5958C28.3206 58.403 26.6012 55.1345 25.1419 51.8802C23.0215 47.1437 21.5078 42.4372 20.4195 38.0945C17.3726 26.0089 17.6679 16.6484 17.6679 16.6484C26.4658 16.8295 34.1823 17.9565 40.9495 19.829Z" stroke="#F17096" stroke-width="3" stroke-miterlimit="1.41421" stroke-linecap="round" stroke-linejoin="round"/>
<path fill-rule="evenodd" clip-rule="evenodd" d="M88.6407 91.4692C80.1805 91.1897 72.7347 89.9678 66.168 88.0391C68.5362 84.085 70.8482 79.5472 72.7347 74.5329C73.939 71.3172 74.9869 67.9099 75.7482 64.3303C77.0141 58.4756 77.545 52.1744 76.942 45.5391C78.9287 48.6 80.5761 51.7489 81.9457 54.8837C83.9904 59.5516 85.4321 64.2019 86.436 68.5411C89.4073 81.3458 88.6407 91.4692 88.6407 91.4692Z" stroke="#F17096" stroke-width="3" stroke-miterlimit="1.41421" stroke-linecap="round" stroke-linejoin="round"/>
<path d="M41.9883 41.5859C41.9883 41.5859 44.9314 51.1222 53.5833 53.1898" stroke="#F17096" stroke-width="3" stroke-miterlimit="1.41421" stroke-linecap="round" stroke-linejoin="round"/>
<path d="M41.9883 41.5859C41.9883 41.5859 51.5228 44.5343 53.5869 53.1845" stroke="#F17096" stroke-width="3" stroke-miterlimit="1.41421" stroke-linecap="round" stroke-linejoin="round"/>
<path d="M41.9883 64.7305C41.9883 64.7305 51.5228 61.7873 53.5869 53.1406" stroke="#F17096" stroke-width="3" stroke-miterlimit="1.41421" stroke-linecap="round" stroke-linejoin="round"/>
<path d="M41.9883 64.7357C41.9883 64.7357 44.9314 55.2012 53.5869 53.1406" stroke="#F17096" stroke-width="3" stroke-miterlimit="1.41421" stroke-linecap="round" stroke-linejoin="round"/>
<path d="M65.1437 64.7357C65.1437 64.7357 62.1988 55.2012 53.5469 53.1406" stroke="#F17096" stroke-width="3" stroke-miterlimit="1.41421" stroke-linecap="round" stroke-linejoin="round"/>
<path d="M65.1437 64.7357C65.1437 64.7357 55.6074 61.7925 53.5469 53.1406" stroke="#F17096" stroke-width="3" stroke-miterlimit="1.41421" stroke-linecap="round" stroke-linejoin="round"/>
<path d="M65.1472 41.5859C65.1472 41.5859 55.6092 44.5291 53.5469 53.1845" stroke="#F17096" stroke-width="3" stroke-miterlimit="1.41421" stroke-linecap="round" stroke-linejoin="round"/>
<path d="M65.1437 41.5859C65.1437 41.5859 62.197 51.1222 53.5469 53.1845" stroke="#F17096" stroke-width="3" stroke-miterlimit="1.41421" stroke-linecap="round" stroke-linejoin="round"/>
</g>
</svg>
