<svg width="162" height="167" viewBox="0 0 162 167" fill="none" xmlns="http://www.w3.org/2000/svg">
<g opacity="0.2">
<path d="M147.228 110.914C155.222 117.822 160 126.015 160 133.482C160 150.643 134.598 164.556 103.254 164.556C86.3376 164.556 71.1628 160.507 60.7656 154.085" stroke="#F17096" stroke-width="3" stroke-miterlimit="1.41421" stroke-linecap="round" stroke-linejoin="round"/>
<path d="M76.7114 80.0371C64.3465 86.0975 56.2266 95.5267 56.2266 103.041C56.2266 105.706 57.2707 108.277 59.1597 110.652C65.7764 118.966 82.9608 124.905 103.152 124.905C123.319 124.905 140.506 118.966 147.126 110.652C149.038 108.277 150.08 105.706 150.08 103.041C150.08 95.3561 141.548 85.6384 128.653 79.6016" stroke="#F17096" stroke-width="3" stroke-miterlimit="1.41421" stroke-linecap="round" stroke-linejoin="round"/>
<path d="M146.968 131.328C146.968 131.328 137.649 148.368 98.6602 147.335" stroke="#F17096" stroke-width="3" stroke-miterlimit="1.41421" stroke-linecap="round" stroke-linejoin="round"/>
<path d="M137.719 99.5625C137.719 99.5625 127.025 111.463 101.836 109.653" stroke="#F17096" stroke-width="3" stroke-miterlimit="1.41421" stroke-linecap="round" stroke-linejoin="round"/>
<path d="M83.0683 49.3632C73.0804 55.2532 66.4375 64.4383 66.4375 69.6513C66.4375 73.6497 70.365 77.2859 76.7193 79.9515C83.1864 82.6433 92.2062 84.3145 102.189 84.3145C112.66 84.3145 122.118 82.4727 128.661 79.516C134.427 76.8976 137.943 73.4555 137.943 69.6513C137.943 64.3911 131.182 55.0564 121.024 49.1953" stroke="#F17096" stroke-width="3" stroke-miterlimit="1.41421" stroke-linecap="round" stroke-linejoin="round"/>
<path d="M126.952 67.7969C126.952 67.7969 119.312 71.8608 103.195 72.5193" stroke="#F17096" stroke-width="3" stroke-miterlimit="1.41421" stroke-linecap="round" stroke-linejoin="round"/>
<path d="M89.7769 26.0547C83.2547 30.541 78.918 37.7138 78.918 42.2972C78.918 45.0362 80.4685 47.5549 83.1131 49.6406C87.2819 52.9122 94.1898 55.0688 101.992 55.0688C109.921 55.0688 116.923 52.865 121.068 49.4727C123.59 47.4342 125.069 44.9601 125.069 42.2972C125.069 37.7138 120.732 30.541 114.21 26.0547" stroke="#F17096" stroke-width="3" stroke-miterlimit="1.41421" stroke-linecap="round" stroke-linejoin="round"/>
<path d="M116.077 40.1172C116.077 40.1172 112.585 42.3735 104.785 42.7854" stroke="#F17096" stroke-width="3" stroke-miterlimit="1.41421" stroke-linecap="round" stroke-linejoin="round"/>
<path fill-rule="evenodd" clip-rule="evenodd" d="M119.409 18.5285C119.409 24.2689 111.562 28.9231 101.883 28.9231C92.2077 28.9231 84.3633 24.2689 84.3633 18.5285C84.3633 12.7881 92.2077 2 101.883 2C111.562 2 119.409 12.7881 119.409 18.5285Z" stroke="#F17096" stroke-width="3" stroke-miterlimit="1.41421" stroke-linecap="round" stroke-linejoin="round"/>
<path d="M112.557 16.5234C112.557 16.5234 110.902 17.6726 107.281 18.3153" stroke="#F17096" stroke-width="3" stroke-miterlimit="1.41421" stroke-linecap="round" stroke-linejoin="round"/>
<path fill-rule="evenodd" clip-rule="evenodd" d="M38.8953 164.469V149.216C38.8953 135.828 28.0442 124.977 14.6561 124.977H2C2 124.977 8.00797 127.55 8.93672 132.372C9.86022 137.192 8.19164 164.469 38.8953 164.469Z" stroke="#F17096" stroke-width="3" stroke-miterlimit="1.41421" stroke-linecap="round" stroke-linejoin="round"/>
<path d="M39.0621 130.88C43.3097 127.201 48.8533 124.977 54.9137 124.977H72.4209C72.4209 124.977 66.4129 127.55 65.4867 132.372C64.5606 137.192 65.5943 164.469 38.7578 164.469" stroke="#F17096" stroke-width="3" stroke-miterlimit="1.41421" stroke-linecap="round" stroke-linejoin="round"/>
<path d="M38.7374 103.648C38.7374 103.648 29.9353 107.812 27.4141 119.429" stroke="#F17096" stroke-width="3" stroke-miterlimit="1.41421" stroke-linecap="round" stroke-linejoin="round"/>
<path d="M38.7578 103.648C38.7578 103.648 47.5652 107.812 50.0838 119.429" stroke="#F17096" stroke-width="3" stroke-miterlimit="1.41421" stroke-linecap="round" stroke-linejoin="round"/>
</g>
</svg>
