<svg width="109" height="35" viewBox="0 0 109 35" fill="none" xmlns="http://www.w3.org/2000/svg">
<path d="M88.9982 1.13883L89.9815 1.0701L90.0434 1.94302L90.2952 1.92534L90.1596 0L89.9075 0.0173909L89.9671 0.862815L88.9833 0.931537L88.9237 0.0866742L88.6719 0.104065L88.8072 2.02913L89.0593 2.01174L88.9982 1.13883Z" fill="white"/>
<path fill-rule="evenodd" clip-rule="evenodd" d="M84.5214 1.13784C84.9287 0.985139 85.207 1.13811 85.3133 1.42123C85.3962 1.64209 85.3541 1.89891 85.0879 2.07254L85.7945 2.63423L85.5242 2.73593L84.8461 2.18338L84.5732 2.28562L84.8388 2.99329L84.6131 3.0781L83.9629 1.3477L84.5214 1.13784ZM84.5914 1.32435L84.2589 1.44914L84.505 2.10475L84.8375 1.97942C85.0932 1.88335 85.1528 1.70247 85.0801 1.50871C85.0063 1.31281 84.8493 1.2272 84.5914 1.32435Z" fill="white"/>
<path d="M81.3715 2.68625L81.1641 2.80916L81.7574 3.8131C82.0016 4.22584 82.383 4.25643 82.7114 4.06187C83.0399 3.86758 83.1996 3.5179 82.9554 3.10489L82.3618 2.10068L82.1541 2.22332L82.7493 3.22995C82.9218 3.52193 82.8408 3.73903 82.6057 3.87804C82.3709 4.01679 82.139 3.98458 81.9665 3.69261L81.3715 2.68625Z" fill="white"/>
<path fill-rule="evenodd" clip-rule="evenodd" d="M80.3055 5.79489C79.9161 6.13919 79.3523 6.11773 78.9854 5.7023C78.6189 5.28714 78.6664 4.72492 79.0555 4.38115C79.4468 4.03523 80.009 4.05858 80.3758 4.47373C80.7427 4.88862 80.6968 5.44923 80.3055 5.79489ZM80.1668 5.63816C80.4587 5.38 80.4893 4.97477 80.1909 4.63717C79.8909 4.29742 79.4865 4.27971 79.1945 4.53787C78.9025 4.79577 78.8703 5.19966 79.1703 5.53914C79.4688 5.877 79.8748 5.89606 80.1668 5.63816Z" fill="white"/>
<path d="M76.6304 7.06901L76.4649 7.27967L77.7444 7.51583L78.2929 7.94682L78.4419 7.75736L77.8931 7.32583L77.3601 6.14047L77.1945 6.35141L77.6489 7.28906L76.6304 7.06901Z" fill="white"/>
<path d="M51.5887 13.6969V13.1667C51.5887 12.3605 51.7395 11.7441 52.0414 11.3214C52.343 10.8947 52.7786 10.6835 53.3518 10.6835C53.628 10.6835 53.9167 10.7264 54.2186 10.8126C54.5203 10.903 54.779 11.0109 54.9988 11.1445L55.5293 9.33819C55.1155 9.1227 54.6842 8.94585 54.2315 8.82509C53.7745 8.70003 53.3132 8.63562 52.8433 8.63562C51.7135 8.63562 50.8212 9.04944 50.1615 9.86848C49.5019 10.6875 49.1699 11.8128 49.1699 13.2356V13.6969H47.6309V15.5639H49.1699V24.9153H51.5887V15.5639H54.6838L58.5206 24.9152C58.3182 25.5013 58.1371 25.9801 57.982 26.3553C57.8309 26.7259 57.6801 27.0192 57.5336 27.2218C57.3868 27.4287 57.2445 27.5709 57.1023 27.6531C56.9644 27.7306 56.8004 27.7736 56.6106 27.7736C56.477 27.7736 56.3047 27.7564 56.0932 27.7306C55.878 27.7003 55.6623 27.6617 55.4425 27.6185V29.731C55.6794 29.8043 55.8909 29.8518 56.0806 29.8732C56.2704 29.8947 56.4555 29.9079 56.6321 29.9079C57.5421 29.9079 58.2836 29.6835 58.8657 29.2353C59.4435 28.7869 59.8487 28.2351 60.0857 27.5752L65.2981 13.4081H63.0089L59.8442 22.7809L56.3873 13.6969H51.5887Z" fill="white"/>
<path d="M14.881 8.85346H12.4614V22.4688C12.4614 23.305 12.6925 23.9505 13.1546 24.4048C13.6162 24.8597 14.2651 25.087 15.101 25.087C15.4821 25.087 15.915 25.0389 16.3986 24.9437C16.8827 24.8487 17.3005 24.7207 17.6526 24.5588L17.3005 22.6672C17.1097 22.7409 16.9082 22.8067 16.6957 22.8649C16.4828 22.9237 16.2961 22.9532 16.1348 22.9532C15.7389 22.9532 15.4309 22.8319 15.2111 22.5901C14.991 22.3486 14.881 22.015 14.881 21.5894V8.85346Z" fill="white"/>
<path d="M-0.000976562 9.29572V24.9128H2.46259V18.182H9.1051V16.1363H2.46259V11.4732H10.4029V9.29572H-0.000976562Z" fill="white"/>
<path fill-rule="evenodd" clip-rule="evenodd" d="M24.2841 25.1321C23.3894 25.1321 22.5754 24.9743 21.8425 24.659C21.1091 24.3439 20.4822 23.9153 19.9619 23.3722C19.441 22.8301 19.0379 22.1994 18.7521 21.481C18.4663 20.7626 18.3232 19.9997 18.3232 19.193C18.3232 18.3871 18.4663 17.6204 18.7521 16.8947C19.0379 16.1688 19.441 15.5309 19.9619 14.981C20.4822 14.4311 21.1091 13.9988 21.8425 13.6835C22.5754 13.3682 23.3969 13.2101 24.3058 13.2101C25.2003 13.2101 26.0108 13.3719 26.7367 13.6945C27.4626 14.0168 28.0817 14.4459 28.5954 14.981C29.1082 15.5167 29.5008 16.1398 29.7719 16.8504C30.0429 17.5619 30.1787 18.3063 30.1787 19.0837C30.1787 19.259 30.1709 19.4243 30.1567 19.5778C30.1422 19.7321 30.1272 19.8609 30.1129 19.9632H20.8966C20.9406 20.4765 21.0616 20.9387 21.2597 21.3487C21.4577 21.7596 21.714 22.1152 22.0293 22.4157C22.3447 22.7163 22.7037 22.9473 23.1073 23.1086C23.5104 23.2705 23.932 23.3504 24.3721 23.3504C24.6944 23.3504 25.0133 23.3104 25.3288 23.2294C25.6442 23.1492 25.9337 23.0316 26.1978 22.8776C26.4616 22.7238 26.6961 22.5368 26.9017 22.3167C27.1067 22.0966 27.268 21.8548 27.3853 21.5908L29.4528 22.1849C29.0569 23.0501 28.4008 23.7575 27.4843 24.3074C26.5679 24.8573 25.5011 25.1321 24.2841 25.1321ZM27.7814 18.2913C27.7374 17.8074 27.6164 17.3603 27.4183 16.9497C27.2205 16.5394 26.9675 16.1911 26.6597 15.9047C26.3516 15.6189 25.9922 15.3954 25.5816 15.2341C25.171 15.0728 24.7384 14.992 24.2841 14.992C23.8292 14.992 23.4007 15.0728 22.9973 15.2341C22.5937 15.3954 22.2384 15.6189 21.9306 15.9047C21.6225 16.1911 21.3732 16.5394 21.1829 16.9497C20.9918 17.3603 20.8748 17.8074 20.8308 18.2913H27.7814Z" fill="white"/>
<path d="M35.5903 21.6659L33.9908 19.7516L30.27 24.7829L30.0459 25.1278H30.4729C32.1067 25.1278 33.6546 24.3345 34.6116 23.0152L35.5903 21.6659Z" fill="white"/>
<path d="M43.6351 27.3179H43.1652C41.5397 27.3179 39.9963 26.5334 39.0394 25.2225L27.6699 9.96903H28.1141C29.7395 9.96903 31.2872 10.7534 32.2444 12.0684L36.0168 17.2594L36.0257 17.2422L37.3707 15.3451C38.3236 13.9958 39.8842 13.1896 41.5354 13.1896H41.9624L37.6034 19.1696L43.6351 27.3179Z" fill="white"/>
<path d="M45.6161 13.4065H43.1963V24.9109H45.6161V13.4065Z" fill="white"/>
<path d="M45.6161 8.85346H43.1963V11.5153H45.6161V8.85346Z" fill="white"/>
<path d="M37.5675 12.8979C37.5675 13.6624 36.9476 14.2823 36.1833 14.2823C35.4188 14.2823 34.7988 13.6624 34.7988 12.8979C34.7988 12.1333 35.4188 11.5136 36.1833 11.5136C36.9476 11.5136 37.5675 12.1333 37.5675 12.8979Z" fill="white"/>
<path d="M92.9134 0.307785L92.132 0.231611L92.0702 0.87557L92.7687 0.943592L92.7486 1.15047L92.05 1.08273L91.9862 1.74552L92.7676 1.82197L92.7472 2.02913L91.7158 1.9285L91.9019 0L92.9333 0.100346L92.9134 0.307785Z" fill="white"/>
<path fill-rule="evenodd" clip-rule="evenodd" d="M94.4393 1.90919L95.217 2.11932L95.253 2.5546L95.4985 2.62115L95.3362 0.674991L95.0675 0.602264L93.9434 2.20036L94.1892 2.26665L94.4393 1.90919ZM94.5571 1.73771L95.1231 0.924836L95.2017 1.91214L94.5571 1.73771Z" fill="white"/>
<path d="M97.7246 1.52034L97.0435 3.02317L97.632 3.28992L97.5509 3.46838L96.7432 3.10207L97.5051 1.42078L97.7246 1.52034Z" fill="white"/>
<path d="M100.698 3.17178L99.649 2.49014L99.5422 2.65465L99.9665 2.93053L99.0664 4.31474L99.2688 4.44624L100.169 3.06202L100.591 3.33656L100.698 3.17178Z" fill="white"/>
<path d="M102.191 5.71565L101.5 5.07829L100.933 5.69338L100.756 5.52994L102.007 4.17337L102.184 4.3368L101.635 4.9323L102.326 5.56966L102.875 4.97416L103.052 5.1376L101.801 6.4939L101.624 6.33074L102.191 5.71565Z" fill="white"/>
<path d="M103.767 9.05374L103.867 9.21639L105.457 8.18255L105.356 8.0199L103.767 9.05374Z" fill="white"/>
<path d="M104.848 11.0225C104.693 10.6849 104.772 10.3596 105.047 10.2281L105.154 10.4621C105.021 10.5408 104.926 10.7036 105.033 10.9374C105.13 11.1497 105.308 11.22 105.468 11.147C105.676 11.0516 105.639 10.8357 105.6 10.6025C105.553 10.3287 105.503 10.0312 105.84 9.87682C106.117 9.75015 106.408 9.88836 106.561 10.2214C106.708 10.5418 106.627 10.8325 106.384 10.976L106.273 10.735C106.38 10.6685 106.459 10.5037 106.368 10.2976C106.29 10.1146 106.131 10.0153 105.95 10.0982C105.753 10.1885 105.787 10.3998 105.824 10.6303C105.869 10.9062 105.918 11.2095 105.579 11.3646C105.34 11.4738 105.014 11.3866 104.848 11.0225Z" fill="white"/>
<path fill-rule="evenodd" clip-rule="evenodd" d="M106.964 14.3748C106.415 14.4484 106.083 14.9048 106.152 15.4198C106.221 15.9375 106.661 16.288 107.21 16.2147C107.759 16.1415 108.092 15.6877 108.022 15.17C107.954 14.6547 107.514 14.3018 106.964 14.3748ZM107.177 15.9702C106.731 16.0298 106.411 15.7786 106.359 15.3922C106.308 15.0057 106.55 14.6791 106.997 14.6196C107.446 14.5595 107.763 14.8112 107.815 15.1976C107.866 15.5841 107.627 15.9101 107.177 15.9702Z" fill="white"/>
<path d="M108.152 17.7843L108.139 18.025L106.971 17.9609C106.632 17.9421 106.476 18.1171 106.461 18.39C106.446 18.6624 106.582 18.8505 106.921 18.869L108.089 18.9334L108.075 19.1744L106.91 19.1103C106.431 19.084 106.229 18.7568 106.25 18.3755C106.27 17.9941 106.507 17.6938 106.986 17.7201L108.152 17.7843Z" fill="white"/>
<path fill-rule="evenodd" clip-rule="evenodd" d="M106.996 21.9999C107.29 22.0686 107.572 21.9218 107.671 21.498L107.807 20.9167L106.006 20.4976L105.951 20.7326L106.687 20.9041L106.621 21.1881L105.785 21.4454L105.72 21.7269L106.579 21.4505C106.576 21.7683 106.766 21.9462 106.996 21.9999ZM107.558 21.1067L107.477 21.4529C107.415 21.7216 107.257 21.8048 107.052 21.7573C106.851 21.71 106.733 21.56 106.796 21.2941L106.876 20.9481L107.558 21.1067Z" fill="white"/>
<path fill-rule="evenodd" clip-rule="evenodd" d="M104.952 25.5544L105.126 25.2444L104.453 24.8666L104.571 24.6562L106.183 25.5613L105.89 26.0817C105.678 26.4606 105.369 26.5221 105.106 26.3737C104.861 26.236 104.727 25.9542 104.952 25.5544ZM105.125 25.6515C104.99 25.8922 105.046 26.0576 105.227 26.159C105.414 26.2639 105.582 26.2247 105.717 25.984L105.891 25.6743L105.299 25.3418L105.125 25.6515Z" fill="white"/>
<path fill-rule="evenodd" clip-rule="evenodd" d="M103.478 28.623C103.714 28.8119 104.031 28.802 104.303 28.463L104.677 27.998L103.237 26.8411L103.086 27.0289L103.674 27.502L103.492 27.7296L102.627 27.5995L102.446 27.8246L103.34 27.9478C103.2 28.2325 103.294 28.4749 103.478 28.623ZM104.37 28.0616L104.148 28.3385C103.975 28.5535 103.797 28.5597 103.634 28.4282C103.473 28.2991 103.432 28.1131 103.603 27.9003L103.825 27.6233L104.37 28.0616Z" fill="white"/>
<path d="M101.266 28.9934L101.448 28.8214L102.709 30.1606L102.527 30.3327L101.266 28.9934Z" fill="white"/>
<path fill-rule="evenodd" clip-rule="evenodd" d="M100.775 30.6502C100.462 30.1937 99.9045 30.103 99.4762 30.3966C99.0455 30.6924 98.9311 31.243 99.2446 31.7001C99.558 32.1574 100.113 32.2491 100.544 31.9537C100.973 31.6598 101.089 31.1073 100.775 30.6502ZM99.4477 31.5605C99.1931 31.1888 99.2733 30.79 99.5945 30.5697C99.9158 30.3494 100.317 30.4184 100.572 30.79C100.828 31.1639 100.747 31.5605 100.425 31.7811C100.104 32.0012 99.7043 31.9343 99.4477 31.5605Z" fill="white"/>
<path fill-rule="evenodd" clip-rule="evenodd" d="M97.7291 33.4974C97.3319 33.6735 97.0453 33.5366 96.9229 33.2605C96.8271 33.045 96.855 32.7865 97.1103 32.5981L96.3731 32.0786L96.6369 31.9616L97.3451 32.4736L97.6113 32.3558L97.3056 31.6656L97.5259 31.5674L98.2739 33.2562L97.7291 33.4974ZM97.6486 33.3157L97.9733 33.1719L97.6897 32.5327L97.3652 32.6765C97.1159 32.7868 97.0668 32.9706 97.1508 33.1598C97.2353 33.3512 97.3969 33.4276 97.6486 33.3157Z" fill="white"/>
<path d="M95.1563 32.5179L94.8175 32.6362L95.2156 34.361L95.5543 34.2427L95.1563 32.5179Z" fill="white"/>
<path d="M93.7314 34.724L92.4935 34.8992L92.4658 34.7052L92.9644 34.6346L92.7331 33.0006L92.9717 32.9667L93.203 34.6008L93.704 34.5297L93.7314 34.724Z" fill="white"/>
<path d="M90.7917 34.9949L91.059 35L90.4771 33.8393L90.4903 33.1429L90.2496 33.1384L90.2362 33.835L89.6133 34.9726L89.8806 34.9777L90.354 34.0516L90.7917 34.9949Z" fill="white"/>
<path d="M81.259 24.9137V12.1002L75.5668 22.0124H74.6656L68.9731 12.1002V24.9137H67.4346V9.30893H69.0171L75.1049 19.9906L81.237 9.30893H82.7975V24.9137H81.259Z" fill="white"/>
<path fill-rule="evenodd" clip-rule="evenodd" d="M88.882 24.6587C89.5779 24.9734 90.3435 25.1312 91.1786 25.1312C91.7355 25.1312 92.2703 25.0615 92.7832 24.9225C93.296 24.7832 93.7646 24.5857 94.1899 24.3291C94.6145 24.0728 94.9883 23.7723 95.3109 23.4279C95.6329 23.0836 95.8822 22.6991 96.058 22.274L94.7613 21.9224C94.6295 22.23 94.439 22.5123 94.1899 22.7686C93.9404 23.0251 93.6623 23.2412 93.3548 23.4169C93.047 23.5927 92.7096 23.732 92.3436 23.8345C91.9773 23.9373 91.611 23.9883 91.2447 23.9883C90.6875 23.9883 90.164 23.8823 89.6734 23.6695C89.1823 23.4575 88.7465 23.1607 88.3657 22.7796C87.9843 22.3988 87.6733 21.9482 87.4315 21.4278C87.1897 20.9077 87.0469 20.3399 87.0029 19.7245H96.8051C96.8196 19.6805 96.8271 19.6003 96.8271 19.4827V19.1312C96.8271 18.3398 96.6879 17.5927 96.4098 16.8893C96.131 16.1859 95.7427 15.5633 95.2449 15.021C94.7465 14.4791 94.1494 14.0506 93.4535 13.7352C92.7574 13.4204 91.992 13.2629 91.1566 13.2629C90.3363 13.2629 89.5744 13.4204 88.871 13.7352C88.1679 14.0506 87.5635 14.4754 87.0579 15.0102C86.5523 15.5453 86.1568 16.1677 85.871 16.8783C85.5854 17.5892 85.4424 18.3473 85.4424 19.1529C85.4424 19.9739 85.5854 20.743 85.871 21.4608C86.1568 22.179 86.5558 22.8126 87.0689 23.3619C87.5815 23.9113 88.1859 24.3439 88.882 24.6587ZM94.9701 16.9003C95.2119 17.4059 95.3546 17.9662 95.3986 18.5816H86.9809C87.0249 17.981 87.1602 17.4244 87.3875 16.9113C87.6145 16.3985 87.9148 15.9591 88.2886 15.5926C88.6622 15.2265 89.098 14.9407 89.5964 14.7354C90.0942 14.5304 90.6218 14.4276 91.1786 14.4276C91.7355 14.4276 92.2593 14.5304 92.7502 14.7354C93.241 14.9407 93.6733 15.2265 94.0469 15.5926C94.4205 15.9591 94.7283 16.3947 94.9701 16.9003Z" fill="white"/>
</svg>
