<svg width="57" height="73" viewBox="0 0 57 73" fill="none" xmlns="http://www.w3.org/2000/svg">
<mask id="path-1-inside-1" fill="white">
<path fill-rule="evenodd" clip-rule="evenodd" d="M30.2597 12.467C34.0003 12.8973 37.2948 14.5143 39.9799 17.2378C44.808 22.1345 46.1004 29.1941 43.3487 35.6374C41.8643 39.1133 38.4152 42.5791 34.9978 44.0293C28.6815 46.7095 21.7909 45.367 17.0184 40.5265C10.6141 34.0309 10.6141 23.725 17.0184 17.2378C20.5765 13.6336 25.3744 11.905 30.2597 12.467ZM15.0963 25.5435C16.4011 20.2934 20.4589 16.3342 25.7204 15.1776C27.4173 14.8046 30.1097 14.8617 31.8635 15.3077C36.7203 16.5432 40.6757 20.5765 41.9014 25.5435C42.347 27.3487 42.347 30.4139 41.9014 32.219C40.6681 37.2167 36.7282 41.2137 31.7908 42.476C30.0051 42.9325 26.9944 42.9315 25.1918 42.4737C23.6526 42.0829 21.4325 41.0074 20.1944 40.0527C17.7108 38.1379 15.8609 35.2953 15.0963 32.219C14.6473 30.4117 14.6473 27.3508 15.0963 25.5435Z"/>
<path d="M21.929 28.007C22.0984 28.179 22.2311 28.6293 22.3171 29.3243C22.4983 30.7898 22.7924 31.5998 23.494 32.5664C24.5985 34.0881 26.0109 34.8943 28.0143 35.1466C29.3332 35.3126 29.6902 35.59 29.6902 36.4486C29.6902 36.8505 29.5963 37.1131 29.3714 37.3402C29.0904 37.6241 28.924 37.6592 27.9669 37.6371C24.5564 37.5584 21.253 34.9367 20.1869 31.4626C19.8305 30.3009 19.712 28.7592 19.9448 28.313C20.3246 27.585 21.3559 27.4259 21.929 28.007Z"/>
<path fill-rule="evenodd" clip-rule="evenodd" d="M13.1715 73L12.7765 72.6555L12.3815 72.311L12.3438 61.3218L12.3061 50.3328L11.0768 50.2701C9.36547 50.1828 8.43215 49.6479 7.76291 48.3706C7.51149 47.8907 7.45617 47.503 7.41689 45.9434C7.39127 44.9225 7.30357 43.9136 7.22206 43.7016C7.03132 43.2044 6.78187 43.0514 4.96336 42.3155C3.11882 41.5691 2.33711 40.8402 1.95632 39.5118C1.64648 38.4303 1.73882 37.8457 2.52884 35.8893C2.96777 34.8023 3.14402 34.1899 3.07926 33.9772C3.02675 33.8052 2.4586 33.1098 1.81681 32.4321C0.278167 30.8072 0 30.2637 0 28.8813C0 27.489 0.263808 26.9836 1.90001 25.2417C2.81391 24.2687 3.16091 23.7988 3.16091 23.5339C3.16091 23.333 2.89626 22.5425 2.57276 21.7773C2.05204 20.5456 1.98349 20.2549 1.97448 19.2437C1.95646 17.2144 2.692 16.283 5.08218 15.3089C7.35819 14.3809 7.2985 14.4665 7.39014 12.0104C7.47193 9.81757 7.59159 9.38766 8.35036 8.55783C9.10757 7.72986 9.6732 7.54967 11.6777 7.4977C12.6842 7.47171 13.6789 7.38276 13.8879 7.30009C14.3781 7.10663 14.529 6.85362 15.2546 5.0092C15.989 3.14237 16.7099 2.34537 18.0112 1.96173C19.0632 1.65147 19.7065 1.75741 21.6331 2.55769C22.6733 2.98988 23.2665 3.16378 23.4757 3.09825C23.6453 3.04499 24.33 2.46959 24.9973 1.81966C26.1622 0.684854 26.752 0.265512 27.5137 0.0304974C28.1033 0.00748333 29.3231 -0.0247363 29.4863 0.0304974C30.2488 0.265797 30.8206 0.677144 32.0903 1.9039C33.0482 2.82954 33.5112 3.18106 33.7722 3.18106C33.9703 3.18106 34.7497 2.9172 35.5041 2.59467C37.3294 1.81438 38.4219 1.70986 39.4993 2.2123C40.6539 2.75087 41.2104 3.43521 41.8914 5.15412C42.2168 5.97482 42.6251 6.81436 42.799 7.01967C43.1059 7.38205 43.1747 7.39533 45.1338 7.47057C47.2958 7.55352 47.7197 7.67489 48.5379 8.44447C49.3542 9.21247 49.5319 9.78616 49.5831 11.8192C49.6087 12.8401 49.6964 13.8489 49.7779 14.061C49.9687 14.5581 50.2181 14.7112 52.0366 15.4471C53.8772 16.1919 54.663 16.9231 55.0413 18.243C55.3472 19.3099 55.2427 19.9624 54.4537 21.9165C54.0276 22.9715 53.8561 23.5732 53.9207 23.7854C53.9732 23.9574 54.5414 24.6527 55.1832 25.3305C56.7218 26.9553 57 27.4989 57 28.8813C57 30.2735 56.7362 30.779 55.1 32.5209C54.1658 33.5155 53.8391 33.9609 53.8391 34.2399C53.8391 34.4471 54.0988 35.2377 54.4161 35.9967C55.1868 37.8397 55.2892 38.9441 54.7914 40.0467C54.2594 41.2255 53.621 41.7595 51.9099 42.457C49.6428 43.3812 49.7016 43.297 49.6094 45.7522C49.5452 47.4623 49.4836 47.8936 49.2353 48.3706C48.5711 49.6461 47.6352 50.1828 45.9232 50.2701L44.6939 50.3328L44.6562 61.3218L44.6185 72.311L44.2235 72.6555L43.8285 73L43.07 72.9776L35.961 70.5605C32.051 69.2312 28.7569 68.1175 28.6408 68.0858C28.5246 68.0541 25.1672 69.1417 21.1798 70.5028L13.93 72.9774L13.1715 73ZM20.8831 4.9658C23.5318 6.06605 24.4566 5.86973 26.6198 3.74704C27.8233 2.56625 27.9682 2.46716 28.4917 2.46716C29.0173 2.46716 29.167 2.57111 30.5246 3.87896C32.1428 5.43768 32.591 5.67298 33.9197 5.66056C34.5676 5.65456 35.0596 5.52706 36.0313 5.11357C37.8303 4.34785 38.0303 4.30159 38.5623 4.52704C38.9448 4.68909 39.093 4.90283 39.4746 5.8426C40.3027 7.88149 40.4211 8.11679 40.8903 8.65878C41.146 8.95433 41.6777 9.36482 42.0719 9.57113C42.7175 9.90909 42.9766 9.95207 44.6889 10.0053C47.1555 10.082 47.082 10.0177 47.082 12.0958C47.082 13.9272 47.295 14.9242 47.8643 15.7573C48.3975 16.5378 48.9519 16.9007 50.6987 17.6127C52.2081 18.228 52.7129 18.6399 52.7129 19.2563C52.7129 19.4382 52.4278 20.2931 52.0794 21.1558C50.9946 23.8423 51.1882 24.7802 53.2811 26.9743C54.4453 28.1949 54.543 28.3419 54.543 28.8729C54.543 29.4063 54.4403 29.5579 53.14 30.9464C51.9365 32.2316 51.7044 32.5586 51.5072 33.2467C51.2148 34.2668 51.3156 34.9977 51.9684 36.5914C52.6874 38.3471 52.7322 38.5526 52.512 39.087C52.3522 39.4749 52.1415 39.6253 51.2149 40.0123C49.2047 40.8522 48.9727 40.9722 48.4383 41.4481C48.1469 41.7076 47.7422 42.2468 47.5388 42.6466C47.2056 43.3014 47.1632 43.5643 47.1107 45.3009C47.0351 47.8026 47.0985 47.7281 45.0497 47.7281C43.244 47.7281 42.261 47.9441 41.4395 48.5215C40.6701 49.0624 40.3122 49.6246 39.6102 51.3964C39.0036 52.9273 38.5975 53.4393 37.9898 53.4393C37.8104 53.4393 36.9675 53.1501 36.1169 52.7968C33.4682 51.6965 32.5434 51.8928 30.3802 54.0155C29.1729 55.2 29.0331 55.2954 28.5034 55.2954C27.9701 55.2954 27.8313 55.1983 26.4757 53.8775C25.211 52.6451 24.9148 52.4284 24.2128 52.2214C23.1889 51.9195 22.4773 52.0189 20.8983 52.6841C19.1672 53.4134 18.9646 53.4588 18.4377 53.2355C18.0552 53.0735 17.907 52.8597 17.5254 51.92C16.6973 49.8811 16.5789 49.6458 16.1097 49.1038C15.854 48.8082 15.3223 48.3993 14.9281 48.1951C14.2879 47.8635 14.0094 47.8171 12.3111 47.7597C10.8692 47.7108 10.3513 47.6423 10.1644 47.4754C9.95742 47.2908 9.918 47.0009 9.918 45.6668C9.918 43.8515 9.70501 42.8385 9.15389 42.0319C8.63359 41.2704 7.99195 40.8466 6.32689 40.1647C4.85525 39.562 4.28709 39.1033 4.28709 38.5177C4.28709 38.3294 4.57216 37.4694 4.92057 36.6068C6.00536 33.9202 5.8118 32.9823 3.71893 30.7882C2.55474 29.5676 2.45705 29.4207 2.45705 28.8897C2.45705 28.3566 2.55953 28.2048 3.84901 26.8278C5.38723 25.1852 5.61937 24.7294 5.60275 23.3843C5.59431 22.7044 5.45593 22.1941 4.93211 20.9112C4.32918 19.4347 4.28582 19.252 4.43223 18.8018C4.60918 18.258 4.86693 18.0958 6.77286 17.3286C8.15032 16.7742 8.95638 16.111 9.45401 15.1228C9.78511 14.4653 9.83016 14.1892 9.88689 12.4617C9.93503 10.9992 10.0026 10.4739 10.1672 10.2843C10.3492 10.0744 10.635 10.0345 11.9503 10.0345C13.7401 10.0345 14.7389 9.81843 15.5341 9.25945C16.285 8.73174 16.7028 8.08095 17.3752 6.39216C17.9694 4.89955 18.4217 4.32329 18.999 4.32329C19.1846 4.32329 20.0325 4.61242 20.8831 4.9658ZM38.9925 55.7998C40.1639 55.4545 41.1117 54.4526 41.6649 52.9752C41.8928 52.3667 42.0962 51.8687 42.1171 51.8687C42.1379 51.8687 42.155 55.9432 42.155 60.923V69.9775L35.3275 67.6703L28.5 65.3632L21.6725 67.6703L14.845 69.9775V61.0658C14.845 56.1645 14.8667 52.1543 14.8932 52.1543C14.9197 52.1543 15.1141 52.6009 15.3252 53.1469C15.7456 54.2334 16.4705 55.0887 17.3447 55.5294C17.7337 55.7256 18.1667 55.7924 18.9978 55.7849C19.9948 55.7757 20.2814 55.7062 21.4959 55.178C22.2503 54.8499 23.0297 54.5815 23.2278 54.5815C23.4889 54.5815 23.9522 54.9335 24.9116 55.8604C26.629 57.5199 27.1273 57.7875 28.5 57.7875C29.863 57.7875 30.3989 57.5053 32.0009 55.9448C32.6691 55.2938 33.3547 54.7176 33.5243 54.6643C33.7335 54.5988 34.3267 54.7727 35.3669 55.2049C37.2952 56.0059 37.9366 56.1111 38.9925 55.7998Z"/>
<path d="M19.4265 60.786C19.7715 61.1358 19.7721 61.1418 19.7721 64.1333C19.7721 67.0804 19.7666 67.1366 19.4385 67.5236C19 68.0407 18.2456 68.0648 17.7347 67.5781L17.379 67.239V64.1877C17.379 61.1383 17.3792 61.1361 17.7246 60.786C18.1946 60.3091 18.9565 60.3091 19.4265 60.786Z"/>
<path d="M31.045 20.4498C34.475 21.5326 37.0849 24.9329 37.1406 28.3917C37.1613 29.6821 36.8789 30.0885 35.961 30.0885C35.1232 30.0885 34.8414 29.7237 34.6858 28.4382C34.5297 27.1487 34.2437 26.336 33.5915 25.3291C32.6099 23.8136 30.9904 22.8653 28.9464 22.6093C28.3299 22.5322 27.8091 22.3831 27.6523 22.2392C27.0593 21.6949 27.2133 20.5937 27.9369 20.2055C28.3796 19.968 29.8962 20.0871 31.045 20.4498Z"/>
</mask>
<path fill-rule="evenodd" clip-rule="evenodd" d="M30.2597 12.467C34.0003 12.8973 37.2948 14.5143 39.9799 17.2378C44.808 22.1345 46.1004 29.1941 43.3487 35.6374C41.8643 39.1133 38.4152 42.5791 34.9978 44.0293C28.6815 46.7095 21.7909 45.367 17.0184 40.5265C10.6141 34.0309 10.6141 23.725 17.0184 17.2378C20.5765 13.6336 25.3744 11.905 30.2597 12.467ZM15.0963 25.5435C16.4011 20.2934 20.4589 16.3342 25.7204 15.1776C27.4173 14.8046 30.1097 14.8617 31.8635 15.3077C36.7203 16.5432 40.6757 20.5765 41.9014 25.5435C42.347 27.3487 42.347 30.4139 41.9014 32.219C40.6681 37.2167 36.7282 41.2137 31.7908 42.476C30.0051 42.9325 26.9944 42.9315 25.1918 42.4737C23.6526 42.0829 21.4325 41.0074 20.1944 40.0527C17.7108 38.1379 15.8609 35.2953 15.0963 32.219C14.6473 30.4117 14.6473 27.3508 15.0963 25.5435Z" fill="white"/>
<path d="M21.929 28.007C22.0984 28.179 22.2311 28.6293 22.3171 29.3243C22.4983 30.7898 22.7924 31.5998 23.494 32.5664C24.5985 34.0881 26.0109 34.8943 28.0143 35.1466C29.3332 35.3126 29.6902 35.59 29.6902 36.4486C29.6902 36.8505 29.5963 37.1131 29.3714 37.3402C29.0904 37.6241 28.924 37.6592 27.9669 37.6371C24.5564 37.5584 21.253 34.9367 20.1869 31.4626C19.8305 30.3009 19.712 28.7592 19.9448 28.313C20.3246 27.585 21.3559 27.4259 21.929 28.007Z" fill="white"/>
<path fill-rule="evenodd" clip-rule="evenodd" d="M13.1715 73L12.7765 72.6555L12.3815 72.311L12.3438 61.3218L12.3061 50.3328L11.0768 50.2701C9.36547 50.1828 8.43215 49.6479 7.76291 48.3706C7.51149 47.8907 7.45617 47.503 7.41689 45.9434C7.39127 44.9225 7.30357 43.9136 7.22206 43.7016C7.03132 43.2044 6.78187 43.0514 4.96336 42.3155C3.11882 41.5691 2.33711 40.8402 1.95632 39.5118C1.64648 38.4303 1.73882 37.8457 2.52884 35.8893C2.96777 34.8023 3.14402 34.1899 3.07926 33.9772C3.02675 33.8052 2.4586 33.1098 1.81681 32.4321C0.278167 30.8072 0 30.2637 0 28.8813C0 27.489 0.263808 26.9836 1.90001 25.2417C2.81391 24.2687 3.16091 23.7988 3.16091 23.5339C3.16091 23.333 2.89626 22.5425 2.57276 21.7773C2.05204 20.5456 1.98349 20.2549 1.97448 19.2437C1.95646 17.2144 2.692 16.283 5.08218 15.3089C7.35819 14.3809 7.2985 14.4665 7.39014 12.0104C7.47193 9.81757 7.59159 9.38766 8.35036 8.55783C9.10757 7.72986 9.6732 7.54967 11.6777 7.4977C12.6842 7.47171 13.6789 7.38276 13.8879 7.30009C14.3781 7.10663 14.529 6.85362 15.2546 5.0092C15.989 3.14237 16.7099 2.34537 18.0112 1.96173C19.0632 1.65147 19.7065 1.75741 21.6331 2.55769C22.6733 2.98988 23.2665 3.16378 23.4757 3.09825C23.6453 3.04499 24.33 2.46959 24.9973 1.81966C26.1622 0.684854 26.752 0.265512 27.5137 0.0304974C28.1033 0.00748333 29.3231 -0.0247363 29.4863 0.0304974C30.2488 0.265797 30.8206 0.677144 32.0903 1.9039C33.0482 2.82954 33.5112 3.18106 33.7722 3.18106C33.9703 3.18106 34.7497 2.9172 35.5041 2.59467C37.3294 1.81438 38.4219 1.70986 39.4993 2.2123C40.6539 2.75087 41.2104 3.43521 41.8914 5.15412C42.2168 5.97482 42.6251 6.81436 42.799 7.01967C43.1059 7.38205 43.1747 7.39533 45.1338 7.47057C47.2958 7.55352 47.7197 7.67489 48.5379 8.44447C49.3542 9.21247 49.5319 9.78616 49.5831 11.8192C49.6087 12.8401 49.6964 13.8489 49.7779 14.061C49.9687 14.5581 50.2181 14.7112 52.0366 15.4471C53.8772 16.1919 54.663 16.9231 55.0413 18.243C55.3472 19.3099 55.2427 19.9624 54.4537 21.9165C54.0276 22.9715 53.8561 23.5732 53.9207 23.7854C53.9732 23.9574 54.5414 24.6527 55.1832 25.3305C56.7218 26.9553 57 27.4989 57 28.8813C57 30.2735 56.7362 30.779 55.1 32.5209C54.1658 33.5155 53.8391 33.9609 53.8391 34.2399C53.8391 34.4471 54.0988 35.2377 54.4161 35.9967C55.1868 37.8397 55.2892 38.9441 54.7914 40.0467C54.2594 41.2255 53.621 41.7595 51.9099 42.457C49.6428 43.3812 49.7016 43.297 49.6094 45.7522C49.5452 47.4623 49.4836 47.8936 49.2353 48.3706C48.5711 49.6461 47.6352 50.1828 45.9232 50.2701L44.6939 50.3328L44.6562 61.3218L44.6185 72.311L44.2235 72.6555L43.8285 73L43.07 72.9776L35.961 70.5605C32.051 69.2312 28.7569 68.1175 28.6408 68.0858C28.5246 68.0541 25.1672 69.1417 21.1798 70.5028L13.93 72.9774L13.1715 73ZM20.8831 4.9658C23.5318 6.06605 24.4566 5.86973 26.6198 3.74704C27.8233 2.56625 27.9682 2.46716 28.4917 2.46716C29.0173 2.46716 29.167 2.57111 30.5246 3.87896C32.1428 5.43768 32.591 5.67298 33.9197 5.66056C34.5676 5.65456 35.0596 5.52706 36.0313 5.11357C37.8303 4.34785 38.0303 4.30159 38.5623 4.52704C38.9448 4.68909 39.093 4.90283 39.4746 5.8426C40.3027 7.88149 40.4211 8.11679 40.8903 8.65878C41.146 8.95433 41.6777 9.36482 42.0719 9.57113C42.7175 9.90909 42.9766 9.95207 44.6889 10.0053C47.1555 10.082 47.082 10.0177 47.082 12.0958C47.082 13.9272 47.295 14.9242 47.8643 15.7573C48.3975 16.5378 48.9519 16.9007 50.6987 17.6127C52.2081 18.228 52.7129 18.6399 52.7129 19.2563C52.7129 19.4382 52.4278 20.2931 52.0794 21.1558C50.9946 23.8423 51.1882 24.7802 53.2811 26.9743C54.4453 28.1949 54.543 28.3419 54.543 28.8729C54.543 29.4063 54.4403 29.5579 53.14 30.9464C51.9365 32.2316 51.7044 32.5586 51.5072 33.2467C51.2148 34.2668 51.3156 34.9977 51.9684 36.5914C52.6874 38.3471 52.7322 38.5526 52.512 39.087C52.3522 39.4749 52.1415 39.6253 51.2149 40.0123C49.2047 40.8522 48.9727 40.9722 48.4383 41.4481C48.1469 41.7076 47.7422 42.2468 47.5388 42.6466C47.2056 43.3014 47.1632 43.5643 47.1107 45.3009C47.0351 47.8026 47.0985 47.7281 45.0497 47.7281C43.244 47.7281 42.261 47.9441 41.4395 48.5215C40.6701 49.0624 40.3122 49.6246 39.6102 51.3964C39.0036 52.9273 38.5975 53.4393 37.9898 53.4393C37.8104 53.4393 36.9675 53.1501 36.1169 52.7968C33.4682 51.6965 32.5434 51.8928 30.3802 54.0155C29.1729 55.2 29.0331 55.2954 28.5034 55.2954C27.9701 55.2954 27.8313 55.1983 26.4757 53.8775C25.211 52.6451 24.9148 52.4284 24.2128 52.2214C23.1889 51.9195 22.4773 52.0189 20.8983 52.6841C19.1672 53.4134 18.9646 53.4588 18.4377 53.2355C18.0552 53.0735 17.907 52.8597 17.5254 51.92C16.6973 49.8811 16.5789 49.6458 16.1097 49.1038C15.854 48.8082 15.3223 48.3993 14.9281 48.1951C14.2879 47.8635 14.0094 47.8171 12.3111 47.7597C10.8692 47.7108 10.3513 47.6423 10.1644 47.4754C9.95742 47.2908 9.918 47.0009 9.918 45.6668C9.918 43.8515 9.70501 42.8385 9.15389 42.0319C8.63359 41.2704 7.99195 40.8466 6.32689 40.1647C4.85525 39.562 4.28709 39.1033 4.28709 38.5177C4.28709 38.3294 4.57216 37.4694 4.92057 36.6068C6.00536 33.9202 5.8118 32.9823 3.71893 30.7882C2.55474 29.5676 2.45705 29.4207 2.45705 28.8897C2.45705 28.3566 2.55953 28.2048 3.84901 26.8278C5.38723 25.1852 5.61937 24.7294 5.60275 23.3843C5.59431 22.7044 5.45593 22.1941 4.93211 20.9112C4.32918 19.4347 4.28582 19.252 4.43223 18.8018C4.60918 18.258 4.86693 18.0958 6.77286 17.3286C8.15032 16.7742 8.95638 16.111 9.45401 15.1228C9.78511 14.4653 9.83016 14.1892 9.88689 12.4617C9.93503 10.9992 10.0026 10.4739 10.1672 10.2843C10.3492 10.0744 10.635 10.0345 11.9503 10.0345C13.7401 10.0345 14.7389 9.81843 15.5341 9.25945C16.285 8.73174 16.7028 8.08095 17.3752 6.39216C17.9694 4.89955 18.4217 4.32329 18.999 4.32329C19.1846 4.32329 20.0325 4.61242 20.8831 4.9658ZM38.9925 55.7998C40.1639 55.4545 41.1117 54.4526 41.6649 52.9752C41.8928 52.3667 42.0962 51.8687 42.1171 51.8687C42.1379 51.8687 42.155 55.9432 42.155 60.923V69.9775L35.3275 67.6703L28.5 65.3632L21.6725 67.6703L14.845 69.9775V61.0658C14.845 56.1645 14.8667 52.1543 14.8932 52.1543C14.9197 52.1543 15.1141 52.6009 15.3252 53.1469C15.7456 54.2334 16.4705 55.0887 17.3447 55.5294C17.7337 55.7256 18.1667 55.7924 18.9978 55.7849C19.9948 55.7757 20.2814 55.7062 21.4959 55.178C22.2503 54.8499 23.0297 54.5815 23.2278 54.5815C23.4889 54.5815 23.9522 54.9335 24.9116 55.8604C26.629 57.5199 27.1273 57.7875 28.5 57.7875C29.863 57.7875 30.3989 57.5053 32.0009 55.9448C32.6691 55.2938 33.3547 54.7176 33.5243 54.6643C33.7335 54.5988 34.3267 54.7727 35.3669 55.2049C37.2952 56.0059 37.9366 56.1111 38.9925 55.7998Z" fill="white"/>
<path d="M19.4265 60.786C19.7715 61.1358 19.7721 61.1418 19.7721 64.1333C19.7721 67.0804 19.7666 67.1366 19.4385 67.5236C19 68.0407 18.2456 68.0648 17.7347 67.5781L17.379 67.239V64.1877C17.379 61.1383 17.3792 61.1361 17.7246 60.786C18.1946 60.3091 18.9565 60.3091 19.4265 60.786Z" fill="white"/>
<path d="M31.045 20.4498C34.475 21.5326 37.0849 24.9329 37.1406 28.3917C37.1613 29.6821 36.8789 30.0885 35.961 30.0885C35.1232 30.0885 34.8414 29.7237 34.6858 28.4382C34.5297 27.1487 34.2437 26.336 33.5915 25.3291C32.6099 23.8136 30.9904 22.8653 28.9464 22.6093C28.3299 22.5322 27.8091 22.3831 27.6523 22.2392C27.0593 21.6949 27.2133 20.5937 27.9369 20.2055C28.3796 19.968 29.8962 20.0871 31.045 20.4498Z" fill="white"/>
<path fill-rule="evenodd" clip-rule="evenodd" d="M30.2597 12.467C34.0003 12.8973 37.2948 14.5143 39.9799 17.2378C44.808 22.1345 46.1004 29.1941 43.3487 35.6374C41.8643 39.1133 38.4152 42.5791 34.9978 44.0293C28.6815 46.7095 21.7909 45.367 17.0184 40.5265C10.6141 34.0309 10.6141 23.725 17.0184 17.2378C20.5765 13.6336 25.3744 11.905 30.2597 12.467ZM15.0963 25.5435C16.4011 20.2934 20.4589 16.3342 25.7204 15.1776C27.4173 14.8046 30.1097 14.8617 31.8635 15.3077C36.7203 16.5432 40.6757 20.5765 41.9014 25.5435C42.347 27.3487 42.347 30.4139 41.9014 32.219C40.6681 37.2167 36.7282 41.2137 31.7908 42.476C30.0051 42.9325 26.9944 42.9315 25.1918 42.4737C23.6526 42.0829 21.4325 41.0074 20.1944 40.0527C17.7108 38.1379 15.8609 35.2953 15.0963 32.219C14.6473 30.4117 14.6473 27.3508 15.0963 25.5435Z" stroke="#FF668E" stroke-width="2" mask="url(#path-1-inside-1)"/>
<path d="M21.929 28.007C22.0984 28.179 22.2311 28.6293 22.3171 29.3243C22.4983 30.7898 22.7924 31.5998 23.494 32.5664C24.5985 34.0881 26.0109 34.8943 28.0143 35.1466C29.3332 35.3126 29.6902 35.59 29.6902 36.4486C29.6902 36.8505 29.5963 37.1131 29.3714 37.3402C29.0904 37.6241 28.924 37.6592 27.9669 37.6371C24.5564 37.5584 21.253 34.9367 20.1869 31.4626C19.8305 30.3009 19.712 28.7592 19.9448 28.313C20.3246 27.585 21.3559 27.4259 21.929 28.007Z" stroke="#FF668E" stroke-width="2" mask="url(#path-1-inside-1)"/>
<path fill-rule="evenodd" clip-rule="evenodd" d="M13.1715 73L12.7765 72.6555L12.3815 72.311L12.3438 61.3218L12.3061 50.3328L11.0768 50.2701C9.36547 50.1828 8.43215 49.6479 7.76291 48.3706C7.51149 47.8907 7.45617 47.503 7.41689 45.9434C7.39127 44.9225 7.30357 43.9136 7.22206 43.7016C7.03132 43.2044 6.78187 43.0514 4.96336 42.3155C3.11882 41.5691 2.33711 40.8402 1.95632 39.5118C1.64648 38.4303 1.73882 37.8457 2.52884 35.8893C2.96777 34.8023 3.14402 34.1899 3.07926 33.9772C3.02675 33.8052 2.4586 33.1098 1.81681 32.4321C0.278167 30.8072 0 30.2637 0 28.8813C0 27.489 0.263808 26.9836 1.90001 25.2417C2.81391 24.2687 3.16091 23.7988 3.16091 23.5339C3.16091 23.333 2.89626 22.5425 2.57276 21.7773C2.05204 20.5456 1.98349 20.2549 1.97448 19.2437C1.95646 17.2144 2.692 16.283 5.08218 15.3089C7.35819 14.3809 7.2985 14.4665 7.39014 12.0104C7.47193 9.81757 7.59159 9.38766 8.35036 8.55783C9.10757 7.72986 9.6732 7.54967 11.6777 7.4977C12.6842 7.47171 13.6789 7.38276 13.8879 7.30009C14.3781 7.10663 14.529 6.85362 15.2546 5.0092C15.989 3.14237 16.7099 2.34537 18.0112 1.96173C19.0632 1.65147 19.7065 1.75741 21.6331 2.55769C22.6733 2.98988 23.2665 3.16378 23.4757 3.09825C23.6453 3.04499 24.33 2.46959 24.9973 1.81966C26.1622 0.684854 26.752 0.265512 27.5137 0.0304974C28.1033 0.00748333 29.3231 -0.0247363 29.4863 0.0304974C30.2488 0.265797 30.8206 0.677144 32.0903 1.9039C33.0482 2.82954 33.5112 3.18106 33.7722 3.18106C33.9703 3.18106 34.7497 2.9172 35.5041 2.59467C37.3294 1.81438 38.4219 1.70986 39.4993 2.2123C40.6539 2.75087 41.2104 3.43521 41.8914 5.15412C42.2168 5.97482 42.6251 6.81436 42.799 7.01967C43.1059 7.38205 43.1747 7.39533 45.1338 7.47057C47.2958 7.55352 47.7197 7.67489 48.5379 8.44447C49.3542 9.21247 49.5319 9.78616 49.5831 11.8192C49.6087 12.8401 49.6964 13.8489 49.7779 14.061C49.9687 14.5581 50.2181 14.7112 52.0366 15.4471C53.8772 16.1919 54.663 16.9231 55.0413 18.243C55.3472 19.3099 55.2427 19.9624 54.4537 21.9165C54.0276 22.9715 53.8561 23.5732 53.9207 23.7854C53.9732 23.9574 54.5414 24.6527 55.1832 25.3305C56.7218 26.9553 57 27.4989 57 28.8813C57 30.2735 56.7362 30.779 55.1 32.5209C54.1658 33.5155 53.8391 33.9609 53.8391 34.2399C53.8391 34.4471 54.0988 35.2377 54.4161 35.9967C55.1868 37.8397 55.2892 38.9441 54.7914 40.0467C54.2594 41.2255 53.621 41.7595 51.9099 42.457C49.6428 43.3812 49.7016 43.297 49.6094 45.7522C49.5452 47.4623 49.4836 47.8936 49.2353 48.3706C48.5711 49.6461 47.6352 50.1828 45.9232 50.2701L44.6939 50.3328L44.6562 61.3218L44.6185 72.311L44.2235 72.6555L43.8285 73L43.07 72.9776L35.961 70.5605C32.051 69.2312 28.7569 68.1175 28.6408 68.0858C28.5246 68.0541 25.1672 69.1417 21.1798 70.5028L13.93 72.9774L13.1715 73ZM20.8831 4.9658C23.5318 6.06605 24.4566 5.86973 26.6198 3.74704C27.8233 2.56625 27.9682 2.46716 28.4917 2.46716C29.0173 2.46716 29.167 2.57111 30.5246 3.87896C32.1428 5.43768 32.591 5.67298 33.9197 5.66056C34.5676 5.65456 35.0596 5.52706 36.0313 5.11357C37.8303 4.34785 38.0303 4.30159 38.5623 4.52704C38.9448 4.68909 39.093 4.90283 39.4746 5.8426C40.3027 7.88149 40.4211 8.11679 40.8903 8.65878C41.146 8.95433 41.6777 9.36482 42.0719 9.57113C42.7175 9.90909 42.9766 9.95207 44.6889 10.0053C47.1555 10.082 47.082 10.0177 47.082 12.0958C47.082 13.9272 47.295 14.9242 47.8643 15.7573C48.3975 16.5378 48.9519 16.9007 50.6987 17.6127C52.2081 18.228 52.7129 18.6399 52.7129 19.2563C52.7129 19.4382 52.4278 20.2931 52.0794 21.1558C50.9946 23.8423 51.1882 24.7802 53.2811 26.9743C54.4453 28.1949 54.543 28.3419 54.543 28.8729C54.543 29.4063 54.4403 29.5579 53.14 30.9464C51.9365 32.2316 51.7044 32.5586 51.5072 33.2467C51.2148 34.2668 51.3156 34.9977 51.9684 36.5914C52.6874 38.3471 52.7322 38.5526 52.512 39.087C52.3522 39.4749 52.1415 39.6253 51.2149 40.0123C49.2047 40.8522 48.9727 40.9722 48.4383 41.4481C48.1469 41.7076 47.7422 42.2468 47.5388 42.6466C47.2056 43.3014 47.1632 43.5643 47.1107 45.3009C47.0351 47.8026 47.0985 47.7281 45.0497 47.7281C43.244 47.7281 42.261 47.9441 41.4395 48.5215C40.6701 49.0624 40.3122 49.6246 39.6102 51.3964C39.0036 52.9273 38.5975 53.4393 37.9898 53.4393C37.8104 53.4393 36.9675 53.1501 36.1169 52.7968C33.4682 51.6965 32.5434 51.8928 30.3802 54.0155C29.1729 55.2 29.0331 55.2954 28.5034 55.2954C27.9701 55.2954 27.8313 55.1983 26.4757 53.8775C25.211 52.6451 24.9148 52.4284 24.2128 52.2214C23.1889 51.9195 22.4773 52.0189 20.8983 52.6841C19.1672 53.4134 18.9646 53.4588 18.4377 53.2355C18.0552 53.0735 17.907 52.8597 17.5254 51.92C16.6973 49.8811 16.5789 49.6458 16.1097 49.1038C15.854 48.8082 15.3223 48.3993 14.9281 48.1951C14.2879 47.8635 14.0094 47.8171 12.3111 47.7597C10.8692 47.7108 10.3513 47.6423 10.1644 47.4754C9.95742 47.2908 9.918 47.0009 9.918 45.6668C9.918 43.8515 9.70501 42.8385 9.15389 42.0319C8.63359 41.2704 7.99195 40.8466 6.32689 40.1647C4.85525 39.562 4.28709 39.1033 4.28709 38.5177C4.28709 38.3294 4.57216 37.4694 4.92057 36.6068C6.00536 33.9202 5.8118 32.9823 3.71893 30.7882C2.55474 29.5676 2.45705 29.4207 2.45705 28.8897C2.45705 28.3566 2.55953 28.2048 3.84901 26.8278C5.38723 25.1852 5.61937 24.7294 5.60275 23.3843C5.59431 22.7044 5.45593 22.1941 4.93211 20.9112C4.32918 19.4347 4.28582 19.252 4.43223 18.8018C4.60918 18.258 4.86693 18.0958 6.77286 17.3286C8.15032 16.7742 8.95638 16.111 9.45401 15.1228C9.78511 14.4653 9.83016 14.1892 9.88689 12.4617C9.93503 10.9992 10.0026 10.4739 10.1672 10.2843C10.3492 10.0744 10.635 10.0345 11.9503 10.0345C13.7401 10.0345 14.7389 9.81843 15.5341 9.25945C16.285 8.73174 16.7028 8.08095 17.3752 6.39216C17.9694 4.89955 18.4217 4.32329 18.999 4.32329C19.1846 4.32329 20.0325 4.61242 20.8831 4.9658ZM38.9925 55.7998C40.1639 55.4545 41.1117 54.4526 41.6649 52.9752C41.8928 52.3667 42.0962 51.8687 42.1171 51.8687C42.1379 51.8687 42.155 55.9432 42.155 60.923V69.9775L35.3275 67.6703L28.5 65.3632L21.6725 67.6703L14.845 69.9775V61.0658C14.845 56.1645 14.8667 52.1543 14.8932 52.1543C14.9197 52.1543 15.1141 52.6009 15.3252 53.1469C15.7456 54.2334 16.4705 55.0887 17.3447 55.5294C17.7337 55.7256 18.1667 55.7924 18.9978 55.7849C19.9948 55.7757 20.2814 55.7062 21.4959 55.178C22.2503 54.8499 23.0297 54.5815 23.2278 54.5815C23.4889 54.5815 23.9522 54.9335 24.9116 55.8604C26.629 57.5199 27.1273 57.7875 28.5 57.7875C29.863 57.7875 30.3989 57.5053 32.0009 55.9448C32.6691 55.2938 33.3547 54.7176 33.5243 54.6643C33.7335 54.5988 34.3267 54.7727 35.3669 55.2049C37.2952 56.0059 37.9366 56.1111 38.9925 55.7998Z" stroke="#FF668E" stroke-width="2" mask="url(#path-1-inside-1)"/>
<path d="M19.4265 60.786C19.7715 61.1358 19.7721 61.1418 19.7721 64.1333C19.7721 67.0804 19.7666 67.1366 19.4385 67.5236C19 68.0407 18.2456 68.0648 17.7347 67.5781L17.379 67.239V64.1877C17.379 61.1383 17.3792 61.1361 17.7246 60.786C18.1946 60.3091 18.9565 60.3091 19.4265 60.786Z" stroke="#FF668E" stroke-width="2" mask="url(#path-1-inside-1)"/>
<path d="M31.045 20.4498C34.475 21.5326 37.0849 24.9329 37.1406 28.3917C37.1613 29.6821 36.8789 30.0885 35.961 30.0885C35.1232 30.0885 34.8414 29.7237 34.6858 28.4382C34.5297 27.1487 34.2437 26.336 33.5915 25.3291C32.6099 23.8136 30.9904 22.8653 28.9464 22.6093C28.3299 22.5322 27.8091 22.3831 27.6523 22.2392C27.0593 21.6949 27.2133 20.5937 27.9369 20.2055C28.3796 19.968 29.8962 20.0871 31.045 20.4498Z" stroke="#FF668E" stroke-width="2" mask="url(#path-1-inside-1)"/>
</svg>
