<svg width="55" height="54" viewBox="0 0 55 54" fill="none" xmlns="http://www.w3.org/2000/svg">
<path d="M30.2872 52.6221C39.5647 45.3049 52.0333 24.792 27.6904 1.27832C17.9176 9.4635 3.56882 31.1914 24.3506 52.6221" stroke="white" stroke-width="1.5"/>
<path d="M29.5294 53.1742C34.9866 48.374 42.321 34.92 28.0018 19.4971C22.2527 24.8659 13.8129 39.1174 26.0369 53.1742" stroke="white" stroke-width="1.5"/>
<path d="M46.8229 16.7367C46.8229 15.0724 46.462 10.9758 45.0186 7.90332C43.0934 8.28736 38.882 9.82366 37.4375 12.8961" stroke="white" stroke-width="1.5"/>
<path d="M8.72916 16.7367C8.72916 15.0724 9.11125 10.9758 10.6396 7.90332C12.6781 8.28736 17.1372 9.82366 18.6667 12.8961" stroke="white" stroke-width="1.5"/>
<path d="M40.5634 19.5619C43.2505 17.4705 48.9968 15.7028 51.3468 15.0804C53.0471 18.5786 54 22.5068 54 26.6578C54 41.3021 42.1354 53.1741 27.5 53.1741C12.8646 53.1741 1 41.3021 1 26.6578C1 22.5068 1.95293 18.5786 3.65317 15.0804C5.85161 15.0804 11.8237 16.9476 14.8097 20.6824" stroke="white" stroke-width="1.5"/>
</svg>
