<svg width="68" height="68" viewBox="0 0 68 68" fill="none" xmlns="http://www.w3.org/2000/svg">
<path d="M37.5178 65.5779C49.086 56.454 64.6334 30.8762 34.2799 1.55664C22.094 11.7629 4.2023 38.8557 30.1154 65.5779" stroke="#FF668E" stroke-width="1.5"/>
<path d="M36.5745 66.2662C43.3792 60.2809 52.5246 43.5049 34.6697 24.2738C27.501 30.9682 16.9774 48.7387 32.2197 66.2662" stroke="#FF668E" stroke-width="1.5"/>
<path d="M58.1372 20.8318C58.1372 18.7566 57.6872 13.6485 55.8874 9.81738C53.4868 10.2963 48.2355 12.2119 46.4344 16.043" stroke="#FF668E" stroke-width="1.5"/>
<path d="M10.6368 20.8318C10.6368 18.7566 11.1132 13.6485 13.019 9.81738C15.5608 10.2963 21.1209 12.2119 23.028 16.043" stroke="#FF668E" stroke-width="1.5"/>
<path d="M50.3322 24.3543C53.6827 21.7465 60.8479 19.5423 63.7781 18.7662C65.8982 23.1282 67.0864 28.0263 67.0864 33.2022C67.0864 51.4625 52.2923 66.2658 34.0432 66.2658C15.7941 66.2658 1 51.4625 1 33.2022C1 28.0263 2.18822 23.1282 4.30827 18.7662C7.04954 18.7662 14.4962 21.0945 18.2195 25.7514" stroke="#FF668E" stroke-width="1.5"/>
</svg>
