<svg width="70" height="86" viewBox="0 0 70 86" fill="none" xmlns="http://www.w3.org/2000/svg">
<path d="M26.236 45.4714L26.8878 44.8116L27.5395 44.1518L25.2561 41.8654C24.0003 40.6078 22.7939 39.3925 22.5754 39.1646L22.1781 38.7503L22.4696 38.4382C22.8951 37.9825 23.2293 37.5132 23.4868 37.0094C23.9006 36.2001 24.0383 35.6691 24.0431 34.865C24.0483 33.9776 23.8895 33.3665 23.3803 32.3148C22.9042 31.3315 22.3954 30.6163 21.6098 29.8257C20.5838 28.7932 19.3009 28.0162 18.1265 27.7159C16.9802 27.4228 15.9644 27.5219 15.1016 28.0112C14.6945 28.242 14.1353 28.8055 13.9058 29.2161C13.5624 29.8305 13.4174 30.4469 13.454 31.1363C13.5209 32.3921 14.2031 33.6008 15.838 35.36C16.1701 35.7172 16.4338 36.0175 16.4241 36.0273C16.3849 36.0668 15.6405 36.238 15.2356 36.3006C14.6336 36.3937 13.2528 36.3936 12.6166 36.3004C10.1622 35.9407 8.21081 34.9135 6.94429 33.3143C5.97833 32.0946 5.60131 30.9855 5.60633 29.3782C5.6112 27.8076 5.93437 26.8237 6.84834 25.5967C7.56357 24.6365 8.76181 23.6429 10.2574 22.7699C11.3526 22.1305 11.9083 21.7994 12.4705 21.4511C12.7911 21.2526 13.0722 21.0901 13.0952 21.0901C13.1182 21.0901 13.5292 21.3256 14.0085 21.6133C15.5383 22.5318 17.1206 23.2768 18.6011 23.7758C20.8323 24.5278 22.5603 24.81 24.5472 24.7468C27.4575 24.6543 29.7376 23.8822 31.8236 22.2828C31.9862 22.1581 32.1289 22.0561 32.1407 22.0561C32.1525 22.0561 32.1621 26.1118 32.1621 31.0688V40.0816L33.7924 41.7233L35.4227 43.365L36.0941 42.6895L36.7656 42.014V24.0754V6.13671H41.2056H45.6456L46.3079 5.47049L46.9701 4.80423L45.3302 3.15214L43.6903 1.5H24.4314L23.7607 2.1763L23.0901 2.8526L24.7198 4.49442L26.3495 6.13624L29.2462 6.14613L32.1429 6.15603L32.1527 10.599L32.1624 15.0419L31.4814 15.7311C29.3992 17.8379 27.9988 18.8128 26.1141 19.4678C24.7782 19.9321 23.7569 20.0899 22.0921 20.0894C20.3562 20.0888 18.8633 19.8374 17.0474 19.2401L16.3761 19.0193L16.683 18.8123C17.1826 18.4755 17.9617 17.877 18.3423 17.5379C19.4648 16.5375 20.2234 15.2933 20.4772 14.0364C20.6221 13.3185 20.6253 12.2047 20.4847 11.411C20.119 9.34751 19.0268 7.24727 17.4338 5.54421C16.3021 4.33434 15.2181 3.4645 13.9889 2.78004C12.8605 2.15173 11.3841 1.66306 10.2554 1.54436C10.2554 1.54436 8.8586 1.52299 8.68451 1.54281C7.38027 1.6915 6.04926 2.27445 4.92502 3.18942C4.55107 3.49378 3.88894 4.18357 3.61131 4.55806C2.13107 6.55474 1.74342 8.94412 2.53395 11.1984C2.73343 11.7673 3.25074 12.7907 3.628 13.3627C4.56162 14.7785 6.05344 16.2993 7.75423 17.569C7.99161 17.7462 8.1858 17.9028 8.1858 17.9169C8.1858 17.9309 8.07789 18.0015 7.94604 18.0736C7.05933 18.5584 5.42281 19.6173 4.86748 20.0654C2.55608 21.9307 1.23999 24.1308 1.01849 26.4996L1 28.1417C1.12567 29.5922 1.59622 31.0245 2.43378 32.5057C3.81543 34.9491 5.87886 37.0514 8.54337 38.7305C9.92936 39.6039 11.8368 40.4141 13.2676 40.7371C15.1191 41.1551 17.2559 41.1182 18.7929 40.6416C19.2278 40.5067 19.9535 40.2214 20.2742 40.0592L20.4895 39.9503L21.0414 40.4775C22.2054 41.5893 24.4688 43.7885 25.2953 44.6106L26.1585 45.4692" stroke="#FF668E" stroke-width="1.5"/>
<path d="M65.9532 51.44C65.9532 53.28 66.0232 54.8 66.1632 56C64.8032 55.94 62.5132 55.91 59.2932 55.91C54.9332 55.91 51.6732 55.94 49.5132 56V55.4C50.1732 55.36 50.6532 55.28 50.9532 55.16C51.2732 55.04 51.4832 54.81 51.5832 54.47C51.7032 54.13 51.7632 53.58 51.7632 52.82V37.94C51.7632 37.18 51.7032 36.63 51.5832 36.29C51.4832 35.95 51.2732 35.72 50.9532 35.6C50.6532 35.48 50.1732 35.4 49.5132 35.36V34.76C51.6732 34.82 54.9332 34.85 59.2932 34.85C62.2332 34.85 64.3232 34.82 65.5632 34.76C65.4232 36.42 65.3532 37.9 65.3532 39.2C65.3532 40.08 65.3832 40.76 65.4432 41.24H64.7532C64.4532 39.1 63.9132 37.6 63.1332 36.74C62.3532 35.88 61.2532 35.45 59.8332 35.45H58.6032C57.9832 35.45 57.5332 35.5 57.2532 35.6C56.9732 35.7 56.7832 35.9 56.6832 36.2C56.5832 36.48 56.5332 36.94 56.5332 37.58V45.02H57.4932C58.5532 45.02 59.3532 44.63 59.8932 43.85C60.4532 43.07 60.8432 42.14 61.0632 41.06H61.7532C61.6932 41.9 61.6632 42.84 61.6632 43.88V45.32C61.6632 46.34 61.7232 47.76 61.8432 49.58H61.1532C60.7332 46.94 59.5132 45.62 57.4932 45.62H56.5332V53.18C56.5332 53.82 56.5832 54.29 56.6832 54.59C56.7832 54.87 56.9732 55.06 57.2532 55.16C57.5332 55.26 57.9832 55.31 58.6032 55.31H60.0732C61.4932 55.31 62.6332 54.83 63.4932 53.87C64.3732 52.89 64.9932 51.24 65.3532 48.92H66.0432C65.9832 49.58 65.9532 50.42 65.9532 51.44Z" fill="white"/>
<path d="M66.1632 56L66.1191 56.999L67.2925 57.0508L67.1564 55.8841L66.1632 56ZM49.5132 56H48.5132V57.0282L49.5409 56.9996L49.5132 56ZM49.5132 55.4L49.4527 54.4018L48.5132 54.4588V55.4H49.5132ZM50.9532 55.16L50.602 54.2237L50.5919 54.2275L50.5818 54.2315L50.9532 55.16ZM51.5832 54.47L50.6402 54.1372L50.6313 54.1623L50.6238 54.1878L51.5832 54.47ZM51.5832 36.29L50.6238 36.5722L50.6313 36.5977L50.6402 36.6228L51.5832 36.29ZM50.9532 35.6L50.5818 36.5285L50.5919 36.5325L50.602 36.5363L50.9532 35.6ZM49.5132 35.36H48.5132V36.3012L49.4527 36.3582L49.5132 35.36ZM49.5132 34.76L49.5409 33.7604L48.5132 33.7318V34.76H49.5132ZM65.5632 34.76L66.5596 34.844L66.6556 33.706L65.5148 33.7612L65.5632 34.76ZM65.4432 41.24V42.24H66.5759L66.4354 41.116L65.4432 41.24ZM64.7532 41.24L63.7629 41.3788L63.8836 42.24H64.7532V41.24ZM63.1332 36.74L62.3924 37.4118L63.1332 36.74ZM57.2532 35.6L57.5895 36.5417L57.5895 36.5417L57.2532 35.6ZM56.6832 36.2L57.6249 36.5363L57.6285 36.5263L57.6318 36.5162L56.6832 36.2ZM56.5332 45.02H55.5332V46.02H56.5332V45.02ZM59.8932 43.85L59.0808 43.2668L59.0758 43.2737L59.071 43.2808L59.8932 43.85ZM61.0632 41.06V40.06H60.2463L60.0833 40.8604L61.0632 41.06ZM61.7532 41.06L62.7506 41.1312L62.8271 40.06H61.7532V41.06ZM61.8432 49.58V50.58H62.9113L62.841 49.5142L61.8432 49.58ZM61.1532 49.58L60.1656 49.7371L60.2997 50.58H61.1532V49.58ZM56.5332 45.62V44.62H55.5332V45.62H56.5332ZM56.6832 54.59L55.7345 54.9062L55.7378 54.9163L55.7414 54.9263L56.6832 54.59ZM63.4932 53.87L62.7491 53.2019L62.7483 53.2028L63.4932 53.87ZM65.3532 48.92V47.92H64.4964L64.365 48.7667L65.3532 48.92ZM66.0432 48.92L67.0391 49.0105L67.1382 47.92H66.0432V48.92ZM64.9532 51.44C64.9532 53.301 65.0237 54.8631 65.1699 56.1159L67.1564 55.8841C67.0226 54.7369 66.9532 53.259 66.9532 51.44H64.9532ZM66.2072 55.001C64.8231 54.9399 62.5135 54.91 59.2932 54.91V56.91C62.5128 56.91 64.7833 56.9401 66.1191 56.999L66.2072 55.001ZM59.2932 54.91C54.9312 54.91 51.6598 54.94 49.4854 55.0004L49.5409 56.9996C51.6865 56.94 54.9351 56.91 59.2932 56.91V54.91ZM50.5132 56V55.4H48.5132V56H50.5132ZM49.5737 56.3982C50.2529 56.357 50.8678 56.2712 51.3246 56.0885L50.5818 54.2315C50.4385 54.2888 50.0934 54.363 49.4527 54.4018L49.5737 56.3982ZM51.3043 56.0963C51.9311 55.8613 52.3577 55.3806 52.5425 54.7522L50.6238 54.1878C50.6169 54.2111 50.6111 54.2229 50.6091 54.2266C50.6073 54.2299 50.608 54.2278 50.6122 54.2232C50.6164 54.2186 50.6202 54.2157 50.6215 54.2149C50.6224 54.2143 50.6171 54.218 50.602 54.2237L51.3043 56.0963ZM52.5262 54.8028C52.7064 54.292 52.7632 53.5962 52.7632 52.82H50.7632C50.7632 53.5638 50.6999 53.968 50.6402 54.1372L52.5262 54.8028ZM52.7632 52.82V37.94H50.7632V52.82H52.7632ZM52.7632 37.94C52.7632 37.1638 52.7064 36.468 52.5262 35.9572L50.6402 36.6228C50.6999 36.792 50.7632 37.1962 50.7632 37.94H52.7632ZM52.5425 36.0078C52.3577 35.3794 51.9311 34.8987 51.3043 34.6637L50.602 36.5363C50.6171 36.542 50.6224 36.5457 50.6215 36.5451C50.6202 36.5443 50.6164 36.5414 50.6122 36.5368C50.608 36.5322 50.6073 36.5301 50.6091 36.5334C50.6111 36.5371 50.6169 36.5489 50.6238 36.5722L52.5425 36.0078ZM51.3246 34.6715C50.8678 34.4888 50.2529 34.403 49.5737 34.3618L49.4527 36.3582C50.0934 36.397 50.4385 36.4712 50.5818 36.5285L51.3246 34.6715ZM50.5132 35.36V34.76H48.5132V35.36H50.5132ZM49.4854 35.7596C51.6598 35.82 54.9312 35.85 59.2932 35.85V33.85C54.9351 33.85 51.6865 33.82 49.5409 33.7604L49.4854 35.7596ZM59.2932 35.85C62.2335 35.85 64.345 35.8201 65.6115 35.7588L65.5148 33.7612C64.3014 33.8199 62.2328 33.85 59.2932 33.85V35.85ZM64.5667 34.676C64.425 36.3566 64.3532 37.8654 64.3532 39.2H66.3532C66.3532 37.9346 66.4214 36.4834 66.5596 34.844L64.5667 34.676ZM64.3532 39.2C64.3532 40.0938 64.3832 40.8224 64.4509 41.364L66.4354 41.116C66.3832 40.6976 66.3532 40.0662 66.3532 39.2H64.3532ZM65.4432 40.24H64.7532V42.24H65.4432V40.24ZM65.7435 41.1012C65.4362 38.9091 64.8622 37.1578 63.8739 36.0682L62.3924 37.4118C62.9642 38.0422 63.4701 39.2909 63.7629 41.3788L65.7435 41.1012ZM63.8739 36.0682C62.863 34.9536 61.4673 34.45 59.8332 34.45V36.45C61.039 36.45 61.8433 36.8064 62.3924 37.4118L63.8739 36.0682ZM59.8332 34.45H58.6032V36.45H59.8332V34.45ZM58.6032 34.45C57.9653 34.45 57.3687 34.4969 56.9168 34.6583L57.5895 36.5417C57.6977 36.5031 58.001 36.45 58.6032 36.45V34.45ZM56.9168 34.6583C56.3268 34.869 55.9245 35.3137 55.7345 35.8838L57.6318 36.5162C57.6373 36.4998 57.641 36.4939 57.6401 36.4955C57.639 36.4974 57.6345 36.5045 57.6257 36.5137C57.6167 36.5232 57.6069 36.531 57.5981 36.5367C57.5895 36.5422 57.5856 36.5431 57.5895 36.5417L56.9168 34.6583ZM55.7414 35.8637C55.5794 36.3174 55.5332 36.9265 55.5332 37.58H57.5332C57.5332 36.9535 57.587 36.6426 57.6249 36.5363L55.7414 35.8637ZM55.5332 37.58V45.02H57.5332V37.58H55.5332ZM56.5332 46.02H57.4932V44.02H56.5332V46.02ZM57.4932 46.02C58.8364 46.02 59.9644 45.5039 60.7154 44.4192L59.071 43.2808C58.7419 43.7561 58.2699 44.02 57.4932 44.02V46.02ZM60.7055 44.4332C61.3591 43.5228 61.799 42.4575 62.043 41.2596L60.0833 40.8604C59.8873 41.8225 59.5472 42.6172 59.0808 43.2668L60.7055 44.4332ZM61.0632 42.06H61.7532V40.06H61.0632V42.06ZM60.7557 40.9888C60.6937 41.8572 60.6632 42.8215 60.6632 43.88H62.6632C62.6632 42.8585 62.6927 41.9428 62.7506 41.1312L60.7557 40.9888ZM60.6632 43.88V45.32H62.6632V43.88H60.6632ZM60.6632 45.32C60.6632 46.3726 60.7248 47.818 60.8453 49.6458L62.841 49.5142C62.7215 47.702 62.6632 46.3074 62.6632 45.32H60.6632ZM61.8432 48.58H61.1532V50.58H61.8432V48.58ZM62.1407 49.4229C61.9139 47.9973 61.4521 46.791 60.6575 45.9313C59.8338 45.04 58.7439 44.62 57.4932 44.62V46.62C58.2625 46.62 58.7925 46.86 59.1888 47.2887C59.6142 47.749 59.9724 48.5227 60.1656 49.7371L62.1407 49.4229ZM57.4932 44.62H56.5332V46.62H57.4932V44.62ZM55.5332 45.62V53.18H57.5332V45.62H55.5332ZM55.5332 53.18C55.5332 53.8408 55.581 54.4459 55.7345 54.9062L57.6319 54.2738C57.5853 54.1341 57.5332 53.7992 57.5332 53.18H55.5332ZM55.7414 54.9263C55.9423 55.4887 56.3545 55.9009 56.9168 56.1017L57.5895 54.2183C57.5804 54.215 57.58 54.2139 57.5851 54.2171C57.5906 54.2205 57.5989 54.2265 57.6078 54.2354C57.6167 54.2443 57.6227 54.2526 57.6261 54.258C57.6293 54.2632 57.6281 54.2627 57.6249 54.2537L55.7414 54.9263ZM56.9168 56.1017C57.3687 56.2631 57.9653 56.31 58.6032 56.31V54.31C58.001 54.31 57.6977 54.2569 57.5895 54.2183L56.9168 56.1017ZM58.6032 56.31H60.0732V54.31H58.6032V56.31ZM60.0732 56.31C61.7451 56.31 63.1678 55.7319 64.238 54.5372L62.7483 53.2028C62.0986 53.9281 61.2412 54.31 60.0732 54.31V56.31ZM64.2372 54.5381C65.3133 53.3397 65.9719 51.4544 66.3413 49.0733L64.365 48.7667C64.0145 51.0256 63.433 52.4403 62.7491 53.2019L64.2372 54.5381ZM65.3532 49.92H66.0432V47.92H65.3532V49.92ZM65.0473 48.8295C64.9835 49.531 64.9532 50.404 64.9532 51.44H66.9532C66.9532 50.436 66.9828 49.629 67.0391 49.0105L65.0473 48.8295Z" fill="#FF668E"/>
<line x1="66.1263" y1="17.399" x2="20.7854" y2="62.7399" stroke="#FF668E"/>
<path d="M14.2414 11.2083C14.2414 12.3134 14.0281 13.2258 13.6427 13.8364C13.2831 14.4064 12.7628 14.7412 11.9788 14.7412C11.2253 14.7412 10.164 14.1754 9.23988 13.2014C8.32492 12.237 7.74655 11.0828 7.74655 10.17C7.74655 9.00005 7.84478 7.95922 8.14385 7.23209C8.28871 6.87988 8.4647 6.64199 8.66195 6.49177C8.85 6.34857 9.10557 6.24768 9.48769 6.24768C9.83359 6.24768 10.3097 6.39113 10.8671 6.70889C11.413 7.02011 11.9811 7.46696 12.4964 7.99152C13.0116 8.51597 13.4568 9.1006 13.7693 9.67603C14.0859 10.259 14.2414 10.786 14.2414 11.2083Z" stroke="#FF668E" stroke-width="1.5"/>
</svg>
