<svg width="63" height="64" viewBox="0 0 63 64" fill="none" xmlns="http://www.w3.org/2000/svg">
<path d="M58.8 3.72705H10.5C8.18042 3.72705 6.3 5.60747 6.3 7.92705V41.527H1.05C0.470137 41.527 0 41.9972 0 42.577C0 44.8966 1.88042 46.777 4.2 46.777H34.65V59.377C34.6501 59.9569 35.1203 60.4269 35.7003 60.4268C35.9786 60.4268 36.2455 60.3161 36.4423 60.1194L42 54.5617L47.5576 60.1194C47.7545 60.3163 48.0215 60.427 48.3 60.427C48.4381 60.4274 48.5747 60.4004 48.7021 60.3472C49.0945 60.1846 49.3501 59.8016 49.35 59.377V46.777H52.5C54.8196 46.777 56.7 44.8966 56.7 42.577V8.97705H61.95C62.5299 8.97705 63 8.50691 63 7.92705C63 5.60747 61.1196 3.72705 58.8 3.72705ZM54.6 7.92705V41.527H50.4V43.627H54.3175C53.9426 44.2765 53.2498 44.6767 52.5 44.677H49.35V43.627H47.25V56.8423L42.7423 52.3347C42.3323 51.9248 41.6677 51.9248 41.2576 52.3347L36.75 56.8423V43.627H34.65V44.677H4.2C3.45017 44.6767 2.75743 44.2765 2.38245 43.627H7.35H33.6V41.527H8.4V7.92705C8.4 6.76719 9.34014 5.82705 10.5 5.82705H55.1838C54.8059 6.46269 54.6043 7.18759 54.6 7.92705ZM56.9824 6.87705C57.5634 5.87325 58.848 5.53043 59.852 6.11147C60.1697 6.29535 60.4337 6.55943 60.6175 6.87705H56.9824Z" fill="white"/>
<path d="M51.8984 36.5869L50.5533 34.1772L51.9036 31.7695C52.1882 31.2642 52.0093 30.624 51.5041 30.3394C51.4786 30.3251 51.4525 30.3118 51.4259 30.2995L48.9195 29.1519L48.5961 26.4114C48.5277 25.8356 48.0054 25.4243 47.4296 25.4926C47.4028 25.4958 47.3761 25.5 47.3498 25.5052L44.6429 26.0418L42.7707 24.0142C42.3516 23.5886 41.6669 23.5832 41.2413 24.0023C41.2372 24.0062 41.2332 24.0103 41.2293 24.0142L39.3572 26.0418L36.6503 25.5052C36.0814 25.3928 35.529 25.7628 35.4165 26.3316C35.4113 26.358 35.4071 26.3846 35.4039 26.4114L35.0805 29.1519L32.5742 30.3016C32.0469 30.543 31.8151 31.1662 32.0565 31.6934C32.0687 31.7201 32.082 31.7462 32.0964 31.7716L33.4467 34.1772L32.0964 36.5848C31.8119 37.0902 31.9908 37.7304 32.4959 38.0149C32.5214 38.0293 32.5475 38.0426 32.5742 38.0548L35.0805 39.2046L35.4039 41.9472C35.4723 42.523 35.9947 42.9343 36.5705 42.866C36.5972 42.8628 36.6239 42.8586 36.6503 42.8533L39.3572 42.3168L41.2293 44.3443C41.6232 44.77 42.2874 44.7957 42.7131 44.402C42.733 44.3835 42.7522 44.3643 42.7707 44.3443L44.6429 42.3168L47.3498 42.8533C47.6367 42.912 47.935 42.8464 48.1709 42.6727C48.4055 42.4998 48.5577 42.2369 48.5909 41.9472L48.9143 39.2067L51.4206 38.0569C51.9478 37.8156 52.1796 37.1924 51.9383 36.6652C51.9261 36.6385 51.9127 36.6124 51.8984 36.5869ZM48.4344 34.6896L49.5149 36.6174L47.5073 37.5382C47.1744 37.691 46.9452 38.0062 46.9025 38.3698L46.6442 40.5675L44.4738 40.138C44.1162 40.0638 43.7459 40.1835 43.4994 40.4531L42 42.0785L40.5006 40.4552C40.3019 40.2403 40.0226 40.1181 39.7299 40.1181C39.6614 40.1177 39.5931 40.1248 39.5262 40.1391L37.3559 40.5686L37.0976 38.3709C37.0548 38.0072 36.8256 37.6921 36.4928 37.5393L34.4852 36.6184L35.5656 34.6906C35.7462 34.3704 35.7505 33.9815 35.5656 33.6637V33.6679L34.4852 31.7401L36.4928 30.8193C36.8256 30.6665 37.0548 30.3514 37.0976 29.9877L37.3559 27.79L39.5262 28.2195C39.8837 28.2929 40.2536 28.1733 40.5006 27.9045L42 26.2759L43.4994 27.8992C43.7458 28.169 44.1162 28.2887 44.4738 28.2142L46.6442 27.7848L46.9025 29.9824C46.9452 30.3461 47.1744 30.6613 47.5073 30.814L49.5149 31.7349L48.4344 33.6627C48.2556 33.9816 48.2556 34.3707 48.4344 34.6896Z" fill="white"/>
<path d="M42 28.9272C39.1006 28.9272 36.75 31.2778 36.75 34.1772C36.7534 37.0752 39.102 39.4237 42 39.4272C44.8995 39.4272 47.25 37.0767 47.25 34.1772C47.25 31.2778 44.8995 28.9272 42 28.9272ZM42 37.3272C40.2603 37.3272 38.85 35.917 38.85 34.1772C38.85 32.4375 40.2603 31.0272 42 31.0272C43.7398 31.0272 45.15 32.4375 45.15 34.1772C45.15 35.917 43.7398 37.3272 42 37.3272Z" fill="white"/>
<path d="M39.8996 10.0271H23.0996V12.1271H39.8996V10.0271Z" fill="white"/>
<path d="M50.3996 16.3271H12.5996V18.4271H50.3996V16.3271Z" fill="white"/>
<path d="M50.3996 20.5271H12.5996V22.6271H50.3996V20.5271Z" fill="white"/>
<path d="M27.2994 34.1772H13.6494V36.2772H27.2994V34.1772Z" fill="white"/>
</svg>
