<svg width="54" height="66" viewBox="0 0 54 66" fill="none" xmlns="http://www.w3.org/2000/svg">
<path d="M20.4804 34.9429L20.9835 34.4335L21.4866 33.9242L19.724 32.1592C18.7546 31.1885 17.8234 30.2503 17.6547 30.0744L17.348 29.7546L17.573 29.5137C17.9015 29.162 18.1594 28.7997 18.3583 28.4108C18.6776 27.7861 18.784 27.3762 18.7876 26.7554C18.7917 26.0704 18.6691 25.5987 18.276 24.7868C17.9085 24.0278 17.5158 23.4757 16.9093 22.8654C16.1173 22.0685 15.127 21.4687 14.2205 21.2369C13.3356 21.0106 12.5515 21.0871 11.8855 21.4648C11.5712 21.643 11.1396 22.0779 10.9624 22.3949C10.6973 22.8692 10.5853 23.345 10.6136 23.8771C10.6653 24.8465 11.1919 25.7795 12.4539 27.1375C12.7103 27.4133 12.9138 27.6451 12.9064 27.6527C12.8761 27.6832 12.3015 27.8153 11.9889 27.8637C11.5241 27.9355 10.4583 27.9354 9.96722 27.8634C8.07259 27.5858 6.56624 26.7928 5.58857 25.5584C4.84292 24.6169 4.55189 23.7607 4.55576 22.52C4.55953 21.3076 4.80898 20.5481 5.51451 19.601C6.06661 18.8598 6.99157 18.0928 8.14603 17.4189C8.9915 16.9253 9.42042 16.6697 9.85445 16.4009C10.1019 16.2476 10.3189 16.1222 10.3366 16.1222C10.3544 16.1222 10.6717 16.3039 11.0417 16.5261C12.2226 17.2351 13.444 17.8102 14.5868 18.1954C16.3092 18.7759 17.643 18.9937 19.1768 18.9449C21.4234 18.8735 23.1834 18.2775 24.7936 17.0428C24.9192 16.9466 25.0293 16.8678 25.0384 16.8678C25.0475 16.8678 25.055 19.9986 25.055 23.8251V30.7823L26.3134 32.0496L27.5719 33.3169L28.0902 32.7954L28.6085 32.274V18.4266V4.57921H32.0359H35.4633L35.9745 4.06494L36.4857 3.55064L35.2198 2.27533L33.9539 1H19.0874L18.5697 1.52206L18.052 2.04412L19.31 3.31148L20.568 4.57885L22.8041 4.58649L25.0402 4.59413L25.0477 8.02379L25.0552 11.4534L24.5295 11.9854C22.9222 13.6117 21.8412 14.3642 20.3863 14.8699C19.3551 15.2283 18.5667 15.3501 17.2816 15.3497C15.9416 15.3492 14.7892 15.1552 13.3875 14.6941L12.8693 14.5237L13.1062 14.3639C13.4918 14.1039 14.0933 13.6419 14.387 13.3801C15.2535 12.6079 15.8391 11.6475 16.035 10.6772C16.1469 10.1231 16.1493 9.26327 16.0408 8.65057C15.7585 7.05773 14.9154 5.43649 13.6857 4.12185C12.8122 3.18791 11.9754 2.51645 11.0265 1.9881C10.1555 1.50309 9.01582 1.12587 8.14452 1.03424C8.14452 1.03424 7.06628 1.01775 6.9319 1.03305C5.92512 1.14782 4.89767 1.59782 4.02984 2.30412C3.74117 2.53906 3.23006 3.07153 3.01575 3.36061C1.87311 4.90191 1.57387 6.74633 2.1841 8.48652C2.33809 8.9256 2.73742 9.71559 3.02863 10.1572C3.74932 11.2501 4.9009 12.424 6.21379 13.4042C6.39703 13.541 6.54693 13.6618 6.54693 13.6727C6.54693 13.6835 6.46363 13.738 6.36185 13.7936C5.67738 14.1679 4.4141 14.9853 3.98542 15.3312C2.20119 16.7711 1.18526 18.4694 1.01427 20.2979L1 21.5656C1.09701 22.6852 1.46024 23.7908 2.10678 24.9342C3.17332 26.8204 4.76613 28.4432 6.82295 29.7393C7.89284 30.4135 9.36528 31.0389 10.4697 31.2883C11.899 31.611 13.5484 31.5825 14.7349 31.2145C15.0706 31.1104 15.6308 30.8902 15.8783 30.765L16.0445 30.6809L16.4706 31.0879C17.369 31.9461 19.1162 33.6438 19.7542 34.2783L20.4206 34.9411" stroke="white" stroke-width="1.5"/>
<path d="M52.9532 44.44C52.9532 46.28 53.0232 47.8 53.1632 49C51.8032 48.94 49.5132 48.91 46.2932 48.91C41.9332 48.91 38.6732 48.94 36.5132 49V48.4C37.1732 48.36 37.6532 48.28 37.9532 48.16C38.2732 48.04 38.4832 47.81 38.5832 47.47C38.7032 47.13 38.7632 46.58 38.7632 45.82V30.94C38.7632 30.18 38.7032 29.63 38.5832 29.29C38.4832 28.95 38.2732 28.72 37.9532 28.6C37.6532 28.48 37.1732 28.4 36.5132 28.36V27.76C38.6732 27.82 41.9332 27.85 46.2932 27.85C49.2332 27.85 51.3232 27.82 52.5632 27.76C52.4232 29.42 52.3532 30.9 52.3532 32.2C52.3532 33.08 52.3832 33.76 52.4432 34.24H51.7532C51.4532 32.1 50.9132 30.6 50.1332 29.74C49.3532 28.88 48.2532 28.45 46.8332 28.45H45.6032C44.9832 28.45 44.5332 28.5 44.2532 28.6C43.9732 28.7 43.7832 28.9 43.6832 29.2C43.5832 29.48 43.5332 29.94 43.5332 30.58V38.02H44.4932C45.5532 38.02 46.3532 37.63 46.8932 36.85C47.4532 36.07 47.8432 35.14 48.0632 34.06H48.7532C48.6932 34.9 48.6632 35.84 48.6632 36.88V38.32C48.6632 39.34 48.7232 40.76 48.8432 42.58H48.1532C47.7332 39.94 46.5132 38.62 44.4932 38.62H43.5332V46.18C43.5332 46.82 43.5832 47.29 43.6832 47.59C43.7832 47.87 43.9732 48.06 44.2532 48.16C44.5332 48.26 44.9832 48.31 45.6032 48.31H47.0732C48.4932 48.31 49.6332 47.83 50.4932 46.87C51.3732 45.89 51.9932 44.24 52.3532 41.92H53.0432C52.9832 42.58 52.9532 43.42 52.9532 44.44Z" fill="white"/>
<line x1="51.3536" y1="13.3536" x2="16.3536" y2="48.3536" stroke="white"/>
<path d="M11.0503 8.49361C11.0503 9.32902 10.8885 9.99726 10.6146 10.4311C10.3665 10.8242 10.018 11.0497 9.47487 11.0497C8.96215 11.0497 8.18493 10.6525 7.48469 9.91445C6.7936 9.18602 6.37891 8.3352 6.37891 7.69213C6.37891 6.79195 6.4555 6.01752 6.67273 5.48936C6.77668 5.23663 6.8967 5.08136 7.01811 4.98891C7.13032 4.90346 7.29017 4.83545 7.55189 4.83545C7.77738 4.83545 8.11483 4.93122 8.53197 5.16902C8.93765 5.40029 9.36387 5.73491 9.75236 6.13039C10.1407 6.52575 10.4742 6.96444 10.7067 7.39248C10.9433 7.82807 11.0503 8.20621 11.0503 8.49361Z" stroke="white" stroke-width="1.5"/>
</svg>
