<svg width="288" height="316" viewBox="0 0 288 316" fill="none" xmlns="http://www.w3.org/2000/svg">
<mask id="mask0" mask-type="alpha" maskUnits="userSpaceOnUse" x="0" y="0" width="288" height="316">
<path d="M287.515 78.8906L99.3868 0.000109434L73.6865 239.711L95.9088 277.224L146.035 289.569L287.515 78.8906Z" fill="#C4C4C4"/>
</mask>
<g mask="url(#mask0)">
<path d="M90.0137 275.58C90.0137 275.58 90.2959 275.399 90.7428 275.121C91.1938 274.853 91.7602 274.467 92.3226 274.071C93.4573 273.275 94.5831 272.501 94.5831 272.501C95.3634 270.758 95.9992 267.824 96.2588 265.847C94.506 265.045 91.2095 262.707 91.4325 258.02C91.5181 255.887 92.8581 253.065 94.1439 250.412C94.7933 249.08 95.4973 247.854 96.0973 246.818C96.6521 245.77 97.1281 244.931 97.4277 244.433C98.9278 246.625 104.273 255.3 104.069 259.645C103.971 262.065 102.954 263.683 101.721 264.654C100.453 265.61 99.026 266.001 98.1319 266.125C98.1057 267.211 98.0933 268.619 98.1216 269.969C98.1216 269.969 98.8571 269.397 99.9915 268.542C101.113 267.641 102.652 266.549 104.086 265.297C105.538 264.077 106.974 262.858 108.075 261.907C108.624 261.464 109.056 261.063 109.346 260.786C109.649 260.497 109.829 260.323 109.829 260.323L109.836 260.326L113.859 256.56C114.339 254.708 114.422 251.634 114.402 249.714C112.529 249.178 108.884 247.416 108.37 242.812C108.201 240.854 108.809 237.867 109.658 235.214C110.157 233.727 110.624 232.319 111.032 231.11C111.441 229.918 111.817 228.962 112.051 228.403C113.903 230.327 120.479 237.898 121.111 242.319C121.254 243.335 121.176 244.192 120.98 244.974C120.214 247.903 117.72 249.301 116.307 249.698C116.454 250.765 116.658 252.131 116.889 253.45C116.889 253.45 117.29 253.045 117.886 252.43C118.462 251.807 119.293 251.025 120.019 250.141C121.52 248.451 123.019 246.727 123.019 246.727C123.019 246.727 123.607 246.034 124.22 245.36C124.766 244.65 125.339 243.951 125.339 243.951L125.351 243.923L128.791 239.579C128.964 237.69 128.602 234.654 128.292 232.737C126.357 232.507 122.477 231.304 121.303 226.838C120.803 224.841 121.005 221.601 121.516 218.748C121.994 215.856 122.5 213.134 122.811 212.059C124.932 213.655 132.551 220.158 133.839 224.431C135.107 229.086 131.825 231.675 130.174 232.462C130.495 233.486 130.88 234.795 131.324 236.078C131.324 236.078 131.858 235.296 132.697 234.143C133.564 233.002 134.522 231.367 135.571 229.771C136.582 228.166 137.64 226.59 138.313 225.318C139.03 224.081 139.497 223.262 139.497 223.262L139.494 223.27C139.494 223.27 140.187 222.072 140.885 220.86C141.236 220.259 141.535 219.645 141.765 219.193C142.015 218.716 142.176 218.392 142.176 218.392C142.038 216.514 141.213 213.599 140.614 211.76C138.631 211.86 134.636 211.307 132.744 207.097C131.855 205.219 131.636 202.276 131.641 199.469C131.53 196.347 131.726 193.436 131.865 192.239C134.194 193.498 142.768 198.648 144.681 202.651C145.121 203.551 145.352 204.437 145.444 205.224C145.592 208.237 143.533 210.291 142.407 211.166C142.881 212.121 143.502 213.337 144.136 214.543C144.136 214.543 144.384 214.031 144.763 213.284C145.119 212.494 145.586 211.46 146.043 210.429C146.975 208.326 147.915 206.26 147.915 206.26L149.219 202.875C149.219 202.875 149.721 201.581 150.226 200.296C150.755 198.997 151.159 197.678 151.159 197.678C150.76 195.815 149.514 193.057 148.642 191.336C146.732 191.716 142.658 191.744 140.193 187.876C139.003 186.105 138.305 182.986 137.93 180.119C137.395 177.201 137.174 174.499 137.125 173.356C139.618 174.243 148.861 178.053 151.362 181.737C152.782 183.745 152.758 185.614 152.343 187.136C151.908 188.666 150.992 189.827 150.363 190.479C150.977 191.359 151.735 192.484 152.543 193.57C152.543 193.57 152.844 192.674 153.277 191.309C153.649 189.928 154.151 188.102 154.669 186.257C155.218 184.434 155.602 182.575 155.912 181.184C156.216 179.79 156.441 178.879 156.441 178.879L156.447 178.865C156.447 178.865 156.506 178.549 156.629 178.018C156.733 177.513 156.906 176.846 156.992 176.167C157.232 174.788 157.477 173.436 157.477 173.436C156.762 171.657 155.202 169.174 153.957 167.596C152.157 168.304 148.187 169.009 145.006 165.588C144.333 164.849 143.705 163.787 143.147 162.598C142.608 161.382 142.127 160.05 141.637 158.697C140.616 155.776 139.962 152.966 139.604 151.81C140.918 152.045 144.051 152.685 147.219 153.715C150.389 154.72 153.535 156.097 155.061 157.676C155.747 158.405 156.219 159.168 156.539 159.901C157.153 161.313 157.082 162.664 156.755 163.798C156.429 164.95 155.894 165.89 155.48 166.464C156.23 167.236 157.216 168.231 158.192 169.172C158.192 169.172 158.468 166.919 158.77 164.643C158.886 163.52 159.049 162.383 159.117 161.53C159.179 160.675 159.211 160.107 159.211 160.107L159.475 156.485C159.475 156.485 159.5 156.188 159.524 155.757C159.53 155.585 159.55 155.419 159.56 155.257C159.573 155.146 159.565 155.068 159.57 154.978C159.609 154.588 159.633 154.157 159.637 153.735C159.658 152.347 159.698 150.951 159.698 150.951C158.735 149.309 156.803 147.085 155.356 145.73C153.655 146.696 149.833 147.994 146.19 145.103C142.923 142.379 139.781 134.336 138.795 132.277C141.45 132.326 151.552 133.046 154.941 135.772C156.85 137.246 157.568 139.018 157.598 140.602C157.624 142.192 157.087 143.572 156.677 144.372C157.539 145.033 158.641 145.852 159.777 146.628C159.777 146.628 159.758 145.689 159.711 144.265C159.654 142.844 159.655 140.933 159.544 139.032C159.379 137.142 159.257 135.246 159.149 133.829C159.059 132.411 158.941 131.472 158.941 131.472L158.255 125.981C157.085 124.518 154.62 122.678 153.057 121.54C151.543 122.768 147.956 124.688 143.93 122.435C142.239 121.426 140.244 119.193 138.613 116.921C137.687 115.644 136.837 114.423 136.114 113.429C135.391 112.378 134.856 111.506 134.547 111.002C137.165 110.628 147.154 109.705 151.096 111.765C151.992 112.266 152.636 112.818 153.151 113.441C155.059 115.763 154.708 118.608 154.189 120.003C155.136 120.5 156.342 121.131 157.558 121.715C157.558 121.715 157.46 121.142 157.318 120.318C157.159 119.478 157.017 118.338 156.739 117.249C156.273 115.033 155.769 112.81 155.769 112.81C155.769 112.81 155.568 111.911 155.375 111.032C155.155 110.159 154.897 109.278 154.897 109.278L154.256 106.906L153.449 103.949C152.019 102.692 149.366 101.222 147.645 100.343C146.313 101.788 143.034 104.212 138.757 102.559C136.828 101.784 134.37 99.7303 132.381 97.641C130.304 95.5647 128.456 93.5514 127.778 92.6684C130.322 91.8982 140.061 89.5064 144.242 90.9939C146.555 91.7807 147.643 93.301 148.191 94.7696C148.733 96.2523 148.727 97.7044 148.523 98.6246C149.524 98.9944 150.833 99.4355 152.12 99.8335C152.12 99.8335 151.822 98.9275 151.381 97.5786C150.949 96.2255 150.229 94.4771 149.572 92.697C149.232 91.8145 148.909 90.9309 148.585 90.0886C148.237 89.2857 147.893 88.5098 147.626 87.866C147.058 86.5636 146.67 85.6776 146.67 85.6776C146.67 85.6776 146.139 84.4241 145.575 83.1488C144.947 81.9295 144.351 80.6736 144.351 80.6736C142.725 79.6676 139.988 78.5946 138.081 78.0611C137.02 79.686 134.217 82.6088 129.657 81.7104C128.64 81.5167 127.519 81.0386 126.354 80.3919C125.235 79.7316 124.043 78.9323 122.866 78.1561C121.596 77.2661 120.4 76.3573 119.445 75.5827C118.43 74.7746 117.625 74.1544 117.19 73.7728C119.589 72.6008 128.888 68.5784 133.169 69.4173C134.157 69.5992 134.985 69.9296 135.65 70.3331C136.32 70.7224 136.828 71.1847 137.252 71.7284C137.63 72.2273 137.915 72.7876 138.135 73.3454C138.541 74.4635 138.644 75.5373 138.652 76.2472C139.716 76.4273 141.093 76.6475 142.422 76.8058C142.422 76.8058 141.33 74.8431 140.235 72.8462C139.19 70.8286 137.969 68.9366 137.969 68.9366L136.056 65.8399C136.056 65.8399 135.88 65.5502 135.6 65.1166C135.48 64.9087 135.343 64.6848 135.181 64.4422C135.149 64.3791 135.126 64.3361 135.092 64.2801C135.017 64.1824 134.937 64.0575 134.862 63.9426C134.8 63.892 134.739 63.783 134.739 63.783L134.752 63.7718C134.688 63.687 134.622 63.6093 134.565 63.5274C133.788 62.387 133.001 61.2507 133.001 61.2507C131.282 60.4881 128.378 59.8522 126.424 59.5897C125.605 61.3659 123.243 64.6734 118.607 64.4666C116.46 64.3891 113.684 63.0339 111.003 61.7683C109.708 61.1169 108.498 60.4184 107.487 59.8365C106.429 59.2681 105.596 58.7941 105.108 58.4984C107.282 56.9576 115.945 51.5793 120.274 51.7902C122.693 51.8488 124.296 52.8701 125.257 54.1212C126.209 55.3765 126.578 56.8197 126.711 57.7234C127.788 57.7345 129.183 57.7543 130.544 57.7182C130.544 57.7182 129.967 56.9689 129.109 55.8445C128.227 54.7182 127.143 53.1496 125.914 51.7283C125.219 50.9048 119.661 44.135 114.993 38.4119C113.192 39.3193 109.485 40.541 106.138 37.259C102.969 34.1259 100.571 24.3673 100.03 21.7382C102.642 22.2846 112.376 24.6292 115.492 27.7899C119.274 31.6285 117.167 35.9652 116.371 37.3108C118.772 39.6975 121.075 41.9847 121.868 42.8494C123.154 44.253 128.796 49.1877 128.796 49.1877C129.142 47.8699 129.399 46.4896 129.579 45.4098C128.688 45.0358 127.352 44.3014 126.248 43.0568C125.107 41.8387 124.245 40.1139 124.36 37.5766C124.452 35.288 125.858 31.9954 127.352 28.9643C128.881 25.9479 130.546 23.1795 131.276 22.0477C131.696 22.681 132.372 23.746 133.143 25.0584C133.918 26.3808 134.716 28.0208 135.495 29.6689C137.046 32.9795 138.162 36.6977 137.961 39.0076C137.521 44.035 133.453 45.2302 131.553 45.6056C131.499 46.6218 131.473 47.8832 131.439 49.1656C131.395 50.4522 131.39 51.7052 131.509 52.6613C131.509 52.6613 131.916 53.2062 132.55 54.0373C133.17 54.8626 134.035 55.9317 134.813 57.0891C136.366 59.3699 137.92 61.6506 137.92 61.6506C137.92 61.6506 138.169 61.9628 138.471 62.4635C138.769 62.9542 139.187 63.6117 139.609 64.279C140.41 65.5962 141.229 66.9121 141.229 66.9121L141.955 68.1143C142.258 67.3932 142.539 66.6633 142.79 65.987C142.987 65.438 143.143 64.9466 143.295 64.4865C142.468 63.9983 141.236 63.0747 140.348 61.6881C139.449 60.2885 138.824 58.4718 139.299 55.961C140.211 51.4808 146.664 43.7128 148.431 41.6443C148.761 42.3146 149.283 43.4727 149.845 44.8888C150.385 46.3374 150.952 48.038 151.469 49.8176C152.54 53.3091 153.039 57.1593 152.526 59.405C152.449 59.6884 152.395 59.9152 152.315 60.1643C150.921 64.376 147.069 64.8973 145.205 64.9717C144.87 66.9511 144.181 70.0533 144.132 71.9614C144.132 71.9614 144.538 72.7054 145.169 73.8011C145.807 74.9167 146.531 76.4589 147.277 77.9687C148.021 79.5026 148.796 81 149.322 82.1681C149.824 83.3344 150.178 84.1232 150.178 84.1232L150.171 84.1202C150.171 84.1202 150.925 85.8662 151.689 87.6081C152.076 88.4769 152.404 89.3706 152.646 90.0539C152.91 90.7219 153.075 91.1566 153.075 91.1566C153.821 90.0066 154.528 88.7735 155.039 87.7908C154.332 87.1535 153.21 86.0679 152.536 84.5464C151.835 83.0472 151.647 81.0732 152.47 78.7168C154.015 74.5016 161.754 67.8215 163.845 66.0633C164.215 67.5237 165.036 71.0016 165.498 74.6451C165.822 78.3222 165.904 82.1224 164.949 84.2821C162.927 88.9869 158.735 88.8419 156.82 88.6042C156.089 90.5253 155.007 93.4215 154.641 95.2966C154.641 95.2966 154.881 95.9457 155.187 96.9301C155.516 97.9162 155.929 99.2363 156.361 100.548C156.808 101.866 157.237 103.185 157.466 104.195C157.762 105.201 157.931 105.862 157.931 105.862L157.938 105.865C157.938 105.865 158.346 107.374 158.756 108.876C158.978 109.626 159.139 110.383 159.28 110.974C159.394 111.529 159.49 111.91 159.49 111.91L159.786 113.273C160.302 112.691 160.789 112.081 161.243 111.49C161.597 111.04 161.917 110.592 162.201 110.229C161.638 109.486 160.676 108.235 160.226 106.65C159.764 105.034 159.83 103.067 161.02 100.839C163.156 96.9055 171.77 91.4483 174.085 90.0418C174.238 91.5275 174.603 95.0885 174.465 98.7633C174.271 102.456 173.835 106.213 172.526 108.233C172.39 108.458 172.232 108.658 172.089 108.881C169.401 112.475 165.619 111.787 163.851 111.295C162.845 113.084 161.371 115.792 160.725 117.59C160.725 117.59 161.305 120.951 161.882 124.302C162.306 127.68 162.734 131.051 162.734 131.051C162.734 131.051 162.774 131.526 162.851 132.248C162.92 132.95 162.981 133.907 163.059 134.862C163.205 136.76 163.354 138.668 163.354 138.668C164.368 137.805 165.39 136.845 166.174 136.06C165.677 135.236 165.015 133.862 164.868 132.204C164.677 130.553 164.972 128.607 166.536 126.611C169.414 123.055 178.64 119.11 181.188 118.075C181.158 118.835 181.089 120.103 180.952 121.65C180.755 123.163 180.48 124.96 180.138 126.762C179.495 130.382 178.183 134.022 176.684 135.804C173.393 139.636 169.427 138.206 167.646 137.392C166.446 138.975 164.439 141.417 163.497 143.092C163.497 143.092 163.517 143.774 163.543 144.833C163.572 145.867 163.62 147.25 163.572 148.643C163.513 151.403 163.445 154.184 163.445 154.184C163.445 154.184 163.453 154.579 163.401 155.155C163.37 155.741 163.297 156.525 163.245 157.318C163.133 158.867 163.017 160.422 163.017 160.422L162.911 161.816C163.586 161.409 164.211 160.981 164.83 160.568C165.288 160.244 165.716 159.933 166.109 159.666C165.733 158.769 165.266 157.284 165.375 155.626C165.474 153.972 165.988 152.117 167.851 150.371C171.202 147.263 180.976 144.728 183.609 144.12C183.203 147.116 180.147 157.988 176.539 160.98C176.324 161.157 176.116 161.319 175.92 161.452C172.317 164.057 168.91 162.22 167.361 161.188C165.94 162.588 163.567 164.702 162.411 166.22C162.411 166.22 162.304 167.065 162.156 168.324C162.019 169.614 161.726 171.278 161.434 172.959C161.135 174.638 160.835 176.316 160.642 177.565C160.356 178.817 160.168 179.66 160.168 179.66C160.168 179.66 159.75 181.522 159.327 183.398C158.956 185.287 158.399 187.107 158.399 187.107C159.655 186.594 160.971 186.015 161.947 185.519C161.722 184.56 161.48 183.029 161.83 181.388C162.167 179.776 163.141 178.064 165.184 176.618C168.889 174.124 179.033 173.265 181.747 173.073C181.201 174.474 179.808 177.796 178.077 181.019C176.197 184.221 173.977 187.33 171.988 188.549C167.596 191.146 164.311 188.563 162.931 187.228C161.187 188.334 158.585 190.069 157.214 191.39C157.214 191.39 157.041 192.04 156.729 193.04C156.399 194.024 155.958 195.351 155.532 196.661C155.094 197.982 154.649 199.3 154.329 200.279C153.947 201.25 153.694 201.892 153.694 201.892L151.433 207.735L150.862 209C151.603 208.846 152.389 208.627 153.103 208.419C153.643 208.255 154.13 208.118 154.591 207.962C154.492 206.998 154.492 205.443 155.085 203.872C155.679 202.317 156.86 200.759 159.082 199.654C163.126 197.709 173.297 198.383 175.993 198.608C175.251 199.926 173.37 202.994 171.179 205.916C168.862 208.801 166.191 211.53 164.083 212.441C163.84 212.547 163.59 212.65 163.362 212.721C159.053 214.04 156.442 211.249 155.32 209.789C153.448 210.65 150.627 211.961 149.064 213.051C149.064 213.051 148.687 213.832 148.18 215C147.61 216.124 146.827 217.657 146.045 219.167C145.279 220.699 144.535 222.216 143.87 223.309C143.238 224.424 142.81 225.167 142.81 225.167L142.796 225.161C142.796 225.161 141.854 226.819 140.898 228.488C139.917 230.097 138.849 231.719 138.849 231.719C140.2 231.629 141.61 231.455 142.7 231.297C142.922 229.37 143.632 225.196 148.517 223.845C152.795 222.563 162.671 224.884 165.293 225.543C164.338 226.697 162.107 229.477 159.389 231.961C156.609 234.437 153.676 236.765 151.334 237.27C146.388 238.413 144.025 234.912 143.1 233.219C141.136 233.767 138.155 234.595 136.449 235.434C136.449 235.434 134.835 237.708 133.226 239.951C132.428 241.105 131.617 242.211 130.945 243.027C130.293 243.834 129.867 244.378 129.867 244.378C129.867 244.378 128.899 245.602 127.925 246.822C127.445 247.436 126.958 248.046 126.555 248.476C126.17 248.921 125.912 249.22 125.912 249.22L124.981 250.26C125.751 250.333 126.547 250.384 127.287 250.412C127.861 250.42 128.397 250.403 128.856 250.43C129.123 249.519 129.558 247.989 130.592 246.685C131.604 245.373 133.224 244.248 135.703 243.908C140.123 243.292 149.548 247.062 152.048 248.11C150.926 249.111 148.303 251.527 145.25 253.589C142.145 255.62 138.872 257.498 136.496 257.632C136.213 257.655 135.958 257.673 135.715 257.662C131.246 257.608 129.595 254.123 128.968 252.389C126.935 252.65 123.883 253.016 122.081 253.591C122.081 253.591 119.692 256.039 117.338 258.484C116.131 259.707 114.857 260.836 113.934 261.737C113.008 262.587 112.399 263.172 112.399 263.172L112.392 263.169C112.392 263.169 112.035 263.509 111.522 263.984C110.993 264.477 110.253 265.081 109.524 265.698C108.069 266.942 106.603 268.173 106.603 268.173C107.903 268.518 109.279 268.763 110.377 268.94C110.744 268.064 111.477 266.692 112.729 265.596C113.93 264.445 115.67 263.563 118.181 263.659C120.477 263.758 123.736 265.141 126.74 266.6C129.728 268.119 132.476 269.795 133.602 270.517C132.983 270.931 131.917 271.622 130.607 272.403C129.288 273.205 127.641 274.002 125.994 274.799C122.717 276.393 119.016 277.518 116.712 277.341C111.707 276.913 110.531 272.846 110.165 270.922C109.161 270.875 107.906 270.855 106.64 270.823C105.347 270.813 104.107 270.817 103.137 270.925C103.137 270.925 102.601 271.357 101.777 271.984C100.938 272.605 99.8811 273.492 98.7242 274.262C96.4478 275.851 94.1842 277.429 94.1842 277.429C94.1842 277.429 93.8602 277.651 93.3755 277.979C92.8768 278.302 92.2095 278.712 91.5621 279.114C90.2225 279.966 88.9087 280.795 88.9087 280.795L86.9354 277.506L90.0137 275.58Z" fill="#C3A1BC"/>
<path d="M-132.9 189.158C-132.306 191.348 -131.693 193.53 -131.693 193.53C-130.837 192.462 -130.016 191.355 -129.381 190.476C-129.887 189.957 -130.562 189.11 -131.039 188.03C-131.278 187.49 -131.463 186.881 -131.561 186.243C-131.629 185.592 -131.578 184.875 -131.395 184.122C-131.199 183.358 -130.839 182.539 -130.241 181.727C-127.786 178.111 -118.329 174.402 -115.783 173.561C-115.826 174.141 -116.004 175.178 -116.132 176.435C-116.272 177.679 -116.476 179.178 -116.78 180.693C-117.074 182.088 -117.354 183.489 -117.71 184.775C-118.078 186.048 -118.531 187.169 -119.119 188.017C-121.772 191.866 -125.82 191.77 -127.704 191.37C-128.694 193.095 -129.881 195.808 -130.343 197.664C-130.343 197.664 -129.912 198.973 -129.467 200.288C-129.021 201.603 -128.502 202.883 -128.502 202.883C-128.502 202.883 -128.165 203.763 -127.663 205.101C-127.409 205.764 -127.109 206.554 -126.782 207.379C-126.429 208.183 -126.058 209.06 -125.673 209.927C-124.894 211.655 -124.179 213.416 -123.536 214.697C-122.918 215.977 -122.473 216.819 -122.473 216.819C-121.828 215.637 -121.235 214.401 -120.758 213.423C-121.531 212.908 -122.566 211.868 -123.232 210.444C-123.861 208.994 -124.17 207.155 -123.049 204.937C-121.104 200.933 -112.477 195.756 -110.123 194.52C-109.992 195.653 -109.876 198.39 -109.909 201.321C-109.876 204.214 -110.195 207.432 -111.032 209.329C-112.932 213.544 -116.979 214.12 -118.929 214.033C-119.544 215.857 -120.398 218.784 -120.551 220.695L-117.854 225.518C-117.854 225.518 -117.415 226.333 -116.968 227.109C-116.489 227.89 -116.005 228.658 -116.005 228.658C-116.005 228.658 -114.811 230.585 -113.593 232.515C-113.008 233.498 -112.33 234.397 -111.862 235.124C-111.369 235.812 -111.043 236.281 -111.043 236.281C-110.585 235.012 -110.163 233.688 -109.842 232.686C-111.175 232.06 -113.426 230.254 -113.693 227.246C-113.753 226.458 -113.694 225.603 -113.382 224.622C-112.051 220.377 -104.262 213.969 -102.109 212.382C-101.97 212.98 -101.755 213.975 -101.533 215.229C-101.324 216.454 -101.1 217.941 -100.846 219.475C-100.45 222.254 -100.306 225.26 -100.822 227.184C-102.089 231.631 -105.994 232.781 -107.937 232.995C-108.273 234.887 -108.743 237.95 -108.544 239.834L-105.2 244.223L-105.18 244.215C-105.18 244.215 -104.621 244.981 -103.69 246.051C-102.766 247.136 -101.542 248.595 -100.327 250.058C-99.0742 251.488 -97.7271 252.833 -96.7796 253.902C-95.8033 254.942 -95.1557 255.637 -95.1557 255.637C-94.9093 254.296 -94.6895 252.92 -94.5355 251.84C-95.3919 251.564 -96.7449 250.946 -97.849 249.795C-98.9259 248.638 -99.6518 246.882 -99.347 244.471C-98.8178 240.138 -92.1089 232.481 -90.2387 230.577C-90.0322 231.095 -89.7115 232.034 -89.3028 233.16C-88.8752 234.26 -88.3884 235.576 -87.9672 236.989C-87.1508 239.837 -86.255 242.793 -86.5629 244.953C-87.1226 249.597 -90.7663 251.371 -92.6323 251.858C-92.7142 253.856 -92.5314 256.829 -92.0573 258.67C-92.0573 258.67 -91.0867 259.625 -90.0808 260.594C-89.5937 261.097 -89.0789 261.553 -88.6858 261.884C-88.2957 262.222 -88.0351 262.472 -88.0351 262.472L-88.041 262.486L-85.3092 264.868C-85.3092 264.868 -84.8786 265.248 -84.2502 265.81C-83.6078 266.378 -82.6956 267.076 -81.8135 267.786C-80.0322 269.205 -78.2551 270.614 -78.2551 270.614C-78.2103 269.239 -78.1936 267.852 -78.1976 266.772C-78.9069 266.64 -79.9524 266.36 -80.9673 265.768C-82.0122 265.189 -83.0047 264.267 -83.559 262.815C-83.8588 262.083 -84.03 261.223 -84.0435 260.205C-84.0791 257.992 -82.7982 254.779 -81.2384 251.832C-79.6799 248.868 -77.9056 246.203 -77.1353 245.099C-76.5762 246.163 -75.0967 248.658 -73.7687 251.455C-73.1764 252.757 -72.5753 254.038 -72.1273 255.288C-71.6763 256.531 -71.3696 257.721 -71.3437 258.769C-71.2153 263.436 -74.554 265.711 -76.3097 266.51C-76.1111 268.493 -75.4674 271.377 -74.7534 273.161C-74.7534 273.161 -73.6251 273.958 -72.4939 274.747C-72.268 274.942 -72.0355 275.081 -71.8048 275.244C-63.4411 279.888 -48.7378 287.107 -48.7378 287.107C-48.7378 287.107 -31.6167 293.673 -22.9361 296.035C-22.9361 296.035 -22.5945 296.112 -22.0956 296.23C-21.5766 296.34 -20.9193 296.516 -20.2194 296.61C-18.8515 296.835 -17.4995 297.079 -17.4995 297.079C-15.7162 296.333 -13.2226 294.766 -11.6718 293.524C-12.3528 291.72 -13.0641 287.73 -9.62826 284.55C-8.89278 283.846 -7.84684 283.214 -6.62132 282.65C-5.44182 282.115 -4.08982 281.645 -2.75124 281.128C0.173391 280.098 2.97728 279.415 4.14229 279.074C3.90188 280.4 3.26406 283.526 2.24252 286.715C1.21982 289.887 -0.158887 293.075 -1.74671 294.583C-2.47216 295.283 -3.2084 295.771 -3.9491 296.091C-5.37331 296.713 -6.70973 296.65 -7.86825 296.322C-9.01858 296.014 -9.93859 295.454 -10.5325 295.047C-11.3087 295.809 -12.2904 296.783 -13.2185 297.787C-13.2185 297.787 -10.9721 298.057 -8.7056 298.319C-7.56676 298.456 -6.44982 298.626 -5.59544 298.669C-4.73991 298.729 -4.18724 298.778 -4.18724 298.778L-0.548893 299.018C-0.548893 299.018 -0.341413 299.039 -0.0544841 299.068C0.0733678 299.08 0.252472 299.089 0.425681 299.112C0.93594 299.143 1.56581 299.167 2.19866 299.183C3.6011 299.207 4.98346 299.239 4.98346 299.239C6.61394 298.264 8.85494 296.308 10.2158 294.846C9.26827 293.162 7.95975 289.328 10.8784 285.657C12.2121 283.943 14.9271 282.501 17.5366 281.073C18.8325 280.381 20.1181 279.791 21.2026 279.325C22.2707 278.819 23.1635 278.414 23.6807 278.191C23.6265 280.856 22.9014 291.006 20.1818 294.42C18.7029 296.322 16.9438 297.07 15.3568 297.109C13.7687 297.132 12.3801 296.6 11.5558 296.187C10.9132 297.046 10.0897 298.178 9.31045 299.303C9.31045 299.303 10.2658 299.264 11.6948 299.224C13.1016 299.159 15.0079 299.17 16.9121 299.048C18.7939 298.899 20.6887 298.74 22.0931 298.64C23.5258 298.552 24.4813 298.413 24.4813 298.413L29.9757 297.714C31.4315 296.541 33.2828 294.048 34.4034 292.486C33.1715 290.965 31.2604 287.359 33.5363 283.319C34.5198 281.608 36.7856 279.612 39.0319 277.941C40.3069 277.04 41.5389 276.163 42.5337 275.435C43.5939 274.71 44.4434 274.17 44.9649 273.858C45.342 276.505 46.2625 286.515 44.17 290.475C43.6817 291.382 43.1249 292.036 42.5235 292.539C40.1848 294.47 37.3462 294.126 35.9618 293.604C35.4557 294.553 34.8343 295.777 34.2529 296.986C34.2529 296.986 34.8205 296.9 35.6381 296.753C36.4857 296.594 37.599 296.456 38.7103 296.183C40.934 295.656 43.15 295.166 43.15 295.166C43.15 295.166 44.0437 294.977 44.9091 294.775C45.7952 294.525 46.6796 294.298 46.6796 294.298L52.0157 292.827C53.2699 291.362 54.7584 288.684 55.6141 286.961C54.1827 285.638 51.7413 282.366 53.3953 278.065C54.1778 276.12 56.2464 273.644 58.3118 271.631C60.3987 269.528 62.4243 267.689 63.3006 266.986C64.0916 269.558 66.4685 279.324 64.9756 283.519C64.1924 285.862 62.6585 286.944 61.1884 287.498C59.7013 288.052 58.2487 288.049 57.3256 287.852C56.972 288.874 56.5231 290.163 56.1336 291.468C56.1336 291.468 57.0222 291.152 58.3836 290.719C59.7268 290.27 61.4911 289.549 63.2661 288.883C64.1565 288.543 65.0428 288.193 65.876 287.87C66.6798 287.519 67.4506 287.187 68.091 286.908C69.4191 286.336 70.269 285.954 70.269 285.954C70.269 285.954 71.551 285.413 72.8025 284.826C74.0446 284.202 75.2879 283.595 75.2879 283.595C76.2931 281.951 77.3727 279.218 77.9129 277.295C76.2855 276.223 73.3612 273.429 74.2462 268.822C74.4401 267.824 74.9405 266.69 75.5766 265.53C76.2321 264.403 77.0339 263.204 77.8167 262.031C78.6982 260.741 79.6238 259.544 80.4093 258.563C81.1918 257.589 81.8144 256.738 82.2141 256.3C83.3837 258.682 87.3978 268.031 86.5676 272.329C86.3849 273.34 86.0588 274.157 85.6439 274.829C85.2562 275.496 84.7768 276.025 84.2622 276.44C83.7424 276.828 83.1915 277.111 82.6189 277.327C81.5068 277.741 80.4494 277.845 79.7193 277.862C79.5501 278.919 79.3343 280.306 79.1605 281.652C79.1605 281.652 81.1542 280.563 83.1255 279.448C85.1345 278.382 87.0524 277.137 87.0524 277.137L89.0454 280.429L87.8556 281.166C88.5681 281.448 89.2947 281.736 89.9938 281.971C90.5344 282.148 91.0209 282.336 91.4738 282.484C91.9779 281.659 92.8899 280.415 94.3028 279.522C95.6803 278.615 97.5259 277.978 100.015 278.442C104.495 279.349 112.279 285.791 114.339 287.576C113.66 287.888 112.512 288.427 111.091 289.002C109.644 289.54 107.918 290.11 106.158 290.641C102.66 291.73 98.8149 292.242 96.5606 291.753C96.3014 291.677 96.0552 291.59 95.8072 291.528C91.607 290.132 91.0669 286.288 90.9989 284.409C89.0236 284.087 85.9388 283.399 84.009 283.345C84.009 283.345 83.2752 283.767 82.1527 284.383C81.0467 285.039 79.5268 285.771 78.0021 286.534C76.4652 287.267 74.9588 288.045 73.8117 288.601C72.637 289.104 71.8462 289.445 71.8462 289.445L71.8491 289.438C71.8491 289.438 70.0982 290.205 68.3543 290.976C67.4815 291.373 66.581 291.717 65.9053 291.981C65.2484 292.22 64.7873 292.409 64.7873 292.409C65.9563 293.148 67.1872 293.838 68.1734 294.359C68.814 293.624 69.892 292.5 71.4224 291.822C72.9275 291.126 74.9036 290.951 77.2469 291.743C81.4694 293.264 88.151 301.028 89.9046 303.107C88.4301 303.493 84.9537 304.333 81.3182 304.8C77.6263 305.143 73.8489 305.235 71.6714 304.305C66.979 302.28 67.119 298.082 67.3664 296.145C65.4419 295.404 62.5441 294.33 60.6561 293.978C60.6561 293.978 60.0132 294.223 59.0221 294.546C58.0409 294.864 56.7279 295.301 55.3948 295.746C54.0946 296.171 52.7674 296.602 51.7587 296.868C50.7571 297.136 50.0837 297.335 50.0837 297.335L50.0978 297.341C50.0978 297.341 48.5833 297.743 47.0799 298.158C46.3323 298.376 45.5624 298.567 45 298.68C44.4229 298.828 44.0462 298.894 44.0462 298.894L42.6838 299.21C43.2604 299.717 43.8841 300.211 44.4543 300.674C44.9269 301.014 45.3371 301.343 45.7308 301.633C46.4803 301.034 47.7236 300.071 49.3142 299.626C50.9138 299.16 52.8918 299.218 55.1007 300.41C59.0375 302.534 64.5132 311.152 65.9168 313.491C64.4163 313.642 60.8676 314.02 57.1919 313.889C53.4856 313.712 49.745 313.28 47.7214 311.984C47.4859 311.852 47.2694 311.695 47.071 311.553C43.4735 308.858 44.162 305.057 44.6542 303.289C42.8764 302.278 40.1512 300.811 38.3533 300.165C38.3533 300.165 35.0146 300.756 31.6517 301.346C28.2797 301.798 24.9023 302.224 24.9023 302.224L24.8882 302.218C24.8882 302.218 24.4179 302.27 23.7094 302.354C22.9957 302.412 22.0498 302.488 21.0856 302.548C19.1767 302.702 17.2737 302.841 17.2737 302.841C18.1404 303.885 19.1056 304.912 19.8756 305.691C20.6944 305.205 22.0998 304.508 23.7524 304.372C25.4045 304.177 27.328 304.444 29.3329 306.023C32.8906 308.893 36.8348 318.171 37.8568 320.707C37.1061 320.674 35.8281 320.611 34.3162 320.492C32.7697 320.316 30.9817 320.023 29.1632 319.683C25.5597 319.043 21.9226 317.75 20.1327 316.253C16.3047 312.939 17.7372 308.968 18.5582 307.188C16.9516 305.967 14.5279 303.98 12.8501 303.027C12.8501 303.027 12.1541 303.043 11.1093 303.077C10.0786 303.118 8.69196 303.175 7.30727 303.109C4.51652 303.067 1.75879 303.006 1.75879 303.006C1.75879 303.006 1.35746 303.012 0.784754 302.971C0.187886 302.928 -0.585088 302.869 -1.37225 302.805C-2.93721 302.713 -4.48332 302.595 -4.48332 302.595L-5.87323 302.502C-5.49254 303.159 -5.05761 303.806 -4.62613 304.402C-4.29521 304.881 -4.00008 305.287 -3.72618 305.684C-2.83396 305.32 -1.36234 304.841 0.293326 304.955C1.97086 305.036 3.82618 305.565 5.5648 307.423C8.67086 310.775 11.1839 320.573 11.8104 323.2C8.8046 322.819 -2.06047 319.781 -5.04703 316.164C-5.22876 315.964 -5.40459 315.749 -5.53916 315.535C-8.12212 311.946 -6.28169 308.528 -5.25473 306.951C-6.6465 305.554 -8.76778 303.163 -10.2672 302.003C-10.2672 302.003 -11.1391 301.903 -12.3969 301.732C-13.6713 301.621 -15.3497 301.324 -17.021 301.03C-18.6981 300.749 -20.3895 300.463 -21.6537 300.248C-22.8942 299.977 -23.7207 299.788 -23.7207 299.788C-28.1777 298.965 -34.8393 296.86 -40.3828 294.942C-40.7622 294.915 -41.1469 294.862 -41.6342 294.815C-25.1905 308.92 -25.1909 322.85 -25.1909 322.85L-33.2875 319.472C-32.7269 311.676 -42.1793 301.207 -49.4583 294.313C-59.4801 293.961 -73.5786 294.611 -78.7463 300.475L-86.8358 297.099C-86.8358 297.099 -76.9239 287.293 -55.3242 289.083C-55.4872 288.956 -55.6037 288.857 -55.7667 288.731C-61.4959 285.889 -70.5889 281.122 -76.2713 276.781L-76.2654 276.767C-76.7886 276.39 -77.3471 275.998 -77.8915 275.612C-79.284 274.613 -80.6612 273.637 -81.648 272.8C-82.6454 272.009 -83.3256 271.491 -83.3256 271.491C-85.2049 271.217 -88.3891 271.4 -90.3868 271.409C-90.766 273.225 -91.9069 276.936 -96.29 277.62C-96.5381 277.657 -96.8004 277.688 -97.0568 277.705C-101.757 278.115 -111.558 272.52 -113.942 270.657C-111.624 269.249 -102.873 264.173 -98.3208 264.017C-95.7833 263.969 -94.0865 264.896 -92.8499 266.029C-91.6185 267.134 -90.9079 268.511 -90.5554 269.413C-90.0862 269.345 -89.5639 269.248 -88.9904 269.149C-88.2801 269.04 -87.5131 268.856 -86.7609 268.707L-87.8158 267.775C-87.8158 267.775 -88.9914 266.734 -90.1799 265.705C-90.7495 265.2 -91.3331 264.69 -91.782 264.294C-92.2268 263.909 -92.4909 263.607 -92.4909 263.607C-92.4909 263.607 -94.4805 261.694 -96.4723 259.747C-97.4842 258.792 -98.4211 257.777 -99.1145 257.013C-99.815 256.247 -100.309 255.741 -100.309 255.741C-102.16 255.222 -105.296 254.894 -107.274 254.596C-107.96 256.432 -109.793 260.268 -114.827 259.849C-117.143 259.625 -120.62 257.951 -123.619 255.83C-125.135 254.788 -126.59 253.722 -127.817 252.743C-128.953 251.727 -129.908 250.895 -130.458 250.383C-127.931 249.31 -118.564 245.597 -114.019 246.133C-111.483 246.425 -109.934 247.606 -108.925 248.925C-107.857 250.203 -107.36 251.672 -107.126 252.6C-106.041 252.607 -104.648 252.594 -103.299 252.488C-103.299 252.488 -104.527 251.018 -105.763 249.546C-106.391 248.826 -106.99 248.094 -107.466 247.546C-107.885 246.98 -108.199 246.599 -108.199 246.599C-108.199 246.599 -110.246 243.891 -112.316 241.181C-114.262 238.39 -116.189 235.575 -116.189 235.575C-117.917 234.742 -120.868 233.853 -122.836 233.277C-123.754 234.891 -125.969 238.053 -130.405 237.379C-130.648 237.343 -130.915 237.306 -131.181 237.228C-133.527 236.7 -136.44 234.334 -139.191 231.819C-141.881 229.298 -144.078 226.493 -145.042 225.325C-142.389 224.704 -132.414 222.515 -128.127 223.823C-125.728 224.58 -124.301 225.934 -123.506 227.404C-122.715 228.847 -122.513 230.426 -122.418 231.369C-121.937 231.43 -121.413 231.509 -120.835 231.577C-120.107 231.683 -119.322 231.772 -118.549 231.831L-119.284 230.651C-119.284 230.651 -119.499 230.312 -119.807 229.818C-120.119 229.314 -120.524 228.654 -120.887 227.955C-121.657 226.603 -122.409 225.225 -122.409 225.225C-122.409 225.225 -122.748 224.627 -123.259 223.724C-123.782 222.833 -124.419 221.578 -125.008 220.327C-125.616 219.102 -126.239 217.853 -126.713 216.924C-127.185 215.988 -127.475 215.352 -127.475 215.352C-129.014 214.267 -131.851 212.969 -133.708 212.108C-134.91 213.645 -137.811 216.701 -142.538 214.777C-144.726 213.892 -147.328 211.142 -149.674 208.275C-151.886 205.348 -153.744 202.287 -154.494 200.985C-151.777 200.747 -141.579 200.046 -137.514 201.983C-135.308 203.082 -134.056 204.636 -133.495 206.19C-132.909 207.764 -132.937 209.336 -133.02 210.289C-131.952 210.612 -130.568 211.018 -129.244 211.308C-129.244 211.308 -129.438 210.878 -129.716 210.214C-130.015 209.541 -130.405 208.689 -130.74 207.802C-131.399 206.007 -132.098 204.204 -132.098 204.204C-132.098 204.204 -132.408 203.419 -132.868 202.238C-133.286 201.034 -133.8 199.408 -134.335 197.79C-134.864 196.158 -135.424 194.562 -135.734 193.321C-136.071 192.084 -136.307 191.28 -136.307 191.28C-137.688 189.954 -140.337 188.229 -141.962 187.05C-143.352 188.326 -146.464 190.655 -150.408 188.627C-150.623 188.504 -150.857 188.389 -151.094 188.24C-153.045 186.99 -155.372 183.899 -157.061 180.636C-157.91 179.035 -158.704 177.383 -159.348 175.985C-159.941 174.566 -160.376 173.363 -160.612 172.659C-157.885 172.873 -147.856 173.901 -144.053 176.425C-141.954 177.877 -141.135 179.631 -140.803 181.256C-140.458 182.91 -140.706 184.432 -140.933 185.35C-140.514 185.558 -140.044 185.805 -139.536 186.06C-138.868 186.39 -138.153 186.706 -137.44 187.005L-137.768 185.648L-134.023 184.762C-134.023 184.762 -133.541 186.981 -132.9 189.158Z" fill="#C3A1BC"/>
<path d="M-139.669 125.606C-139.187 122.876 -138.725 120.137 -138.725 120.137C-139.342 118.349 -140.838 115.637 -141.848 113.859C-143.707 114.401 -147.835 115.162 -150.512 110.841C-151.818 108.822 -152.225 105.071 -152.422 101.375C-152.581 97.6857 -152.172 94.1434 -152.005 92.6598C-149.698 94.0508 -141.079 99.4848 -138.96 103.397C-136.48 107.852 -138.962 111.281 -140.189 112.785C-139.521 113.68 -138.659 114.806 -137.765 115.812C-137.765 115.812 -137.373 113.949 -136.896 112.081C-136.396 110.238 -135.896 108.413 -135.896 108.413C-135.896 108.413 -135.665 107.587 -135.324 106.359C-135.015 105.127 -134.448 103.52 -133.893 101.9C-133.369 100.275 -132.841 98.6606 -132.42 97.4582C-131.964 96.2535 -131.653 95.4704 -131.653 95.4704C-131.999 93.572 -133.046 90.6572 -133.761 88.729C-135.58 88.9384 -139.417 89.0242 -141.513 85.0379C-141.627 84.8157 -141.732 84.5723 -141.834 84.3218C-142.67 82.1684 -142.611 78.3549 -142.173 74.6837C-141.649 71.0651 -140.781 67.5911 -140.372 66.1424C-138.305 67.8896 -130.67 74.6637 -129.187 78.9079C-128.406 81.271 -128.68 83.2081 -129.371 84.7377C-130.064 86.2502 -131.182 87.3181 -131.925 87.9452C-131.72 88.3637 -131.48 88.8382 -131.232 89.3327C-130.87 89.9911 -130.455 90.6802 -130.063 91.3434L-129.549 90.0386L-126.98 84.3281C-126.98 84.3281 -126.714 83.6922 -126.269 82.7319C-125.808 81.8288 -125.18 80.5883 -124.545 79.3508C-123.923 78.1245 -123.289 76.8699 -122.815 75.9556C-122.335 75.0272 -121.959 74.4286 -121.959 74.4286C-122.015 72.5276 -122.625 69.4802 -123.031 67.4657C-124.98 67.4129 -129.128 66.878 -130.377 61.9178C-130.912 59.6581 -130.25 55.9064 -129.295 52.3271C-128.234 48.8092 -126.854 45.4996 -126.231 44.1325C-124.447 46.1769 -117.925 54.0048 -117.084 58.4196C-116.678 60.8665 -117.198 62.7586 -118.118 64.1424C-119.03 65.5463 -120.299 66.4597 -121.129 66.9589C-120.805 67.9837 -120.299 69.3426 -119.775 70.6009C-119.775 70.6009 -118.847 68.9213 -117.773 67.3279C-116.738 65.7097 -115.702 64.1087 -115.702 64.1087C-115.702 64.1087 -115.245 63.3946 -114.559 62.3115C-113.812 61.2791 -112.823 59.9077 -111.819 58.501C-110.834 57.1196 -109.853 55.7281 -109.039 54.7565C-108.235 53.7477 -107.724 53.0815 -107.724 53.0815C-107.453 51.2097 -107.62 48.0156 -107.618 46.0145C-109.46 45.649 -113.169 44.5008 -113.855 40.1338C-113.892 39.8858 -113.929 39.6377 -113.934 39.3532C-114.35 34.659 -108.758 24.858 -106.911 22.4672C-105.504 24.8016 -100.407 33.5191 -100.256 38.0769C-100.193 40.6123 -101.147 42.3143 -102.251 43.5459C-103.366 44.7817 -104.761 45.5011 -105.645 45.853C-105.577 46.322 -105.494 46.8552 -105.389 47.4143C-105.264 48.1231 -105.115 48.8749 -104.949 49.6427L-104.018 48.5876C-104.018 48.5876 -102.971 47.4147 -101.963 46.2342C-101.439 45.6563 -100.929 45.0725 -100.521 44.6123C-100.148 44.1786 -99.8722 43.8956 -99.8722 43.8956C-99.8722 43.8956 -97.95 41.9185 -96.0049 39.9261C-95.0586 38.894 -94.0363 37.9768 -93.2816 37.2631C-92.5157 36.5624 -92.0103 36.0681 -92.0103 36.0681C-91.4757 34.2402 -91.1605 31.099 -90.8687 29.1195C-92.7124 28.4211 -96.537 26.6013 -96.1189 21.5758C-95.8976 19.251 -94.2283 15.7638 -92.1122 12.7714C-91.0738 11.2628 -89.982 9.78492 -89.0469 8.58192C-88.0414 7.40845 -87.1877 6.47867 -86.6657 5.92495C-85.5994 8.45739 -81.8933 17.7878 -82.4056 22.3666C-82.7239 24.8834 -83.8976 26.4183 -85.2 27.4506C-86.4832 28.516 -87.9467 29.0239 -88.8784 29.2314C-88.8821 30.3264 -88.8576 31.7491 -88.7523 33.0976C-88.7523 33.0976 -87.3028 31.8528 -85.8321 30.6168C-85.1018 30.0009 -84.3785 29.382 -83.8297 28.9225C-83.2658 28.4861 -82.8916 28.186 -82.8916 28.186C-82.8916 28.186 -80.1815 26.1074 -77.4773 24.0428C-74.6889 22.1132 -71.8916 20.1625 -71.8916 20.1625C-71.0563 18.4275 -70.1599 15.4802 -69.5972 13.5063C-71.2045 12.5996 -74.3526 10.3905 -73.6968 5.9632C-73.6513 5.71643 -73.6069 5.45261 -73.5425 5.18053C-73.0102 2.84488 -70.664 -0.0842628 -68.1631 -2.84888C-65.6425 -5.52217 -62.8591 -7.73626 -61.6756 -8.70216C-61.054 -6.05712 -58.8676 3.91538 -60.1624 8.20764C-60.9088 10.6196 -62.2519 12.0254 -63.7405 12.8301C-65.1949 13.6326 -66.7507 13.8275 -67.6761 13.9213C-67.7512 14.3966 -67.8189 14.9332 -67.9084 15.5021C-67.9968 16.246 -68.1029 17.0324 -68.146 17.7869L-66.964 17.0613C-66.964 17.0613 -66.6423 16.8473 -66.1417 16.5421C-65.6422 16.2199 -64.9877 15.8047 -64.3059 15.4426C-62.9244 14.676 -61.5701 13.9147 -61.5701 13.9147C-61.5701 13.9147 -60.9612 13.5885 -60.0526 13.0805C-59.1492 12.5455 -57.9234 11.9131 -56.6783 11.3136C-55.4324 10.673 -54.1985 10.0606 -53.2694 9.60272C-52.3375 9.13783 -51.7233 8.83868 -51.7233 8.83868C-50.6301 7.27829 -49.3246 4.46108 -48.4801 2.60529C-50.0112 1.39831 -53.0604 -1.5004 -51.1505 -6.23259C-50.2631 -8.42764 -47.5243 -11.0094 -44.6516 -13.3772C-41.7328 -15.6176 -38.6779 -17.452 -37.3876 -18.1987C-37.1459 -15.4969 -36.452 -5.30288 -38.3743 -1.23223C-39.4722 0.990857 -41.0069 2.24149 -42.5704 2.7905C-44.1176 3.37958 -45.6938 3.3666 -46.6475 3.29071C-46.9855 4.3536 -47.3517 5.72037 -47.6678 7.06663C-47.6678 7.06663 -47.2357 6.86567 -46.5724 6.5872C-45.9201 6.29577 -45.0471 5.8726 -44.1603 5.55492C-42.3648 4.88719 -40.5945 4.20061 -40.5945 4.20061C-40.5945 4.20061 -39.7889 3.89873 -38.6112 3.42056C-37.4072 2.97836 -35.7862 2.47006 -34.1734 1.94172C-32.5636 1.42045 -30.9571 0.847981 -29.7029 0.543089C-28.4863 0.18926 -27.6721 -0.0342748 -27.6721 -0.0342748C-26.3449 -1.4218 -24.6291 -4.09189 -23.468 -5.71523C-24.7223 -7.0886 -27.0514 -10.1839 -25.0401 -14.1507C-24.9253 -14.3851 -24.7964 -14.6135 -24.6534 -14.836C-23.4043 -16.7879 -20.3235 -19.1183 -17.0711 -20.8117C-15.4565 -21.6799 -13.8305 -22.4769 -12.416 -23.105C-11.0074 -23.719 -9.81938 -24.1429 -9.10859 -24.3766C-9.3194 -21.6818 -10.3188 -11.6163 -12.862 -7.82265C-14.3028 -5.71011 -16.0441 -4.89505 -17.6833 -4.56055C-19.3154 -4.2231 -20.8399 -4.4387 -21.7706 -4.68776C-21.9825 -4.26151 -22.218 -3.77873 -22.4695 -3.27772C-22.7821 -2.61124 -23.1125 -1.90233 -23.4088 -1.19579L-22.0554 -1.5006C-22.0554 -1.5006 -20.5266 -1.84815 -19.0131 -2.21872C-18.2537 -2.39046 -17.4692 -2.54337 -16.9204 -2.68707C-16.3382 -2.79185 -15.9453 -2.85971 -15.9453 -2.85971C-15.9453 -2.85971 -13.2154 -3.3267 -10.4978 -3.82374C-9.14915 -4.0973 -7.76339 -4.2224 -6.73199 -4.37145C-5.7054 -4.48927 -5.0238 -4.59392 -5.0238 -4.59392C-4.26827 -5.19097 -3.37016 -6.06884 -2.48539 -6.99386C-1.59061 -7.92299 -0.714728 -8.8268 -0.0222511 -9.54998C-1.10868 -11.1853 -3.13009 -14.9158 0.152118 -18.7734C1.66336 -20.5407 5.07255 -22.3512 8.53901 -23.5478C10.2656 -24.1696 11.9984 -24.7473 13.4927 -25.1509C14.9732 -25.5021 16.2136 -25.7546 16.9441 -25.8969C16.6569 -24.58 15.871 -21.4618 14.7727 -18.2503C13.6892 -15.0741 12.3296 -11.7727 10.7887 -10.0926C9.03142 -8.21253 7.18629 -7.62377 5.517 -7.59267C3.8633 -7.48027 2.4014 -7.94379 1.50808 -8.30178C0.854943 -7.39595 0.0710317 -6.23753 -0.627618 -5.08492C-0.627618 -5.08492 6.88065 -4.54508 8.76452 -4.59419C9.92197 -4.64884 13.1979 -4.62096 16.6055 -4.57114C16.9916 -6.10405 18.5928 -10.6334 23.9865 -10.6396C28.4562 -10.6346 36.9804 -5.34855 39.1946 -3.8551C36.9468 -2.405 28.2935 2.74774 23.8463 2.66906C19.1294 2.60186 17.3993 -0.915086 16.7817 -2.81907C9.41089 -2.14647 0.651397 -1.34173 -0.418576 -1.25871C-2.29983 -1.11711 -4.16284 -0.801649 -5.59156 -0.653057C-7.00099 -0.471454 -7.95238 -0.355333 -7.95238 -0.355333C-7.00253 0.657772 -6.00082 1.62611 -5.24341 2.36743C-4.50342 1.84694 -3.20608 1.10324 -1.65248 0.874094C-0.0814565 0.7021 1.75845 1.13304 3.52128 2.79445C6.71325 5.72811 8.97786 15.6919 9.44083 18.3203C8.88595 18.1623 7.95522 17.9133 6.8121 17.5585C5.67345 17.2721 4.30535 16.8812 2.93871 16.4078C0.156868 15.3991 -2.77472 14.3525 -4.32957 12.8863C-7.75288 9.71444 -7.05104 5.73019 -6.38002 3.89305C-7.92515 2.68017 -10.4291 1.04855 -12.2065 0.369689C-12.2065 0.369689 -13.5603 0.616197 -14.9282 0.856754C-15.0364 0.877835 -15.1288 0.880616 -15.23 0.904651C-15.23 0.904651 -15.287 0.922274 -15.294 0.919321C-15.8562 1.01588 -16.3751 1.14724 -16.7809 1.2263C-17.2838 1.33942 -17.6173 1.42387 -17.6173 1.42387L-17.6314 1.41797L-21.1718 2.21802C-21.1718 2.21802 -23.3787 2.72156 -25.5667 3.35762C-27.7428 3.96543 -29.9389 4.58143 -29.9389 4.58143C-28.8609 5.40735 -27.7277 6.23982 -26.8706 6.88171C-26.3452 6.37923 -25.526 5.70923 -24.4246 5.21566C-23.8895 4.9665 -23.2887 4.77812 -22.6401 4.69285C-21.9734 4.62351 -21.2719 4.66847 -20.5431 4.86605C-19.7744 5.04718 -18.9492 5.40983 -18.1307 5.98569C-14.5145 8.44091 -10.8177 17.892 -9.96601 20.4424C-10.5494 20.3723 -11.5575 20.2486 -12.8328 20.071C-14.0837 19.9536 -15.5589 19.7587 -17.0919 19.4648C-18.4803 19.1816 -19.88 18.8855 -21.1535 18.5259C-22.4271 18.1663 -23.5728 17.7191 -24.4065 17.1202C-28.2607 14.4821 -28.1653 10.4429 -27.7574 8.56191C-29.4796 7.57385 -32.1903 6.39558 -34.0395 5.92753C-34.0395 5.92753 -35.3499 6.36668 -36.6673 6.80286C-37.9625 7.26499 -39.2443 7.77429 -39.2443 7.77429C-39.2443 7.77429 -40.136 8.12314 -41.466 8.62882C-42.1204 8.88609 -42.8949 9.19272 -43.7406 9.51104C-44.5488 9.87829 -45.4142 10.2631 -46.2906 10.635C-48.016 11.4318 -49.7711 12.1415 -51.0421 12.7632C-52.315 13.4092 -53.164 13.8341 -53.164 13.8341C-51.983 14.454 -50.7337 15.0692 -49.7856 15.5333C-49.2569 14.7663 -48.2254 13.7284 -46.8061 13.0691C-45.3445 12.4275 -43.5005 12.1374 -41.3131 13.2208C-37.3161 15.1628 -32.1358 23.7821 -30.889 26.141C-32.0138 26.2758 -34.7301 26.3746 -37.6799 26.3588C-40.5771 26.415 -43.7868 26.091 -45.6917 25.2423C-49.893 23.3725 -50.4556 19.3233 -50.3802 17.3859C-52.1983 16.7647 -55.1347 15.9072 -57.0109 15.7602L-61.8549 18.4644L-61.8619 18.4615C-61.8619 18.4615 -62.6605 18.9241 -63.4502 19.3656C-64.2135 19.843 -64.9768 20.3206 -64.9768 20.3206C-64.9768 20.3206 -66.9011 21.5324 -68.8284 22.7514C-69.8007 23.3323 -70.7081 24.0152 -71.4233 24.4962C-72.1214 24.9761 -72.5857 25.3131 -72.5857 25.3131C-71.3336 25.7634 -69.9944 26.1837 -68.981 26.4924C-68.3688 25.1706 -66.592 22.9082 -63.5859 22.6318C-62.7917 22.5744 -61.9232 22.6561 -60.9532 22.93C-56.7144 24.2755 -50.3198 32.0332 -48.7374 34.1839C-49.3003 34.3217 -50.318 34.5762 -51.5576 34.7875C-52.7884 34.9775 -54.2586 35.225 -55.8081 35.4642C-58.5866 35.8692 -61.5905 36.0219 -63.5012 35.5031C-67.9361 34.2498 -69.0929 30.3336 -69.3014 28.4018C-71.2069 28.068 -74.244 27.6086 -76.1248 27.8085L-80.5138 31.1854C-80.5138 31.1854 -81.2715 31.7483 -82.3538 32.6901C-83.4314 33.6008 -84.8891 34.8256 -86.3286 36.0663C-87.7581 37.3029 -89.1086 38.6474 -90.1627 39.6011C-91.2157 40.5719 -91.9097 41.2197 -91.9097 41.2197C-90.5576 41.471 -89.1836 41.6899 -88.1192 41.8372C-87.8229 40.9728 -87.2141 39.5998 -86.0755 38.5236C-84.9198 37.4464 -83.1459 36.7114 -80.7589 37.0228C-76.4303 37.5419 -68.7878 44.2195 -66.8741 46.0937C-69.0535 46.8081 -76.9779 50.2229 -81.2247 49.8045C-85.8506 49.2438 -87.6255 45.6166 -88.1457 43.7369C-90.1197 43.6651 -93.0842 43.8426 -94.9242 44.3006C-94.9242 44.3006 -95.8828 45.3027 -96.8583 46.3059C-97.3448 46.7749 -97.7997 47.3069 -98.1502 47.7083C-98.4807 48.1014 -98.7249 48.3479 -98.7249 48.3479L-98.719 48.3338L-101.125 51.0885C-101.125 51.0885 -101.495 51.4981 -102.052 52.1537C-102.606 52.7851 -103.31 53.6944 -104.013 54.5796C-105.431 56.3611 -106.846 58.1355 -106.846 58.1355C-105.479 58.1936 -104.102 58.1893 -103.014 58.1805C-102.878 57.4814 -102.603 56.4503 -102.013 55.4183C-101.427 54.3763 -100.505 53.3836 -99.0753 52.8368C-98.3378 52.5396 -97.4662 52.3568 -96.4429 52.3456C-94.2499 52.3098 -91.0369 53.5741 -88.0918 55.1414C-85.1337 56.6975 -82.4744 58.4524 -81.3697 59.2148C-82.4284 59.7844 -84.9185 61.299 -87.73 62.6124C-89.0144 63.187 -90.3067 63.7999 -91.5337 64.2574C-92.7818 64.706 -93.9778 65.0104 -95.004 65.0287C-99.6835 65.1683 -101.973 61.8404 -102.743 60.0635C-104.735 60.2916 -107.602 60.9257 -109.386 61.6647C-109.386 61.6647 -110.187 62.7659 -111.002 63.9196C-111.409 64.4552 -111.774 65.0498 -112.047 65.4836C-112.326 65.9316 -112.524 66.2058 -112.524 66.2058L-112.51 66.2118C-112.51 66.2118 -113.035 67.03 -113.804 68.2114C-114.571 69.4098 -115.621 71.005 -116.533 72.6663C-117.483 74.3199 -118.427 75.9595 -119.138 77.1986C-119.82 78.4496 -120.236 79.3051 -120.236 79.3051C-118.906 79.1151 -117.576 78.8669 -116.502 78.6943C-116.483 77.7801 -116.294 76.3224 -115.523 74.9177C-114.731 73.5632 -113.418 72.2281 -110.963 71.845C-106.605 71.0306 -97.36 74.9324 -94.9654 76.0944C-95.8262 76.8634 -97.9144 78.6047 -100.343 80.2696C-102.674 82.0171 -105.379 83.7076 -107.489 84.1187C-111.968 85.0821 -114.818 82.1423 -115.9 80.517C-117.731 81.1116 -120.587 82.157 -122.21 83.163C-122.21 83.163 -122.853 84.3805 -123.405 85.6776C-123.978 86.9246 -124.529 88.1805 -124.529 88.1805L-126.02 91.5182C-126.02 91.5182 -126.838 93.6261 -127.682 95.7564C-128.078 96.8198 -128.499 97.8644 -128.793 98.6634C-129.086 99.4795 -129.248 100.026 -129.248 100.026C-127.957 99.6122 -126.652 99.1872 -125.628 98.8773C-125.81 97.4551 -125.784 94.5498 -123.541 92.5578C-122.903 92.0442 -122.128 91.5968 -121.156 91.2733C-116.96 89.8178 -107.255 92.3088 -104.713 93.1175C-105.478 94.0344 -107.401 96.2107 -109.709 98.3169C-111.686 100.287 -113.966 102.231 -115.902 102.898C-120.252 104.521 -123.463 102.028 -124.79 100.591C-126.513 101.422 -129.181 102.887 -130.618 104.121C-130.618 104.121 -130.723 104.451 -130.889 104.946C-131.055 105.441 -131.29 106.099 -131.473 106.753C-131.823 108.102 -132.199 109.431 -132.199 109.431C-132.199 109.431 -132.446 110.358 -132.833 111.733C-133.247 113.096 -133.664 114.94 -134.063 116.8C-134.445 118.658 -134.936 120.521 -135.151 121.902C-135.394 123.311 -135.551 124.259 -135.551 124.259C-134.342 123.686 -133.115 123.03 -132.169 122.512C-132.783 120.817 -133.241 116.637 -129.045 114.293C-125.096 112.202 -115.086 113.076 -112.451 113.467C-113 114.441 -114.569 116.7 -116.308 119.069C-117.981 121.441 -120.139 123.843 -121.916 124.901C-125.919 127.218 -129.521 125.301 -131.053 124.077C-132.621 125.189 -135.036 127.059 -136.282 128.53L-136.944 134.018C-136.944 134.018 -137.047 134.914 -137.151 135.834C-137.225 136.742 -137.293 137.636 -137.293 137.636C-137.293 137.636 -137.443 139.907 -137.613 142.17C-137.737 143.315 -137.705 144.442 -137.734 145.302C-137.753 146.158 -137.758 146.721 -137.758 146.721C-136.646 145.966 -135.532 145.145 -134.681 144.48C-135.391 143.21 -136.147 140.451 -134.604 137.858C-134.196 137.181 -133.624 136.507 -132.81 135.91C-129.217 133.246 -119.2 132.603 -116.504 132.612C-116.738 133.17 -117.165 134.088 -117.707 135.223C-118.271 136.332 -118.951 137.676 -119.667 139.087C-120.951 141.556 -122.646 144.06 -124.186 145.342C-127.802 148.179 -131.64 146.844 -133.324 145.863C-134.715 147.207 -136.859 149.416 -137.837 151.057L-137.685 156.58C-137.685 156.58 -137.682 156.83 -137.667 157.227C-137.65 157.641 -137.635 158.237 -137.568 158.947C-137.465 160.36 -137.317 162.259 -137.176 164.154C-137.055 166.057 -136.731 167.93 -136.584 169.337C-136.416 170.753 -136.285 171.706 -136.285 171.706C-135.298 170.774 -134.322 169.77 -133.565 168.991C-134.094 168.238 -134.839 166.953 -135.048 165.379C-135.205 163.817 -134.789 161.956 -133.136 160.207C-130.174 156.996 -120.244 154.721 -117.613 154.254C-117.748 154.813 -118.02 155.737 -118.383 156.881C-118.688 158.041 -119.068 159.402 -119.532 160.786C-120.539 163.562 -121.597 166.5 -123.077 168.072C-126.249 171.511 -130.224 170.799 -132.04 170.113C-133.275 171.697 -134.889 174.202 -135.585 175.962C-135.585 175.962 -135.363 177.326 -135.113 178.686C-134.996 179.374 -134.896 180.064 -134.747 180.559C-134.641 181.077 -134.572 181.405 -134.572 181.405L-133.775 184.954L-137.511 185.847C-137.511 185.847 -137.837 184.314 -138.191 182.787C-138.36 182.026 -138.53 181.265 -138.649 180.7C-138.752 180.117 -138.828 179.745 -138.828 179.745L-138.822 179.731C-138.822 179.731 -139.295 177.007 -139.771 174.273C-140.041 172.922 -140.147 171.515 -140.295 170.506C-140.431 169.468 -140.524 168.781 -140.524 168.781C-141.109 168.004 -141.989 167.12 -142.917 166.233C-143.821 165.347 -144.721 164.471 -145.469 163.767C-147.099 164.869 -150.803 166.889 -154.648 163.598C-156.407 162.104 -158.2 158.678 -159.39 155.196C-159.992 153.473 -160.566 151.761 -160.941 150.267C-161.314 148.765 -161.559 147.532 -161.703 146.79C-160.393 147.082 -157.272 147.876 -154.078 148.949C-150.905 150.031 -147.623 151.407 -145.939 152.96C-144.114 154.69 -143.496 156.535 -143.462 158.211C-143.375 159.86 -143.82 161.335 -144.196 162.232C-143.311 162.886 -142.146 163.682 -140.994 164.372C-140.994 164.372 -141.136 162.46 -141.291 160.559C-141.358 159.592 -141.437 158.654 -141.459 157.938C-141.495 157.233 -141.496 156.743 -141.496 156.743L-141.502 156.757C-141.502 156.757 -141.524 155.9 -141.567 154.619C-141.585 153.341 -141.683 151.638 -141.653 149.947C-141.578 146.531 -141.52 143.133 -141.52 143.133C-142.384 141.441 -144.269 139.005 -145.526 137.382C-147.206 138.148 -150.843 139.397 -154.038 136.272C-154.203 136.094 -154.396 135.922 -154.572 135.69C-156.141 133.902 -157.11 130.248 -157.868 126.607C-158.549 122.998 -158.681 119.42 -158.748 117.921C-156.248 118.97 -146.909 123.044 -144.236 126.624C-142.721 128.638 -142.372 130.571 -142.609 132.241C-142.813 133.875 -143.587 135.246 -144.057 136.07C-143.71 136.407 -143.322 136.786 -142.906 137.176C-142.379 137.696 -141.796 138.223 -141.195 138.724L-141.105 137.325C-141.105 137.325 -141.074 136.956 -141.042 136.346C-141.005 135.763 -140.926 134.982 -140.819 134.213C-140.625 132.666 -140.46 131.107 -140.46 131.107L-140.446 131.113C-140.446 131.113 -140.357 130.427 -140.234 129.382C-140.13 128.346 -139.919 126.972 -139.669 125.606Z" fill="#C3A1BC"/>
</g>
</svg>
