<svg width="288" height="316" viewBox="0 0 288 316" fill="none" xmlns="http://www.w3.org/2000/svg">
<mask id="mask0" mask-type="alpha" maskUnits="userSpaceOnUse" x="0" y="0" width="288" height="316">
<path d="M0 78.8906L188.128 0.000109434L213.829 239.711L191.606 277.224L141.481 289.569L0 78.8906Z" fill="#C4C4C4"/>
</mask>
<g mask="url(#mask0)">
<path d="M197.501 275.58C197.501 275.58 197.219 275.399 196.772 275.121C196.321 274.853 195.755 274.467 195.193 274.071C194.058 273.275 192.932 272.501 192.932 272.501C192.152 270.758 191.516 267.824 191.256 265.847C193.009 265.045 196.306 262.707 196.083 258.02C195.997 255.887 194.657 253.065 193.371 250.412C192.722 249.08 192.018 247.854 191.418 246.818C190.863 245.77 190.387 244.931 190.087 244.433C188.587 246.625 183.242 255.3 183.446 259.645C183.544 262.065 184.561 263.683 185.794 264.654C187.062 265.61 188.489 266.001 189.383 266.125C189.409 267.211 189.422 268.619 189.394 269.969C189.394 269.969 188.658 269.397 187.524 268.542C186.403 267.641 184.863 266.549 183.429 265.297C181.977 264.077 180.541 262.858 179.44 261.907C178.891 261.464 178.459 261.063 178.169 260.786C177.867 260.497 177.686 260.323 177.686 260.323L177.679 260.326L173.656 256.56C173.177 254.708 173.093 251.634 173.113 249.714C174.986 249.178 178.631 247.416 179.145 242.812C179.314 240.854 178.706 237.867 177.857 235.214C177.358 233.727 176.891 232.319 176.483 231.11C176.074 229.918 175.698 228.962 175.464 228.403C173.612 230.327 167.036 237.898 166.404 242.319C166.261 243.335 166.339 244.192 166.535 244.974C167.301 247.903 169.795 249.301 171.208 249.698C171.061 250.765 170.857 252.131 170.626 253.45C170.626 253.45 170.225 253.045 169.629 252.43C169.054 251.807 168.222 251.025 167.496 250.141C165.995 248.451 164.496 246.727 164.496 246.727C164.496 246.727 163.908 246.034 163.295 245.36C162.75 244.65 162.176 243.951 162.176 243.951L162.164 243.923L158.724 239.579C158.551 237.69 158.913 234.654 159.224 232.737C161.158 232.507 165.038 231.304 166.212 226.838C166.713 224.841 166.51 221.601 165.999 218.748C165.521 215.856 165.015 213.134 164.705 212.059C162.583 213.655 154.964 220.158 153.676 224.431C152.408 229.086 155.69 231.675 157.341 232.462C157.02 233.486 156.635 234.795 156.191 236.078C156.191 236.078 155.657 235.296 154.818 234.143C153.952 233.002 152.993 231.367 151.944 229.771C150.933 228.166 149.876 226.59 149.202 225.318C148.485 224.081 148.018 223.262 148.018 223.262L148.021 223.27C148.021 223.27 147.329 222.072 146.63 220.86C146.279 220.259 145.98 219.645 145.75 219.193C145.5 218.716 145.34 218.392 145.34 218.392C145.477 216.514 146.302 213.599 146.902 211.76C148.884 211.86 152.879 211.307 154.772 207.097C155.66 205.219 155.879 202.276 155.875 199.469C155.985 196.347 155.789 193.436 155.65 192.239C153.321 193.498 144.747 198.648 142.834 202.651C142.394 203.551 142.163 204.437 142.072 205.224C141.923 208.237 143.982 210.291 145.108 211.166C144.634 212.121 144.013 213.337 143.379 214.543C143.379 214.543 143.131 214.031 142.752 213.284C142.396 212.494 141.929 211.46 141.472 210.429C140.541 208.326 139.6 206.26 139.6 206.26L138.296 202.875C138.296 202.875 137.794 201.581 137.289 200.296C136.76 198.997 136.356 197.678 136.356 197.678C136.756 195.815 138.001 193.057 138.873 191.336C140.783 191.716 144.858 191.744 147.322 187.876C148.512 186.105 149.21 182.986 149.585 180.119C150.12 177.201 150.341 174.499 150.39 173.356C147.897 174.243 138.654 178.053 136.153 181.737C134.733 183.745 134.757 185.614 135.172 187.136C135.607 188.666 136.524 189.827 137.152 190.479C136.538 191.359 135.78 192.484 134.972 193.57C134.972 193.57 134.671 192.674 134.239 191.309C133.866 189.928 133.364 188.102 132.847 186.257C132.297 184.434 131.914 182.575 131.603 181.184C131.299 179.79 131.074 178.879 131.074 178.879L131.068 178.865C131.068 178.865 131.009 178.549 130.886 178.018C130.782 177.513 130.609 176.846 130.523 176.167C130.283 174.788 130.038 173.436 130.038 173.436C130.753 171.657 132.313 169.174 133.559 167.596C135.358 168.304 139.328 169.009 142.509 165.588C143.182 164.849 143.81 163.787 144.368 162.598C144.907 161.382 145.388 160.05 145.878 158.697C146.899 155.776 147.553 152.966 147.911 151.81C146.598 152.045 143.464 152.685 140.296 153.715C137.126 154.72 133.98 156.097 132.454 157.676C131.768 158.405 131.296 159.168 130.976 159.901C130.363 161.313 130.433 162.664 130.761 163.798C131.087 164.95 131.621 165.89 132.035 166.464C131.285 167.236 130.299 168.231 129.323 169.172C129.323 169.172 129.047 166.919 128.745 164.643C128.629 163.52 128.466 162.383 128.398 161.53C128.336 160.675 128.304 160.107 128.304 160.107L128.041 156.485C128.041 156.485 128.015 156.188 127.991 155.757C127.985 155.585 127.965 155.419 127.955 155.257C127.942 155.146 127.95 155.068 127.946 154.978C127.906 154.588 127.882 154.157 127.878 153.735C127.858 152.347 127.817 150.951 127.817 150.951C128.78 149.309 130.712 147.085 132.159 145.73C133.86 146.696 137.683 147.994 141.325 145.103C144.592 142.379 147.734 134.336 148.72 132.277C146.065 132.326 135.963 133.046 132.574 135.772C130.665 137.246 129.947 139.018 129.918 140.602C129.891 142.192 130.428 143.572 130.838 144.372C129.976 145.033 128.874 145.852 127.738 146.628C127.738 146.628 127.757 145.689 127.804 144.265C127.861 142.844 127.86 140.933 127.971 139.032C128.137 137.142 128.258 135.246 128.366 133.829C128.456 132.411 128.574 131.472 128.574 131.472L129.261 125.981C130.43 124.518 132.896 122.678 134.458 121.54C135.972 122.768 139.56 124.688 143.585 122.435C145.276 121.426 147.271 119.193 148.902 116.921C149.828 115.644 150.678 114.423 151.401 113.429C152.125 112.378 152.659 111.506 152.968 111.002C150.35 110.628 140.361 109.705 136.419 111.765C135.523 112.266 134.879 112.818 134.364 113.441C132.456 115.763 132.807 118.608 133.326 120.003C132.379 120.5 131.173 121.131 129.957 121.715C129.957 121.715 130.055 121.142 130.197 120.318C130.356 119.478 130.498 118.338 130.776 117.249C131.242 115.033 131.747 112.81 131.747 112.81C131.747 112.81 131.948 111.911 132.14 111.032C132.36 110.159 132.618 109.278 132.618 109.278L133.259 106.906L134.066 103.949C135.496 102.692 138.149 101.222 139.87 100.343C141.202 101.788 144.481 104.212 148.759 102.559C150.687 101.784 153.145 99.7303 155.134 97.641C157.211 95.5647 159.059 93.5514 159.737 92.6684C157.193 91.8982 147.455 89.5064 143.273 90.9939C140.961 91.7807 139.873 93.301 139.324 94.7696C138.782 96.2523 138.788 97.7044 138.992 98.6246C137.991 98.9944 136.682 99.4355 135.395 99.8335C135.395 99.8335 135.693 98.9275 136.134 97.5786C136.566 96.2255 137.286 94.4771 137.943 92.697C138.283 91.8145 138.606 90.9309 138.93 90.0886C139.279 89.2857 139.622 88.5098 139.889 87.866C140.457 86.5636 140.845 85.6776 140.845 85.6776C140.845 85.6776 141.377 84.4241 141.94 83.1488C142.568 81.9295 143.164 80.6736 143.164 80.6736C144.79 79.6676 147.527 78.5946 149.434 78.0611C150.495 79.686 153.298 82.6088 157.859 81.7104C158.875 81.5167 159.996 81.0386 161.161 80.3919C162.28 79.7316 163.472 78.9323 164.65 78.1561C165.919 77.2661 167.115 76.3573 168.07 75.5827C169.086 74.7746 169.891 74.1544 170.325 73.7728C167.926 72.6008 158.627 68.5784 154.347 69.4173C153.358 69.5992 152.53 69.9296 151.866 70.3331C151.195 70.7224 150.687 71.1847 150.263 71.7284C149.886 72.2273 149.6 72.7876 149.38 73.3454C148.974 74.4635 148.871 75.5373 148.863 76.2472C147.799 76.4273 146.422 76.6475 145.093 76.8058C145.093 76.8058 146.185 74.8431 147.28 72.8462C148.325 70.8286 149.546 68.9366 149.546 68.9366L151.459 65.8399C151.459 65.8399 151.635 65.5502 151.916 65.1166C152.035 64.9087 152.172 64.6848 152.335 64.4422C152.366 64.3791 152.389 64.3361 152.424 64.2801C152.498 64.1824 152.578 64.0575 152.654 63.9426C152.715 63.892 152.776 63.783 152.776 63.783L152.764 63.7718C152.827 63.687 152.894 63.6093 152.95 63.5274C153.727 62.387 154.514 61.2507 154.514 61.2507C156.233 60.4881 159.137 59.8522 161.091 59.5897C161.91 61.3659 164.272 64.6734 168.908 64.4666C171.055 64.3891 173.831 63.0339 176.512 61.7683C177.808 61.1169 179.017 60.4184 180.028 59.8365C181.086 59.2681 181.92 58.7941 182.407 58.4984C180.233 56.9576 171.571 51.5793 167.242 51.7902C164.822 51.8488 163.219 52.8701 162.258 54.1212C161.306 55.3765 160.937 56.8197 160.804 57.7234C159.727 57.7345 158.332 57.7543 156.971 57.7182C156.971 57.7182 157.548 56.9689 158.406 55.8445C159.288 54.7182 160.372 53.1496 161.601 51.7283C162.296 50.9048 167.854 44.135 172.522 38.4119C174.323 39.3193 178.03 40.541 181.377 37.259C184.547 34.1259 186.944 24.3673 187.485 21.7382C184.874 22.2846 175.139 24.6292 172.023 27.7899C168.241 31.6285 170.348 35.9652 171.144 37.3108C168.743 39.6975 166.441 41.9847 165.647 42.8494C164.362 44.253 158.719 49.1877 158.719 49.1877C158.373 47.8699 158.116 46.4896 157.936 45.4098C158.828 45.0358 160.163 44.3014 161.267 43.0568C162.408 41.8387 163.27 40.1139 163.155 37.5766C163.063 35.288 161.657 31.9954 160.163 28.9643C158.634 25.9479 156.969 23.1795 156.239 22.0477C155.819 22.681 155.143 23.746 154.372 25.0584C153.597 26.3808 152.799 28.0208 152.02 29.6689C150.469 32.9795 149.353 36.6977 149.554 39.0076C149.994 44.035 154.062 45.2302 155.962 45.6056C156.017 46.6218 156.042 47.8832 156.076 49.1656C156.12 50.4522 156.125 51.7052 156.006 52.6613C156.006 52.6613 155.599 53.2062 154.965 54.0373C154.345 54.8626 153.48 55.9317 152.702 57.0891C151.149 59.3699 149.595 61.6506 149.595 61.6506C149.595 61.6506 149.346 61.9628 149.044 62.4635C148.746 62.9542 148.329 63.6117 147.907 64.279C147.105 65.5962 146.286 66.9121 146.286 66.9121L145.56 68.1143C145.258 67.3932 144.976 66.6633 144.726 65.987C144.528 65.438 144.372 64.9466 144.22 64.4865C145.048 63.9983 146.279 63.0747 147.167 61.6881C148.066 60.2885 148.692 58.4718 148.217 55.961C147.304 51.4808 140.851 43.7128 139.084 41.6443C138.754 42.3146 138.232 43.4727 137.67 44.8888C137.13 46.3374 136.563 48.038 136.046 49.8176C134.975 53.3091 134.476 57.1593 134.989 59.405C135.066 59.6884 135.12 59.9152 135.2 60.1643C136.594 64.376 140.446 64.8973 142.31 64.9717C142.645 66.9511 143.335 70.0533 143.383 71.9614C143.383 71.9614 142.977 72.7054 142.347 73.8011C141.708 74.9167 140.984 76.4589 140.238 77.9687C139.494 79.5026 138.719 81 138.193 82.1681C137.691 83.3344 137.337 84.1232 137.337 84.1232L137.344 84.1202C137.344 84.1202 136.59 85.8662 135.826 87.6081C135.439 88.4769 135.112 89.3706 134.87 90.0539C134.605 90.7219 134.44 91.1566 134.44 91.1566C133.694 90.0066 132.987 88.7735 132.476 87.7908C133.183 87.1535 134.305 86.0679 134.979 84.5464C135.68 83.0472 135.868 81.0732 135.045 78.7168C133.5 74.5016 125.761 67.8215 123.67 66.0633C123.3 67.5237 122.479 71.0016 122.017 74.6451C121.693 78.3222 121.611 82.1224 122.566 84.2821C124.588 88.9869 128.78 88.8419 130.695 88.6042C131.426 90.5253 132.508 93.4215 132.874 95.2966C132.874 95.2966 132.634 95.9457 132.328 96.9301C131.999 97.9162 131.586 99.2363 131.154 100.548C130.708 101.866 130.278 103.185 130.049 104.195C129.753 105.201 129.584 105.862 129.584 105.862L129.577 105.865C129.577 105.865 129.17 107.374 128.759 108.876C128.537 109.626 128.376 110.383 128.235 110.974C128.121 111.529 128.025 111.91 128.025 111.91L127.73 113.273C127.213 112.691 126.726 112.081 126.272 111.49C125.918 111.04 125.598 110.592 125.314 110.229C125.877 109.486 126.839 108.235 127.289 106.65C127.751 105.034 127.685 103.067 126.495 100.839C124.359 96.9055 115.746 91.4483 113.43 90.0418C113.277 91.5275 112.913 95.0885 113.05 98.7633C113.244 102.456 113.68 106.213 114.99 108.233C115.126 108.458 115.284 108.658 115.427 108.881C118.115 112.475 121.897 111.787 123.664 111.295C124.67 113.084 126.144 115.792 126.791 117.59C126.791 117.59 126.21 120.951 125.634 124.302C125.209 127.68 124.781 131.051 124.781 131.051C124.781 131.051 124.741 131.526 124.664 132.248C124.595 132.95 124.534 133.907 124.456 134.862C124.31 136.76 124.161 138.668 124.161 138.668C123.147 137.805 122.125 136.845 121.342 136.06C121.838 135.236 122.5 133.862 122.647 132.204C122.838 130.553 122.543 128.607 120.979 126.611C118.101 123.055 108.875 119.11 106.327 118.075C106.357 118.835 106.426 120.103 106.563 121.65C106.76 123.163 107.035 124.96 107.377 126.762C108.02 130.382 109.332 134.022 110.831 135.804C114.122 139.636 118.088 138.206 119.869 137.392C121.07 138.975 123.076 141.417 124.018 143.092C124.018 143.092 123.998 143.774 123.972 144.833C123.943 145.867 123.896 147.25 123.943 148.643C124.002 151.403 124.07 154.184 124.07 154.184C124.07 154.184 124.062 154.579 124.114 155.155C124.145 155.741 124.218 156.525 124.27 157.318C124.382 158.867 124.498 160.422 124.498 160.422L124.604 161.816C123.929 161.409 123.304 160.981 122.685 160.568C122.227 160.244 121.799 159.933 121.407 159.666C121.782 158.769 122.249 157.284 122.14 155.626C122.041 153.972 121.527 152.117 119.664 150.371C116.313 147.263 106.539 144.728 103.906 144.12C104.312 147.116 107.368 157.988 110.977 160.98C111.191 161.157 111.399 161.319 111.596 161.452C115.198 164.057 118.605 162.22 120.154 161.188C121.575 162.588 123.948 164.702 125.105 166.22C125.105 166.22 125.211 167.065 125.359 168.324C125.496 169.614 125.789 171.278 126.081 172.959C126.38 174.638 126.68 176.316 126.873 177.565C127.159 178.817 127.347 179.66 127.347 179.66C127.347 179.66 127.765 181.522 128.188 183.398C128.559 185.287 129.116 187.107 129.116 187.107C127.86 186.594 126.544 186.015 125.568 185.519C125.794 184.56 126.035 183.029 125.686 181.388C125.348 179.776 124.374 178.064 122.331 176.618C118.626 174.124 108.482 173.265 105.768 173.073C106.314 174.474 107.707 177.796 109.438 181.019C111.318 184.221 113.538 187.33 115.527 188.549C119.919 191.146 123.204 188.563 124.584 187.228C126.328 188.334 128.93 190.069 130.301 191.39C130.301 191.39 130.474 192.04 130.786 193.04C131.116 194.024 131.558 195.351 131.983 196.661C132.421 197.982 132.866 199.3 133.187 200.279C133.569 201.25 133.821 201.892 133.821 201.892L136.082 207.735L136.654 209C135.912 208.846 135.126 208.627 134.412 208.419C133.872 208.255 133.385 208.118 132.924 207.962C133.023 206.998 133.024 205.443 132.431 203.872C131.836 202.317 130.655 200.759 128.433 199.654C124.389 197.709 114.218 198.383 111.522 198.608C112.264 199.926 114.145 202.994 116.336 205.916C118.653 208.801 121.325 211.53 123.433 212.441C123.675 212.547 123.925 212.65 124.153 212.721C128.462 214.04 131.074 211.249 132.195 209.789C134.067 210.65 136.888 211.961 138.451 213.051C138.451 213.051 138.828 213.832 139.335 215C139.905 216.124 140.689 217.657 141.47 219.167C142.237 220.699 142.98 222.216 143.645 223.309C144.277 224.424 144.705 225.167 144.705 225.167L144.719 225.161C144.719 225.161 145.662 226.819 146.617 228.488C147.598 230.097 148.666 231.719 148.666 231.719C147.315 231.629 145.905 231.455 144.815 231.297C144.593 229.37 143.883 225.196 138.998 223.845C134.72 222.563 124.844 224.884 122.222 225.543C123.177 226.697 125.408 229.477 128.126 231.961C130.906 234.437 133.839 236.765 136.181 237.27C141.127 238.413 143.49 234.912 144.415 233.219C146.379 233.767 149.36 234.595 151.066 235.434C151.066 235.434 152.68 237.708 154.29 239.951C155.087 241.105 155.898 242.211 156.57 243.027C157.222 243.834 157.649 244.378 157.649 244.378C157.649 244.378 158.616 245.602 159.59 246.822C160.07 247.436 160.557 248.046 160.96 248.476C161.345 248.921 161.603 249.22 161.603 249.22L162.534 250.26C161.764 250.333 160.968 250.384 160.228 250.412C159.654 250.42 159.118 250.403 158.659 250.43C158.393 249.519 157.957 247.989 156.924 246.685C155.911 245.373 154.291 244.248 151.812 243.908C147.393 243.292 137.967 247.062 135.467 248.11C136.589 249.111 139.212 251.527 142.265 253.589C145.371 255.62 148.643 257.498 151.02 257.632C151.302 257.655 151.557 257.673 151.8 257.662C156.269 257.608 157.92 254.123 158.547 252.389C160.581 252.65 163.632 253.016 165.434 253.591C165.434 253.591 167.823 256.039 170.178 258.484C171.384 259.707 172.658 260.836 173.581 261.737C174.507 262.587 175.116 263.172 175.116 263.172L175.123 263.169C175.123 263.169 175.48 263.509 175.993 263.984C176.522 264.477 177.262 265.081 177.992 265.698C179.446 266.942 180.912 268.173 180.912 268.173C179.612 268.518 178.236 268.763 177.138 268.94C176.771 268.064 176.039 266.692 174.786 265.596C173.586 264.445 171.845 263.563 169.334 263.659C167.039 263.758 163.779 265.141 160.775 266.6C157.787 268.119 155.039 269.795 153.913 270.517C154.532 270.931 155.598 271.622 156.908 272.403C158.227 273.205 159.874 274.002 161.521 274.799C164.799 276.393 168.499 277.518 170.803 277.341C175.808 276.913 176.984 272.846 177.35 270.922C178.354 270.875 179.609 270.855 180.876 270.823C182.168 270.813 183.408 270.817 184.378 270.925C184.378 270.925 184.914 271.357 185.739 271.984C186.577 272.605 187.634 273.492 188.791 274.262C191.067 275.851 193.331 277.429 193.331 277.429C193.331 277.429 193.655 277.651 194.14 277.979C194.638 278.302 195.306 278.712 195.953 279.114C197.293 279.966 198.606 280.795 198.606 280.795L200.58 277.506L197.501 275.58Z" fill="#C3A1BC"/>
<path d="M420.415 189.158C419.822 191.348 419.208 193.53 419.208 193.53C418.353 192.462 417.531 191.355 416.897 190.476C417.402 189.957 418.077 189.11 418.555 188.03C418.793 187.49 418.979 186.881 419.076 186.243C419.144 185.592 419.093 184.875 418.91 184.122C418.714 183.358 418.354 182.539 417.756 181.727C415.301 178.111 405.844 174.402 403.298 173.561C403.341 174.141 403.519 175.178 403.647 176.435C403.787 177.679 403.991 179.178 404.295 180.693C404.589 182.088 404.869 183.489 405.225 184.775C405.593 186.048 406.046 187.169 406.635 188.017C409.287 191.866 413.335 191.77 415.219 191.37C416.209 193.095 417.396 195.808 417.859 197.664C417.859 197.664 417.427 198.973 416.982 200.288C416.536 201.603 416.017 202.883 416.017 202.883C416.017 202.883 415.68 203.763 415.178 205.101C414.924 205.764 414.624 206.554 414.297 207.379C413.944 208.183 413.573 209.06 413.188 209.927C412.41 211.655 411.694 213.416 411.051 214.697C410.433 215.977 409.988 216.819 409.988 216.819C409.343 215.637 408.75 214.401 408.274 213.423C409.046 212.908 410.081 211.868 410.747 210.444C411.377 208.994 411.686 207.155 410.564 204.937C408.619 200.933 399.992 195.756 397.638 194.52C397.507 195.653 397.391 198.39 397.424 201.321C397.391 204.214 397.71 207.432 398.547 209.329C400.448 213.544 404.494 214.12 406.444 214.033C407.059 215.857 407.913 218.784 408.066 220.695L405.369 225.518C405.369 225.518 404.93 226.333 404.483 227.109C404.004 227.89 403.52 228.658 403.52 228.658C403.52 228.658 402.326 230.585 401.108 232.515C400.523 233.498 399.845 234.397 399.377 235.124C398.885 235.812 398.558 236.281 398.558 236.281C398.101 235.012 397.678 233.688 397.358 232.686C398.691 232.06 400.941 230.254 401.208 227.246C401.268 226.458 401.209 225.603 400.897 224.622C399.566 220.377 391.777 213.969 389.625 212.382C389.485 212.98 389.27 213.975 389.049 215.229C388.839 216.454 388.616 217.941 388.361 219.475C387.965 222.254 387.821 225.26 388.337 227.184C389.604 231.631 393.509 232.781 395.452 232.995C395.788 234.887 396.258 237.95 396.06 239.834L392.716 244.223L392.696 244.215C392.696 244.215 392.136 244.981 391.205 246.051C390.281 247.136 389.057 248.595 387.843 250.058C386.589 251.488 385.242 252.833 384.295 253.902C383.318 254.942 382.671 255.637 382.671 255.637C382.424 254.296 382.205 252.92 382.051 251.84C382.907 251.564 384.26 250.946 385.364 249.795C386.441 248.638 387.167 246.882 386.862 244.471C386.333 240.138 379.624 232.481 377.754 230.577C377.547 231.095 377.227 232.034 376.818 233.16C376.39 234.26 375.904 235.576 375.482 236.989C374.666 239.837 373.77 242.793 374.078 244.953C374.638 249.597 378.281 251.371 380.147 251.858C380.229 253.856 380.047 256.829 379.572 258.67C379.572 258.67 378.602 259.625 377.596 260.594C377.109 261.097 376.594 261.553 376.201 261.884C375.811 262.222 375.55 262.472 375.55 262.472L375.556 262.486L372.824 264.868C372.824 264.868 372.394 265.248 371.765 265.81C371.123 266.378 370.211 267.076 369.329 267.786C367.547 269.205 365.77 270.614 365.77 270.614C365.725 269.239 365.709 267.852 365.713 266.772C366.422 266.64 367.468 266.36 368.482 265.768C369.527 265.189 370.52 264.267 371.074 262.815C371.374 262.083 371.545 261.223 371.559 260.205C371.594 257.992 370.313 254.779 368.754 251.832C367.195 248.868 365.421 246.203 364.65 245.099C364.091 246.163 362.612 248.658 361.284 251.455C360.692 252.757 360.09 254.038 359.642 255.288C359.191 256.531 358.885 257.721 358.859 258.769C358.73 263.436 362.069 265.711 363.825 266.51C363.626 268.493 362.983 271.377 362.269 273.161C362.269 273.161 361.14 273.958 360.009 274.747C359.783 274.942 359.551 275.081 359.32 275.244C350.956 279.888 336.253 287.107 336.253 287.107C336.253 287.107 319.132 293.673 310.451 296.035C310.451 296.035 310.11 296.112 309.611 296.23C309.092 296.34 308.434 296.516 307.735 296.61C306.367 296.835 305.015 297.079 305.015 297.079C303.231 296.333 300.738 294.766 299.187 293.524C299.868 291.72 300.579 287.73 297.143 284.55C296.408 283.846 295.362 283.214 294.136 282.65C292.957 282.115 291.605 281.645 290.266 281.128C287.342 280.098 284.538 279.415 283.373 279.074C283.613 280.4 284.251 283.526 285.273 286.715C286.295 289.887 287.674 293.075 289.262 294.583C289.987 295.283 290.724 295.771 291.464 296.091C292.888 296.713 294.225 296.65 295.383 296.322C296.534 296.014 297.454 295.454 298.048 295.047C298.824 295.809 299.805 296.783 300.734 297.787C300.734 297.787 298.487 298.057 296.221 298.319C295.082 298.456 293.965 298.626 293.111 298.669C292.255 298.729 291.702 298.778 291.702 298.778L288.064 299.018C288.064 299.018 287.857 299.039 287.57 299.068C287.442 299.08 287.263 299.089 287.089 299.112C286.579 299.143 285.949 299.167 285.316 299.183C283.914 299.207 282.532 299.239 282.532 299.239C280.901 298.264 278.66 296.308 277.299 294.846C278.247 293.162 279.555 289.328 276.637 285.657C275.303 283.943 272.588 282.501 269.979 281.073C268.683 280.381 267.397 279.791 266.313 279.325C265.244 278.819 264.352 278.414 263.834 278.191C263.889 280.856 264.614 291.006 267.333 294.42C268.812 296.322 270.571 297.07 272.158 297.109C273.746 297.132 275.135 296.6 275.959 296.187C276.602 297.046 277.425 298.178 278.205 299.303C278.205 299.303 277.249 299.264 275.82 299.224C274.414 299.159 272.507 299.17 270.603 299.048C268.721 298.899 266.826 298.74 265.422 298.64C263.989 298.552 263.034 298.413 263.034 298.413L257.539 297.714C256.084 296.541 254.232 294.048 253.112 292.486C254.344 290.965 256.255 287.359 253.979 283.319C252.995 281.608 250.73 279.612 248.483 277.941C247.208 277.04 245.976 276.163 244.981 275.435C243.921 274.71 243.072 274.17 242.55 273.858C242.173 276.505 241.253 286.515 243.345 290.475C243.833 291.382 244.39 292.036 244.992 292.539C247.33 294.47 250.169 294.126 251.553 293.604C252.059 294.553 252.681 295.777 253.262 296.986C253.262 296.986 252.695 296.9 251.877 296.753C251.029 296.594 249.916 296.456 248.805 296.183C246.581 295.656 244.365 295.166 244.365 295.166C244.365 295.166 243.471 294.977 242.606 294.775C241.72 294.525 240.836 294.298 240.836 294.298L235.499 292.827C234.245 291.362 232.757 288.684 231.901 286.961C233.332 285.638 235.774 282.366 234.12 278.065C233.337 276.12 231.269 273.644 229.203 271.631C227.116 269.528 225.091 267.689 224.215 266.986C223.424 269.558 221.047 279.324 222.54 283.519C223.323 285.862 224.857 286.944 226.327 287.498C227.814 288.052 229.266 288.049 230.19 287.852C230.543 288.874 230.992 290.163 231.382 291.468C231.382 291.468 230.493 291.152 229.132 290.719C227.788 290.27 226.024 289.549 224.249 288.883C223.359 288.543 222.472 288.193 221.639 287.87C220.835 287.519 220.065 287.187 219.424 286.908C218.096 286.336 217.246 285.954 217.246 285.954C217.246 285.954 215.964 285.413 214.713 284.826C213.471 284.202 212.227 283.595 212.227 283.595C211.222 281.951 210.142 279.218 209.602 277.295C211.23 276.223 214.154 273.429 213.269 268.822C213.075 267.824 212.575 266.69 211.939 265.53C211.283 264.403 210.481 263.204 209.698 262.031C208.817 260.741 207.891 259.544 207.106 258.563C206.323 257.589 205.701 256.738 205.301 256.3C204.131 258.682 200.117 268.031 200.948 272.329C201.13 273.34 201.456 274.157 201.871 274.829C202.259 275.496 202.738 276.025 203.253 276.44C203.773 276.828 204.324 277.111 204.896 277.327C206.008 277.741 207.066 277.845 207.796 277.862C207.965 278.919 208.181 280.306 208.355 281.652C208.355 281.652 206.361 280.563 204.39 279.448C202.381 278.382 200.463 277.137 200.463 277.137L198.47 280.429L199.66 281.166C198.947 281.448 198.22 281.736 197.521 281.971C196.981 282.148 196.494 282.336 196.041 282.484C195.537 281.659 194.625 280.415 193.212 279.522C191.835 278.615 189.989 277.978 187.5 278.442C183.02 279.349 175.236 285.791 173.176 287.576C173.855 287.888 175.004 288.427 176.424 289.002C177.871 289.54 179.597 290.11 181.357 290.641C184.855 291.73 188.7 292.242 190.955 291.753C191.214 291.677 191.46 291.59 191.708 291.528C195.908 290.132 196.448 286.288 196.516 284.409C198.492 284.087 201.576 283.399 203.506 283.345C203.506 283.345 204.24 283.767 205.362 284.383C206.468 285.039 207.988 285.771 209.513 286.534C211.05 287.267 212.556 288.045 213.703 288.601C214.878 289.104 215.669 289.445 215.669 289.445L215.666 289.438C215.666 289.438 217.417 290.205 219.161 290.976C220.034 291.373 220.934 291.717 221.61 291.981C222.267 292.22 222.728 292.409 222.728 292.409C221.559 293.148 220.328 293.838 219.342 294.359C218.701 293.624 217.623 292.5 216.093 291.822C214.588 291.126 212.612 290.951 210.268 291.743C206.046 293.264 199.364 301.028 197.611 303.107C199.085 303.493 202.561 304.333 206.197 304.8C209.889 305.143 213.666 305.235 215.844 304.305C220.536 302.28 220.396 298.082 220.149 296.145C222.073 295.404 224.971 294.33 226.859 293.978C226.859 293.978 227.502 294.223 228.493 294.546C229.474 294.864 230.787 295.301 232.12 295.746C233.42 296.171 234.748 296.602 235.756 296.868C236.758 297.136 237.431 297.335 237.431 297.335L237.417 297.341C237.417 297.341 238.932 297.743 240.435 298.158C241.183 298.376 241.953 298.567 242.515 298.68C243.092 298.828 243.469 298.894 243.469 298.894L244.831 299.21C244.255 299.717 243.631 300.211 243.061 300.674C242.588 301.014 242.178 301.343 241.784 301.633C241.035 301.034 239.792 300.071 238.201 299.626C236.601 299.16 234.623 299.218 232.414 300.41C228.478 302.534 223.002 311.152 221.598 313.491C223.099 313.642 226.648 314.02 230.323 313.889C234.03 313.712 237.77 313.28 239.794 311.984C240.029 311.852 240.246 311.695 240.444 311.553C244.042 308.858 243.353 305.057 242.861 303.289C244.639 302.278 247.364 300.811 249.162 300.165C249.162 300.165 252.501 300.756 255.863 301.346C259.235 301.798 262.613 302.224 262.613 302.224L262.627 302.218C262.627 302.218 263.097 302.27 263.806 302.354C264.519 302.412 265.465 302.488 266.43 302.548C268.338 302.702 270.241 302.841 270.241 302.841C269.375 303.885 268.41 304.912 267.64 305.691C266.821 305.205 265.415 304.508 263.763 304.372C262.111 304.177 260.187 304.444 258.182 306.023C254.625 308.893 250.68 318.171 249.658 320.707C250.409 320.674 251.687 320.611 253.199 320.492C254.745 320.316 256.533 320.023 258.352 319.683C261.955 319.043 265.592 317.75 267.382 316.253C271.21 312.939 269.778 308.968 268.957 307.188C270.563 305.967 272.987 303.98 274.665 303.027C274.665 303.027 275.361 303.043 276.406 303.077C277.437 303.118 278.823 303.175 280.208 303.109C282.999 303.067 285.756 303.006 285.756 303.006C285.756 303.006 286.158 303.012 286.73 302.971C287.327 302.928 288.1 302.869 288.887 302.805C290.452 302.713 291.998 302.595 291.998 302.595L293.388 302.502C293.008 303.159 292.573 303.806 292.141 304.402C291.81 304.881 291.515 305.287 291.241 305.684C290.349 305.32 288.877 304.841 287.222 304.955C285.544 305.036 283.689 305.565 281.95 307.423C278.844 310.775 276.331 320.573 275.705 323.2C278.711 322.819 289.576 319.781 292.562 316.164C292.744 315.964 292.92 315.749 293.054 315.535C295.637 311.946 293.797 308.528 292.77 306.951C294.162 305.554 296.283 303.163 297.782 302.003C297.782 302.003 298.654 301.903 299.912 301.732C301.186 301.621 302.865 301.324 304.536 301.03C306.213 300.749 307.905 300.463 309.169 300.248C310.409 299.977 311.236 299.788 311.236 299.788C315.693 298.965 322.354 296.86 327.898 294.942C328.277 294.915 328.662 294.862 329.149 294.815C312.706 308.92 312.706 322.85 312.706 322.85L320.803 319.472C320.242 311.676 329.694 301.207 336.973 294.313C346.995 293.961 361.094 294.611 366.261 300.475L374.351 297.099C374.351 297.099 364.439 287.293 342.839 289.083C343.002 288.956 343.119 288.857 343.282 288.731C349.011 285.889 358.104 281.122 363.786 276.781L363.781 276.767C364.304 276.39 364.862 275.998 365.407 275.612C366.799 274.613 368.176 273.637 369.163 272.8C370.161 272.009 370.841 271.491 370.841 271.491C372.72 271.217 375.904 271.4 377.902 271.409C378.281 273.225 379.422 276.936 383.805 277.62C384.053 277.657 384.316 277.688 384.572 277.705C389.272 278.115 399.073 272.52 401.458 270.657C399.139 269.249 390.388 264.173 385.836 264.017C383.298 263.969 381.602 264.896 380.365 266.029C379.134 267.134 378.423 268.511 378.071 269.413C377.601 269.345 377.079 269.248 376.505 269.149C375.795 269.04 375.028 268.856 374.276 268.707L375.331 267.775C375.331 267.775 376.507 266.734 377.695 265.705C378.265 265.2 378.848 264.69 379.297 264.294C379.742 263.909 380.006 263.607 380.006 263.607C380.006 263.607 381.996 261.694 383.987 259.747C384.999 258.792 385.936 257.777 386.63 257.013C387.33 256.247 387.824 255.741 387.824 255.741C389.675 255.222 392.812 254.894 394.789 254.596C395.475 256.432 397.308 260.268 402.342 259.849C404.658 259.625 408.135 257.951 411.134 255.83C412.65 254.788 414.105 253.722 415.332 252.743C416.468 251.727 417.423 250.895 417.973 250.383C415.446 249.31 406.079 245.597 401.535 246.133C398.998 246.425 397.449 247.606 396.44 248.925C395.373 250.203 394.875 251.672 394.641 252.6C393.556 252.607 392.163 252.594 390.814 252.488C390.814 252.488 392.042 251.018 393.278 249.546C393.906 248.826 394.505 248.094 394.981 247.546C395.4 246.98 395.714 246.599 395.714 246.599C395.714 246.599 397.761 243.891 399.832 241.181C401.777 238.39 403.704 235.575 403.704 235.575C405.432 234.742 408.383 233.853 410.351 233.277C411.269 234.891 413.484 238.053 417.92 237.379C418.163 237.343 418.43 237.306 418.696 237.228C421.042 236.7 423.955 234.334 426.706 231.819C429.396 229.298 431.593 226.493 432.557 225.325C429.904 224.704 419.93 222.515 415.643 223.823C413.243 224.58 411.817 225.934 411.021 227.404C410.23 228.847 410.028 230.426 409.933 231.369C409.452 231.43 408.928 231.509 408.35 231.577C407.622 231.683 406.837 231.772 406.064 231.831L406.799 230.651C406.799 230.651 407.014 230.312 407.322 229.818C407.634 229.314 408.039 228.654 408.402 227.955C409.172 226.603 409.924 225.225 409.924 225.225C409.924 225.225 410.263 224.627 410.774 223.724C411.297 222.833 411.934 221.578 412.523 220.327C413.131 219.102 413.754 217.853 414.228 216.924C414.7 215.988 414.99 215.352 414.99 215.352C416.529 214.267 419.366 212.969 421.224 212.108C422.425 213.645 425.326 216.701 430.053 214.777C432.241 213.892 434.844 211.142 437.189 208.275C439.401 205.348 441.259 202.287 442.009 200.985C439.292 200.747 429.094 200.046 425.029 201.983C422.823 203.082 421.572 204.636 421.01 206.19C420.424 207.764 420.452 209.336 420.536 210.289C419.467 210.612 418.083 211.018 416.759 211.308C416.759 211.308 416.953 210.878 417.231 210.214C417.53 209.541 417.92 208.689 418.255 207.802C418.915 206.007 419.613 204.204 419.613 204.204C419.613 204.204 419.923 203.419 420.384 202.238C420.801 201.034 421.315 199.408 421.85 197.79C422.379 196.158 422.939 194.562 423.249 193.321C423.587 192.084 423.823 191.28 423.823 191.28C425.203 189.954 427.853 188.229 429.477 187.05C430.867 188.326 433.979 190.655 437.923 188.627C438.138 188.504 438.372 188.389 438.609 188.24C440.561 186.99 442.887 183.899 444.576 180.636C445.425 179.035 446.219 177.383 446.863 175.985C447.456 174.566 447.891 173.363 448.127 172.659C445.4 172.873 435.371 173.901 431.568 176.425C429.469 177.877 428.651 179.631 428.318 181.256C427.973 182.91 428.221 184.432 428.448 185.35C428.029 185.558 427.559 185.805 427.051 186.06C426.383 186.39 425.668 186.706 424.955 187.005L425.283 185.648L421.538 184.762C421.538 184.762 421.056 186.981 420.415 189.158Z" fill="#C3A1BC"/>
<path d="M427.184 125.606C426.702 122.876 426.24 120.137 426.24 120.137C426.857 118.349 428.353 115.637 429.363 113.859C431.222 114.401 435.35 115.162 438.027 110.841C439.333 108.822 439.74 105.071 439.937 101.375C440.096 97.6857 439.687 94.1434 439.52 92.6598C437.214 94.0508 428.594 99.4848 426.475 103.397C423.995 107.852 426.477 111.281 427.704 112.785C427.036 113.68 426.174 114.806 425.28 115.812C425.28 115.812 424.888 113.949 424.411 112.081C423.911 110.238 423.411 108.413 423.411 108.413C423.411 108.413 423.18 107.587 422.839 106.359C422.53 105.127 421.964 103.52 421.408 101.9C420.885 100.275 420.356 98.6606 419.935 97.4582C419.48 96.2535 419.168 95.4704 419.168 95.4704C419.514 93.572 420.561 90.6572 421.276 88.729C423.095 88.9384 426.932 89.0242 429.028 85.0379C429.142 84.8157 429.247 84.5723 429.349 84.3218C430.185 82.1684 430.126 78.3549 429.688 74.6837C429.164 71.0651 428.296 67.5911 427.887 66.1424C425.821 67.8896 418.185 74.6637 416.702 78.9079C415.921 81.271 416.195 83.2081 416.886 84.7377C417.579 86.2502 418.697 87.3181 419.441 87.9452C419.235 88.3637 418.995 88.8382 418.747 89.3327C418.386 89.9911 417.97 90.6802 417.578 91.3434L417.064 90.0386L414.495 84.3281C414.495 84.3281 414.229 83.6922 413.785 82.7319C413.323 81.8288 412.695 80.5883 412.06 79.3508C411.438 78.1245 410.805 76.8699 410.33 75.9556C409.85 75.0272 409.474 74.4286 409.474 74.4286C409.53 72.5276 410.14 69.4802 410.546 67.4657C412.495 67.4129 416.643 66.878 417.892 61.9178C418.427 59.6581 417.765 55.9064 416.81 52.3271C415.749 48.8092 414.37 45.4996 413.747 44.1325C411.962 46.1769 405.44 54.0048 404.6 58.4196C404.193 60.8665 404.713 62.7586 405.633 64.1424C406.545 65.5463 407.814 66.4597 408.644 66.9589C408.32 67.9837 407.814 69.3426 407.29 70.6009C407.29 70.6009 406.362 68.9213 405.288 67.3279C404.253 65.7097 403.217 64.1087 403.217 64.1087C403.217 64.1087 402.761 63.3946 402.074 62.3115C401.327 61.2791 400.338 59.9077 399.334 58.501C398.349 57.1196 397.368 55.7281 396.554 54.7565C395.751 53.7477 395.239 53.0815 395.239 53.0815C394.968 51.2097 395.136 48.0156 395.133 46.0145C396.975 45.649 400.684 44.5008 401.37 40.1338C401.407 39.8858 401.444 39.6377 401.449 39.3532C401.865 34.659 396.273 24.858 394.426 22.4672C393.02 24.8016 387.922 33.5191 387.771 38.0769C387.708 40.6123 388.662 42.3143 389.767 43.5459C390.881 44.7817 392.276 45.5011 393.16 45.853C393.092 46.322 393.009 46.8552 392.904 47.4143C392.779 48.1231 392.631 48.8749 392.464 49.6427L391.533 48.5876C391.533 48.5876 390.486 47.4147 389.478 46.2342C388.954 45.6563 388.444 45.0725 388.036 44.6123C387.663 44.1786 387.387 43.8956 387.387 43.8956C387.387 43.8956 385.465 41.9185 383.52 39.9261C382.574 38.894 381.551 37.9768 380.797 37.2631C380.031 36.5624 379.525 36.0681 379.525 36.0681C378.991 34.2402 378.676 31.099 378.384 29.1195C380.228 28.4211 384.052 26.6013 383.634 21.5758C383.413 19.251 381.743 15.7638 379.627 12.7714C378.589 11.2628 377.497 9.78492 376.562 8.58192C375.557 7.40845 374.703 6.47867 374.181 5.92495C373.115 8.45739 369.408 17.7878 369.921 22.3666C370.239 24.8834 371.413 26.4183 372.715 27.4506C373.998 28.516 375.462 29.0239 376.393 29.2314C376.397 30.3264 376.373 31.7491 376.267 33.0976C376.267 33.0976 374.818 31.8528 373.347 30.6168C372.617 30.0009 371.894 29.382 371.345 28.9225C370.781 28.4861 370.407 28.186 370.407 28.186C370.407 28.186 367.697 26.1074 364.992 24.0428C362.204 22.1132 359.407 20.1625 359.407 20.1625C358.571 18.4275 357.675 15.4802 357.112 13.5063C358.72 12.5996 361.868 10.3905 361.212 5.9632C361.166 5.71643 361.122 5.45261 361.058 5.18053C360.525 2.84488 358.179 -0.0842628 355.678 -2.84888C353.158 -5.52217 350.374 -7.73626 349.191 -8.70216C348.569 -6.05712 346.383 3.91538 347.678 8.20764C348.424 10.6196 349.767 12.0254 351.256 12.8301C352.71 13.6326 354.266 13.8275 355.191 13.9213C355.266 14.3966 355.334 14.9332 355.424 15.5021C355.512 16.246 355.618 17.0324 355.661 17.7869L354.479 17.0613C354.479 17.0613 354.157 16.8473 353.657 16.5421C353.157 16.2199 352.503 15.8047 351.821 15.4426C350.44 14.676 349.085 13.9147 349.085 13.9147C349.085 13.9147 348.476 13.5885 347.568 13.0805C346.664 12.5455 345.439 11.9131 344.193 11.3136C342.948 10.673 341.714 10.0606 340.785 9.60272C339.853 9.13783 339.238 8.83868 339.238 8.83868C338.145 7.27829 336.84 4.46108 335.995 2.60529C337.526 1.39831 340.575 -1.5004 338.666 -6.23259C337.778 -8.42764 335.039 -11.0094 332.167 -13.3772C329.248 -15.6176 326.193 -17.452 324.903 -18.1987C324.661 -15.4969 323.967 -5.30288 325.889 -1.23223C326.987 0.990857 328.522 2.24149 330.086 2.7905C331.633 3.37958 333.209 3.3666 334.163 3.29071C334.501 4.3536 334.867 5.72037 335.183 7.06663C335.183 7.06663 334.751 6.86567 334.088 6.5872C333.435 6.29577 332.562 5.8726 331.675 5.55492C329.88 4.88719 328.11 4.20061 328.11 4.20061C328.11 4.20061 327.304 3.89873 326.126 3.42056C324.922 2.97836 323.301 2.47006 321.689 1.94172C320.079 1.42045 318.472 0.847981 317.218 0.543089C316.001 0.18926 315.187 -0.0342748 315.187 -0.0342748C313.86 -1.4218 312.144 -4.09189 310.983 -5.71523C312.237 -7.0886 314.567 -10.1839 312.555 -14.1507C312.44 -14.3851 312.312 -14.6135 312.169 -14.836C310.919 -16.7879 307.839 -19.1183 304.586 -20.8117C302.972 -21.6799 301.346 -22.4769 299.931 -23.105C298.523 -23.719 297.335 -24.1429 296.624 -24.3766C296.835 -21.6818 297.834 -11.6163 300.377 -7.82265C301.818 -5.71011 303.559 -4.89505 305.198 -4.56055C306.831 -4.2231 308.355 -4.4387 309.286 -4.68776C309.498 -4.26151 309.733 -3.77873 309.985 -3.27772C310.297 -2.61124 310.628 -1.90233 310.924 -1.19579L309.571 -1.5006C309.571 -1.5006 308.042 -1.84815 306.528 -2.21872C305.769 -2.39046 304.984 -2.54337 304.436 -2.68707C303.853 -2.79185 303.46 -2.85971 303.46 -2.85971C303.46 -2.85971 300.731 -3.3267 298.013 -3.82374C296.664 -4.0973 295.279 -4.2224 294.247 -4.37145C293.221 -4.48927 292.539 -4.59392 292.539 -4.59392C291.783 -5.19097 290.885 -6.06884 290.001 -6.99386C289.106 -7.92299 288.23 -8.8268 287.537 -9.54998C288.624 -11.1853 290.645 -14.9158 287.363 -18.7734C285.852 -20.5407 282.443 -22.3512 278.976 -23.5478C277.25 -24.1696 275.517 -24.7473 274.022 -25.1509C272.542 -25.5021 271.302 -25.7546 270.571 -25.8969C270.858 -24.58 271.644 -21.4618 272.742 -18.2503C273.826 -15.0741 275.185 -11.7727 276.726 -10.0926C278.484 -8.21253 280.329 -7.62377 281.998 -7.59267C283.652 -7.48027 285.114 -7.94379 286.007 -8.30178C286.66 -7.39595 287.444 -6.23753 288.143 -5.08492C288.143 -5.08492 280.634 -4.54508 278.751 -4.59419C277.593 -4.64884 274.317 -4.62096 270.91 -4.57114C270.524 -6.10405 268.922 -10.6334 263.529 -10.6396C259.059 -10.6346 250.535 -5.34855 248.321 -3.8551C250.568 -2.405 259.222 2.74774 263.669 2.66906C268.386 2.60186 270.116 -0.915086 270.733 -2.81907C278.104 -2.14647 286.864 -1.34173 287.934 -1.25871C289.815 -1.11711 291.678 -0.801649 293.107 -0.653057C294.516 -0.471454 295.468 -0.355333 295.468 -0.355333C294.518 0.657772 293.516 1.62611 292.759 2.36743C292.019 1.84694 290.721 1.10324 289.168 0.874094C287.597 0.7021 285.757 1.13304 283.994 2.79445C280.802 5.72811 278.537 15.6919 278.074 18.3203C278.629 18.1623 279.56 17.9133 280.703 17.5585C281.842 17.2721 283.21 16.8812 284.576 16.4078C287.358 15.3991 290.29 14.3525 291.845 12.8863C295.268 9.71444 294.566 5.73019 293.895 3.89305C295.44 2.68017 297.944 1.04855 299.722 0.369689C299.722 0.369689 301.075 0.616197 302.443 0.856754C302.552 0.877835 302.644 0.880616 302.745 0.904651C302.745 0.904651 302.802 0.922274 302.809 0.919321C303.371 1.01588 303.89 1.14724 304.296 1.2263C304.799 1.33942 305.132 1.42387 305.132 1.42387L305.147 1.41797L308.687 2.21802C308.687 2.21802 310.894 2.72156 313.082 3.35762C315.258 3.96543 317.454 4.58143 317.454 4.58143C316.376 5.40735 315.243 6.23982 314.386 6.88171C313.86 6.37923 313.041 5.70923 311.94 5.21566C311.405 4.9665 310.804 4.77812 310.155 4.69285C309.489 4.62351 308.787 4.66847 308.058 4.86605C307.29 5.04718 306.464 5.40983 305.646 5.98569C302.03 8.44091 298.333 17.892 297.481 20.4424C298.065 20.3723 299.073 20.2486 300.348 20.071C301.599 19.9536 303.074 19.7587 304.607 19.4648C305.995 19.1816 307.395 18.8855 308.669 18.5259C309.942 18.1663 311.088 17.7191 311.922 17.1202C315.776 14.4821 315.68 10.4429 315.273 8.56191C316.995 7.57385 319.705 6.39558 321.555 5.92753C321.555 5.92753 322.865 6.36668 324.182 6.80286C325.478 7.26499 326.759 7.77429 326.759 7.77429C326.759 7.77429 327.651 8.12314 328.981 8.62882C329.636 8.88609 330.41 9.19272 331.256 9.51104C332.064 9.87829 332.929 10.2631 333.806 10.635C335.531 11.4318 337.286 12.1415 338.557 12.7632C339.83 13.4092 340.679 13.8341 340.679 13.8341C339.498 14.454 338.249 15.0692 337.301 15.5333C336.772 14.7663 335.741 13.7284 334.321 13.0691C332.86 12.4275 331.016 12.1374 328.828 13.2208C324.831 15.1628 319.651 23.7821 318.404 26.141C319.529 26.2758 322.245 26.3746 325.195 26.3588C328.092 26.415 331.302 26.091 333.207 25.2423C337.408 23.3725 337.971 19.3233 337.895 17.3859C339.713 16.7647 342.65 15.9072 344.526 15.7602L349.37 18.4644L349.377 18.4615C349.377 18.4615 350.176 18.9241 350.965 19.3656C351.729 19.843 352.492 20.3206 352.492 20.3206C352.492 20.3206 354.416 21.5324 356.344 22.7514C357.316 23.3323 358.223 24.0152 358.938 24.4962C359.637 24.9761 360.101 25.3131 360.101 25.3131C358.849 25.7634 357.51 26.1837 356.496 26.4924C355.884 25.1706 354.107 22.9082 351.101 22.6318C350.307 22.5744 349.438 22.6561 348.468 22.93C344.229 24.2755 337.835 32.0332 336.252 34.1839C336.815 34.3217 337.833 34.5762 339.073 34.7875C340.304 34.9775 341.774 35.225 343.323 35.4642C346.102 35.8692 349.106 36.0219 351.016 35.5031C355.451 34.2498 356.608 30.3336 356.817 28.4018C358.722 28.068 361.759 27.6086 363.64 27.8085L368.029 31.1854C368.029 31.1854 368.787 31.7483 369.869 32.6901C370.946 33.6008 372.404 34.8256 373.844 36.0663C375.273 37.3029 376.624 38.6474 377.678 39.6011C378.731 40.5719 379.425 41.2197 379.425 41.2197C378.073 41.471 376.699 41.6899 375.634 41.8372C375.338 40.9728 374.729 39.5998 373.591 38.5236C372.435 37.4464 370.661 36.7114 368.274 37.0228C363.945 37.5419 356.303 44.2195 354.389 46.0937C356.569 46.8081 364.493 50.2229 368.74 49.8045C373.366 49.2438 375.141 45.6166 375.661 43.7369C377.635 43.6651 380.599 43.8426 382.439 44.3006C382.439 44.3006 383.398 45.3027 384.373 46.3059C384.86 46.7749 385.315 47.3069 385.665 47.7083C385.996 48.1014 386.24 48.3479 386.24 48.3479L386.234 48.3338L388.64 51.0885C388.64 51.0885 389.01 51.4981 389.567 52.1537C390.121 52.7851 390.826 53.6944 391.528 54.5796C392.946 56.3611 394.361 58.1355 394.361 58.1355C392.994 58.1936 391.617 58.1893 390.529 58.1805C390.393 57.4814 390.118 56.4503 389.528 55.4183C388.942 54.3763 388.02 53.3836 386.59 52.8368C385.853 52.5396 384.981 52.3568 383.958 52.3456C381.765 52.3098 378.552 53.5741 375.607 55.1414C372.649 56.6975 369.99 58.4524 368.885 59.2148C369.944 59.7844 372.434 61.299 375.245 62.6124C376.53 63.187 377.822 63.7999 379.049 64.2574C380.297 64.706 381.493 65.0104 382.519 65.0287C387.199 65.1683 389.488 61.8404 390.259 60.0635C392.251 60.2916 395.117 60.9257 396.901 61.6647C396.901 61.6647 397.702 62.7659 398.517 63.9196C398.924 64.4552 399.289 65.0498 399.562 65.4836C399.841 65.9316 400.039 66.2058 400.039 66.2058L400.025 66.2118C400.025 66.2118 400.55 67.03 401.319 68.2114C402.086 69.4098 403.136 71.005 404.048 72.6663C404.998 74.3199 405.943 75.9595 406.653 77.1986C407.335 78.4496 407.751 79.3051 407.751 79.3051C406.421 79.1151 405.092 78.8669 404.017 78.6943C403.998 77.7801 403.809 76.3224 403.038 74.9177C402.246 73.5632 400.933 72.2281 398.478 71.845C394.12 71.0306 384.875 74.9324 382.481 76.0944C383.341 76.8634 385.43 78.6047 387.858 80.2696C390.19 82.0171 392.894 83.7076 395.004 84.1187C399.483 85.0821 402.333 82.1423 403.415 80.517C405.246 81.1116 408.103 82.157 409.725 83.163C409.725 83.163 410.368 84.3805 410.921 85.6776C411.493 86.9246 412.045 88.1805 412.045 88.1805L413.535 91.5182C413.535 91.5182 414.353 93.6261 415.197 95.7564C415.593 96.8198 416.014 97.8644 416.308 98.6634C416.601 99.4795 416.764 100.026 416.764 100.026C415.472 99.6122 414.168 99.1872 413.143 98.8773C413.325 97.4551 413.299 94.5498 411.056 92.5578C410.419 92.0442 409.643 91.5968 408.671 91.2733C404.475 89.8178 394.77 92.3088 392.228 93.1175C392.993 94.0344 394.916 96.2107 397.224 98.3169C399.201 100.287 401.482 102.231 403.418 102.898C407.767 104.521 410.978 102.028 412.305 100.591C414.028 101.422 416.696 102.887 418.133 104.121C418.133 104.121 418.238 104.451 418.404 104.946C418.571 105.441 418.805 106.099 418.988 106.753C419.338 108.102 419.714 109.431 419.714 109.431C419.714 109.431 419.962 110.358 420.348 111.733C420.762 113.096 421.179 114.94 421.578 116.8C421.96 118.658 422.451 120.521 422.666 121.902C422.909 123.311 423.066 124.259 423.066 124.259C421.857 123.686 420.63 123.03 419.684 122.512C420.298 120.817 420.757 116.637 416.56 114.293C412.611 112.202 402.601 113.076 399.966 113.467C400.515 114.441 402.084 116.7 403.823 119.069C405.496 121.441 407.655 123.843 409.431 124.901C413.434 127.218 417.036 125.301 418.568 124.077C420.136 125.189 422.551 127.059 423.798 128.53L424.459 134.018C424.459 134.018 424.562 134.914 424.666 135.834C424.74 136.742 424.809 137.636 424.809 137.636C424.809 137.636 424.958 139.907 425.128 142.17C425.252 143.315 425.22 144.442 425.249 145.302C425.268 146.158 425.273 146.721 425.273 146.721C424.161 145.966 423.047 145.145 422.196 144.48C422.906 143.21 423.662 140.451 422.119 137.858C421.711 137.181 421.139 136.507 420.325 135.91C416.732 133.246 406.715 132.603 404.019 132.612C404.254 133.17 404.68 134.088 405.222 135.223C405.787 136.332 406.466 137.676 407.182 139.087C408.466 141.556 410.162 144.06 411.701 145.342C415.317 148.179 419.155 146.844 420.839 145.863C422.231 147.207 424.374 149.416 425.352 151.057L425.2 156.58C425.2 156.58 425.197 156.83 425.182 157.227C425.165 157.641 425.15 158.237 425.083 158.947C424.98 160.36 424.832 162.259 424.691 164.154C424.57 166.057 424.246 167.93 424.099 169.337C423.931 170.753 423.8 171.706 423.8 171.706C422.813 170.774 421.838 169.77 421.08 168.991C421.609 168.238 422.354 166.953 422.563 165.379C422.72 163.817 422.304 161.956 420.651 160.207C417.69 156.996 407.759 154.721 405.128 154.254C405.263 154.813 405.535 155.737 405.899 156.881C406.203 158.041 406.583 159.402 407.047 160.786C408.054 163.562 409.112 166.5 410.592 168.072C413.764 171.511 417.739 170.799 419.555 170.113C420.79 171.697 422.404 174.202 423.101 175.962C423.101 175.962 422.878 177.326 422.628 178.686C422.511 179.374 422.411 180.064 422.262 180.559C422.157 181.077 422.087 181.405 422.087 181.405L421.29 184.954L425.026 185.847C425.026 185.847 425.353 184.314 425.706 182.787C425.876 182.026 426.045 181.265 426.164 180.7C426.267 180.117 426.343 179.745 426.343 179.745L426.337 179.731C426.337 179.731 426.81 177.007 427.287 174.273C427.556 172.922 427.662 171.515 427.81 170.506C427.947 169.468 428.039 168.781 428.039 168.781C428.625 168.004 429.504 167.12 430.432 166.233C431.336 165.347 432.236 164.471 432.984 163.767C434.614 164.869 438.318 166.889 442.163 163.598C443.922 162.104 445.715 158.678 446.905 155.196C447.507 153.473 448.081 151.761 448.457 150.267C448.829 148.765 449.074 147.532 449.218 146.79C447.908 147.082 444.787 147.876 441.594 148.949C438.42 150.031 435.138 151.407 433.454 152.96C431.629 154.69 431.012 156.535 430.977 158.211C430.89 159.86 431.335 161.335 431.711 162.232C430.826 162.886 429.661 163.682 428.509 164.372C428.509 164.372 428.651 162.46 428.807 160.559C428.873 159.592 428.952 158.654 428.975 157.938C429.01 157.233 429.011 156.743 429.011 156.743L429.017 156.757C429.017 156.757 429.039 155.9 429.082 154.619C429.1 153.341 429.198 151.638 429.168 149.947C429.094 146.531 429.035 143.133 429.035 143.133C429.899 141.441 431.784 139.005 433.041 137.382C434.721 138.148 438.358 139.397 441.553 136.272C441.718 136.094 441.911 135.922 442.087 135.69C443.656 133.902 444.625 130.248 445.383 126.607C446.065 122.998 446.196 119.42 446.263 117.921C443.763 118.97 434.424 123.044 431.751 126.624C430.236 128.638 429.887 130.571 430.124 132.241C430.329 133.875 431.102 135.246 431.572 136.07C431.225 136.407 430.837 136.786 430.421 137.176C429.894 137.696 429.311 138.223 428.71 138.724L428.62 137.325C428.62 137.325 428.589 136.956 428.557 136.346C428.52 135.763 428.441 134.982 428.334 134.213C428.14 132.666 427.975 131.107 427.975 131.107L427.961 131.113C427.961 131.113 427.872 130.427 427.749 129.382C427.645 128.346 427.434 126.972 427.184 125.606Z" fill="#C3A1BC"/>
</g>
</svg>
