<svg width="183" height="246" viewBox="0 0 183 246" fill="none" xmlns="http://www.w3.org/2000/svg">
<g opacity="0.5">
<mask id="mask0" mask-type="alpha" maskUnits="userSpaceOnUse" x="0" y="0" width="183" height="246">
<path d="M182.35 0H-4.57764e-05L2.86708 202.993L182.35 246V0Z" fill="#F3E2DC"/>
</mask>
<g mask="url(#mask0)">
<path d="M-93.6644 128.065C-93.9137 127.683 -94.2373 127.356 -94.6159 127.102C-97.3965 125.59 -99.9762 123.328 -103.381 124.036C-103.479 124.042 -103.577 124.031 -103.671 124.004C-109.751 123.095 -114.968 120.187 -119.35 115.44C-122.12 112.46 -124.415 109.073 -126.154 105.395C-122.416 104.338 -118.996 105.21 -115.708 106.748C-109.079 109.852 -104.221 115.382 -99.7331 121.435C-98.6758 122.878 -97.2115 123.967 -95.9322 125.22C-97.8353 120.309 -99.9868 115.741 -101.747 110.988C-102.63 108.604 -103.56 106.384 -105.448 104.872C-106.524 104.099 -107.678 103.438 -108.889 102.9C-115.444 99.5056 -118.933 93.4417 -120.783 85.9821C-120.942 85.3371 -121 84.6604 -121.111 83.9625C-118.7 83.9625 -115.523 85.7177 -113.181 88.2184C-109.655 92.0301 -107.483 96.7671 -105.68 101.774C-105.183 102.963 -104.622 104.124 -103.999 105.252C-104.713 101.129 -105.585 97.1319 -106.441 93.1351C-106.7 91.9403 -106.663 90.4441 -107.308 89.6194C-108.852 87.6421 -110.353 85.464 -112.912 84.8613C-113.769 84.5737 -114.569 84.137 -115.275 83.5713C-121.153 79.4952 -124.029 73.2516 -125.535 65.7814C-125.079 65.7483 -124.62 65.8003 -124.182 65.9347C-122.157 67.0872 -119.953 68.0018 -118.214 69.5667C-114.228 73.167 -112.013 78.1735 -110.099 83.381C-109.47 85.0833 -108.466 86.6112 -107.631 88.2184L-107.155 87.9593C-107.3 87.2381 -107.402 86.509 -107.462 85.7759C-107.581 81.0636 -107.682 76.3514 -107.763 71.6391C-107.745 70.789 -107.91 69.945 -108.246 69.1642C-108.583 68.3834 -109.083 67.6841 -109.714 67.1136C-114.921 62.5194 -116.057 56.3604 -115.46 49.181C-114.836 49.5773 -114.236 50.0098 -113.662 50.4762C-110.105 53.7804 -108.931 58.3376 -108.376 63.2014C-108.27 64.1213 -108.175 65.0465 -108.08 65.9717L-107.842 68.2609C-106.785 63.8306 -105.664 59.1201 -104.501 54.4254C-103.863 52.0471 -104.138 49.516 -105.273 47.3306C-107.565 43.2936 -108.336 38.5694 -107.446 34.0132C-107.092 32.0624 -106.388 30.1962 -105.759 28.0604C-104.179 29.7102 -103.136 31.8005 -102.767 34.0555C-102.011 38.322 -102.44 42.5144 -103.47 46.6856C-104.1 49.2127 -104.084 49.9105 -103.433 51.3274C-100.328 42.6697 -96.555 34.2667 -92.1472 26.1941C-91.4547 24.9306 -91.1164 23.4186 -90.6406 22.0123C-89.5411 18.7768 -88.6953 15.3933 -87.2944 12.3322C-85.8936 9.27122 -83.6152 6.74943 -80.1368 5.73438C-80.4011 7.67462 -80.5068 9.4774 -80.9086 11.1903C-82.2513 16.8366 -84.8416 21.4731 -89.816 24.0477C-90.3326 24.3878 -90.7343 24.8761 -90.9684 25.4487C-93.615 31.1478 -96.2371 36.8628 -98.8344 42.5937C-99.4793 44.0211 -99.9181 45.5595 -100.457 47.0451C-99.7864 46.3608 -99.2486 45.5576 -98.8714 44.6766C-96.7569 40.4155 -94.3305 36.4504 -90.4133 33.9921C-88.8591 33.0193 -87.2416 32.1999 -85.3967 32.5065C-85.3667 32.6116 -85.349 32.7198 -85.3438 32.829C-85.4337 33.1356 -85.5288 33.4476 -85.6345 33.7542C-87.8706 40.0983 -91.2803 45.1207 -97.5022 46.9711C-98.6503 47.2605 -99.6944 47.8655 -100.517 48.7176C-101.339 49.5697 -101.906 50.6349 -102.154 51.7926C-103.085 55.3823 -104.158 58.935 -104.961 62.5565C-105.442 64.7082 -105.527 66.9709 -105.791 69.186L-105.263 69.3975C-104.453 68.3242 -103.72 67.1954 -103.069 66.0193C-101.335 62.3661 -99.3313 58.9562 -96.4714 56.2705C-94.3569 54.3038 -92.0626 52.9081 -89.1076 52.8764C-89.1609 53.2325 -89.2332 53.5854 -89.3243 53.9337C-91.6873 60.8858 -95.4036 66.2043 -102.408 67.7428C-104.253 68.1498 -106.018 71.0999 -105.976 73.2674C-105.913 76.339 -105.849 79.4106 -105.664 82.4717C-105.553 84.3749 -105.215 86.2623 -104.977 88.1549L-104.612 88.2501C-104.084 87.1927 -103.47 86.1354 -103.026 84.9987C-101.721 81.5571 -100.209 78.2476 -97.8088 75.5883C-96.1013 73.6956 -94.1402 72.2154 -91.5499 71.9563C-91.5037 72.2162 -91.4877 72.4805 -91.5023 72.744C-93.0882 79.2943 -96.0643 84.5335 -102.207 86.7857C-103.497 87.2562 -104.882 89.2334 -104.686 90.1851C-104.036 93.299 -103.513 96.4604 -102.678 99.5162C-101.541 103.687 -100.167 107.785 -98.8978 111.908L-98.4749 111.845C-98.2724 111.437 -98.1164 111.008 -98.0097 110.565C-97.682 108.097 -97.3331 105.622 -97.1216 103.164C-96.7621 98.9346 -95.9058 94.9008 -94.0397 91.2001C-92.7076 88.5567 -91.0265 86.22 -87.9393 84.7873C-87.9393 87.0024 -87.8812 88.948 -87.9393 90.8882C-88.1349 96.1379 -89.4882 100.933 -92.5437 105.051C-94.2247 107.325 -96.7727 108.752 -97.6185 111.871C-97.904 112.929 -98.0308 113.748 -97.5762 114.779C-94.3301 122.037 -90.1868 128.859 -85.2433 135.085C-83.3403 137.507 -81.3051 139.791 -79.0584 142.461C-79.1165 141.667 -79.1324 141.366 -79.1641 141.065C-79.5817 137.576 -81.1888 134.657 -82.6742 131.649C-85.8935 125.136 -88.2037 118.289 -87.9129 110.687C-87.7913 107.515 -87.1676 104.465 -85.3068 101.52C-83.8583 103.888 -82.3887 106.008 -81.1993 108.303C-76.8276 116.73 -75.3844 125.559 -78.5879 134.932C-78.7389 135.446 -78.7856 135.986 -78.7253 136.518C-78.572 138.252 -78.3606 139.981 -78.1597 141.71C-78.0974 142.878 -77.5769 143.974 -76.7113 144.76C-74.3694 146.843 -72.1968 149.164 -69.8391 151.237C-66.8523 153.88 -63.7546 156.344 -60.3661 159.167C-60.4665 157.871 -60.4982 157.052 -60.5881 156.291C-60.9476 152.949 -62.5282 150.184 -63.9449 147.303C-67.1642 140.795 -69.5008 133.965 -69.284 126.373C-69.2739 123.094 -68.3593 119.882 -66.6409 117.089C-65.1766 119.474 -63.6542 121.62 -62.4489 123.962C-58.1458 132.352 -56.708 141.128 -59.9538 150.433C-60.0958 150.949 -60.1318 151.489 -60.0595 152.019C-59.9167 153.605 -59.7581 155.165 -59.5308 156.724C-59.367 157.877 -59.4304 159.558 -58.7961 160.055C-54.9635 163.052 -50.9671 165.775 -46.7645 168.778C-46.8332 167.853 -46.8332 167.308 -46.9231 166.79C-47.4226 164.1 -48.3394 161.505 -49.6402 159.098C-53.2137 152.225 -55.8939 145.003 -55.6772 136.862C-55.6875 133.499 -54.7653 130.2 -53.0128 127.33C-51.2314 130.502 -49.3917 133.262 -47.9856 136.291C-44.3169 144.221 -43.3971 152.41 -46.3733 160.901C-46.5146 161.306 -46.5721 161.736 -46.5424 162.164C-46.3733 164.009 -46.1671 165.865 -45.9504 167.684C-45.9204 168.225 -45.7558 168.75 -45.4715 169.212C-45.1872 169.673 -44.7922 170.057 -44.3222 170.327C-41.8588 171.786 -39.48 173.42 -37.0536 174.942C-34.2994 176.676 -31.5241 178.363 -28.5162 180.229C-28.6748 176.84 -29.2193 173.885 -30.6307 171.242C-34.7012 163.597 -37.8835 155.635 -37.376 146.452C-37.304 143.531 -36.4575 140.681 -34.9232 138.194C-32.2688 141.577 -30.1474 145.346 -28.6325 149.37C-25.9894 156.481 -25.5242 163.697 -27.9506 171.046C-28.1612 171.659 -28.2475 172.308 -28.2043 172.955C-27.9823 175.286 -27.7338 177.617 -27.3585 179.917C-27.2264 180.589 -26.8497 181.188 -26.3013 181.598C-22.0299 184.369 -17.6952 187.033 -13.4133 189.782C-10.8811 191.405 -8.40189 193.134 -5.70589 194.942C-5.99135 191.818 -6.49355 189.026 -7.8204 186.483C-11.8591 178.95 -15.015 171.099 -14.5921 162.037C-14.5216 158.953 -13.6371 155.942 -12.0283 153.309C-10.5693 155.677 -9.14197 157.76 -7.94727 159.991C-4.07242 167.197 -2.60811 174.921 -4.27858 183.221C-4.58519 184.744 -5.37283 186.23 -5.36755 187.731C-5.27077 190.175 -5.00406 192.609 -4.56934 195.016C-4.46826 195.571 -4.18335 196.076 -3.76053 196.449C-1.64601 198.199 0.505508 199.875 2.61473 201.551C4.72925 199.875 6.88076 198.199 8.98999 196.449C9.41216 196.075 9.69694 195.571 9.7988 195.016C10.2327 192.609 10.4994 190.175 10.597 187.731C10.597 186.23 9.81464 184.744 9.50804 183.221C7.84286 174.921 9.30717 167.197 13.1767 159.991C14.3767 157.76 15.8199 155.683 17.2577 153.309C18.8535 155.952 19.7216 158.971 19.774 162.059C20.1969 171.12 17.0463 178.976 13.0076 186.505C11.6543 189.032 11.1521 191.828 10.893 194.963C13.5838 193.155 16.063 191.426 18.5952 189.803C22.8823 187.054 27.2118 184.395 31.4831 181.62C32.0312 181.209 32.4078 180.61 32.5404 179.938C32.9157 177.633 33.1642 175.302 33.3862 172.976C33.4295 172.329 33.3432 171.68 33.1325 171.067C30.7113 163.74 31.1977 156.523 33.8197 149.391C35.335 145.367 37.4564 141.598 40.1104 138.215C41.6445 140.702 42.4909 143.552 42.5632 146.473C43.0918 155.656 39.8883 163.613 35.8179 171.263C34.3959 173.933 33.8514 176.861 33.7034 180.25C36.7113 178.389 39.4866 176.703 42.2407 174.964C44.6724 173.436 47.0512 171.791 49.5094 170.348C49.9793 170.078 50.3744 169.695 50.6587 169.233C50.943 168.771 51.1076 168.246 51.1375 167.705C51.349 165.865 51.5604 164.004 51.7296 162.185C51.7603 161.757 51.7028 161.327 51.5604 160.922C48.5896 152.431 49.5041 144.216 53.1728 136.312C54.5789 133.283 56.4185 130.497 58.2 127.351C59.9695 130.223 60.9048 133.531 60.9013 136.904C61.118 145.046 58.4379 152.278 54.8644 159.14C53.5635 161.547 52.6467 164.142 52.1472 166.832C52.0574 167.361 52.0574 167.89 51.9886 168.82C56.1912 165.823 60.1929 163.095 64.0202 160.097C64.6546 159.6 64.5859 157.919 64.755 156.766C64.9823 155.18 65.1409 153.637 65.2836 152.061C65.3559 151.531 65.32 150.991 65.1779 150.475C61.9321 141.171 63.37 132.395 67.673 124.004C68.873 121.657 70.3955 119.511 71.8651 117.132C73.5835 119.924 74.4981 123.136 74.5082 126.415C74.7249 134.012 72.3937 140.837 69.1691 147.345C67.7523 150.211 66.1717 152.976 65.8123 156.333C65.7277 157.121 65.6907 157.919 65.5902 159.209C68.984 156.386 72.0765 153.922 75.0633 151.279C77.4157 149.206 79.5883 146.886 81.9354 144.803C82.8011 144.016 83.3216 142.92 83.3839 141.752C83.5795 140.023 83.7962 138.295 83.9495 136.561C84.0094 136.028 83.9626 135.489 83.8121 134.974C80.5663 125.543 82.0147 116.719 86.3812 108.297C87.5706 105.998 89.0243 103.883 90.4887 101.515C92.3494 104.459 92.9732 107.51 93.0948 110.682C93.3855 118.284 91.0754 125.131 87.8561 131.644C86.3706 134.652 84.7583 137.57 84.346 141.06C84.309 141.361 84.2984 141.662 84.235 142.455C86.4816 139.812 88.5222 137.502 90.4199 135.08C95.3699 128.851 99.5186 122.026 102.769 114.763C103.223 113.706 103.096 112.918 102.811 111.855C101.976 108.736 99.4172 107.309 97.7361 105.036C94.6807 100.896 93.3221 96.1379 93.1318 90.8512C93.0631 88.9109 93.1318 86.9654 93.1318 84.7503C96.219 86.183 97.8895 88.5144 99.2322 91.1631C101.098 94.8638 101.955 98.9135 102.314 103.127C102.526 105.612 102.874 108.081 103.202 110.528C103.308 110.971 103.464 111.401 103.667 111.808L104.09 111.871C105.364 107.742 106.733 103.65 107.87 99.4792C108.7 96.4234 109.229 93.2672 109.879 90.148C110.08 89.1964 108.689 87.2192 107.399 86.7487C101.257 84.4912 98.2859 79.2573 96.7 72.707C96.6849 72.4435 96.7009 72.1791 96.7476 71.9193C99.3379 72.1784 101.299 73.6586 103.007 75.5513C105.407 78.1947 106.918 81.5201 108.224 84.9617C108.652 86.0878 109.281 87.1293 109.81 88.2131L110.18 88.1179C110.418 86.2253 110.751 84.3379 110.867 82.4347C111.052 79.3736 111.121 76.302 111.179 73.2304C111.221 71.0628 109.456 68.1128 107.611 67.7058C100.601 66.1673 96.8903 60.833 94.5274 53.8967C94.4357 53.5486 94.3633 53.1956 94.3106 52.8394C97.2657 52.8711 99.5969 54.2668 101.674 56.2335C104.534 58.9244 106.538 62.3291 108.272 65.9823C108.923 67.1586 109.656 68.2875 110.466 69.3605L110.994 69.149C110.73 66.9339 110.645 64.6764 110.164 62.5194C109.355 58.8927 108.288 55.3453 107.357 51.7556C107.099 50.598 106.521 49.536 105.689 48.6903C104.857 47.8446 103.805 47.249 102.652 46.9711C96.4252 45.1207 93.0208 40.0983 90.7847 33.7542C90.679 33.4528 90.5838 33.1409 90.4939 32.829C90.4939 32.7867 90.4939 32.7233 90.5468 32.5065C92.3917 32.1999 94.0146 33.0352 95.5635 33.9921C99.4912 36.4504 101.907 40.4102 104.022 44.6766C104.399 45.5576 104.937 46.3608 105.607 47.0451C105.079 45.5595 104.629 44.0211 103.985 42.5937C101.412 36.8558 98.7952 31.1408 96.1344 25.4487C95.9004 24.8761 95.4986 24.3878 94.982 24.0477C90.0023 21.4731 87.3962 16.8366 86.0746 11.1903C85.6781 9.4774 85.5671 7.67462 85.324 5.73438C88.797 6.74943 91.0384 9.15491 92.4604 12.2582C93.8825 15.3616 94.7071 18.7028 95.8067 21.9383C96.2877 23.3446 96.6207 24.8566 97.3132 26.1201C101.715 34.1933 105.483 42.5963 108.584 51.2534C109.239 49.8365 109.25 49.1387 108.621 46.6116C107.563 42.4562 107.156 38.2532 107.912 33.9815C108.281 31.7283 109.324 29.6398 110.904 27.9916C111.517 30.1063 112.236 31.9937 112.585 33.9445C113.475 38.5007 112.704 43.2249 110.413 47.2619C109.275 49.4519 108.999 51.9893 109.641 54.3726C110.799 59.0672 111.914 63.7777 112.982 68.208C113.035 67.7216 113.125 66.8176 113.22 65.9188C113.315 65.0201 113.41 64.0737 113.516 63.1486C114.081 58.29 115.25 53.7329 118.802 50.4233C119.375 49.9569 119.976 49.5245 120.599 49.1281C121.181 56.3128 120.071 62.4719 114.853 67.0608C114.222 67.631 113.722 68.3303 113.385 69.1111C113.049 69.892 112.884 70.7361 112.903 71.5862C112.825 76.2985 112.725 81.0108 112.601 85.723C112.542 86.4562 112.439 87.1852 112.295 87.9065L112.77 88.1655C113.606 86.5795 114.61 85.0305 115.239 83.3281C117.153 78.126 119.373 73.1141 123.353 69.5138C125.087 67.9278 127.302 67.0343 129.322 65.8818C129.759 65.7474 130.218 65.6954 130.675 65.7285C129.2 73.1881 126.319 79.4318 120.441 83.5079C119.742 84.0715 118.949 84.5081 118.099 84.7978C115.535 85.4217 114.039 87.5998 112.495 89.5559C111.851 90.3807 111.888 91.8768 111.629 93.0716C110.762 97.0684 109.9 101.065 109.186 105.189C109.809 104.061 110.37 102.899 110.867 101.71C112.675 96.7089 114.848 91.972 118.369 88.1549C120.684 85.649 123.861 83.8991 126.298 83.8991C126.187 84.597 126.129 85.2684 125.97 85.9186C124.115 93.3941 120.626 99.4633 114.076 102.836C112.865 103.375 111.712 104.035 110.635 104.808C108.769 106.326 107.844 108.541 106.934 110.925C105.174 115.683 103.022 120.251 101.119 125.157C102.399 123.904 103.852 122.815 104.92 121.372C109.382 115.366 114.235 109.831 120.869 106.711C124.157 105.173 127.577 104.29 131.315 105.358C129.575 109.036 127.281 112.423 124.511 115.403C120.129 120.161 114.911 123.058 108.832 123.967C108.738 123.994 108.639 124.005 108.541 123.999C105.132 123.291 102.552 125.553 99.7767 127.065C99.3979 127.319 99.0743 127.646 98.8251 128.028C94.9697 133.138 91.1212 138.249 87.2799 143.359C87.1583 143.523 87.042 143.692 86.7248 144.142C89.0931 143.835 91.1336 143.359 92.9785 142.133C97.6463 139.024 102.494 136.375 107.833 135.017C113.394 133.674 119.019 134.092 123.015 137.11C120.604 139.573 117.828 141.651 114.784 143.269C107.78 147.007 100.612 148.027 93.1952 144.776C92.6666 144.544 91.9741 144.718 91.3662 144.776C89.664 144.977 87.9565 145.162 86.2702 145.479C85.6119 145.623 85.0042 145.941 84.5099 146.399C80.4447 150.1 76.4166 153.875 72.3514 157.618C71.9876 157.914 71.7328 158.323 71.6272 158.781C72.5539 158.359 73.4573 157.888 74.3338 157.369C79.1601 154.197 84.1293 151.437 89.664 150.258C93.7662 149.386 97.8472 149.254 101.822 151.025C102.578 151.363 103.292 151.818 104.466 152.458C102.192 154.208 100.274 155.873 98.2013 157.242C92.9151 160.726 87.2164 162.476 81.0632 161.873C79.1186 161.607 77.207 161.14 75.3593 160.478C74.037 159.998 72.6175 159.849 71.2244 160.043C69.8313 160.238 68.5068 160.77 67.3664 161.593C63.518 164.305 59.733 167.139 55.9269 169.92L55.9692 170.364C57.9304 170.031 59.9022 169.756 61.8476 169.344C68.6246 167.911 75.4069 167.356 81.9725 170.237C84.198 171.215 86.1433 172.992 88.1891 174.467C88.5644 174.736 88.8023 175.254 89.4155 176.079C86.0693 177.02 83.109 178.088 80.0747 178.664C75.0134 179.723 69.743 179.045 65.1145 176.74C62.9898 175.588 60.9791 174.237 59.1093 172.706C57.4599 171.427 54.1824 171.03 52.4327 172.135C47.4988 175.261 42.565 178.373 37.6311 181.472C37.6311 181.635 37.6311 181.794 37.6311 181.958C39.3121 181.826 41.0355 181.91 42.6689 181.535C49.2081 180.018 55.7525 179.214 62.3233 181.086C65.7277 182.053 68.8942 183.655 71.31 186.637C71.5003 186.869 71.6589 187.128 72.0448 187.694C69.8721 188.418 67.9162 189.19 65.9074 189.719C59.3471 191.453 52.8767 191.305 46.7076 187.948C45.0054 187.028 43.5359 185.59 41.876 184.57C40.8874 183.967 39.7033 183.771 38.646 183.295C36.6003 182.376 34.8505 182.925 32.9844 184.131C26.9369 188.048 20.7943 191.791 14.6939 195.608C14.234 195.899 13.8005 196.243 13.1609 196.703C15.508 197.57 17.6806 197.57 19.922 197.395C27.8832 196.787 35.7227 197.078 42.7376 202.153C44.7107 203.514 46.3045 205.356 47.3684 207.504C45.5394 207.921 43.8689 208.418 42.1667 208.682C36.4787 209.555 30.9175 208.989 25.6101 206.414C22.5995 204.889 19.9081 202.802 17.6806 200.266C16.782 199.283 15.2648 199.029 14.0754 198.347C12.5688 197.485 11.3212 197.681 9.96795 198.876C8.19176 200.462 6.23055 201.82 4.26934 203.332C6.11954 205.193 7.86929 206.938 9.60319 208.698C11.2261 210.348 12.9124 212.071 14.3979 213.879C14.9265 214.493 15.5926 215.492 15.0058 216.327C14.9103 216.452 14.7889 216.554 14.6498 216.628C14.5108 216.701 14.3576 216.743 14.2007 216.751C14.0438 216.759 13.887 216.733 13.7413 216.674C13.5955 216.616 13.4642 216.526 13.3565 216.412C12.1776 215.412 11.2419 213.985 10.1213 212.87C7.83758 210.55 5.57505 208.203 3.33366 205.828C3.07716 205.583 2.79744 205.363 2.49844 205.172C2.19934 205.363 1.91959 205.582 1.66319 205.828C-0.578186 208.203 -2.84247 210.55 -5.12967 212.87C-6.22922 213.985 -7.18605 215.412 -8.3649 216.412C-8.47266 216.527 -8.60425 216.617 -8.75053 216.676C-8.89682 216.736 -9.05428 216.762 -9.21185 216.754C-9.36943 216.746 -9.52333 216.704 -9.66283 216.63C-9.80232 216.556 -9.92406 216.453 -10.0195 216.327C-10.6063 215.497 -9.91376 214.493 -9.41156 213.879C-7.92612 212.071 -6.23981 210.353 -4.61163 208.698C-2.87773 206.933 -1.12267 205.193 0.722244 203.332C-1.23897 201.82 -3.20018 200.477 -4.97638 198.876C-6.32967 197.66 -7.57722 197.459 -9.08382 198.347C-10.2785 199.029 -11.7904 199.283 -12.6891 200.266C-14.9167 202.802 -17.608 204.889 -20.6185 206.414C-25.9048 208.989 -31.4871 209.555 -37.1752 208.682C-38.8773 208.418 -40.5531 207.926 -42.3821 207.504C-41.3182 205.356 -39.7245 203.514 -37.7514 202.153C-30.7312 197.089 -22.8916 196.798 -14.9357 197.395C-12.6944 197.564 -10.527 197.57 -8.17458 196.703C-8.81421 196.243 -9.23183 195.899 -9.7076 195.608C-15.808 191.791 -21.9506 188.048 -27.9982 184.131C-29.8642 182.92 -31.614 182.37 -33.6598 183.295C-34.717 183.771 -35.9064 183.967 -36.8897 184.57C-38.5549 185.59 -40.0244 187.028 -41.7213 187.948C-47.7847 191.3 -54.234 191.442 -60.8101 189.714C-62.8189 189.185 -64.7695 188.413 -66.9475 187.689C-66.5563 187.134 -66.4189 186.869 -66.2127 186.631C-63.7757 183.644 -60.6092 182.048 -57.226 181.08C-50.6552 179.209 -44.1107 180.023 -37.5716 181.53C-35.9381 181.905 -34.2201 181.826 -32.5338 181.953C-32.5338 181.789 -32.5338 181.63 -32.5338 181.466C-37.4677 178.358 -42.4015 175.245 -47.3354 172.13C-49.0851 171.02 -52.3626 171.421 -54.012 172.701C-55.8819 174.232 -57.8926 175.583 -60.0172 176.735C-64.6473 179.041 -69.9197 179.719 -74.9827 178.659C-78.017 178.088 -80.9773 177.02 -84.3235 176.074C-83.705 175.249 -83.4724 174.731 -83.0971 174.461C-81.0513 172.997 -79.106 171.226 -76.8804 170.232C-70.3149 167.351 -63.5326 167.906 -56.7555 169.338C-54.8102 169.751 -52.8384 170.02 -50.8772 170.359C-50.8772 170.211 -50.8508 170.063 -50.8349 169.915C-54.641 167.134 -58.426 164.3 -62.2744 161.588C-63.4148 160.764 -64.7393 160.232 -66.1324 160.038C-67.5255 159.844 -68.945 159.993 -70.2673 160.473C-72.115 161.134 -74.0266 161.602 -75.9712 161.868C-82.1244 162.471 -87.8389 160.721 -93.1093 157.237C-95.1816 155.868 -97.1005 154.202 -99.3736 152.452C-98.2106 151.813 -97.497 151.358 -96.7305 151.02C-92.7605 149.243 -88.6794 149.381 -84.572 150.253C-79.0161 151.432 -74.0417 154.192 -69.2418 157.364C-68.3653 157.882 -67.4618 158.353 -66.5352 158.775C-66.6408 158.318 -66.8956 157.909 -67.2594 157.612C-71.2981 153.864 -75.3263 150.105 -79.3914 146.394C-79.8873 145.935 -80.4969 145.618 -81.157 145.474C-82.8434 145.157 -84.5508 144.972 -86.253 144.771C-86.8609 144.697 -87.5535 144.528 -88.0821 144.771C-95.4829 148.006 -102.667 147.002 -109.671 143.264C-112.715 141.646 -115.491 139.568 -117.902 137.105C-113.906 134.086 -108.286 133.642 -102.72 135.059C-97.3754 136.418 -92.5331 139.066 -87.8653 142.175C-86.0204 143.402 -83.9799 143.877 -81.6116 144.184C-81.9288 143.735 -82.0504 143.565 -82.1667 143.402C-85.9799 138.287 -89.8125 133.175 -93.6644 128.065Z" fill="white"/>
</g>
</g>
</svg>
