<svg width="190" height="257" viewBox="0 0 190 257" fill="none" xmlns="http://www.w3.org/2000/svg">
<g opacity="0.5">
<mask id="mask0" mask-type="alpha" maskUnits="userSpaceOnUse" x="0" y="0" width="190" height="257">
<path d="M0 0H190L187.013 211.509L0 256.321V0Z" fill="#C4C4C4"/>
</mask>
<g mask="url(#mask0)">
<path d="M287.594 133.438C287.853 133.04 288.191 132.699 288.585 132.435C291.482 130.86 294.17 128.502 297.718 129.24C297.82 129.246 297.922 129.235 298.02 129.207C304.355 128.26 309.791 125.23 314.357 120.283C317.243 117.179 319.634 113.649 321.446 109.817C317.552 108.715 313.988 109.624 310.562 111.227C303.655 114.461 298.593 120.223 293.917 126.53C292.815 128.034 291.29 129.169 289.957 130.474C291.94 125.357 294.181 120.597 296.016 115.645C296.935 113.161 297.905 110.847 299.871 109.272C300.993 108.466 302.195 107.778 303.457 107.217C310.287 103.68 313.922 97.3621 315.85 89.5895C316.015 88.9175 316.076 88.2124 316.192 87.4853C313.68 87.4853 310.37 89.3141 307.93 91.9197C304.256 95.8913 301.992 100.827 300.114 106.044C299.596 107.283 299.011 108.493 298.362 109.668C299.106 105.372 300.014 101.207 300.907 97.0426C301.177 95.7977 301.138 94.2388 301.81 93.3794C303.418 91.3192 304.983 89.0497 307.649 88.4217C308.542 88.122 309.375 87.667 310.111 87.0776C316.236 82.8305 319.232 76.3249 320.802 68.5413C320.326 68.5069 319.848 68.561 319.392 68.7011C317.282 69.9019 314.985 70.8549 313.173 72.4855C309.02 76.2368 306.712 81.4534 304.718 86.8793C304.063 88.6531 303.016 90.2451 302.146 91.9197L301.65 91.6497C301.801 90.8983 301.908 90.1386 301.97 89.3747C302.095 84.4647 302.199 79.5548 302.284 74.6448C302.265 73.7591 302.436 72.8796 302.787 72.0661C303.138 71.2525 303.659 70.5238 304.316 69.9295C309.742 65.1425 310.926 58.7251 310.303 51.2444C309.653 51.6575 309.028 52.1081 308.431 52.594C304.724 56.0369 303.501 60.7853 302.923 65.8531C302.812 66.8116 302.713 67.7756 302.614 68.7396L302.366 71.1248C301.265 66.5087 300.097 61.6005 298.885 56.7089C298.22 54.2308 298.507 51.5936 299.689 49.3165C302.077 45.1101 302.88 40.1877 301.953 35.4404C301.584 33.4077 300.852 31.4632 300.196 29.2377C298.549 30.9568 297.462 33.1348 297.079 35.4845C296.291 39.9299 296.737 44.2982 297.811 48.6444C298.467 51.2775 298.45 52.0046 297.773 53.4809C294.537 44.4601 290.606 35.7044 286.013 27.2932C285.291 25.9767 284.939 24.4012 284.443 22.936C283.297 19.5647 282.416 16.0392 280.956 12.8498C279.497 9.66032 277.123 7.03274 273.499 5.9751C273.774 7.99674 273.884 9.87516 274.303 11.6599C275.702 17.5431 278.401 22.3741 283.584 25.0568C284.122 25.4111 284.541 25.9199 284.785 26.5165C287.542 32.4547 290.274 38.4095 292.981 44.3808C293.653 45.8681 294.11 47.4711 294.672 49.019C293.973 48.3059 293.412 47.4691 293.019 46.5512C290.816 42.1113 288.288 37.9798 284.206 35.4184C282.587 34.4048 280.901 33.551 278.979 33.8704C278.948 33.98 278.929 34.0927 278.924 34.2065C279.018 34.526 279.117 34.851 279.227 35.1705C281.557 41.7807 285.11 47.0139 291.593 48.9419C292.789 49.2434 293.877 49.8738 294.733 50.7616C295.59 51.6495 296.181 52.7593 296.44 53.9657C297.409 57.706 298.527 61.4077 299.364 65.1811C299.866 67.4231 299.954 69.7808 300.229 72.0888L299.678 72.3092C298.835 71.1909 298.071 70.0147 297.393 68.7892C295.586 64.9828 293.498 61.4298 290.518 58.6314C288.315 56.5822 285.925 55.128 282.846 55.0949C282.901 55.4659 282.977 55.8337 283.072 56.1966C285.534 63.4404 289.406 68.982 296.704 70.585C298.626 71.0092 300.466 74.0829 300.422 76.3414C300.356 79.5419 300.29 82.7424 300.097 85.9318C299.981 87.9149 299.629 89.8815 299.381 91.8536L299.001 91.9527C298.45 90.851 297.811 89.7493 297.348 88.5649C295.988 84.9789 294.413 81.5305 291.912 78.7597C290.133 76.7876 288.089 75.2452 285.39 74.9753C285.342 75.2461 285.326 75.5215 285.341 75.7961C286.993 82.6212 290.094 88.0802 296.495 90.4268C297.839 90.9171 299.282 92.9773 299.078 93.9688C298.401 97.2134 297.855 100.507 296.985 103.691C295.801 108.038 294.369 112.307 293.047 116.604L292.606 116.537C292.395 116.113 292.232 115.665 292.121 115.204C291.78 112.632 291.416 110.054 291.196 107.492C290.821 103.086 289.929 98.8825 287.985 95.0265C286.597 92.2722 284.845 89.8374 281.628 88.3446C281.628 90.6527 281.568 92.6798 281.628 94.7015C281.832 100.171 283.242 105.168 286.426 109.459C288.178 111.828 290.832 113.315 291.714 116.565C292.011 117.667 292.143 118.52 291.67 119.595C288.287 127.157 283.97 134.265 278.819 140.753C276.836 143.276 274.716 145.656 272.375 148.437C272.436 147.611 272.452 147.297 272.485 146.983C272.92 143.348 274.595 140.307 276.142 137.172C279.497 130.386 281.904 123.252 281.601 115.331C281.474 112.026 280.824 108.847 278.885 105.779C277.376 108.247 275.845 110.456 274.606 112.847C270.051 121.627 268.547 130.827 271.885 140.593C272.042 141.129 272.091 141.691 272.028 142.246C271.868 144.053 271.648 145.854 271.439 147.655C271.374 148.872 270.831 150.014 269.929 150.834C267.489 153.004 265.225 155.422 262.769 157.582C259.657 160.336 256.429 162.903 252.898 165.845C253.003 164.495 253.036 163.641 253.13 162.848C253.504 159.366 255.151 156.485 256.627 153.483C259.982 146.702 262.416 139.585 262.191 131.675C262.18 128.259 261.227 124.911 259.436 122.002C257.911 124.486 256.324 126.723 255.069 129.163C250.585 137.905 249.087 147.049 252.469 156.744C252.617 157.282 252.654 157.844 252.579 158.397C252.43 160.05 252.265 161.675 252.028 163.3C251.857 164.5 251.923 166.252 251.262 166.77C247.269 169.893 243.105 172.73 238.726 175.859C238.798 174.895 238.798 174.328 238.891 173.788C239.412 170.985 240.367 168.281 241.723 165.773C245.446 158.612 248.239 151.087 248.013 142.604C248.024 139.1 247.063 135.662 245.237 132.672C243.38 135.977 241.464 138.853 239.998 142.009C236.176 150.272 235.217 158.805 238.319 167.651C238.466 168.074 238.526 168.522 238.495 168.968C238.319 170.89 238.104 172.824 237.878 174.719C237.847 175.283 237.675 175.83 237.379 176.311C237.083 176.792 236.671 177.192 236.181 177.473C233.615 178.993 231.136 180.696 228.608 182.282C225.738 184.089 222.846 185.846 219.712 187.791C219.878 184.26 220.445 181.18 221.916 178.426C226.157 170.461 229.473 162.165 228.944 152.596C228.869 149.553 227.987 146.583 226.388 143.992C223.622 147.517 221.412 151.444 219.833 155.637C217.079 163.046 216.595 170.565 219.123 178.222C219.342 178.861 219.432 179.537 219.387 180.211C219.156 182.64 218.897 185.069 218.506 187.466C218.368 188.166 217.976 188.79 217.404 189.217C212.954 192.104 208.437 194.88 203.976 197.745C201.337 199.436 198.754 201.237 195.945 203.121C196.242 199.865 196.766 196.957 198.148 194.307C202.356 186.458 205.645 178.277 205.204 168.836C205.131 165.622 204.209 162.484 202.533 159.741C201.012 162.209 199.525 164.379 198.28 166.704C194.243 174.212 192.717 182.26 194.458 190.908C194.777 192.495 195.598 194.043 195.592 195.607C195.492 198.154 195.214 200.69 194.761 203.198C194.655 203.776 194.359 204.302 193.918 204.691C191.715 206.514 189.473 208.26 187.275 210.007C185.072 208.26 182.83 206.514 180.633 204.691C180.193 204.302 179.896 203.776 179.79 203.198C179.338 200.69 179.06 198.154 178.958 195.607C178.958 194.043 179.773 192.495 180.093 190.908C181.828 182.26 180.302 174.212 176.27 166.704C175.02 164.379 173.516 162.214 172.018 159.741C170.355 162.495 169.451 165.641 169.396 168.858C168.955 178.299 172.238 186.485 176.446 194.329C177.856 196.962 178.38 199.876 178.65 203.143C175.846 201.259 173.263 199.458 170.624 197.767C166.157 194.902 161.646 192.131 157.196 189.239C156.625 188.812 156.232 188.188 156.094 187.488C155.703 185.086 155.444 182.657 155.213 180.233C155.168 179.559 155.258 178.883 155.477 178.244C158 170.609 157.493 163.09 154.761 155.659C153.182 151.466 150.972 147.539 148.207 144.014C146.608 146.605 145.726 149.575 145.651 152.618C145.1 162.187 148.438 170.477 152.679 178.448C154.161 181.23 154.728 184.282 154.882 187.813C151.748 185.874 148.856 184.116 145.987 182.304C143.453 180.712 140.974 178.999 138.413 177.495C137.924 177.214 137.512 176.814 137.216 176.333C136.919 175.852 136.748 175.305 136.717 174.741C136.496 172.824 136.276 170.885 136.1 168.99C136.068 168.544 136.128 168.096 136.276 167.673C139.372 158.827 138.419 150.266 134.596 142.031C133.131 138.875 131.214 135.972 129.358 132.694C127.514 135.686 126.54 139.133 126.543 142.648C126.317 151.131 129.11 158.667 132.834 165.817C134.189 168.325 135.144 171.029 135.665 173.832C135.758 174.383 135.758 174.934 135.83 175.903C131.451 172.78 127.281 169.937 123.294 166.814C122.633 166.296 122.704 164.545 122.528 163.344C122.291 161.691 122.126 160.083 121.977 158.441C121.902 157.888 121.939 157.326 122.087 156.788C125.469 147.093 123.971 137.949 119.487 129.207C118.237 126.761 116.651 124.525 115.12 122.046C113.329 124.955 112.376 128.303 112.366 131.719C112.14 139.635 114.569 146.746 117.929 153.527C119.405 156.513 121.052 159.394 121.426 162.892C121.514 163.713 121.553 164.545 121.658 165.889C118.121 162.947 114.899 160.38 111.787 157.626C109.336 155.466 107.072 153.048 104.627 150.878C103.725 150.058 103.182 148.916 103.117 147.699C102.914 145.898 102.688 144.097 102.528 142.29C102.466 141.735 102.514 141.173 102.671 140.637C106.053 130.81 104.544 121.616 99.9944 112.841C98.7551 110.445 97.2404 108.242 95.7147 105.774C93.7758 108.842 93.1259 112.02 92.9992 115.326C92.6962 123.247 95.1033 130.38 98.4577 137.167C100.005 140.301 101.685 143.342 102.115 146.978C102.154 147.292 102.165 147.606 102.231 148.432C99.8898 145.678 97.7637 143.27 95.7863 140.748C90.6286 134.257 86.3059 127.145 82.9194 119.578C82.4457 118.476 82.5779 117.656 82.8753 116.548C83.7456 113.298 86.4115 111.811 88.1631 109.442C91.3468 105.129 92.7623 100.171 92.9606 94.6629C93.0322 92.6413 92.9606 90.6141 92.9606 88.306C89.7439 89.7989 88.0034 92.2281 86.6043 94.9879C84.66 98.8439 83.7677 103.063 83.3931 107.454C83.1728 110.043 82.8092 112.615 82.4677 115.166C82.3574 115.627 82.1948 116.074 81.983 116.499L81.5424 116.565C80.2149 112.263 78.7884 107.999 77.6041 103.653C76.7394 100.469 76.1885 97.1803 75.5111 93.9303C75.3018 92.9387 76.7504 90.8785 78.0943 90.3883C84.4947 88.0361 87.5903 82.5826 89.2427 75.7575C89.2584 75.483 89.2418 75.2075 89.1931 74.9368C86.4941 75.2067 84.4507 76.7491 82.6715 78.7211C80.1709 81.4754 78.5956 84.9403 77.2351 88.5264C76.7889 89.6997 76.1335 90.7849 75.5827 91.9141L75.1971 91.815C74.9492 89.8429 74.6022 87.8764 74.4811 85.8933C74.2883 82.7038 74.2167 79.5034 74.1561 76.3029C74.112 74.0444 75.9517 70.9706 77.874 70.5464C85.1777 68.9435 89.0444 63.3853 91.5065 56.1581C91.602 55.7953 91.6774 55.4275 91.7323 55.0564C88.6533 55.0894 86.2243 56.5437 84.0596 58.5929C81.0797 61.3967 78.9922 64.9442 77.1855 68.7507C76.5074 69.9763 75.7435 71.1526 74.8997 72.2706L74.3489 72.0503C74.6243 69.7422 74.7124 67.39 75.2136 65.1425C76.0564 61.3637 77.169 57.6674 78.1384 53.9271C78.4078 52.7209 79.01 51.6144 79.8765 50.7332C80.743 49.852 81.8392 49.2314 83.0406 48.9419C89.5291 47.0139 93.0763 41.7807 95.4062 35.1705C95.5164 34.8565 95.6155 34.5315 95.7091 34.2065C95.7091 34.1624 95.7091 34.0963 95.6541 33.8704C93.7317 33.551 92.0408 34.4213 90.4269 35.4184C86.3344 37.9798 83.8172 42.1057 81.614 46.5512C81.2209 47.4691 80.6606 48.3059 79.9616 49.019C80.5124 47.4711 80.9806 45.8681 81.6526 44.3808C84.3331 38.4022 87.0596 32.4474 89.832 26.5165C90.0759 25.9199 90.4945 25.4111 91.0328 25.0568C96.2214 22.3741 98.9369 17.5431 100.314 11.6599C100.727 9.87516 100.843 7.99674 101.096 5.9751C97.4772 7.03274 95.1418 9.53914 93.6601 12.7727C92.1785 16.0062 91.3192 19.4876 90.1735 22.8588C89.6723 24.3241 89.3253 25.8996 88.6037 27.2161C84.017 35.6279 80.0907 44.3835 76.8605 53.4038C76.1775 51.9275 76.1665 51.2004 76.822 48.5673C77.9236 44.2376 78.3477 39.8583 77.5601 35.4073C77.1757 33.0596 76.0887 30.8835 74.4425 29.1661C73.8036 31.3696 73.0545 33.3361 72.6909 35.3688C71.7637 40.1161 72.5668 45.0385 74.9547 49.2448C76.1406 51.5268 76.4276 54.1706 75.7589 56.6539C74.5527 61.5455 73.3905 66.4536 72.2778 71.0698C72.2227 70.563 72.1291 69.621 72.03 68.6845C71.9308 67.7481 71.8317 66.7621 71.7215 65.7981C71.1321 60.7357 69.9149 55.9873 66.2134 52.539C65.616 52.053 64.9907 51.6024 64.3407 51.1894C63.7348 58.6755 64.8915 65.093 70.328 69.8744C70.9852 70.4685 71.5068 71.1972 71.8575 72.0108C72.2082 72.8244 72.3797 73.7039 72.3604 74.5897C72.4412 79.4997 72.5459 84.4097 72.6744 89.3196C72.7366 90.0835 72.8432 90.8432 72.9939 91.5947L72.4981 91.8646C71.6279 90.212 70.5813 88.598 69.9259 86.8242C67.932 81.4038 65.6186 76.1817 61.471 72.4304C59.6643 70.7778 57.3565 69.8469 55.2524 68.646C54.7963 68.5059 54.3182 68.4518 53.8423 68.4862C55.3791 76.2588 58.381 82.7644 64.5059 87.0115C65.2345 87.5988 66.0603 88.0537 66.946 88.3556C69.6174 89.0056 71.1762 91.2752 72.7846 93.3133C73.4565 94.1727 73.418 95.7316 73.6879 96.9765C74.5912 101.141 75.489 105.305 76.2326 109.602C75.5835 108.427 74.9987 107.217 74.4811 105.978C72.5973 100.766 70.3335 95.8307 66.6651 91.8536C64.2526 89.2425 60.9422 87.4192 58.403 87.4192C58.5187 88.1463 58.5793 88.8459 58.7445 89.5234C60.6778 97.3125 64.3132 103.636 71.1377 107.151C72.3998 107.712 73.6013 108.4 74.7234 109.206C76.6678 110.786 77.6317 113.095 78.5791 115.579C80.4132 120.537 82.655 125.296 84.6379 130.408C83.305 129.102 81.7903 127.968 80.6776 126.464C76.0288 120.206 70.9724 114.439 64.0598 111.189C60.6338 109.586 57.07 108.666 53.1758 109.778C54.988 113.61 57.3789 117.14 60.2647 120.245C64.8309 125.202 70.2674 128.221 76.6017 129.169C76.7001 129.196 76.8025 129.207 76.9046 129.202C80.4573 128.463 83.1452 130.821 86.037 132.397C86.4316 132.661 86.7688 133.002 87.0284 133.399C91.0456 138.724 95.0555 144.049 99.058 149.374C99.1847 149.545 99.3059 149.721 99.6364 150.189C97.1688 149.87 95.0427 149.374 93.1203 148.096C88.2567 144.857 83.2058 142.097 77.6427 140.681C71.8482 139.282 65.9876 139.717 61.8235 142.863C64.3363 145.429 67.2288 147.594 70.3996 149.28C77.6978 153.175 85.1667 154.238 92.8945 150.85C93.4453 150.608 94.1669 150.79 94.8003 150.85C96.5739 151.06 98.353 151.252 100.11 151.583C100.796 151.733 101.429 152.064 101.944 152.541C106.18 156.397 110.377 160.33 114.613 164.231C114.992 164.54 115.257 164.966 115.367 165.442C114.402 165.003 113.46 164.512 112.547 163.972C107.518 160.666 102.341 157.791 96.5739 156.563C92.2996 155.654 88.0474 155.516 83.9054 157.361C83.1177 157.714 82.3741 158.188 81.1513 158.854C83.5198 160.678 85.5192 162.413 87.6784 163.839C93.1864 167.47 99.1241 169.293 105.536 168.665C107.562 168.388 109.553 167.9 111.479 167.211C112.856 166.711 114.336 166.555 115.787 166.758C117.239 166.96 118.619 167.515 119.807 168.373C123.817 171.199 127.761 174.151 131.726 177.049L131.682 177.512C129.639 177.165 127.584 176.878 125.557 176.449C118.496 174.956 111.429 174.377 104.588 177.379C102.269 178.399 100.242 180.249 98.1107 181.786C97.7196 182.067 97.4717 182.607 96.8328 183.466C100.319 184.447 103.404 185.56 106.566 186.16C111.839 187.263 117.331 186.557 122.153 184.155C124.367 182.955 126.462 181.548 128.411 179.952C130.129 178.619 133.544 178.206 135.367 179.357C140.508 182.614 145.649 185.857 150.79 189.085C150.79 189.256 150.79 189.421 150.79 189.592C149.038 189.454 147.243 189.542 145.541 189.151C138.727 187.57 131.908 186.733 125.062 188.683C121.514 189.691 118.215 191.36 115.698 194.467C115.5 194.709 115.334 194.979 114.932 195.569C117.196 196.323 119.234 197.128 121.327 197.679C128.163 199.485 134.905 199.331 141.332 195.833C143.106 194.875 144.637 193.376 146.367 192.313C147.397 191.685 148.631 191.481 149.732 190.986C151.864 190.027 153.687 190.6 155.631 191.856C161.933 195.938 168.333 199.838 174.689 203.815C175.169 204.118 175.62 204.476 176.287 204.955C173.841 205.859 171.577 205.859 169.242 205.677C160.947 205.043 152.778 205.346 145.469 210.635C143.413 212.053 141.753 213.971 140.644 216.209C142.55 216.644 144.29 217.162 146.064 217.438C151.991 218.347 157.785 217.757 163.315 215.075C166.452 213.485 169.256 211.31 171.577 208.668C172.514 207.643 174.094 207.379 175.334 206.668C176.904 205.771 178.203 205.974 179.614 207.219C181.464 208.872 183.508 210.288 185.551 211.863C183.623 213.802 181.8 215.62 179.994 217.454C178.303 219.173 176.546 220.969 174.998 222.853C174.447 223.492 173.753 224.533 174.364 225.403C174.464 225.533 174.59 225.64 174.735 225.716C174.88 225.792 175.04 225.836 175.203 225.845C175.367 225.853 175.53 225.826 175.682 225.765C175.834 225.704 175.971 225.61 176.083 225.491C177.311 224.45 178.286 222.963 179.454 221.8C181.833 219.384 184.191 216.938 186.526 214.463C186.793 214.208 187.085 213.979 187.396 213.78C187.708 213.979 188 214.208 188.267 214.463C190.602 216.938 192.961 219.384 195.345 221.8C196.49 222.963 197.487 224.45 198.716 225.491C198.828 225.611 198.965 225.705 199.117 225.767C199.27 225.829 199.434 225.856 199.598 225.848C199.762 225.839 199.923 225.795 200.068 225.718C200.213 225.642 200.34 225.534 200.44 225.403C201.051 224.538 200.329 223.492 199.806 222.853C198.258 220.969 196.501 219.178 194.805 217.454C192.998 215.614 191.169 213.802 189.247 211.863C191.291 210.288 193.334 208.888 195.185 207.219C196.595 205.952 197.895 205.743 199.465 206.668C200.709 207.379 202.285 207.643 203.221 208.668C205.542 211.31 208.346 213.485 211.483 215.075C216.991 217.757 222.808 218.347 228.734 217.438C230.508 217.162 232.254 216.65 234.16 216.209C233.051 213.971 231.391 212.053 229.335 210.635C222.02 205.357 213.852 205.054 205.562 205.677C203.227 205.853 200.968 205.859 198.517 204.955C199.184 204.476 199.619 204.118 200.115 203.815C206.471 199.838 212.871 195.938 219.172 191.856C221.117 190.594 222.94 190.022 225.072 190.986C226.173 191.481 227.413 191.685 228.437 192.313C230.172 193.376 231.703 194.875 233.471 195.833C239.789 199.326 246.509 199.474 253.361 197.673C255.454 197.122 257.487 196.318 259.756 195.563C259.348 194.985 259.205 194.709 258.99 194.462C256.451 191.349 253.152 189.686 249.627 188.678C242.78 186.727 235.961 187.576 229.148 189.146C227.446 189.537 225.655 189.454 223.898 189.586C223.898 189.416 223.898 189.25 223.898 189.08C229.039 185.841 234.18 182.598 239.321 179.352C241.144 178.195 244.559 178.613 246.278 179.946C248.226 181.542 250.321 182.949 252.535 184.149C257.359 186.553 262.853 187.259 268.128 186.155C271.29 185.56 274.374 184.447 277.861 183.461C277.217 182.602 276.974 182.062 276.583 181.781C274.451 180.255 272.424 178.41 270.106 177.374C263.265 174.372 256.198 174.95 249.136 176.443C247.109 176.873 245.055 177.154 243.011 177.506C243.011 177.352 242.984 177.198 242.967 177.043C246.933 174.146 250.877 171.193 254.887 168.367C256.075 167.509 257.455 166.955 258.907 166.752C260.358 166.55 261.837 166.705 263.215 167.205C265.14 167.895 267.132 168.382 269.158 168.659C275.57 169.287 281.524 167.464 287.015 163.834C289.175 162.407 291.174 160.672 293.542 158.849C292.331 158.182 291.587 157.708 290.788 157.356C286.652 155.505 282.4 155.648 278.12 156.557C272.331 157.785 267.148 160.661 262.146 163.966C261.233 164.506 260.292 164.997 259.326 165.437C259.436 164.96 259.702 164.534 260.081 164.225C264.289 160.319 268.486 156.403 272.722 152.536C273.239 152.058 273.874 151.727 274.562 151.577C276.319 151.247 278.098 151.054 279.871 150.845C280.505 150.768 281.226 150.591 281.777 150.845C289.488 154.216 296.974 153.169 304.272 149.275C307.443 147.588 310.336 145.424 312.848 142.857C308.684 139.712 302.829 139.249 297.029 140.725C291.46 142.141 286.415 144.901 281.551 148.14C279.629 149.418 277.503 149.914 275.035 150.233C275.366 149.765 275.492 149.589 275.614 149.418C279.587 144.089 283.58 138.763 287.594 133.438Z" fill="white"/>
</g>
</g>
</svg>
