<svg width="22" height="22" viewBox="0 0 22 22" fill="none" xmlns="http://www.w3.org/2000/svg">
<path d="M21.0832 2.75043C20.2054 3.36962 19.2334 3.8432 18.2048 4.15293C17.6528 3.51815 16.9191 3.06823 16.103 2.86403C15.2868 2.65983 14.4277 2.71119 13.6417 3.01118C12.8558 3.31116 12.1809 3.8453 11.7084 4.54134C11.2359 5.23737 10.9886 6.06174 10.9998 6.90293V7.81959C9.38892 7.86137 7.79267 7.50409 6.35326 6.77959C4.91385 6.05508 3.67596 4.98584 2.74984 3.6671C2.74984 3.6671 -0.91683 11.9171 7.33317 15.5838C5.44532 16.8652 3.1964 17.5078 0.916504 17.4171C9.1665 22.0004 19.2498 17.4171 19.2498 6.87543C19.249 6.62009 19.2244 6.36539 19.1765 6.1146C20.1121 5.19196 20.7723 4.02708 21.0832 2.75043Z" stroke="#7352D1" stroke-linecap="round" stroke-linejoin="round"/>
</svg>
