<svg width="19" height="19" viewBox="0 0 19 19" fill="none" xmlns="http://www.w3.org/2000/svg">
<g clip-path="url(#clip0_3425_4648)">
<path d="M18.0396 2.71648C17.3257 3.22003 16.5353 3.60517 15.6988 3.85706C15.2498 3.34082 14.6531 2.97493 13.9895 2.80886C13.3258 2.6428 12.6271 2.68457 11.9879 2.92853C11.3487 3.1725 10.7999 3.60688 10.4156 4.17293C10.0314 4.73898 9.8302 5.40938 9.83937 6.09348V6.83895C8.5293 6.87292 7.23116 6.58237 6.06057 5.99317C4.88998 5.40397 3.88327 4.53442 3.13011 3.46195C3.13011 3.46195 0.148212 10.1712 6.85748 13.1531C5.32219 14.1953 3.49327 14.7178 1.63916 14.6441C8.34843 18.3714 16.5486 14.6441 16.5486 6.07111C16.548 5.86346 16.528 5.65633 16.489 5.45237C17.2498 4.70205 17.7867 3.75471 18.0396 2.71648Z" fill="white"/>
</g>
<defs>
<clipPath id="clip0_3425_4648">
<rect width="17.8914" height="17.8914" fill="white" transform="translate(0.893799 0.480469)"/>
</clipPath>
</defs>
</svg>
