<svg width="1361" height="141" viewBox="0 0 1361 141" fill="none" xmlns="http://www.w3.org/2000/svg">
<path d="M0 127C31.71 127 130.104 20.2677 194.657 44.1231C260.342 67.9784 324.894 125.631 389.447 137.559C453.999 149.487 518.552 115.689 583.104 79.9061C647.657 44.1231 713.342 -13.5298 777.894 4.36174C842.447 22.2532 906.999 125.631 971.552 137.559C1036.1 149.487 1100.66 69.9639 1166.34 58.0363C1230.89 46.1086 1295.45 91.8338 1327.16 109.725L1360 127.617" stroke="white" stroke-width="2"/>
<path opacity="0.3" d="M3 127C34.71 127 130.104 10.6285 194.657 34.7042C260.342 58.78 324.894 105.928 389.447 117.966C453.999 130.004 518.552 115.962 583.104 79.8485C647.657 43.7349 713.342 5.61741 777.894 23.6742C842.447 41.731 906.999 100.894 971.552 112.932C1036.1 124.97 1100.66 84.8655 1166.34 72.8276C1230.89 60.7898 1295.45 91.8863 1327.16 109.943L1360 128" stroke="white" stroke-width="2"/>
<path opacity="0.2" d="M3 127C34.71 127 130.104 10.6285 194.657 34.7043C260.342 58.78 324.894 85.86 389.447 97.8979C453.999 109.936 518.552 105.928 583.104 69.8145C647.657 33.7009 713.342 25.6855 777.894 43.7423C842.447 61.7991 906.999 85.86 971.552 97.8979C1036.1 109.936 1100.66 99.9166 1166.34 87.8787C1230.89 75.8408 1295.45 91.8864 1327.16 109.943L1360 128" stroke="white" stroke-width="2"/>
<path opacity="0.1" d="M2 126C33.71 126 130.104 10.6278 194.657 34.7058C260.342 58.7839 324.894 75.8315 389.447 87.8705C453.999 99.9095 509.247 87.8705 583.104 59.7844C647.657 23.6673 713.342 35.7212 777.894 53.7797C842.447 71.8383 906.999 75.8315 971.552 87.8705C1036.1 99.9095 1100.66 109.959 1166.34 97.9203C1230.89 85.8813 1295.45 88.8829 1327.16 106.941L1358 127.5" stroke="white" stroke-width="2"/>
</svg>
