<svg width="217" height="70" viewBox="0 0 217 70" fill="none" xmlns="http://www.w3.org/2000/svg">
<path d="M0 49.8255V18.5913H20.8077V22.9463H4.92713V32.2724H18.2121V36.3639H4.92713V49.8255H0Z" fill="white"/>
<path d="M24.9249 17.707H29.764V43.1789C29.764 44.0302 29.9841 44.6973 30.4242 45.1804C30.8638 45.664 31.4799 45.9066 32.2716 45.9066C32.5942 45.9066 32.9678 45.8475 33.3934 45.73C33.8185 45.6135 34.2215 45.482 34.6032 45.3344L35.3073 49.1178C34.6032 49.4414 33.7675 49.6975 32.7992 49.8875C31.832 50.078 30.9663 50.1741 30.2042 50.1741C28.5323 50.1741 27.2345 49.7195 26.3113 48.8097C25.387 47.901 24.9249 46.6102 24.9249 44.9378V17.707Z" fill="white"/>
<path d="M55.5649 36.5828C55.4769 35.615 55.2348 34.7209 54.8387 33.8997C54.4431 33.079 53.937 32.3824 53.3214 31.8097C52.7052 31.2381 51.9865 30.791 51.1654 30.4684C50.3442 30.1458 49.479 29.9843 48.5703 29.9843C47.6605 29.9843 46.8034 30.1458 45.9967 30.4684C45.1895 30.791 44.4788 31.2381 43.8632 31.8097C43.2471 32.3824 42.7484 33.079 42.3679 33.8997C41.9857 34.7209 41.7517 35.615 41.6637 36.5828H55.5649ZM48.5703 50.2644C46.7808 50.2644 45.153 49.9488 43.6872 49.3182C42.2203 48.6881 40.9665 47.8309 39.9258 46.7446C38.884 45.6604 38.0779 44.3991 37.5062 42.9623C36.9346 41.5255 36.6486 39.9996 36.6486 38.3862C36.6486 36.7744 36.9346 35.2409 37.5062 33.7896C38.0779 32.3378 38.884 31.062 39.9258 29.9623C40.9665 28.8625 42.2203 27.9978 43.6872 27.3672C45.153 26.7365 46.7959 26.4204 48.6138 26.4204C50.4027 26.4204 52.0236 26.7441 53.4754 27.3892C54.9273 28.0338 56.1655 28.892 57.1928 29.9623C58.2184 31.0336 59.0037 32.2798 59.5458 33.7011C60.0879 35.1239 60.3594 36.6128 60.3594 38.1677C60.3594 38.5182 60.3439 38.8488 60.3154 39.1558C60.2864 39.4644 60.2564 39.7221 60.2279 39.9266H41.7952C41.8832 40.9533 42.1253 41.8776 42.5214 42.6977C42.9175 43.5194 43.4301 44.2306 44.0607 44.8317C44.6914 45.4328 45.4095 45.8949 46.2167 46.2175C47.0229 46.5412 47.8661 46.7011 48.7463 46.7011C49.3909 46.7011 50.0286 46.6211 50.6598 46.459C51.2904 46.2986 51.8695 46.0635 52.3977 45.7554C52.9253 45.4478 53.3944 45.0738 53.8055 44.6336C54.2156 44.1935 54.5381 43.7099 54.7727 43.1818L58.9076 44.3701C58.1159 46.1005 56.8036 47.5153 54.9707 48.6151C53.1378 49.7148 51.0043 50.2644 48.5703 50.2644Z" fill="white"/>
<path d="M67.9846 39.5034L71.1835 43.3319L69.226 46.0305C67.3121 48.6691 64.2162 50.2556 60.9487 50.2556H60.0947L60.5429 49.5659L67.9846 39.5034Z" fill="white"/>
<path d="M87.2729 54.6356H86.3331C83.0822 54.6356 79.9955 53.0668 78.0815 50.4449L55.3427 19.938H56.2309C59.4819 19.938 62.5772 21.5068 64.4917 24.1368L72.0364 34.5187L72.0541 34.4843L74.7442 30.6902C76.6501 27.9915 79.7711 26.3792 83.0736 26.3792H83.9275L75.2095 38.3391L87.2729 54.6356Z" fill="white"/>
<path d="M86.3937 26.8131H91.2333V49.822H86.3937V26.8131ZM86.3937 17.707H91.2333V23.0308H86.3937V17.707Z" fill="white"/>
<path d="M112.777 27.3941H103.18V26.3335C103.18 24.7212 103.482 23.4884 104.086 22.643C104.689 21.7896 105.56 21.3672 106.706 21.3672C107.259 21.3672 107.836 21.4531 108.44 21.6254C109.043 21.8063 109.561 22.022 110 22.2893L111.061 18.6766C110.234 18.2456 109.371 17.8919 108.466 17.6504C107.552 17.4003 106.629 17.2715 105.689 17.2715C103.43 17.2715 101.645 18.0991 100.326 19.7372C99.0066 21.3753 98.3426 23.6258 98.3426 26.4715V27.3941H95.2645V31.1281H98.3426V49.8308H103.18V31.1281H114.2L112.777 27.3941Z" fill="white"/>
<path d="M126.019 26.8164L119.69 45.5621L114.197 31.1279L112.775 27.3939H107.833L109.369 31.1279L117.043 49.8306C116.638 51.0028 116.276 51.9604 115.965 52.7107C115.663 53.4519 115.362 54.0386 115.069 54.4438C114.775 54.8576 114.49 55.1421 114.206 55.3063C113.93 55.4614 113.602 55.5473 113.223 55.5473C112.955 55.5473 112.611 55.513 112.188 55.4614C111.757 55.4008 111.326 55.3235 110.886 55.2371V59.4622C111.36 59.6087 111.783 59.7037 112.163 59.7466C112.542 59.7896 112.913 59.8159 113.266 59.8159C115.086 59.8159 116.569 59.3672 117.733 58.4708C118.888 57.574 119.699 56.4705 120.173 55.1507L130.598 26.8164H126.019Z" fill="white"/>
<path d="M75.1375 25.7958C75.1375 27.3249 73.8977 28.5647 72.3691 28.5647C70.8399 28.5647 69.6001 27.3249 69.6001 25.7958C69.6001 24.2666 70.8399 23.0273 72.3691 23.0273C73.8977 23.0273 75.1375 24.2666 75.1375 25.7958Z" fill="white"/>
<path d="M152.931 14.5592L153.262 14.1378L155.299 14.5779L154.391 12.7026L154.722 12.2808L155.788 14.6515L156.885 15.5145L156.588 15.8935L155.49 15.0315L152.931 14.5592Z" fill="white"/>
<path d="M160.335 11.2763C160.919 10.76 160.981 9.94954 160.384 9.27433C159.784 8.59484 158.975 8.55942 158.391 9.07575C157.807 9.59154 157.743 10.3993 158.343 11.0783C158.939 11.754 159.752 11.7921 160.335 11.2763ZM160.613 11.5898C159.834 12.2784 158.707 12.2355 157.973 11.4046C157.24 10.5743 157.335 9.44984 158.113 8.7623C158.895 8.07046 160.02 8.11715 160.754 8.94747C161.487 9.77725 161.396 10.8985 160.613 11.5898Z" fill="white"/>
<path d="M162.331 5.61813L162.746 5.37231L163.936 7.38503C164.281 7.96898 164.744 8.03339 165.214 7.7559C165.684 7.47788 165.846 7.04367 165.501 6.45971L164.311 4.44646L164.726 4.20117L165.913 6.2096C166.402 7.03562 166.082 7.73497 165.426 8.12356C164.769 8.51269 164.006 8.4515 163.517 7.62602L162.331 5.61813Z" fill="white"/>
<path d="M169.185 2.64888L168.52 2.89846L169.012 4.20968L169.677 3.95903C170.189 3.76688 170.308 3.40513 170.163 3.01761C170.015 2.6258 169.701 2.45459 169.185 2.64888ZM169.045 2.27586C169.86 1.97046 170.416 2.27639 170.629 2.84264C170.795 3.28436 170.711 3.79801 170.178 4.14527L171.591 5.26863L171.051 5.47205L169.695 4.36694L169.149 4.57143L169.68 5.98677L169.229 6.15638L167.928 2.69558L169.045 2.27586Z" fill="white"/>
<path d="M179.965 2.14021L177.999 2.27765L178.121 4.02348L177.617 4.05826L177.346 0.20813L177.849 0.173348L177.969 1.86307L179.936 1.72563L179.817 0.0347818L180.321 0L180.592 3.85069L180.089 3.88603L179.965 2.14021Z" fill="white"/>
<path d="M185.829 0.615569L184.266 0.463223L184.142 1.75114L185.539 1.88718L185.499 2.30094L184.102 2.16545L183.974 3.49104L185.537 3.64394L185.496 4.05826L183.433 3.857L183.806 0L185.868 0.200692L185.829 0.615569Z" fill="white"/>
<path d="M190.249 1.84973L189.117 3.47547L190.406 3.82434L190.249 1.84973ZM190.436 4.23869L188.881 3.81844L188.381 4.53335L187.889 4.40078L190.138 1.20459L190.675 1.35004L190.999 5.24237L190.508 5.10926L190.436 4.23869Z" fill="white"/>
<path d="M195.451 3.04092L194.088 6.04658L195.265 6.58008L195.103 6.937L193.488 6.20437L195.012 2.8418L195.451 3.04092Z" fill="white"/>
<path d="M199.299 4.98047L201.396 6.34375L201.183 6.6733L200.339 6.12423L198.539 8.89266L198.134 8.62966L199.934 5.86123L199.086 5.30948L199.299 4.98047Z" fill="white"/>
<path d="M204.385 11.4312L203.003 10.1565L201.869 11.3867L201.514 11.0598L204.017 8.34668L204.371 8.67355L203.273 9.86454L204.654 11.1393L205.753 9.94827L206.107 10.2751L203.604 12.9877L203.25 12.6614L204.385 11.4312Z" fill="white"/>
<path d="M207.734 18.4327L207.534 18.1196L210.715 16.0397L210.915 16.3527L207.734 18.4327Z" fill="white"/>
<path d="M209.697 22.0448C209.388 21.3696 209.546 20.7191 210.096 20.4561L210.31 20.9241C210.044 21.0814 209.854 21.4072 210.068 21.8747C210.263 22.2992 210.618 22.4398 210.937 22.2938C211.843 21.879 210.433 20.3251 211.682 19.7535C212.237 19.5002 212.818 19.7766 213.123 20.4427C213.417 21.0835 213.256 21.6648 212.77 21.9519L212.549 21.47C212.762 21.3369 212.92 21.0073 212.739 20.5951C212.582 20.2291 212.264 20.0305 211.902 20.1963C211.034 20.593 212.404 22.1597 211.159 22.7291C210.682 22.9476 210.03 22.7731 209.697 22.0448Z" fill="white"/>
<path d="M212.72 30.7843C212.823 31.5572 213.463 32.0596 214.355 31.9404C215.254 31.8202 215.734 31.1681 215.631 30.3952C215.528 29.6223 214.894 29.1188 213.995 29.2391C213.101 29.3582 212.617 30.0114 212.72 30.7843ZM212.305 30.8396C212.167 29.8096 212.831 28.8966 213.929 28.7496C215.029 28.6036 215.909 29.3094 216.046 30.3399C216.185 31.3752 215.52 32.2828 214.421 32.4294C213.323 32.5759 212.443 31.8749 212.305 30.8396Z" fill="white"/>
<path d="M216.305 35.5685L216.278 36.0499L213.943 35.9217C213.265 35.8841 212.954 36.234 212.923 36.7799C212.894 37.3247 213.165 37.7009 213.843 37.7379L216.179 37.8667L216.152 38.3487L213.822 38.2204C212.863 38.1679 212.458 37.5136 212.5 36.7509C212.542 35.9882 213.016 35.3876 213.974 35.4402L216.305 35.5685Z" fill="white"/>
<path d="M214.956 42.9059L215.118 42.2135L213.754 41.8963L213.593 42.5881C213.468 43.12 213.704 43.42 214.107 43.5145C214.515 43.6095 214.831 43.4431 214.956 42.9059ZM215.344 42.996C215.146 43.8435 214.582 44.1371 213.993 43.9997C213.534 43.8924 213.154 43.5365 213.16 42.901L211.441 43.4539L211.572 42.8908L213.245 42.3761L213.377 41.8083L211.904 41.4653L212.014 40.9951L215.615 41.8335L215.344 42.996Z" fill="white"/>
<path d="M210.251 51.3032C209.981 51.7847 210.094 52.1153 210.454 52.3182C210.828 52.528 211.165 52.4497 211.435 51.9682L211.783 51.3488L210.599 50.6838L210.251 51.3032ZM209.905 51.1089L210.253 50.489L208.907 49.7333L209.144 49.3125L212.367 51.1229L211.782 52.1636C211.356 52.9214 210.74 53.0443 210.213 52.7475C209.723 52.4722 209.456 51.9086 209.905 51.1089Z" fill="white"/>
<path d="M208.297 56.677L208.742 56.1231L207.652 55.2467L207.207 55.8006C206.864 56.2262 206.947 56.5981 207.269 56.8563C207.595 57.1193 207.952 57.107 208.297 56.677ZM208.607 56.9261C208.063 57.604 207.428 57.6238 206.957 57.246C206.589 56.9497 206.401 56.465 206.681 55.8956L204.894 55.6492L205.256 55.1989L206.985 55.4592L207.35 55.0041L206.172 54.0578L206.475 53.6821L209.355 55.9959L208.607 56.9261Z" fill="white"/>
<path d="M202.534 57.9885L202.899 57.6426L205.421 60.3193L205.055 60.6652L202.534 57.9885Z" fill="white"/>
<path d="M199.19 61.1393C198.548 61.58 198.387 62.3775 198.897 63.1209C199.41 63.8686 200.209 64.0022 200.852 63.5621C201.495 63.1209 201.658 62.3276 201.145 61.58C200.635 60.8366 199.833 60.6987 199.19 61.1393ZM198.954 60.7931C199.81 60.2059 200.924 60.3874 201.552 61.3003C202.178 62.2144 201.946 63.3195 201.089 63.9072C200.227 64.4981 199.117 64.3146 198.49 63.4C197.863 62.486 198.092 61.3846 198.954 60.7931Z" fill="white"/>
<path d="M195.299 66.6315L195.949 66.3438L195.382 65.0654L194.733 65.353C194.234 65.5736 194.136 65.9413 194.304 66.3197C194.473 66.7024 194.796 66.8553 195.299 66.6315ZM195.46 66.9949C194.666 67.347 194.093 67.0733 193.848 66.521C193.656 66.09 193.712 65.5731 194.223 65.1963L192.748 64.1572L193.276 63.9232L194.692 64.9473L195.225 64.7117L194.613 63.3312L195.054 63.1348L196.55 66.5124L195.46 66.9949Z" fill="white"/>
<path d="M189.638 65.2941L190.326 65.0356L191.112 68.4635L190.424 68.7219L189.638 65.2941Z" fill="white"/>
<path d="M187.464 69.4481L184.988 69.7986L184.933 69.4105L185.93 69.2693L185.467 66.0012L185.944 65.9336L186.407 69.2017L187.409 69.0595L187.464 69.4481Z" fill="white"/>
<path d="M182.121 70.0001L181.586 69.9899L180.711 68.1033L179.764 69.9556L179.229 69.9454L180.475 67.6702L180.502 66.2769L180.983 66.286L180.957 67.6788L182.121 70.0001Z" fill="white"/>
<path d="M162.52 49.8272V24.2002L151.135 44.0246H149.333L137.948 24.2002V49.8272H134.871V18.6177H138.036L150.211 39.9809L162.476 18.6177H165.597V49.8272H162.52Z" fill="white"/>
<path d="M190.798 37.1632C190.71 35.9325 190.425 34.8118 189.941 33.8006C189.458 32.7895 188.842 31.9184 188.095 31.1852C187.348 30.4531 186.483 29.8815 185.501 29.4709C184.52 29.0608 183.472 28.8553 182.358 28.8553C181.245 28.8553 180.19 29.0608 179.194 29.4709C178.197 29.8815 177.326 30.4531 176.578 31.1852C175.831 31.9184 175.23 32.797 174.776 33.8227C174.322 34.8489 174.051 35.962 173.963 37.1632H190.798ZM182.358 50.2625C180.688 50.2625 179.157 49.9469 177.765 49.3174C176.373 48.6878 175.164 47.8226 174.139 46.7239C173.113 45.6252 172.315 44.358 171.743 42.9217C171.172 41.486 170.886 39.9478 170.886 38.3059C170.886 36.6947 171.172 35.1784 171.743 33.7566C172.315 32.3354 173.106 31.0907 174.117 30.0205C175.128 28.9508 176.337 28.1012 177.743 27.4705C179.15 26.8409 180.674 26.5259 182.314 26.5259C183.985 26.5259 185.516 26.8409 186.908 27.4705C188.3 28.1012 189.494 28.9583 190.491 30.042C191.487 31.1267 192.263 32.3719 192.821 33.7786C193.377 35.1854 193.655 36.6796 193.655 38.2624V38.9655C193.655 39.2006 193.64 39.3611 193.611 39.4491H174.007C174.095 40.6798 174.381 41.8156 174.864 42.8557C175.348 43.8964 175.97 44.7976 176.732 45.5592C177.494 46.3214 178.366 46.915 179.348 47.339C180.329 47.7646 181.376 47.9766 182.49 47.9766C183.223 47.9766 183.956 47.8746 184.688 47.6691C185.42 47.4641 186.095 47.1855 186.711 46.8339C187.326 46.4824 187.882 46.0503 188.381 45.5372C188.879 45.0246 189.26 44.46 189.524 43.8449L192.117 44.548C191.766 45.3982 191.267 46.1673 190.623 46.8559C189.978 47.5446 189.23 48.1457 188.381 48.6583C187.53 49.1714 186.593 49.5664 185.567 49.845C184.542 50.123 183.472 50.2625 182.358 50.2625Z" fill="white"/>
</svg>
