<svg width="52" height="60" viewBox="0 0 52 60" fill="none" xmlns="http://www.w3.org/2000/svg">
<path fill-rule="evenodd" clip-rule="evenodd" d="M33.37 0.259503C33.5356 0.366743 33.7557 0.652915 33.8591 0.895495C34.0297 1.29563 34.0287 1.40503 33.849 2.07669C33.74 2.48379 33.6508 2.83782 33.6508 2.86328C33.6508 2.88873 33.8491 2.90963 34.0916 2.90963C34.6567 2.90963 35.2305 3.4893 35.2305 4.06032C35.2305 4.45049 34.6757 5.07075 33.0971 6.44553L32.4825 6.98065L31.2439 10.8887C30.5627 13.0382 30.0053 14.862 30.0053 14.9417C30.0053 15.1174 30.0635 15.1193 30.6329 14.9631C31.6599 14.6812 32.9482 15.3007 33.4645 16.3247C34.371 18.1226 33.1135 20.1304 31.0807 20.1304C30.6903 20.1304 30.6439 20.1754 30.3085 20.881C29.8215 21.905 28.7943 22.9172 27.9452 23.2097C27.0134 23.5309 26.9376 23.7656 27.2383 25.3972C27.5373 27.0184 27.4872 28.2547 27.0919 29.017C26.9378 29.3142 26.4092 30.1681 25.9174 30.9144L25.023 32.2714V33.6236C25.023 35.5746 25.2615 36.124 26.7793 37.6698C27.8458 38.7559 27.9929 38.9669 28.7156 40.4459C29.6621 42.3829 29.765 42.4886 32.8609 44.6986C35.916 46.8795 36.3133 47.0598 39.0581 47.5107C42.3036 48.0438 42.2444 48.02 45.9849 50.3075C48.0976 51.5995 48.7354 51.9293 49.6912 52.2237C50.3261 52.4193 51.0011 52.6683 51.1913 52.777C51.6009 53.0113 52 53.7233 52 54.2197C52 54.6338 50.4022 58.8391 50.0775 59.2795C49.6624 59.8427 49.1465 59.9996 47.7104 59.9998C46.2584 60 45.8243 59.866 45.5833 59.3429C45.2321 58.5813 45.5796 57.9909 46.5925 57.6285L47.2 57.4111L47.3961 56.2973L47.5921 55.1836L47.2138 54.9035C46.714 54.5335 45.9775 54.1742 45.3773 54.0077C45.1099 53.9335 42.8428 53.6549 40.3393 53.3886C35.5684 52.8812 35.114 52.8123 34.1504 52.4505C32.4446 51.8099 25.2934 47.459 23.1046 45.7298L22.3563 45.1387L21.2289 45.3689C19.4908 45.7239 13.9372 46.6292 12.4653 46.7973C11.7407 46.8801 11.1259 47.007 11.0993 47.0791C11.0726 47.1514 10.7494 48.978 10.3812 51.1381C9.80646 54.5106 9.7118 55.2876 9.7118 56.6361C9.7118 58.7245 9.47715 59.3016 8.43586 59.7741C7.99913 59.9723 7.58147 59.995 4.32528 59.9974L0.70077 60L0.345573 59.649C-0.108053 59.2006 -0.115101 58.7636 0.32455 58.3344C0.611211 58.0544 0.998974 57.9331 3.05469 57.4805C5.79322 56.8776 5.55298 57.0591 5.83891 55.3772C5.97088 54.6012 5.96103 53.8626 5.77511 50.5949C5.41165 44.2052 5.39938 43.6487 5.61386 43.2426C6.03601 42.4435 6.33033 42.3021 11.5953 40.3702C14.4024 39.3403 16.8521 38.4374 17.0391 38.3638C17.3246 38.2514 17.3678 38.1787 17.3082 37.9109C17.2692 37.7355 17.3454 36.919 17.4775 36.0965C17.6095 35.274 17.7765 33.9797 17.8483 33.2201L17.979 31.8391L17.3999 30.7166C16.8335 29.6191 16.8206 29.5699 16.8206 28.495C16.8206 27.5347 16.8635 27.3095 17.1601 26.7125C17.7094 25.6072 18.4957 25.0023 20.618 24.0525C21.6276 23.6007 22.4831 23.1552 22.5192 23.0623C22.5615 22.9532 22.4192 22.8098 22.1179 22.6579C21.6154 22.4047 21.1224 21.8889 20.8075 21.287C20.5684 20.83 20.5698 20.1195 20.811 19.456C20.9826 18.9839 20.9772 18.9392 20.6903 18.4638C20.523 18.1866 20.4202 17.8715 20.4584 17.7529C20.496 17.6357 20.8031 17.3359 21.1407 17.0869C21.6334 16.7234 21.8351 16.4593 22.1624 15.7496C22.3867 15.2632 22.7942 14.6252 23.0678 14.3317C23.6913 13.6632 24.7964 13.1556 25.802 13.0757L26.542 13.0168L28.0231 9.51837C29.446 6.15696 29.5072 5.97755 29.5813 4.93914C29.6867 3.46348 29.8897 2.84814 30.7106 1.5166C31.2185 0.692665 31.5306 0.315825 31.8336 0.159829C32.309 -0.0846721 32.8974 -0.0464838 33.37 0.259503ZM32.2434 1.00802C32.1711 1.05653 31.7937 1.62576 31.4047 2.27292L30.6974 3.44955L30.5452 4.97492L30.3928 6.50029L28.8216 10.163C27.9575 12.1775 26.1688 16.5467 24.8468 19.8723C22.8315 24.9426 22.4545 25.9873 22.5129 26.342C22.7407 27.7295 24.6553 27.942 25.1811 26.6382C25.2794 26.3944 26.7648 21.7636 28.4818 16.3476C32.0014 5.24596 31.4135 6.6169 33.4091 4.85712C34.4455 3.94324 34.4674 3.68733 33.4843 3.97974C32.8037 4.18221 32.4345 4.06381 32.4375 3.64398C32.4384 3.49771 32.5751 2.94566 32.7413 2.41726C33.0984 1.28098 33.0932 1.34295 32.8523 1.10481C32.6454 0.900419 32.4501 0.869316 32.2434 1.00802ZM24.9623 14.1984C24.6949 14.2937 24.3441 14.472 24.1828 14.5947L23.8892 14.8174L24.5407 15.5489C24.8991 15.9513 25.2035 16.2686 25.2172 16.2539C25.2508 16.2185 26.1167 14.0894 26.1167 14.0426C26.1167 13.9463 25.3959 14.0436 24.9623 14.1984ZM22.9589 16.3685C22.6955 17.0338 22.55 17.2186 21.8761 17.744C21.5854 17.9706 21.5853 17.9724 21.8006 18.4444C21.9373 18.744 21.9842 19.019 21.9285 19.1938C21.518 20.4812 21.5141 20.5292 21.7813 21.0069C22.0578 21.5011 22.788 22.0288 22.9572 21.8569C23.0755 21.7367 24.78 17.4724 24.78 17.2965C24.78 17.2331 24.4326 16.841 24.008 16.4252L23.236 15.669L22.9589 16.3685ZM30.8167 15.8905C30.6857 15.9246 30.6221 16.0182 30.6613 16.1192C30.8414 16.5829 31.0005 17.9531 30.9407 18.5253C30.8753 19.1519 30.8819 19.1697 31.1805 19.1697C32.0287 19.1697 32.8006 18.3901 32.7997 17.5343C32.7987 16.5115 31.7545 15.646 30.8167 15.8905ZM28.615 19.1547C28.0871 20.8137 27.682 22.1976 27.7149 22.2302C27.821 22.335 28.5966 21.6999 28.9996 21.1781C29.6232 20.3707 29.94 19.3 29.9314 18.0289C29.9269 17.3729 29.8554 16.7889 29.7495 16.5432L29.5749 16.1383L28.615 19.1547ZM20.5526 25.1511C19.0737 25.8234 18.583 26.1872 18.1308 26.9475C17.8372 27.4412 17.7927 27.6421 17.7927 28.4766C17.7927 29.3972 17.8172 29.4817 18.3782 30.5021L18.9637 31.5669L18.8254 33.1441C18.7493 34.0115 18.6064 35.2277 18.5077 35.8465C18.4091 36.4654 18.358 37.0011 18.3942 37.0369C18.4939 37.1354 24.537 36.5531 24.537 36.445C24.537 36.3935 24.4276 36.0772 24.2939 35.742C24.0945 35.2422 24.0509 34.8495 24.0509 33.5572V31.9818L25.036 30.4839C26.328 28.5194 26.4753 28.1825 26.4786 27.1856C26.4813 26.367 26.3252 26.0964 26.2014 26.7053C26.0062 27.6656 24.9577 28.4509 23.8707 28.4509C22.1595 28.4509 21.0477 26.774 21.6965 25.1716C21.8051 24.9034 21.8718 24.6619 21.8446 24.6351C21.8175 24.6083 21.2361 24.8405 20.5526 25.1511ZM21.6013 37.7603L18.4836 38.0661L18.2596 38.548L18.0358 39.0299L12.5067 41.0532C8.3604 42.5704 6.90924 43.152 6.70424 43.3788C6.47068 43.6371 6.43094 43.8161 6.43167 44.6053C6.43216 45.1135 6.46703 45.8906 6.50932 46.3323L6.586 47.1352L7.14644 47.3699C7.82439 47.6536 8.82788 47.871 9.46062 47.871C9.84097 47.871 9.93989 47.8214 9.9998 47.6008C10.144 47.0688 10.1042 47.0304 9.40801 47.0304H8.73966V46.55V46.0697H9.56063C10.6373 46.0697 13 45.7948 15.7877 45.345C18.3102 44.9382 21.2921 44.3903 21.3641 44.3206C21.3903 44.2953 21.2171 44.0619 20.9793 43.8018C20.7415 43.5417 20.485 43.2144 20.4091 43.0745C20.2852 42.8454 20.3164 42.8016 20.7229 42.6337C21.1452 42.4593 21.182 42.4616 21.2916 42.6673C21.5035 43.065 23.1197 44.5616 24.1724 45.3348C25.5892 46.3754 27.5251 47.6271 29.752 48.9421C34.0745 51.4946 35.0096 51.9008 36.8866 52.0416L37.7528 52.1065L37.9033 51.64C37.9861 51.3834 38.3568 50.592 38.7271 49.8814C39.0974 49.1707 39.3781 48.5717 39.3508 48.5503C39.3236 48.5288 38.7514 48.4245 38.0792 48.3182C35.9545 47.9824 35.4115 47.7115 32.0576 45.3144C29.2255 43.2902 28.7657 42.8023 27.7752 40.7702C27.0684 39.3202 26.9043 39.0801 26.0815 38.2939C25.5599 37.7954 25.0741 37.43 24.9449 37.4389C24.8207 37.4475 23.3162 37.5921 21.6013 37.7603ZM6.75248 50.2515C6.91774 53.4441 6.87886 55.498 6.63643 56.3856C6.24052 57.8347 6.43933 57.7037 3.69594 58.3246C2.35961 58.6271 1.18429 58.9074 1.08404 58.9475C0.983784 58.9875 2.44394 59.0246 4.32893 59.0298C6.74579 59.0365 7.85003 58.997 8.07471 58.8958C8.62701 58.6471 8.73966 58.245 8.73966 56.5222C8.73966 55.2425 8.8291 54.4349 9.22573 52.1342C9.49307 50.5833 9.7118 49.2136 9.7118 49.0905C9.7118 48.9033 9.58688 48.8548 8.95232 48.7957C8.53466 48.7568 7.84541 48.6178 7.42083 48.4868L6.64882 48.2487L6.75248 50.2515ZM40.162 49.246C39.7238 49.985 38.7546 51.9702 38.7546 52.129C38.7546 52.2133 39.7567 52.3617 41.5191 52.5386C43.0395 52.6911 44.6664 52.8914 45.1342 52.9837C46.1111 53.1765 47.4716 53.8087 48.1569 54.3881L48.6275 54.7863L48.3575 56.4024C48.209 57.2913 48.0245 58.0804 47.9476 58.1559C47.8706 58.2316 47.4895 58.3828 47.1008 58.4919C46.0431 58.7889 46.2535 58.9726 47.6978 59.0131C48.5437 59.0369 48.9695 59.0004 49.1209 58.891C49.3549 58.7219 51.0266 54.5771 51.0274 54.1643C51.0281 53.7592 50.6386 53.5184 49.3049 53.0991C48.2331 52.7622 47.6464 52.4586 45.2705 51.0113C42.636 49.4065 41.7488 48.9604 40.8595 48.7935C40.5031 48.7266 40.4492 48.7616 40.162 49.246Z" fill="white"/>
</svg>
