<svg width="70" height="48" viewBox="0 0 70 48" fill="none" xmlns="http://www.w3.org/2000/svg">
<path fill-rule="evenodd" clip-rule="evenodd" d="M47.0975 0.311653C47.3535 0.446599 47.7237 0.732795 47.9202 0.947547C48.2766 1.3368 48.2797 1.33736 49.0287 1.13919C51.0461 0.605218 53.4814 1.2156 54.6954 2.55954C55.694 3.66505 55.9178 4.34276 56.2439 7.24823C56.3227 7.9499 56.5577 9.04918 56.7663 9.69103C57.1986 11.0212 57.1645 11.1264 56.1884 11.4713C55.6659 11.6558 55.6356 11.7009 55.4669 12.5456C55.3699 13.0305 55.1599 13.643 55.0001 13.9068C54.7161 14.376 53.7563 14.9737 53.2871 14.9737C53.0806 14.9737 53.0532 15.1769 53.0532 16.7145V18.4552L54.8725 19.3723C56.7886 20.3381 57.3671 20.8234 57.9198 21.9291C58.6177 23.3251 58.5113 24.7732 57.576 26.6104C57.1513 27.4449 56.7311 28.6401 56.2572 30.3626C55.8748 31.7527 55.588 32.9168 55.6201 32.9494C55.7109 33.0421 57.5178 33.4522 61.6594 34.3202C66.5174 35.3383 68.2375 35.8886 69.0024 36.6692C69.5591 37.2372 70 38.2278 70 38.9101C70 39.5925 69.5513 40.889 69.1382 41.4004C68.8415 41.7678 68.2567 42.1433 67.1036 42.7074C66.2136 43.1425 65.3398 43.5553 65.1615 43.6248C64.8598 43.7423 64.9358 43.8309 66.2716 44.9194C67.0601 45.5621 67.7268 46.2027 67.7529 46.3428C67.8489 46.8574 67.5262 47.0094 66.3377 47.0094C65.252 47.0094 65.1215 46.9715 62.848 45.9963L60.4862 44.9833L56.9433 45.2246C52.4142 45.533 52.7044 45.47 52.6869 46.1505C52.6704 46.794 52.2368 47.4868 51.6601 47.7911C50.6615 48.318 48.9366 47.8128 47.8412 46.6724C47.0612 45.8605 46.7031 44.9733 46.5681 43.5176L46.4874 42.6483L45.2904 43.3872C43.4355 44.5325 39.5406 46.5655 38.4702 46.9473C36.833 47.5309 35.3567 47.6908 30.7584 47.7825C26.3793 47.8698 21.552 47.6434 12.5093 46.927C9.73964 46.7074 9.62726 46.7093 7.2529 47.0132C4.88091 47.3168 4.78284 47.3184 2.87576 47.0863C0.842424 46.8388 0.420004 46.6828 0.150522 46.0793C-0.105069 45.5069 -0.0381154 45.0617 0.374026 44.591C0.703516 44.2146 0.96383 44.107 2.21456 43.8303C3.16497 43.6198 4.06274 43.3064 4.79756 42.9282C6.47196 42.0665 6.9016 42.073 7.88438 42.9747L8.58531 43.6178L11.4068 42.7028C16.8777 40.9287 16.6045 40.9898 18.9512 41.0168C20.0972 41.03 22.0662 41.1077 23.3268 41.1895C27.6988 41.4729 28.2124 41.4354 32.116 40.5484C39.0126 38.981 39.5799 38.6909 41.4714 35.7637C42.6101 34.0016 43.6006 32.923 45.1092 31.803C46.2445 30.96 46.2622 30.9375 46.1872 30.4371C45.8545 28.2194 44.9887 19.3192 45.0557 18.8056C45.2072 17.6451 46.0455 16.7214 47.2538 16.3839L47.7747 16.2385V14.9798V13.721L47.3232 13.4354C45.7866 12.4628 44.7386 10.0559 44.6762 7.35596C44.6613 6.71355 44.6026 6.18723 44.5455 6.18652C44.4884 6.18567 44.1817 5.94597 43.8638 5.65354C43.194 5.03734 42.6384 3.92573 42.6365 3.19813C42.633 1.92634 43.5291 0.57942 44.6652 0.148355C45.3267 -0.102544 46.4563 -0.0267069 47.0975 0.311653ZM44.8675 1.33042C43.8682 1.85036 43.4931 2.9967 43.9943 3.99888C44.2625 4.53526 44.8093 5.15812 44.9066 5.03848C44.9326 5.00644 45.1354 4.63265 45.3573 4.20796C45.5791 3.78327 46.0875 3.07438 46.4871 2.63268C47.1672 1.88098 47.1983 1.81563 46.973 1.60754C46.381 1.06081 45.5865 0.956194 44.8675 1.33042ZM49.1569 2.26739C47.8412 2.62942 46.8666 3.55746 46.1488 5.13189C45.8212 5.85 45.7666 6.1481 45.7741 7.17736C45.7834 8.4337 46.2051 10.3421 46.6159 10.9858C46.83 11.3213 46.83 11.3213 49.4902 8.63853C50.9532 7.1629 52.6437 5.49959 53.2466 4.94223L54.343 3.92885L54.1114 3.56838C53.3668 2.40872 50.9496 1.77395 49.1569 2.26739ZM52.5567 7.15397C51.34 8.30896 49.7329 9.91159 48.9854 10.7153C47.4212 12.3972 47.4223 12.352 48.9283 13.1042C50.051 13.665 51.7825 14.0306 52.7452 13.91C53.839 13.773 54.1522 13.4279 54.4259 12.0591C54.6367 11.0038 54.6811 10.9183 55.1368 10.686C55.4042 10.5496 55.6729 10.421 55.7337 10.4002C55.7945 10.3794 55.7404 10.1083 55.6133 9.79776C55.4862 9.48733 55.2617 8.3108 55.1144 7.18317C54.9672 6.05568 54.8293 5.11531 54.8079 5.09348C54.7866 5.07165 53.7736 5.99884 52.5567 7.15397ZM48.8882 15.4192L48.8904 16.462L50.3814 17.1807L51.8725 17.8995L51.9125 16.5546C51.9555 15.1099 51.9002 14.9799 51.2418 14.9758C50.9018 14.9738 49.6305 14.6709 49.129 14.4724C48.9109 14.3862 48.8862 14.4833 48.8882 15.4192ZM47.139 17.652C46.7393 17.8373 46.498 18.0755 46.3181 18.4624C46.0646 19.0075 46.0676 19.0506 46.8636 26.383C47.3036 30.438 47.709 33.8393 47.7641 33.9413C47.8194 34.0436 50.6344 36.2629 54.0196 38.8733L60.1747 43.6194L62.8154 44.7506C64.2678 45.3727 65.4783 45.8592 65.5052 45.8316C65.5323 45.8039 64.5701 44.982 63.3669 44.0051C61.099 42.1636 51.809 33.5633 51.6344 33.1436C51.5798 33.0125 51.2811 30.0235 50.9708 26.5014C50.6604 22.9793 50.33 19.8741 50.2365 19.6011C49.835 18.4277 48.7558 17.3769 47.9621 17.3865C47.8208 17.3882 47.4505 17.5077 47.139 17.652ZM51.2474 19.0752C51.2474 19.1481 51.3045 19.3611 51.3743 19.5487C51.4442 19.7361 51.7027 22.1801 51.9487 24.9799C52.1949 27.7794 52.4384 30.1187 52.4901 30.178C52.5942 30.2976 54.4669 30.8498 54.7682 30.8498C54.8928 30.8498 55.1174 30.2734 55.4173 29.1842C55.6848 28.2128 56.1608 26.9536 56.5595 26.1629C57.1654 24.9611 57.2427 24.7071 57.2391 23.9276C57.2342 22.9005 56.7402 21.8095 56.0433 21.2865C55.6648 21.0026 51.5199 18.9427 51.327 18.9427C51.2832 18.9427 51.2474 19.0024 51.2474 19.0752ZM52.593 32.0901C52.6481 32.4661 52.8575 32.8187 53.3084 33.295C53.6588 33.6654 53.9855 33.9683 54.0344 33.9683C54.1349 33.9683 54.6437 32.139 54.5635 32.0658C54.4694 31.9798 52.9451 31.5585 52.728 31.5585C52.5606 31.5585 52.5317 31.6723 52.593 32.0901ZM45.4848 32.9308C44.2092 33.8818 43.6809 34.4675 42.5031 36.2363C40.2483 39.6229 39.5159 40.0193 32.5213 41.6401C30.1704 42.1849 28.9634 42.3925 27.7719 42.4573L26.1744 42.5442L26.136 44.635L26.0976 46.7259L27.3861 46.7166C28.0948 46.7115 30.3625 46.655 32.4253 46.5908C37.1442 46.4441 37.4678 46.3593 41.5028 44.213C44.4155 42.6637 46.4516 41.3681 48.0899 40.0218C49.2035 39.1066 50.5548 37.8201 50.5481 37.6812C50.5456 37.6272 49.8209 37.0407 48.9378 36.378C47.0799 34.9839 46.7065 34.5833 46.5891 33.8579C46.5421 33.5677 46.4616 33.101 46.4099 32.8207L46.3161 32.3109L45.4848 32.9308ZM55.1325 34.4757C54.965 34.9255 54.737 34.6558 57.3845 37.1402L59.0071 38.6628L59.7459 38.4383C60.7016 38.1477 63.5584 37.9095 64.6804 38.0268L65.5549 38.1182V38.6832V39.2482L64.7645 39.1813L63.9742 39.1144L64.4819 39.5536C64.7958 39.8251 65.1672 40.3865 65.4555 41.0249L65.9215 42.0573L67.0425 41.4848C68.2432 40.8714 68.4967 40.5973 68.7498 39.6383C68.9646 38.8245 68.8273 38.179 68.3124 37.5805C67.9724 37.1853 67.6309 37.0057 66.5855 36.6723C65.2211 36.2371 64.6237 36.0974 59.3041 34.969C57.5087 34.5883 55.8687 34.2325 55.6598 34.1785C55.3317 34.0937 55.2597 34.1343 55.1325 34.4757ZM50.8654 39.061C50.5408 39.3608 50.275 39.6399 50.275 39.6813C50.275 39.7227 51.0407 40.0164 51.9767 40.3339C53.2774 40.7752 53.7741 40.8847 54.0849 40.7988C54.4889 40.6873 54.4827 40.6795 53.1125 39.5968C52.3541 38.9975 51.6711 38.509 51.5947 38.5115C51.5183 38.5139 51.19 38.7612 50.8654 39.061ZM60.7087 39.3663C60.3734 39.4335 60.076 39.5122 60.0476 39.5411C59.9815 39.6084 62.6829 42.073 63.3548 42.5585C63.8269 42.8997 63.8993 42.9128 64.3624 42.742C64.9232 42.535 64.923 42.4963 64.3546 41.2685C64.0814 40.6782 63.8535 40.4471 62.9907 39.8864C61.9275 39.1953 61.7564 39.1564 60.7087 39.3663ZM48.6984 40.9713L48.3024 41.3018L49.2803 41.5463C49.8909 41.6991 50.4307 41.7532 50.718 41.6906C51.6324 41.4911 51.5942 41.3861 50.4681 41.0034C49.8648 40.7983 49.3089 40.6328 49.2328 40.6357C49.1565 40.6385 48.9161 40.7895 48.6984 40.9713ZM52.7604 42.2997L50.3145 42.9542L49.1889 42.6918C47.895 42.3903 47.6358 42.4824 47.6358 43.2446C47.6358 43.9346 48.0376 45.1813 48.4316 45.7135C48.8169 46.2338 49.9893 46.8641 50.5762 46.8662C51.5855 46.87 51.8023 46.3586 51.3127 45.1289C51.1207 44.6469 50.9914 44.1792 51.025 44.0894C51.0587 43.9999 51.2734 43.8599 51.502 43.7786C51.8897 43.6407 51.9294 43.6596 52.0917 44.0594C52.2578 44.4685 52.295 44.4845 52.9026 44.4077C53.2528 44.3634 54.6801 44.25 56.0744 44.1555C57.4688 44.0611 58.6095 43.9446 58.6095 43.8968C58.6095 43.7094 55.7129 41.6235 55.4673 41.634C55.3238 41.6403 54.1056 41.9398 52.7604 42.2997ZM17.0065 42.1958C16.6245 42.2641 14.6112 42.8649 12.5324 43.5307C10.4536 44.1966 8.62379 44.7413 8.46627 44.7413C8.30861 44.7413 7.91536 44.496 7.5924 44.1962C6.59795 43.2729 6.61031 43.2741 5.24665 43.9731C4.44987 44.3814 3.56378 44.6981 2.67087 44.8936C0.423338 45.3859 0.54266 45.6684 3.12622 45.972C4.80451 46.1692 5.02718 46.1641 7.2893 45.8745C9.62115 45.5761 9.74797 45.5741 12.5093 45.7926C15.625 46.0389 23.9347 46.5841 24.575 46.5841H24.9794L25.0214 44.5377L25.0632 42.4912L24.6464 42.4192C24.4172 42.3796 23.2608 42.3105 22.0766 42.2655C20.8924 42.2205 19.4235 42.1585 18.8123 42.1276C18.2011 42.0967 17.3885 42.1275 17.0065 42.1958Z" fill="white"/>
</svg>
