<svg width="59" height="56" viewBox="0 0 59 56" fill="none" xmlns="http://www.w3.org/2000/svg">
<path fill-rule="evenodd" clip-rule="evenodd" d="M6.72368 0.16154C8.05721 0.259709 10.6651 0.392596 12.5191 0.456765C18.0207 0.647116 19.815 0.895411 22.2175 1.79856C25.9229 3.19172 26.2025 3.38519 31.8508 8.4641C33.1962 9.67385 34.7541 11.1823 35.3127 11.8162C38.3751 15.2911 40.4744 18.9425 41.6193 22.7857C42.3497 25.2381 42.5552 26.1657 42.5602 27.0357C42.5624 27.3979 42.6032 27.756 42.651 27.8316C42.6987 27.9073 44.5741 28.7872 46.8183 29.7871C51.305 31.786 52.0679 32.1726 53.2051 33.0238C54.2375 33.7965 55.6536 35.2928 55.7616 35.7248C55.83 35.9993 54.651 48.6941 54.3043 51.4135L54.2414 51.9077L56.1183 52.5373C57.1506 52.8836 58.1406 53.2414 58.3184 53.3322C58.6975 53.5259 59.0007 54.061 59 54.5349C58.9995 54.9494 58.6313 55.5803 58.2676 55.7903C57.8938 56.0061 52.8934 56.0832 51.962 55.8875C50.552 55.5912 49.7549 54.2648 50.1637 52.8948C50.3079 52.4118 50.2667 51.6714 49.7664 45.7408C49.4596 42.1023 49.1809 39.053 49.1474 38.9645C49.1139 38.8759 48.8378 38.769 48.5342 38.7269C46.6882 38.4708 41.2907 36.786 37.5647 35.3031C36.4913 34.8758 35.6402 34.6007 35.5541 34.6531C35.4721 34.703 34.2873 35.5612 32.9212 36.5599C28.5919 39.725 28.0347 40.0438 23.4486 41.9811C17.2137 44.6148 14.0705 45.9897 13.1696 46.4768C12.365 46.912 5.30937 51.4655 4.8772 51.8285C4.79653 51.8962 4.66265 52.4367 4.57974 53.0296C4.38163 54.4466 4.19535 54.7487 3.4151 54.9181C2.66336 55.0813 0.869625 55.0904 0.578081 54.9325C0.30215 54.783 0.124267 54.2633 0.0298847 53.3307C-0.0875607 52.1706 0.0692697 51.9249 1.83213 50.5064C2.98341 49.5799 4.03225 48.5476 6.14946 46.2568C8.20541 44.0324 8.91848 43.187 8.84195 43.0646C8.64763 42.754 8.7264 42.1423 9.00044 41.8354C9.14674 41.6713 10.1871 40.7313 11.3121 39.7463L13.3575 37.9554L15.1245 35.0711C16.0964 33.4846 17.4766 31.3678 18.1918 30.367L19.4922 28.5474L20.7477 24.7087C21.9068 21.1652 22.0668 20.7624 22.8303 19.4671C23.4248 18.4583 23.735 17.7776 23.9343 17.0443L24.2116 16.0244L23.7763 16.3255C22.9835 16.8738 21.946 17.1304 20.3611 17.17L18.9185 17.206L18.4437 17.6866C17.0483 19.099 14.7648 18.5463 14.2247 16.6651C13.9806 15.8153 14.1665 15.0779 14.8008 14.3814L15.2679 13.8685L15.2839 12.5207C15.299 11.253 15.3239 11.121 15.7055 10.2954C16.1443 9.34618 16.6861 8.78087 17.575 8.34534C18.0013 8.13643 18.4414 8.07131 20.0086 7.98499C21.206 7.91914 22.1773 7.80158 22.6045 7.67073L23.2871 7.46182L21.5173 6.1193L19.7475 4.77691L17.5547 4.46851C16.3486 4.29899 14.2565 3.89925 12.9056 3.58045L10.4493 3.00053L9.01723 3.76469C8.22965 4.1849 7.44219 4.52873 7.26738 4.52873C7.08347 4.52873 6.82102 4.39872 6.64479 4.22034C6.39003 3.96247 6.35029 3.83497 6.40233 3.44217C6.43663 3.18382 6.42669 2.9724 6.38045 2.9724C6.07164 2.9724 3.66123 2.47126 3.46158 2.36555C3.14899 2.2001 2.82054 1.64233 2.82113 1.27791C2.82173 0.894454 3.2371 0.234209 3.56058 0.102639C3.91859 -0.0430578 3.95514 -0.0424591 6.72368 0.16154ZM3.80659 1.12479C3.76744 1.22799 3.79405 1.37177 3.86572 1.44432C3.9374 1.51687 4.82859 1.72709 5.84609 1.91146C6.8636 2.09594 7.77004 2.30892 7.8604 2.38482C8.12924 2.61061 8.04917 2.93469 7.6403 3.2754C7.40564 3.4709 7.84751 3.28283 8.77406 2.79306L10.2923 1.99035L13.2093 2.65814C14.8137 3.02543 17.0246 3.44469 18.1224 3.58978L20.1185 3.85376L24.0252 6.83617C26.1738 8.47655 28.0431 9.86456 28.1793 9.92083C28.3154 9.97698 29.3582 10.1908 30.4966 10.396C31.635 10.6012 32.6724 10.8004 32.802 10.8387C33.0157 10.9019 33.0215 10.8886 32.8634 10.6959C32.7676 10.579 32.1306 9.99206 31.4478 9.39155C30.7649 8.79117 29.593 7.73945 28.8434 7.05466C27.3233 5.66557 26.1727 4.75787 25.1196 4.1169C24.1958 3.55459 21.021 2.29851 19.9365 2.06625C18.4868 1.7557 15.9149 1.53123 12.4599 1.41355C10.6385 1.35154 8.05721 1.21973 6.72368 1.12072C3.73621 0.898883 3.89233 0.898644 3.80659 1.12479ZM23.707 8.07849C23.8479 8.67397 23.9587 8.78434 24.6301 8.99864C24.9911 9.11381 25.4382 9.3372 25.6235 9.49511C25.9526 9.77525 26.2388 10.4651 26.2388 10.9775C26.2388 11.3498 26.7666 11.3226 27.0159 10.9375C27.1211 10.775 27.1889 10.5906 27.1665 10.5279C27.1315 10.4299 24.9465 8.69312 23.9568 7.97649L23.6264 7.73729L23.707 8.07849ZM22.3904 8.71323C22.2578 8.76758 21.5719 8.85187 20.8661 8.90059L19.5827 8.98918L19.6539 9.90155C19.8138 11.9552 20.6851 14.315 21.8112 15.7444L22.0655 16.0673L22.6193 15.8531C23.3494 15.5709 23.7593 15.2071 24.3413 14.3248C24.9921 13.3385 25.334 12.1703 25.2699 11.1524C25.2124 10.2392 25.1075 10.121 24.1099 9.84576C23.2075 9.59687 23.1194 9.53294 22.995 9.03635C22.8821 8.58597 22.8033 8.54383 22.3904 8.71323ZM17.529 9.47775C17.1132 9.76699 16.8563 10.0731 16.5995 10.5851C16.2755 11.2313 16.2447 11.3968 16.2447 12.49C16.2447 13.5796 16.2738 13.7373 16.5691 14.2458C17.2822 15.4736 18.4696 16.1767 19.9407 16.2422C20.4773 16.2661 20.9165 16.2495 20.9165 16.2052C20.9165 16.1609 20.7515 15.8819 20.5498 15.5853C19.6356 14.2403 18.8498 11.8621 18.7061 10.0058C18.6395 9.14601 18.6148 9.07801 18.369 9.07801C18.2232 9.07801 17.8452 9.25783 17.529 9.47775ZM27.9442 11.2047C27.777 11.4628 27.7764 11.5136 27.938 11.6942C28.3041 12.1036 28.599 12.9663 28.599 13.6273C28.599 15.2658 27.3232 16.6208 25.7132 16.6926L25.0103 16.7239L24.8576 17.2407C24.7735 17.525 24.7083 17.8653 24.7126 17.997C24.7175 18.1492 25.4761 18.9349 26.7932 20.1519C28.9534 22.1482 29.6158 22.9023 30.0188 23.8246C30.1725 24.1762 30.3547 24.3996 30.5256 24.446C30.9637 24.5648 33.604 24.5311 34.5981 24.394C35.1069 24.3237 36.0667 24.0836 36.7309 23.8602C38.1397 23.3863 40.4316 22.32 40.4316 22.1383C40.4316 21.8593 39.7969 20.3345 39.2092 19.2014C37.9737 16.8193 36.1955 14.1865 34.8246 12.7097L34.2222 12.0608L31.1764 11.4887L28.1306 10.9166L27.9442 11.2047ZM26.3546 12.2654C26.2511 12.2953 26.0812 12.6475 25.9546 13.0954C25.8334 13.5234 25.5599 14.167 25.3464 14.5257C24.9133 15.2538 24.9206 15.6235 25.3702 15.7378C26.087 15.9199 27.0107 15.4001 27.4226 14.5829C28.0337 13.3704 27.3871 11.9672 26.3546 12.2654ZM15.4316 15.0474C14.7391 15.822 15.1182 17.1215 16.1361 17.4615C16.637 17.6289 17.3457 17.4459 17.7077 17.0558L17.9727 16.7704L17.4496 16.4602C17.162 16.2896 16.6573 15.8518 16.3283 15.4872C15.9991 15.1227 15.7076 14.8245 15.6804 14.8245C15.6531 14.8245 15.5412 14.9248 15.4316 15.0474ZM23.5431 20.0933C23.0187 20.9725 22.7067 21.7815 21.6201 25.0793L20.3231 29.0158L19.0784 30.7494C18.3937 31.7028 16.9861 33.8611 15.9504 35.5454L14.0673 38.608L11.9035 40.5053C10.7134 41.5489 9.71753 42.4199 9.69033 42.441C9.66324 42.4621 9.67117 42.5097 9.70795 42.547C9.74462 42.5842 10.283 42.3956 10.9043 42.1279C11.5256 41.8603 12.0877 41.6413 12.1536 41.6413C12.2195 41.6413 12.3738 41.7505 12.4967 41.884C12.7185 42.125 12.7284 42.115 13.9143 40.4773C14.5712 39.5702 16.2332 37.508 17.6075 35.8948C20.0181 33.0654 20.1729 32.8522 21.984 29.8625C23.657 27.1011 23.9935 26.4516 25.0718 23.9033L26.2818 21.0433L25.7576 20.498C25.4693 20.198 24.9939 19.7481 24.7012 19.4981L24.169 19.0438L23.5431 20.0933ZM25.8809 24.4302C24.8926 26.7782 24.5301 27.4738 22.8079 30.3263C20.9329 33.4319 20.7641 33.6674 18.5608 36.254C17.2988 37.7355 16.1557 39.0724 16.0207 39.2248L15.7751 39.5018L16.069 39.385C17.4049 38.8538 17.7421 38.599 20.6799 35.9027C22.5102 34.2229 24.2719 32.7241 25.1609 32.0904C27.6233 30.3354 28.0473 29.9912 28.5125 29.3702C29.2622 28.3691 29.4832 27.6495 29.4875 26.1952C29.4911 25.0088 29.4687 24.889 29.1017 24.1346C28.8453 23.6075 28.4436 23.0657 27.9274 22.5508C27.4958 22.1203 27.1109 21.7681 27.0721 21.7681C27.0332 21.7681 26.4972 22.966 25.8809 24.4302ZM39.3671 23.8154C37.7917 24.5609 35.9048 25.1835 34.7164 25.3498C34.2074 25.4211 33.0539 25.4794 32.1529 25.4794H30.5146L30.476 26.4374C30.4549 26.9644 30.4641 27.3956 30.4966 27.3958C30.5291 27.3961 30.8751 27.4492 31.2653 27.5139C33.9624 27.9609 36.5465 27.9013 38.1252 27.3556C38.9587 27.0676 40.5798 26.2756 41.1561 25.8749L41.4667 25.6589L41.1109 24.4318C40.9152 23.757 40.7223 23.2099 40.6821 23.2162C40.6419 23.2224 40.0501 23.4921 39.3671 23.8154ZM40.0767 27.5277C38.154 28.5148 37.1647 28.7491 34.9319 28.7464C33.3466 28.7444 32.7723 28.6976 30.7143 28.4022L30.1634 28.323L29.8273 29.0206C29.3365 30.0395 28.3742 31.0167 26.8318 32.0628C24.9632 33.33 24.131 34.021 20.905 36.9834C18.4685 39.2208 18.0085 39.5918 17.2826 39.9054C16.8253 40.1029 16.4416 40.3078 16.43 40.3607C16.4185 40.4135 16.9347 41.0141 17.5773 41.6953L18.7454 42.9338L22.3443 41.4078C27.8402 39.0777 28.0062 38.9822 33.2525 35.138C34.9309 33.9081 36.3413 32.9036 36.3867 32.9056C36.4323 32.9078 36.5707 33.05 36.6945 33.2218C36.8646 33.4579 36.8892 33.5833 36.7954 33.7354C36.6861 33.9125 36.9219 34.0324 38.7584 34.7337C43.2928 36.4652 47.5303 37.7028 49.923 37.9944L50.6031 38.0773V38.5424C50.6031 38.9342 50.5642 39.0075 50.3561 39.0075C50.1316 39.0075 50.1166 39.0537 50.1909 39.5163C50.2358 39.7961 50.3231 40.079 50.3847 40.1448C50.4465 40.2107 51.0397 40.2611 51.7031 40.2568C52.6626 40.2505 53.0486 40.1937 53.5896 39.9788C53.9637 39.8301 54.3417 39.6357 54.4297 39.5467C54.5314 39.4438 54.6446 38.7755 54.7409 37.7105C54.9164 35.7676 54.9418 35.8412 53.6901 34.6682C52.3851 33.4452 51.411 32.9045 46.7556 30.8192C44.2857 29.7127 42.1484 28.7329 42.006 28.642C41.7962 28.5079 41.7319 28.3179 41.6655 27.6364C41.6206 27.1743 41.5507 26.8038 41.5103 26.8129C41.4699 26.822 40.8248 27.1438 40.0767 27.5277ZM53.6782 40.9593C53.1733 41.1493 52.7299 41.206 51.6971 41.2132C50.4475 41.2217 50.3666 41.2369 50.3689 41.4617C50.3702 41.5934 50.5769 44.1197 50.8283 47.0758C51.252 52.0592 51.2726 52.4955 51.1112 53.0702C50.9571 53.6185 50.9575 53.7395 51.115 54.1211C51.4519 54.9373 51.6332 54.9852 54.5548 55.0284C55.9864 55.0496 57.3297 55.0343 57.5401 54.9943C57.9624 54.9142 58.1633 54.5488 57.9371 54.2727C57.8619 54.181 56.8157 53.7738 55.6124 53.3678C54.2213 52.8985 53.3981 52.5603 53.3522 52.4391C53.3125 52.3343 53.5368 49.6721 53.8508 46.5232C54.1649 43.3741 54.4008 40.779 54.3752 40.7561C54.3496 40.7332 54.0359 40.8246 53.6782 40.9593ZM14.8845 40.9772C14.7219 41.0676 14.2722 41.5813 13.8852 42.1187C13.1796 43.0984 12.4636 43.6765 11.9555 43.6765C11.8195 43.6765 11.5987 43.5354 11.4645 43.3627L11.2207 43.0491L10.5631 43.3193C9.96839 43.5635 9.62339 43.8955 6.96768 46.7788C4.66407 49.2797 3.707 50.2251 2.53385 51.1589C1.60517 51.8981 1.01132 52.4566 0.96791 52.6315C0.929471 52.7864 0.944728 53.1919 1.00185 53.5325L1.1057 54.1518L2.05188 54.1073C3.49683 54.0392 3.4578 54.0741 3.69316 52.6361C3.80446 51.9552 3.95975 51.3346 4.03828 51.2568C4.40233 50.8955 11.8845 46.0742 12.933 45.5254C13.5835 45.1848 14.9282 44.5644 15.9211 44.1468C16.914 43.7291 17.7123 43.3462 17.6952 43.2959C17.6221 43.0819 15.4469 40.8037 15.3198 40.8081C15.243 40.8107 15.0472 40.8868 14.8845 40.9772Z" fill="white"/>
</svg>
