<svg width="80" height="81" viewBox="0 0 80 81" fill="none" xmlns="http://www.w3.org/2000/svg">
<g clip-path="url(#clip0)">
<path d="M78.75 77.223H67.4491C66.9959 75.3767 65.5586 73.8866 63.6472 73.4088L60.9295 72.729L64.3646 56.0692C65.0238 52.8681 63.2073 49.6086 60.0628 48.5218C52.3772 45.8546 55.0059 47.0355 47.936 45.4209C50.3962 43.9255 53.7851 41.7857 54.8427 40.7281C56.0813 39.4877 59.8511 35.7127 59.8511 32.1022C59.8511 31.0844 59.5436 29.9629 58.9362 28.7585L78.6708 9.02383C79.5279 8.16684 80 7.02722 80 5.81511C80 1.79784 75.1041 -0.244382 72.2535 2.60639C71.7653 3.09449 71.7653 3.88584 72.2535 4.37394C72.7416 4.86204 73.533 4.86204 74.0211 4.37394C75.3019 3.09339 77.5001 4.01131 77.5001 5.81495C77.5001 6.35929 77.2881 6.87098 76.9033 7.25596L53.9043 30.2551C53.1145 31.0447 53.6846 32.3889 54.7881 32.3889C55.4661 32.3889 55.6628 32.032 57.0419 30.6529C57.2439 31.1891 57.3513 31.6791 57.3513 32.1022C57.3513 33.8116 55.9121 36.1194 53.0676 38.9679C52.0555 39.98 47.4581 42.8267 44.3861 44.6319L40.1574 44.1033C39.4722 44.0169 38.8478 44.5035 38.7622 45.1886C38.6766 45.8735 39.1625 46.4982 39.8475 46.5838L44.425 47.1561C55.0556 49.7628 50.8726 48.0064 59.2641 50.8909C61.1873 51.5601 62.3275 53.5695 61.9168 55.5645L60.3272 63.2738H56.2366L56.8966 57.4893C56.976 56.7931 56.4668 56.1662 55.7676 56.1028C40.8499 54.7494 42.2484 56.3925 37.1295 54.6105C36.7939 54.4973 36.2845 54.2991 35.9274 54.1143C32.8716 52.5325 32.2145 47.9519 33.18 45.3765C34.3637 44.5388 35.543 43.5693 36.6861 42.493C37.1887 42.0197 37.2125 41.2287 36.7392 40.726C36.2659 40.2236 35.4751 40.1998 34.9723 40.6729C33.6833 41.8866 32.0721 43.1339 31.9701 43.1574C31.6554 43.2307 31.5679 43.334 30.3243 44.151C27.2165 46.1931 27.8193 45.7962 11.7022 59.3434L1.94062 65.8561C0.231654 66.9962 -0.443463 69.1305 0.298837 71.0461C2.32231 76.2677 2.31934 76.4249 2.88275 77.223H1.25456C0.564291 77.223 0.00463592 77.7826 0.00463592 78.4729C0.00463592 79.1632 0.564291 79.7228 1.25456 79.7228H78.75C79.4403 79.7228 80 79.1632 80 78.4729C80 77.7826 79.4403 77.223 78.75 77.223ZM30.2775 47.1919C30.0768 50.353 31.2759 53.894 33.8887 55.783C29.2407 57.9456 23.0039 60.4274 15.3536 64.3729L13.9407 60.7274C26.3243 50.3164 28.3941 48.5115 30.2775 47.1919ZM3.32803 67.9357L11.8499 62.2501L13.1568 65.6224L7.3553 69.3172C6.9297 69.5882 6.70877 70.0887 6.79533 70.5857L7.94854 77.213C6.49785 77.3178 5.08371 76.4755 4.5314 75.0503L2.62979 70.1429C2.31403 69.3281 2.6012 68.4205 3.32803 67.9357ZM9.40096 70.9782C15.0844 67.3587 15.9346 66.4469 30.1071 60.2143C32.6624 59.0906 34.8917 58.1086 36.829 57.1429C41.9611 58.7726 41.5952 57.3969 54.2672 58.48C52.4481 74.4233 52.9012 71.3208 52.1519 74.318C51.9046 75.3071 52.0096 76.3253 52.4338 77.2228H10.4876L9.40096 70.9782ZM56.3716 77.223C55.1689 77.223 54.2847 76.0932 54.5771 74.9245C55.3783 71.7195 55.0298 73.8471 55.951 65.7738H59.8113L58.2392 73.3983C58.1039 74.0546 58.51 74.7008 59.1601 74.8633L63.0408 75.834C63.82 76.0288 64.4482 76.5463 64.798 77.223H56.3716Z" fill="#FF668E"/>
<path d="M43.4336 13.9008C43.6109 16.357 44.6179 18.6327 46.2936 20.4401C45.1736 25.0303 43.4442 29.2578 41.1456 33.0137C40.7851 33.6026 40.9703 34.3719 41.5592 34.7323C42.1515 35.095 42.9196 34.9039 43.2778 34.3188C45.5103 30.671 47.2352 26.6117 48.417 22.2285C49.0433 22.6349 49.7065 22.976 50.394 23.2474L51.0908 23.7695L49.255 25.6054C48.4652 26.395 49.0353 27.7392 50.1388 27.7392C50.4587 27.7392 50.7786 27.6171 51.0227 27.3731C64.0108 14.3849 40.8634 37.5323 67.0469 11.3489C69.4032 8.9926 70.7009 5.85982 70.7009 2.52751C70.7009 1.83724 70.1413 1.27759 69.451 1.27759C68.7607 1.27759 68.2011 1.83724 68.2011 2.52751C68.2011 5.19205 67.1635 7.69721 65.2794 9.58132L59.8515 15.0091C59.8515 12.1063 60.0651 10.45 58.7972 8.21734C56.6483 4.43022 51.7831 3.03561 47.856 5.01143C45.9753 1.79709 41.0789 2.23628 39.8366 5.75326L38.9982 8.13484C37.9673 11.0515 40.2761 14.0776 43.4336 13.9008ZM56.2219 8.84777C55.047 10.4864 53.1493 11.4479 51.1178 11.4754C49.2934 11.5009 49.4164 13.9782 51.0283 13.9782C53.3724 13.9782 55.6393 13.0638 57.3022 11.4232C57.3687 11.9101 57.3514 11.6004 57.3514 17.5087L53.3913 21.4687C51.7612 21.2466 50.2863 20.5891 49.0972 19.6418L50.1491 17.0312C50.4312 16.3312 50.0335 15.5213 49.2661 15.3465C48.6778 15.2121 48.0625 15.5194 47.8301 16.0969L47.2284 17.5905C46.3694 16.2658 45.9019 14.7341 45.9019 13.1155C45.9019 12.9564 45.8842 12.9994 45.9902 12.9135C46.6557 12.3743 47.1123 11.6801 47.3595 10.9831C48.1972 8.60528 48.3638 8.2489 48.4263 7.56128C50.9322 5.92935 54.3734 6.4426 56.2219 8.84777ZM41.3554 8.96604L42.1938 6.58431C42.4665 5.81279 43.2144 5.32829 44.0167 5.32829C45.3289 5.32829 46.2656 6.5654 45.8403 7.77143C45.0258 10.0835 44.9721 10.6841 44.1725 11.1419C42.5747 12.0432 40.7966 10.5488 41.3554 8.96604Z" fill="#FF668E"/>
<path d="M38.4441 38.8801C38.9809 39.3117 39.7723 39.2228 40.2057 38.6836C40.2693 38.6045 40.3329 38.5253 40.3965 38.4447C40.8239 37.9027 40.7311 37.1168 40.1891 36.6893C39.6471 36.2617 38.8611 36.3545 38.4338 36.8967C38.375 36.9712 38.3163 37.0442 38.2486 37.1282C37.8162 37.6663 37.9061 38.4475 38.4441 38.8801Z" fill="#FF668E"/>
</g>
<defs>
<clipPath id="clip0">
<rect width="80" height="80" fill="white" transform="translate(0 0.5)"/>
</clipPath>
</defs>
</svg>
