<svg width="80" height="64" viewBox="0 0 80 64" fill="none" xmlns="http://www.w3.org/2000/svg">
<path d="M0 1.33408H1.32104H2.64193L2.69109 5.20186C2.74511 9.46002 2.7686 9.57535 3.81453 10.6847C4.24778 11.1443 4.992 11.6482 5.23751 11.6482C5.28495 11.6482 5.32363 9.3275 5.32363 6.49112V1.33408H6.65453H7.98544V6.49112C7.98544 9.3275 8.0321 11.6482 8.08909 11.6482C8.37673 11.6482 9.51723 10.8373 9.8343 10.4074C10.5679 9.41267 10.6473 8.88337 10.6473 4.98683V1.33408H11.9782H13.3091V5.1778C13.3091 9.54284 13.2182 10.077 12.2118 11.6311C11.4785 12.7633 10.0566 13.8665 8.8355 14.2508L7.98544 14.5181V39.2592V64H6.65453H5.32363V39.2335V14.467L4.89304 14.3636C2.83514 13.8691 0.747187 11.7146 0.217016 9.53847L0 1.33408Z" fill="#FF668E"/>
<path fill-rule="evenodd" clip-rule="evenodd" d="M68.4989 27.2756C65.6229 15.9565 55.8841 7.25437 44.2915 5.6449C38.1519 4.79242 32.362 5.72679 26.9216 8.44783C19.3764 12.2215 13.7195 19.2043 11.6686 27.2756C10.9944 29.9291 10.7791 31.7067 10.7791 34.6205C10.7791 40.2331 12.1332 45.1376 14.9735 49.8127C19.4831 57.2351 27.0616 62.2843 35.6996 63.6215C37.8978 63.9619 42.2697 63.9619 44.4679 63.6215C50.7581 62.6478 56.3257 59.8262 60.8321 55.3287C66.4592 49.7123 69.3885 42.623 69.3885 34.6205C69.3885 31.7067 69.1732 29.9291 68.4989 27.2756ZM13.4761 32.7738C14.4012 19.4856 25.0023 8.92759 38.2831 8.06777C46.0689 7.56363 53.4699 10.332 58.9446 15.7962C66.1293 22.9668 68.6134 33.6098 65.3448 43.2155C62.4645 51.68 55.4095 58.2141 46.7721 60.4174C44.4307 61.0145 42.7614 61.2132 40.0838 61.2132C35.7237 61.2132 32.1581 60.4051 28.3831 58.5613C18.5818 53.7744 12.72 43.634 13.4761 32.7738ZM33.9077 15.7252C33.1959 14.5997 31.809 13.6444 30.6035 13.4494C30.2631 13.3942 29.8436 13.3281 29.6714 13.3023C29.1641 13.2264 27.9606 13.4691 27.2242 13.7957C25.237 14.6769 23.972 16.8365 24.1495 19.0446C24.2939 20.8391 25.2677 22.3331 26.8878 23.2456C27.3423 23.5016 27.7142 23.7591 27.7142 23.8177C27.7142 24.2987 26.3692 25.244 25.6849 25.244C25.3881 25.244 25.3655 25.3393 25.3655 26.5941V27.9443L26.178 27.8482C27.9506 27.6386 29.4055 26.5116 30.2244 24.7135C30.6271 23.8294 30.7164 23.7393 31.4409 23.4853C33.154 22.8844 34.5815 20.9263 34.7285 18.9752C34.8048 17.9654 34.459 16.5967 33.9077 15.7252ZM45.4074 16.0238V14.6955V13.3672L44.7419 13.3794C43.0234 13.4106 40.774 14.8255 39.7061 16.5472C39.279 17.2359 38.8312 18.6641 38.8312 19.3381C38.8312 19.8957 38.782 19.9662 38.244 20.1793C36.2362 20.9752 35.5726 21.4372 34.6202 22.7025C33.8033 23.7874 33.3502 25.1688 33.3536 26.5636C33.3555 27.3254 34.1999 32.1337 36.0859 42.1216C38.6902 55.9138 38.8343 56.5931 39.2235 56.9286C39.4479 57.1219 39.835 57.2802 40.0838 57.2802C40.3326 57.2802 40.7187 57.1219 40.9421 56.9286C41.3157 56.605 41.6106 55.4434 44.6414 42.356C46.4527 34.5345 47.975 27.6281 48.0241 27.0084C48.2848 23.721 45.8317 20.6549 42.4716 20.0682C41.3906 19.8794 41.3381 19.7902 41.6499 18.6703C41.9859 17.4631 43.789 16.0296 44.9768 16.0254L45.4074 16.0238ZM26.8092 18.4252C26.8876 17.4803 27.2175 16.9245 28.0258 16.3755C29.0808 15.6588 30.9397 16.0798 31.6231 17.19C33.1281 19.6346 30.3097 22.3908 27.9182 20.8132C27.1193 20.2862 26.7251 19.4372 26.8092 18.4252ZM58.6192 17.9843C58.5657 17.8451 58.3227 17.6285 58.0789 17.5027C57.1527 17.0246 55.1388 17.4372 53.3817 18.465C51.6332 19.4877 50.2301 21.3354 49.7213 23.2851C49.5316 24.0116 49.4784 25.1152 49.4784 28.3154C49.4784 32.3747 49.482 32.4193 49.8406 32.8353C50.1698 33.2176 50.2956 33.2535 51.2294 33.2334C52.2921 33.2104 53.4483 32.886 54.653 32.2726C55.5873 31.7971 57.3257 30.0376 57.8158 29.0718C58.6469 27.4339 58.7165 26.9197 58.7165 22.4155C58.7165 20.1174 58.6726 18.1234 58.6192 17.9843ZM52.177 24.9766C52.275 23.5434 52.8129 22.4105 53.8577 21.4348C54.2836 21.0373 54.7064 20.7121 54.7972 20.7121C54.9282 20.7121 52.4518 25.7252 52.1725 26.0254C52.1324 26.0684 52.1344 25.5964 52.177 24.9766ZM36.3043 24.9737C36.8743 23.8588 37.8854 23.0538 39.1002 22.748C39.9682 22.5295 42.2447 22.6572 42.9804 22.9657C44.3015 23.5195 45.4029 25.1099 45.4058 26.468C45.4071 26.9899 43.5365 35.6091 43.1195 37.0036C43.0559 37.2162 42.8654 37.2771 42.2654 37.2771H41.493V38.6055V39.9338H41.9732C42.3588 39.9338 42.4367 39.9877 42.3679 40.2073C42.3208 40.3576 41.8576 42.3443 41.3386 44.622C40.8197 46.8997 40.3426 48.8881 40.2784 49.0407C40.2068 49.2112 39.6762 46.7575 38.9013 42.6725L37.6407 36.0269H38.1576H38.6746V34.6986V33.3703H37.8917C37.4611 33.3703 37.1088 33.3314 37.1088 33.2839C37.1088 33.2363 36.8526 31.9179 36.5395 30.3537C35.8761 27.0409 35.8266 25.9083 36.3043 24.9737ZM53.4561 29.8911C53.4123 29.8474 53.9614 28.6399 54.6763 27.2078L55.9764 24.6038L56.0226 25.4461C56.094 26.7458 55.5788 27.9318 54.4566 29.0518C53.9503 29.5572 53.4999 29.9349 53.4561 29.8911ZM41.493 29.3071V27.9788V26.6505H40.1621H38.8312V27.9788V29.3071H40.1621H41.493ZM30.6891 28.8558L30.3368 28.4719C29.8969 27.9924 29.4852 27.9179 28.1227 28.0707C23.7836 28.5572 20.1625 31.7742 18.9906 36.1832C18.5834 37.7155 18.587 44.7659 18.9958 46.0883C19.9317 49.1166 22.4179 51.3201 25.4842 51.8387C27.9075 52.2487 29.9579 51.154 30.5362 49.1415C30.6285 48.82 30.6891 44.6939 30.6891 38.7324V28.8558ZM22.3481 34.8625C23.1828 33.2182 25.3816 31.4558 27.2444 30.9376C27.632 30.8297 27.9667 30.7353 27.9882 30.7275C28.0096 30.7199 28.0273 32.5069 28.0273 34.6986V38.6836H26.6964H25.3655V41.3403V43.9969H26.6964H28.0273L28.0223 46.2238C28.019 47.7275 27.9555 48.5312 27.8266 48.6987C27.456 49.1805 26.9247 49.3454 26.0814 49.2402C24.3542 49.0249 22.7479 47.87 21.9208 46.2488C21.5375 45.4976 21.5284 45.397 21.4827 41.445C21.4321 37.0637 21.5026 36.5278 22.3481 34.8625ZM58.0128 41.0211C56.1618 38.0594 54.4668 35.4781 54.2462 35.2846C53.7113 34.8158 53.183 34.8411 52.6244 35.3628C52.0283 35.9194 45.5726 46.2593 45.455 46.8456C45.3791 47.2244 45.47 47.3921 46.0531 47.9496C46.8894 48.7492 48.5258 49.6242 50.1047 50.1163C51.6425 50.5956 54.9289 50.6404 56.5244 50.2038C57.8492 49.8414 59.9122 48.8194 60.7308 48.12C61.0097 47.8818 61.2201 47.7043 61.3201 47.4783C61.6236 46.7923 60.9112 45.6587 58.0128 41.0211ZM48.6831 46.5754C48.698 46.4895 49.772 44.7105 51.07 42.622C52.3679 40.5336 53.4492 38.8458 53.4728 38.8714C53.5759 38.9835 58.2467 46.5085 58.2467 46.5626C58.2467 46.6914 57.1878 47.2368 56.4448 47.4906C54.317 48.2174 51.882 48.1215 49.8111 47.2293C49.1761 46.9557 48.6684 46.6614 48.6831 46.5754ZM54.802 45.5597V44.2313V42.903H53.4711H52.1402V44.2313V45.5597H53.4711H54.802Z" fill="#FF668E"/>
<path fill-rule="evenodd" clip-rule="evenodd" d="M79.9321 13.4175C79.3944 15.3702 77.5922 16.9451 75.5877 17.2143L74.8439 17.3144V40.6572V64H73.513H72.1821V40.6572V17.3144L71.4384 17.2143C69.7619 16.9891 68.1144 15.791 67.3282 14.225C66.9471 13.4659 66.9355 13.3431 66.8876 9.57363C66.8478 6.43471 66.8843 5.54457 67.0805 4.87103C68.2484 0.861504 72.6723 -1.13287 76.4097 0.66538C78.1142 1.48551 79.6397 3.44128 80 5.26843L79.9321 13.4175ZM69.8887 5.00652C70.4666 3.77055 71.4039 3.04465 72.8867 2.68491C73.9649 2.42331 75.6492 3.05497 76.4911 4.03668C77.3643 5.05496 77.5057 5.79336 77.5057 9.3375C77.5057 12.7196 77.4288 13.1146 76.6247 13.8651C75.9421 14.502 75.4564 14.6174 73.4577 14.6174C71.2456 14.6174 70.4563 14.3247 69.8759 13.289C69.5427 12.6947 69.5255 12.4942 69.5244 9.22592C69.5234 5.95041 69.5406 5.75101 69.8887 5.00652Z" fill="#FF668E"/>
</svg>
