<svg width="78" height="95" viewBox="0 0 78 95" fill="none" xmlns="http://www.w3.org/2000/svg">
<path fill-rule="evenodd" clip-rule="evenodd" d="M41.6256 1.60334C43.942 2.64242 45.5104 4.99462 45.5567 7.4987C45.5807 8.79859 45.611 8.88218 46.3792 9.76826C47.4418 10.9942 48.8072 13.7784 49.1493 15.4166C50.1506 20.2133 48.4841 26.4506 45.152 30.3768L44.1345 31.5759V33.3783C44.1345 34.6912 44.1986 35.1822 44.371 35.186C45.2129 35.2051 54.9797 37.2573 55.3337 37.4897C55.6277 37.6827 57.7072 41.7238 61.6962 49.8543C64.9555 56.4971 67.6686 62.1651 67.7258 62.4501C67.9067 63.3544 67.2566 65.5222 66.6222 66.1298L66.0576 66.6708L57.9341 66.7239L49.8106 66.777L49.8136 68.3315L49.8167 69.886L59.7942 72.6826C70.5306 75.692 71.6807 76.1151 74.0827 77.9363C76.5151 79.7805 77.2774 81.2409 76.9143 83.3601C76.4317 86.1768 74.4864 88.6938 71.6637 90.154C67.8334 92.1354 65.5974 92.3218 50.4728 91.9211C46.6225 91.8191 41.0031 91.6465 37.9853 91.5373L32.4984 91.3391L26.3769 92.6697C23.01 93.4014 20.0045 94 19.698 94C17.7497 94 16.5878 91.6495 17.7153 89.9886L18.1633 89.3289L14.9245 89.2073C13.1434 89.1403 11.3028 88.9969 10.8345 88.8888C9.78971 88.6474 3.4491 85.461 2.43685 84.6685C1.62706 84.0347 1.00647 82.8735 1.00004 81.9801C0.993414 81.0613 1.88797 79.5081 2.97628 78.549C3.52346 78.0668 4.72869 77.1968 5.65447 76.616L7.33781 75.5599L17.6001 72.7229L27.8623 69.886L27.8627 68.3315L27.8629 66.777L19.7394 66.7239L11.6159 66.6708L11.0513 66.1298C10.4162 65.5216 9.76682 63.3542 9.94827 62.4479C10.0054 62.1619 12.7231 56.4842 15.9877 49.8308C21.5141 38.5676 21.968 37.7116 22.5752 37.409C22.9339 37.2303 25.5474 36.6434 28.3832 36.1048L33.539 35.1256V33.3506V31.5759L32.5215 30.3768C29.1894 26.4506 27.5229 20.2133 28.5242 15.4166C28.8662 13.7784 30.2317 10.9942 31.2943 9.76826C32.0625 8.88218 32.0927 8.79859 32.1168 7.4987C32.2048 2.73925 37.2225 -0.371931 41.6256 1.60334ZM37.5123 2.62672C35.3998 3.32215 34.0164 4.84521 33.6459 6.88384C33.5419 7.45652 33.5674 7.5944 33.7623 7.50929C35.5368 6.73329 36.6206 6.36997 37.6272 6.21338C39.4954 5.92268 40.9846 6.22964 43.9112 7.50929C44.1061 7.5944 44.1316 7.45652 44.0276 6.88384C43.5846 4.44671 41.5865 2.67457 39.1242 2.53537C38.4979 2.5 37.7725 2.54104 37.5123 2.62672ZM37.3564 7.75951C33.7678 8.51206 30.7254 11.9045 29.9583 16.0086C29.8734 16.4633 29.821 16.8351 29.8422 16.8351C29.8632 16.8351 30.1506 16.4184 30.4807 15.9091C31.7802 13.9045 34.352 12.0656 36.5716 11.5544C37.9772 11.2306 40.3644 11.3085 41.7022 11.7218C43.8573 12.3873 45.9198 13.8563 47.1101 15.5732C47.8124 16.586 47.8637 16.1535 47.2501 14.3917C45.9084 10.5391 42.8615 7.94467 39.3667 7.67856C38.7109 7.62882 37.8063 7.66513 37.3564 7.75951ZM36.1472 13.2881C32.9725 14.5396 30.0745 18.2617 30.0722 21.0905C30.0713 22.4339 31.1452 25.4649 32.2942 27.3617C34.8652 31.6054 38.1068 33.2113 41.1182 31.733C43.3716 30.6266 45.7942 27.388 46.9731 23.9059C47.8885 21.2017 47.8642 20.2039 46.8329 18.1217C45.7874 16.011 44.4625 14.6527 42.5083 13.687C41.1462 13.0141 40.9176 12.9617 39.1378 12.9137C37.5237 12.87 37.0614 12.9279 36.1472 13.2881ZM35.0861 36.5704C35.1467 40.373 35.1522 40.4182 35.6549 41.1766C36.4367 42.3568 37.3617 42.8404 38.8367 42.8404C40.3118 42.8404 41.2368 42.3568 42.0186 41.1766C42.5213 40.4182 42.5268 40.373 42.5873 36.5704L42.6486 32.7301L41.5467 33.2462C40.6177 33.6812 40.1928 33.7622 38.8367 33.7622C37.4807 33.7622 37.0558 33.6812 36.1268 33.2462L35.0248 32.7301L35.0861 36.5704ZM31.647 37.0137C30.8665 37.165 30.1731 37.3464 30.1061 37.4167C30.0391 37.4871 29.5061 40.1406 28.9215 43.3132L27.8587 49.0817L28.2241 54.2519C28.425 57.0955 28.6275 59.46 28.674 59.5067C28.7972 59.6297 33.9082 60.218 34.006 60.1204C34.0512 60.075 34.4376 57.9558 34.8646 55.4109C35.3208 52.691 35.773 50.5588 35.9616 50.2378C36.4545 49.3992 37.4013 48.9871 38.8337 48.9875C40.2908 48.9877 41.2281 49.389 41.7055 50.2165C41.8998 50.5533 42.3482 52.6638 42.8089 55.4109C43.2359 57.9558 43.6263 60.0792 43.6766 60.1293C43.7822 60.2349 48.8619 59.6442 48.9953 59.5109C49.0441 59.4619 49.2477 57.0978 49.4477 54.257L49.8113 49.0919L48.7579 43.5075C48.1783 40.436 47.665 37.7848 47.617 37.6157C47.5581 37.4084 47.1458 37.2365 46.3523 37.0884C45.7049 36.9676 44.9507 36.8246 44.6765 36.7709L44.1782 36.6733L44.0987 38.6221C44.0353 40.1792 43.9316 40.7418 43.5831 41.4219C42.3495 43.8282 39.82 44.9256 37.2368 44.1749C36.3797 43.9258 35.9183 43.6357 35.138 42.8559C33.9186 41.6368 33.539 40.5476 33.539 38.2669C33.539 37.1225 33.4745 36.6998 33.3025 36.7162C33.1725 36.7287 32.4274 36.8626 31.647 37.0137ZM25.7402 38.1787C24.4165 38.4541 23.2505 38.7647 23.1489 38.8687C23.0471 38.9727 20.3536 44.376 17.163 50.8762L11.362 62.6943L11.5923 63.737C11.719 64.3102 11.9088 64.8859 12.014 65.0159C12.1633 65.2005 14.7728 65.2523 23.9019 65.2523H35.5983L36.8391 64.4746L38.0799 63.6971V57.0985C38.0799 53.4695 38.008 50.5002 37.92 50.5002C37.8321 50.5002 37.6056 50.6709 37.4166 50.8797C37.1621 51.1608 36.8622 52.5186 36.2604 56.1145C35.3541 61.5293 35.2791 61.7131 33.9842 61.6921C33.5833 61.6855 30.8601 61.3774 27.9327 61.0075L22.6104 60.3349L20.8385 60.6982C19.8639 60.8981 19.0375 61.0324 19.0019 60.9969C18.9663 60.9613 18.8694 60.6317 18.7864 60.2642L18.6358 59.5962L19.7017 59.3802C20.2881 59.2614 21.0512 59.1076 21.3974 59.0386C22.0197 58.9145 22.0534 58.8519 24.2054 53.8296L26.3835 48.746L27.3119 43.7129C27.8224 40.9446 28.2897 38.4454 28.3503 38.1595C28.411 37.8735 28.39 37.6481 28.3036 37.6586C28.2173 37.6692 27.0637 37.9034 25.7402 38.1787ZM49.243 37.7958C49.243 37.8956 49.7063 40.4071 50.2726 43.3764L51.3025 48.7753L53.4743 53.8442C55.6199 58.8516 55.654 58.9145 56.2761 59.0386C56.6223 59.1076 57.378 59.2597 57.9551 59.3766L59.0044 59.5892L58.9274 60.2475C58.8852 60.6095 58.7944 60.9405 58.7255 60.9831C58.6568 61.0254 57.8109 60.8983 56.8456 60.7003L55.0905 60.3406L49.7544 61.0097C46.8195 61.3778 44.0902 61.6845 43.6893 61.6913C42.3945 61.7137 42.3194 61.5296 41.4131 56.1145C40.8113 52.5186 40.5114 51.1608 40.2569 50.8797C40.0679 50.6709 39.8414 50.5002 39.7534 50.5002C39.6655 50.5002 39.5936 53.4695 39.5936 57.0985V63.6971L40.8344 64.4746L42.0752 65.2523H53.7716C62.9007 65.2523 65.5102 65.2005 65.6595 65.0159C65.7647 64.8859 65.9541 64.3114 66.0803 63.7392L66.3098 62.699L60.6034 51.0676C57.4649 44.6702 54.7793 39.2553 54.6353 39.0342C54.4245 38.7104 53.9396 38.5525 52.1395 38.2219C50.9106 37.9962 49.7561 37.767 49.5741 37.7127C49.3921 37.6583 49.243 37.6957 49.243 37.7958ZM25.1194 55.5378C24.391 57.2506 23.7719 58.7169 23.7435 58.7963C23.6991 58.9219 26.9229 59.4541 27.0264 59.3382C27.0909 59.266 26.5897 52.5687 26.5141 52.4936C26.4755 52.4554 25.8479 53.8253 25.1194 55.5378ZM51.1314 52.3915C51.0703 52.7417 50.6168 59.3042 50.651 59.3422C50.6997 59.3959 53.8505 58.9921 53.9301 58.9217C53.9585 58.8968 53.3442 57.3958 52.5648 55.5866C51.7855 53.7772 51.1405 52.3395 51.1314 52.3915ZM37.5123 65.8677L36.2825 66.6708L32.8295 66.7298L29.3765 66.7888V68.2901V69.7914H38.8367H48.297V68.2901V66.7888L44.844 66.7298L41.391 66.6708L40.3025 65.9555C39.7041 65.5619 39.1081 65.2006 38.9781 65.1524C38.8483 65.1042 38.1887 65.4261 37.5123 65.8677ZM18.0621 74.1472C7.37244 77.1302 6.98968 77.2711 4.79018 79.0357C3.34409 80.1958 2.69739 80.9907 2.58443 81.7467C2.40658 82.9365 2.89473 83.3584 6.77001 85.3636C10.4506 87.2681 10.9558 87.448 13.2357 87.6653L14.5965 87.7948L13.8979 86.4057C13.2431 85.1028 13.2003 84.9104 13.2111 83.3142C13.2192 82.1 13.3346 81.2948 13.6137 80.5056L14.005 79.3992L12.9875 79.5263L11.9697 79.6534V78.8999C11.9697 78.0061 11.4021 78.1481 17.7779 77.4464L22.1673 76.9632L31.9049 78.7675C37.2607 79.7599 41.844 80.5718 42.0899 80.5718C42.3894 80.5718 42.9412 80.1644 43.7597 79.3388C44.4321 78.6606 45.2385 78.035 45.5516 77.9487C45.9086 77.8502 47.0987 77.9151 48.7408 78.1227C50.1818 78.3049 52.6084 78.5071 54.1332 78.5721C59.4067 78.797 59.8046 78.8515 60.4766 79.4414C61.0764 79.9677 61.0851 79.9692 62.1085 79.7039C63.8127 79.2619 64.0009 79.3107 64.0009 80.1935C64.0009 80.7286 63.9205 80.9501 63.7264 80.9501C62.6661 80.9501 61.4238 81.427 60.7175 82.1056L59.9544 82.8385L60.3444 83.3658C61.6817 85.1739 61.9051 86.9731 61.0683 89.1953C60.8081 89.8862 60.5952 90.4958 60.5952 90.5497C60.5952 90.7697 66.0854 90.4268 67.4066 90.1242C71.7994 89.1184 75.0872 86.1823 75.4737 82.9208C75.622 81.6685 75.3292 81.1189 73.7351 79.6589C71.547 77.6546 70.3048 77.1769 59.1762 74.0595L49.3376 71.3035L38.7421 71.3182L28.1467 71.333L18.0621 74.1472ZM18.7262 78.8668C16.4459 79.1353 15.8791 79.2624 15.6645 79.5531C15.1523 80.2467 14.7132 81.9846 14.7132 83.3181C14.7132 84.4319 14.8116 84.8457 15.3234 85.8852C16.3087 87.8856 16.1392 87.8223 19.8525 87.5792C25.1595 87.232 29.2157 86.7735 40.1303 85.2879C46.3152 84.4461 49.5495 83.832 55.3738 82.3929C59.3272 81.4162 60.0585 81.0944 59.5289 80.565C59.4067 80.4428 57.7865 80.2866 55.5598 80.182C52.2479 80.0265 47.7034 79.6021 46.4458 79.3307C46.1047 79.2571 45.698 79.5378 44.5184 80.6611C43.1797 81.9358 42.9457 82.0848 42.2833 82.0848C41.8763 82.0848 37.1752 81.2763 31.8362 80.2881C26.4972 79.2999 21.993 78.5018 21.8267 78.5142C21.6606 78.5269 20.2652 78.6856 18.7262 78.8668ZM55.1083 84.0094C48.5287 85.652 40.694 86.9158 28.3359 88.3284C25.4065 88.6633 24.514 88.8498 21.9525 89.6619C19.3375 90.4913 18.961 90.6615 18.8609 91.0602C18.6931 91.7284 18.934 92.2816 19.449 92.4107C19.7105 92.4764 22.5487 91.9523 26.157 91.1723L32.4116 89.82L37.7526 90.0165C40.6904 90.1247 46.583 90.3057 50.8472 90.4188L58.6007 90.6244L58.9251 90.224C59.4647 89.5579 60.0276 87.8032 60.0276 86.7873C60.0276 85.6155 59.6666 84.8155 58.7443 83.9428L58.041 83.2773L55.1083 84.0094Z" fill="#FF668E" stroke="#FF668E"/>
</svg>
