<svg width="48" height="48" viewBox="0 0 48 48" fill="none" xmlns="http://www.w3.org/2000/svg">
<path d="M0 24C0 10.7452 10.7452 0 24 0C37.2548 0 48 10.7452 48 24C48 37.2548 37.2548 48 24 48C10.7452 48 0 37.2548 0 24Z" fill="#F5F5F5"/>
<path d="M23.9997 17.6214C25.9525 17.6214 27.2699 18.465 28.021 19.1699L30.9561 16.3041C29.1534 14.6285 26.8077 13.6001 23.9997 13.6001C19.9321 13.6001 16.4192 15.9343 14.709 19.3317L18.0717 21.9432C18.9152 19.4357 21.2494 17.6214 23.9997 17.6214Z" fill="#EA4335"/>
<path d="M33.984 24.2312C33.984 23.3761 33.9147 22.7521 33.7644 22.105H24V25.9645H29.7316C29.616 26.9236 28.992 28.3681 27.6053 29.3388L30.8871 31.881C32.8516 30.0668 33.984 27.3974 33.984 24.2312Z" fill="#4285F4"/>
<path d="M18.0832 26.0569C17.8636 25.4098 17.7365 24.7164 17.7365 24C17.7365 23.2835 17.8636 22.5902 18.0716 21.9431L14.7089 19.3315C14.0041 20.7413 13.5996 22.3244 13.5996 24C13.5996 25.6755 14.0041 27.2587 14.7089 28.6684L18.0832 26.0569Z" fill="#FBBC05"/>
<path d="M23.9998 34.4C26.8078 34.4 29.1651 33.4756 30.8869 31.8809L27.6051 29.3387C26.7269 29.9511 25.5483 30.3787 23.9998 30.3787C21.2496 30.3787 18.9154 28.5644 18.0834 26.0569L14.7207 28.6684C16.4309 32.0658 19.9323 34.4 23.9998 34.4Z" fill="#34A853"/>
</svg>
