<svg width="48" height="48" viewBox="0 0 48 48" fill="none" xmlns="http://www.w3.org/2000/svg">
<path d="M24 48C37.2548 48 48 37.2548 48 24C48 10.7452 37.2548 0 24 0C10.7452 0 0 10.7452 0 24C0 37.2548 10.7452 48 24 48Z" fill="#F5F5F5"/>
<path fill-rule="evenodd" clip-rule="evenodd" d="M36.7992 29.8187C36.7992 28.7043 36.5343 27.6523 36.0632 26.7175C36.2483 25.8836 36.3447 25.0201 36.3447 24.1328C36.3447 17.4853 30.8794 12.0947 24.1347 12.0947C23.4242 12.0947 22.7273 12.1555 22.047 12.2713C20.9558 11.5932 19.6643 11.2 18.2811 11.2C14.3691 11.2 11.1992 14.3248 11.1992 18.1827C11.1992 19.4707 11.5544 20.6755 12.1716 21.7142C12.0105 22.4946 11.9247 23.3048 11.9247 24.1328C11.9247 30.7831 17.3915 36.1723 24.1347 36.1723C24.8993 36.1723 25.6459 36.1026 26.3714 35.9705C27.3693 36.4987 28.5072 36.8 29.7189 36.8C33.6293 36.8 36.7992 33.6736 36.7992 29.8187ZM31.2527 27.2012C31.2527 28.1924 30.9637 29.0961 30.3977 29.8869C29.8333 30.6763 28.9994 31.2995 27.9157 31.7417C26.8455 32.1809 25.5631 32.4049 24.1016 32.4049C22.348 32.4049 20.8775 32.1008 19.729 31.4998C18.9087 31.0636 18.2329 30.473 17.7196 29.74C17.2003 29.0041 16.9384 28.2726 16.9384 27.5648C16.9384 27.1256 17.11 26.7428 17.4472 26.4297C17.7813 26.1181 18.2103 25.9623 18.7221 25.9623C19.1405 25.9623 19.5033 26.0854 19.7968 26.3303C20.0782 26.5662 20.3191 26.9149 20.5132 27.3615C20.73 27.8512 20.9648 28.2637 21.2131 28.5856C21.454 28.9002 21.7987 29.1628 22.2382 29.3691C22.6807 29.5738 23.2782 29.6807 24.0113 29.6807C25.0212 29.6807 25.8491 29.467 26.4707 29.0486C27.0803 28.6405 27.3753 28.1479 27.3753 27.5455C27.3753 27.0722 27.2203 26.6982 26.9042 26.4044C26.5701 26.0988 26.1321 25.8614 25.6007 25.6952C25.0453 25.526 24.2927 25.3406 23.361 25.1477C22.0922 24.8806 21.016 24.5645 20.161 24.204C19.285 23.8375 18.5791 23.3285 18.0628 22.692C17.539 22.0436 17.2726 21.2319 17.2726 20.2778C17.2726 19.3698 17.5511 18.5492 18.1019 17.8429C18.6468 17.1411 19.4446 16.5921 20.4726 16.2196C21.4856 15.8502 22.6897 15.6632 24.0549 15.6632C25.1447 15.6632 26.1035 15.7879 26.9042 16.0342C27.7095 16.2805 28.3868 16.6129 28.9196 17.0239C29.457 17.4393 29.8574 17.88 30.1072 18.34C30.3601 18.8044 30.4895 19.2659 30.4895 19.7125C30.4895 20.1428 30.3209 20.5345 29.9883 20.8743C29.6542 21.2186 29.2312 21.3922 28.7345 21.3922C28.2829 21.3922 27.9277 21.2824 27.6839 21.0687C27.4551 20.8684 27.2173 20.5568 26.9539 20.1117C26.6498 19.5419 26.2811 19.0923 25.8581 18.7747C25.4472 18.4661 24.7623 18.3118 23.8186 18.3118C22.9456 18.3118 22.2321 18.4839 21.7038 18.8267C21.1951 19.1546 20.9467 19.533 20.9467 19.9811C20.9467 20.2541 21.0265 20.4841 21.1921 20.6799C21.3637 20.8906 21.609 21.0717 21.9191 21.226C22.2397 21.3848 22.5708 21.5124 22.9019 21.6014C23.2406 21.6949 23.8096 21.8329 24.5908 22.0109C25.5797 22.2186 26.4873 22.4546 27.2895 22.7083C28.1038 22.9635 28.8052 23.2781 29.3802 23.6475C29.9642 24.023 30.4263 24.5037 30.7559 25.0794C31.0856 25.6596 31.2527 26.3718 31.2527 27.2012Z" fill="#00AEF3"/>
</svg>
