<svg width="48" height="48" viewBox="0 0 48 48" fill="none" xmlns="http://www.w3.org/2000/svg">
<path d="M24 48C37.2548 48 48 37.2548 48 24C48 10.7452 37.2548 0 24 0C10.7452 0 0 10.7452 0 24C0 37.2548 10.7452 48 24 48Z" fill="#25D366"/>
<path fill-rule="evenodd" clip-rule="evenodd" d="M24.7915 37.3526H24.7856C22.3971 37.3517 20.0502 36.7525 17.9657 35.6155L10.4004 37.6L12.425 30.2049C11.1761 28.0406 10.519 25.5855 10.52 23.0703C10.5232 15.2017 16.9252 8.80005 24.7913 8.80005C28.609 8.8017 32.1922 10.2879 34.8866 12.9855C37.581 15.6829 39.064 19.2684 39.0625 23.0816C39.0594 30.9483 32.6599 37.3494 24.7915 37.3526ZM18.3163 33.0319L18.7494 33.289C20.5706 34.3697 22.6582 34.9416 24.7867 34.9424H24.7915C31.3292 34.9424 36.6503 29.6212 36.6529 23.0807C36.6542 19.9113 35.4215 16.9311 33.1821 14.689C30.9426 12.4469 27.9644 11.2116 24.7961 11.2105C18.2533 11.2105 12.9322 16.5312 12.9296 23.0711C12.9286 25.3124 13.5558 27.4952 14.7431 29.3837L15.0252 29.8325L13.8269 34.2096L18.3163 33.0319ZM31.4928 26.1541C31.7415 26.2743 31.9095 26.3555 31.9812 26.4752C32.0703 26.6239 32.0703 27.3378 31.7733 28.1709C31.476 29.0038 30.0514 29.764 29.3663 29.8664C28.752 29.9582 27.9745 29.9965 27.1203 29.7251C26.6024 29.5608 25.9383 29.3414 25.0875 28.9739C21.7446 27.5305 19.4854 24.2904 19.0584 23.6781C19.0285 23.6352 19.0076 23.6052 18.9959 23.5896L18.9931 23.5858C18.8044 23.334 17.5399 21.6469 17.5399 19.9008C17.5399 18.2583 18.3467 17.3974 18.7181 17.0011C18.7436 16.9739 18.767 16.9489 18.7879 16.9261C19.1148 16.5691 19.5011 16.4798 19.7388 16.4798C19.9765 16.4798 20.2145 16.482 20.4223 16.4924C20.4479 16.4937 20.4746 16.4936 20.5021 16.4934C20.7099 16.4922 20.969 16.4907 21.2246 17.1046C21.3229 17.3408 21.4668 17.6911 21.6185 18.0605C21.9253 18.8075 22.2643 19.6328 22.324 19.7523C22.4132 19.9308 22.4726 20.1389 22.3537 20.377C22.3359 20.4127 22.3194 20.4464 22.3036 20.4786C22.2143 20.6608 22.1487 20.7949 21.9971 20.9718C21.9376 21.0414 21.876 21.1164 21.8144 21.1914C21.6917 21.3408 21.5691 21.4902 21.4622 21.5966C21.2837 21.7744 21.0979 21.9673 21.3059 22.3243C21.5139 22.6813 22.2296 23.849 23.2896 24.7945C24.4292 25.8109 25.4196 26.2405 25.9216 26.4583C26.0196 26.5008 26.099 26.5353 26.1573 26.5644C26.5137 26.743 26.7217 26.7131 26.9298 26.4752C27.1378 26.2372 27.8212 25.4339 28.0588 25.077C28.2965 24.7201 28.5343 24.7796 28.8611 24.8985C29.1881 25.0176 30.9412 25.8802 31.2978 26.0586C31.3674 26.0935 31.4325 26.125 31.4928 26.1541Z" fill="#FDFDFD"/>
</svg>
