<svg width="64" height="64" viewBox="0 0 64 64" fill="none" xmlns="http://www.w3.org/2000/svg">
<g filter="url(#filter0_i_3616_1145)">
<path d="M10 28C10 15.8497 19.8497 6 32 6C44.1503 6 54 15.8497 54 28C54 40.1503 44.1503 50 32 50C19.8497 50 10 40.1503 10 28Z" fill="white"/>
<path d="M34.5 23L29.5 28L34.5 33" stroke="#2E2E2E" stroke-width="2" stroke-linecap="square"/>
<path d="M32 49C20.402 49 11 39.598 11 28H9C9 40.7025 19.2975 51 32 51V49ZM53 28C53 39.598 43.598 49 32 49V51C44.7025 51 55 40.7025 55 28H53ZM32 7C43.598 7 53 16.402 53 28H55C55 15.2975 44.7025 5 32 5V7ZM32 5C19.2975 5 9 15.2975 9 28H11C11 16.402 20.402 7 32 7V5Z" fill="#2E2E2E" fill-opacity="0.1"/>
</g>
<defs>
<filter id="filter0_i_3616_1145" x="9" y="5" width="46" height="50" filterUnits="userSpaceOnUse" color-interpolation-filters="sRGB">
<feFlood flood-opacity="0" result="BackgroundImageFix"/>
<feBlend mode="normal" in="SourceGraphic" in2="BackgroundImageFix" result="shape"/>
<feColorMatrix in="SourceAlpha" type="matrix" values="0 0 0 0 0 0 0 0 0 0 0 0 0 0 0 0 0 0 127 0" result="hardAlpha"/>
<feOffset dy="4"/>
<feGaussianBlur stdDeviation="5"/>
<feComposite in2="hardAlpha" operator="arithmetic" k2="-1" k3="1"/>
<feColorMatrix type="matrix" values="0 0 0 0 0 0 0 0 0 0 0 0 0 0 0 0 0 0 0.04 0"/>
<feBlend mode="normal" in2="shape" result="effect1_innerShadow_3616_1145"/>
</filter>
</defs>
</svg>
